<?xml version="1.0" encoding="UTF-8" standalone="no"?><!DOCTYPE svg PUBLIC "-//W3C//DTD SVG 1.1//EN" "http://www.w3.org/Graphics/SVG/1.1/DTD/svg11.dtd"><svg width="100%" height="100%" viewBox="0 0 185 42" version="1.1" xmlns="http://www.w3.org/2000/svg" xmlns:xlink="http://www.w3.org/1999/xlink" xml:space="preserve" xmlns:serif="http://www.serif.com/" style="fill-rule:evenodd;clip-rule:evenodd;"><g><g><path id="text833" d="M14.088,4.983c0.6,0 1.103,0.264 1.511,0.792c0.408,0.528 0.936,1.619 1.583,3.274c1.511,3.91 2.987,10.039 4.426,18.387c0.024,0.096 0.036,0.24 0.036,0.432c0,0.168 -0.12,0.36 -0.36,0.576c-0.216,0.192 -0.54,0.288 -0.972,0.288c-0.408,0 -0.756,-0.096 -1.044,-0.288c-0.288,-0.216 -0.48,-0.552 -0.576,-1.008c-0.096,-0.48 -0.276,-1.403 -0.54,-2.771c-0.576,-3.047 -0.96,-4.63 -1.151,-4.75c-0.288,-0.168 -1.247,-0.348 -2.879,-0.54c-1.607,-0.192 -2.675,-0.288 -3.203,-0.288c-0.528,0 -0.84,0.048 -0.936,0.144c-0.432,0.384 -1.02,3.298 -1.763,8.744c-0.096,0.456 -0.552,0.684 -1.367,0.684c-0.816,0 -1.223,-0.348 -1.223,-1.044c0,-1.727 0.636,-5.026 1.907,-9.895c1.271,-4.87 2.327,-8.096 3.167,-9.68c1.056,-2.039 2.183,-3.059 3.382,-3.059l0,-0Zm-0.144,3.994c-0.36,0 -0.984,1.068 -1.871,3.203c-0.888,2.111 -1.331,3.418 -1.331,3.922c0,0.12 0.024,0.204 0.072,0.252c0.192,0.192 0.948,0.36 2.267,0.504c1.319,0.144 2.195,0.216 2.627,0.216c0.432,0 0.672,-0.024 0.72,-0.072c0.048,-0.072 0.072,-0.264 0.072,-0.576c0,-0.336 -0.324,-1.655 -0.972,-3.958c-0.648,-2.327 -1.175,-3.49 -1.583,-3.49l-0,0Z" style="fill-rule:nonzero;"/><path id="path1883" d="M5.59,25.808l-1.027,1.451l-0.544,-1.692c0.333,0.453 1.118,0.574 1.572,0.241Z" style="fill:#f00;fill-opacity:0.66;fill-rule:nonzero;"/><path d="M13.502,4.178c-4.079,-0.421 -7.645,15.136 -8.746,21.823" style="fill:none;fill-rule:nonzero;stroke:#f00;stroke-opacity:0.66;stroke-width:0.27px;"/><path id="path2647" d="M23.267,25.769l-0.512,1.7l-1.053,-1.429c0.459,0.323 1.241,0.188 1.564,-0.27Z" style="fill:#f00;fill-opacity:0.66;fill-rule:nonzero;"/><path d="M15.09,4.178c3.227,-0.192 6.344,15.768 7.449,22.04" style="fill:none;fill-rule:nonzero;stroke:#f00;stroke-opacity:0.66;stroke-width:0.26px;"/><path id="path2831" d="M14.928,19.868l1.415,1.072l-1.706,0.489c0.463,-0.317 0.609,-1.098 0.291,-1.561Z" style="fill:#f00;fill-opacity:0.66;fill-rule:nonzero;"/><path d="M10.598,20.331c0.831,-0.002 3.014,0.171 4.496,0.376" style="fill:none;fill-rule:nonzero;stroke:#f00;stroke-opacity:0.66;stroke-width:0.26px;"/><path id="text1155" d="M6.036,13.861l-0.243,0l0,-1.408c0,-0.081 0.001,-0.146 0.003,-0.195c0.002,-0.049 0.005,-0.1 0.009,-0.152c-0.03,0.03 -0.057,0.055 -0.082,0.076c-0.024,0.021 -0.056,0.047 -0.093,0.079l-0.214,0.175l-0.13,-0.167l0.545,-0.423l0.206,0l-0,2.015Z" style="fill:#f00;fill-rule:nonzero;"/><path id="text1159" d="M22.335,13.833l-1.332,0l0,-0.206l0.528,-0.533c0.102,-0.102 0.187,-0.192 0.257,-0.271c0.07,-0.079 0.122,-0.156 0.158,-0.231c0.036,-0.077 0.054,-0.161 0.054,-0.251c0,-0.111 -0.033,-0.195 -0.099,-0.251c-0.066,-0.058 -0.151,-0.087 -0.257,-0.087c-0.098,0 -0.184,0.017 -0.26,0.051c-0.073,0.034 -0.149,0.081 -0.226,0.141l-0.133,-0.167c0.079,-0.066 0.169,-0.121 0.271,-0.167c0.103,-0.047 0.219,-0.071 0.347,-0.071c0.188,0 0.337,0.048 0.446,0.144c0.109,0.094 0.164,0.225 0.164,0.392c0,0.105 -0.022,0.204 -0.065,0.296c-0.043,0.092 -0.103,0.183 -0.181,0.274c-0.077,0.088 -0.167,0.183 -0.271,0.285l-0.421,0.415l0,0.011l1.019,0l0,0.226Z" style="fill:#f00;fill-rule:nonzero;"/><path id="text1163" d="M14.108,21.956c0,0.135 -0.038,0.244 -0.113,0.325c-0.075,0.079 -0.177,0.132 -0.305,0.158l0,0.011c0.162,0.019 0.282,0.07 0.361,0.152c0.079,0.083 0.119,0.191 0.119,0.325c0,0.117 -0.027,0.221 -0.082,0.313c-0.055,0.09 -0.139,0.161 -0.254,0.212c-0.113,0.051 -0.259,0.076 -0.437,0.076c-0.105,0 -0.203,-0.008 -0.294,-0.025c-0.09,-0.015 -0.177,-0.043 -0.26,-0.085l0,-0.231c0.085,0.041 0.176,0.074 0.274,0.099c0.098,0.023 0.192,0.034 0.282,0.034c0.181,0 0.31,-0.035 0.389,-0.104c0.081,-0.071 0.121,-0.169 0.121,-0.294c0,-0.126 -0.05,-0.216 -0.15,-0.271c-0.098,-0.056 -0.236,-0.085 -0.415,-0.085l-0.195,0l0,-0.212l0.198,0c0.166,0 0.291,-0.035 0.375,-0.104c0.087,-0.07 0.13,-0.162 0.13,-0.277c0,-0.098 -0.033,-0.173 -0.099,-0.226c-0.066,-0.055 -0.155,-0.082 -0.268,-0.082c-0.109,0 -0.202,0.016 -0.279,0.048c-0.077,0.032 -0.153,0.072 -0.229,0.121l-0.124,-0.169c0.071,-0.056 0.16,-0.105 0.265,-0.147c0.107,-0.041 0.229,-0.062 0.364,-0.062c0.211,0 0.367,0.047 0.468,0.141c0.103,0.094 0.155,0.214 0.155,0.358l-0,0Z" style="fill:#f00;fill-rule:nonzero;"/></g><path id="path1018-7-4" d="M2.5,13.005l180,0" style="fill:none;fill-rule:nonzero;stroke:#000;stroke-opacity:0.3;stroke-width:0.25px;stroke-dasharray:0.5,0.5;"/><rect id="path4601-3" x="2.5" y="4.006" width="180" height="23.997" style="fill:none;fill-rule:nonzero;stroke:#000;stroke-opacity:0.66;stroke-width:0.25px;stroke-linecap:round;stroke-linejoin:round;"/><path id="path984-2-0-0" d="M37.75,26.873c0.802,-6.668 4.189,-21.269 7.509,-21.721c2.828,-0.385 5.369,17.446 6.538,21.889" style="fill:none;fill-rule:nonzero;stroke:#010000;stroke-opacity:0.32;stroke-width:0.5px;stroke-linecap:round;stroke-linejoin:round;stroke-dasharray:1,1;"/><path id="path986-7-6-9" d="M39.738,16.652c3.087,0.093 7.231,0.606 10.155,1.086" style="fill:none;fill-rule:nonzero;stroke:#010000;stroke-opacity:0.32;stroke-width:0.5px;stroke-linecap:round;stroke-linejoin:round;stroke-dasharray:1,1;"/><path id="path984-2-0-2-7" d="M68.75,26.873c0.802,-6.668 4.189,-21.269 7.509,-21.721c2.828,-0.385 5.369,17.446 6.538,21.889" style="fill:none;fill-rule:nonzero;stroke:#010000;stroke-opacity:0.17;stroke-width:0.5px;stroke-linecap:round;stroke-linejoin:round;stroke-dasharray:1,1;"/><path id="path986-7-6-72-7" d="M70.738,16.652c3.087,0.093 7.231,0.606 10.155,1.086" style="fill:none;fill-rule:nonzero;stroke:#010000;stroke-opacity:0.17;stroke-width:0.5px;stroke-linecap:round;stroke-linejoin:round;stroke-dasharray:1,1;"/><path id="path984-2-0-2-6-1" d="M99.75,26.873c0.802,-6.668 4.189,-21.269 7.509,-21.721c2.828,-0.385 5.369,17.446 6.538,21.889" style="fill:none;fill-rule:nonzero;stroke:#010000;stroke-opacity:0.08;stroke-width:0.5px;stroke-linecap:round;stroke-linejoin:round;stroke-dasharray:1,1;"/><path id="path986-7-6-72-1-5" d="M101.738,16.652c3.087,0.093 7.231,0.606 10.155,1.086" style="fill:none;fill-rule:nonzero;stroke:#010000;stroke-opacity:0.08;stroke-width:0.5px;stroke-linecap:round;stroke-linejoin:round;stroke-dasharray:1,1;"/><path id="path984-2-0-2-6-6-7" d="M130.75,26.873c0.802,-6.668 4.189,-21.269 7.509,-21.721c2.828,-0.385 5.369,17.446 6.538,21.889" style="fill:none;fill-rule:nonzero;stroke:#010000;stroke-opacity:0.04;stroke-width:0.5px;stroke-linecap:round;stroke-linejoin:round;stroke-dasharray:1,1;"/><path id="path986-7-6-72-1-1-7" d="M132.738,16.652c3.087,0.093 7.231,0.606 10.155,1.086" style="fill:none;fill-rule:nonzero;stroke:#010000;stroke-opacity:0.04;stroke-width:0.5px;stroke-linecap:round;stroke-linejoin:round;stroke-dasharray:1,1;"/><path id="path984-2-0-2-6-6-9-7" d="M161.75,26.873c0.802,-6.668 4.189,-21.269 7.509,-21.721c2.828,-0.385 5.369,17.446 6.538,21.889" style="fill:none;fill-rule:nonzero;stroke:#010000;stroke-opacity:0.04;stroke-width:0.5px;stroke-linecap:round;stroke-linejoin:round;stroke-dasharray:1,1;"/><path id="path986-7-6-72-1-1-4-3" d="M163.738,16.652c3.087,0.093 7.231,0.606 10.155,1.086" style="fill:none;fill-rule:nonzero;stroke:#010000;stroke-opacity:0.04;stroke-width:0.5px;stroke-linecap:round;stroke-linejoin:round;stroke-dasharray:1,1;"/></g></svg>