<?xml version="1.0" encoding="UTF-8" standalone="no"?><!DOCTYPE svg PUBLIC "-//W3C//DTD SVG 1.1//EN" "http://www.w3.org/Graphics/SVG/1.1/DTD/svg11.dtd"><svg width="100%" height="100%" viewBox="0 0 185 42" version="1.1" xmlns="http://www.w3.org/2000/svg" xmlns:xlink="http://www.w3.org/1999/xlink" xml:space="preserve" xmlns:serif="http://www.serif.com/" style="fill-rule:evenodd;clip-rule:evenodd;"><g><g><path id="text833" d="M10.669,28.76l-4.642,-0.108c-0.264,-1.008 -0.42,-5.541 -0.468,-13.602l0,-2.555c0,-2.039 0.192,-3.586 0.576,-4.642c0.384,-1.079 1.187,-1.943 2.411,-2.591c0.624,-0.312 1.487,-0.468 2.591,-0.468c1.127,0 1.991,0.072 2.591,0.216c1.607,0.336 2.699,0.96 3.274,1.871c0.6,0.912 0.9,2.135 0.9,3.67c0,2.135 -0.564,3.706 -1.691,4.714c0.576,0.072 1.151,0.36 1.727,0.864c0.576,0.504 1.044,1.02 1.403,1.547c0.624,0.96 0.936,2.267 0.936,3.922c0,2.591 -0.792,4.438 -2.375,5.541c-1.559,1.079 -3.97,1.619 -7.233,1.619Zm-2.231,-17.524l0.072,4.102c0.048,0 0.456,-0.048 1.223,-0.144c0.768,-0.12 1.415,-0.24 1.943,-0.36c2.423,-0.576 3.634,-1.955 3.634,-4.138c0,-1.079 -0.324,-1.871 -0.972,-2.375c-0.624,-0.504 -1.451,-0.756 -2.483,-0.756c-1.295,0 -2.171,0.228 -2.627,0.684c-0.192,0.192 -0.348,0.36 -0.468,0.504c-0.12,0.12 -0.204,0.324 -0.252,0.612c-0.048,0.288 -0.084,0.492 -0.108,0.612l0,0.684c0.024,0.336 0.036,0.528 0.036,0.576Zm8.096,7.664c-0.24,-0.264 -0.612,-0.504 -1.115,-0.72c-0.504,-0.216 -1.235,-0.324 -2.195,-0.324c-0.936,0 -2.543,0.156 -4.822,0.468c0,3.742 0.06,6.273 0.18,7.592c2.807,0 4.774,-0.18 5.901,-0.54c1.127,-0.384 1.883,-0.84 2.267,-1.367c0.408,-0.552 0.612,-1.127 0.612,-1.727c0,-0.624 -0.012,-1.056 -0.036,-1.295c0,-0.264 -0.072,-0.612 -0.216,-1.044c-0.12,-0.456 -0.312,-0.804 -0.576,-1.044l-0,0Z" style="fill-rule:nonzero;"/><path id="path1883" d="M5.655,25.813l-0.754,1.61l-0.835,-1.569c0.408,0.387 1.202,0.367 1.589,-0.041Z" style="fill:#f00;fill-opacity:0.66;fill-rule:nonzero;"/><path d="M5.389,5.092c-1.312,4.649 -0.711,14.61 -0.521,21.059" style="fill:none;fill-rule:nonzero;stroke:#f00;stroke-opacity:0.66;stroke-width:0.27px;"/><path id="path2647" d="M19.341,12.189l-1.188,1.318l-0.342,-1.742c0.277,0.488 1.042,0.7 1.53,0.423Z" style="fill:#f00;fill-opacity:0.66;fill-rule:nonzero;"/><path d="M6.625,4.081c8.396,-2.176 13.844,0.033 11.866,8.202" style="fill:none;fill-rule:nonzero;stroke:#f00;stroke-opacity:0.66;stroke-width:0.26px;"/><path id="path2831" d="M8.018,29.799l-1.531,-0.897l1.637,-0.687c-0.422,0.37 -0.475,1.162 -0.105,1.584Z" style="fill:#f00;fill-opacity:0.66;fill-rule:nonzero;"/><path d="M18.782,14.9c1.107,1.305 2.57,1.905 2.521,6.047c-0.055,4.616 -1.429,8.707 -13.548,8.039" style="fill:none;fill-rule:nonzero;stroke:#f00;stroke-opacity:0.66;stroke-width:0.26px;"/><path id="text1155" d="M3.869,8.947l-0.243,0l0,-1.408c0,-0.081 0.001,-0.146 0.003,-0.195c0.002,-0.049 0.005,-0.1 0.008,-0.152c-0.03,0.03 -0.057,0.056 -0.082,0.076c-0.024,0.021 -0.056,0.047 -0.093,0.079l-0.214,0.175l-0.13,-0.167l0.545,-0.423l0.206,0l-0,2.015Z" style="fill:#f00;fill-rule:nonzero;"/><path id="text1159" d="M20.609,5.812l-1.332,0l0,-0.206l0.528,-0.533c0.102,-0.102 0.187,-0.192 0.257,-0.271c0.07,-0.079 0.122,-0.156 0.158,-0.231c0.036,-0.077 0.054,-0.161 0.054,-0.251c0,-0.111 -0.033,-0.195 -0.099,-0.251c-0.066,-0.058 -0.151,-0.087 -0.257,-0.087c-0.098,0 -0.184,0.017 -0.26,0.051c-0.073,0.034 -0.149,0.081 -0.226,0.141l-0.133,-0.167c0.079,-0.066 0.169,-0.121 0.271,-0.167c0.103,-0.047 0.219,-0.071 0.347,-0.071c0.188,0 0.337,0.048 0.446,0.144c0.109,0.094 0.164,0.225 0.164,0.392c0,0.105 -0.022,0.204 -0.065,0.296c-0.043,0.092 -0.103,0.183 -0.181,0.274c-0.077,0.088 -0.167,0.183 -0.271,0.285l-0.421,0.415l0,0.011l1.019,0l0,0.226Z" style="fill:#f00;fill-rule:nonzero;"/><path id="text1163" d="M21.872,26.607c0,0.135 -0.038,0.244 -0.113,0.325c-0.075,0.079 -0.177,0.132 -0.305,0.158l0,0.011c0.162,0.019 0.282,0.07 0.361,0.152c0.079,0.083 0.119,0.191 0.119,0.325c0,0.117 -0.027,0.221 -0.082,0.313c-0.055,0.09 -0.139,0.161 -0.254,0.212c-0.113,0.051 -0.259,0.076 -0.437,0.076c-0.105,0 -0.203,-0.008 -0.294,-0.025c-0.09,-0.015 -0.177,-0.043 -0.26,-0.085l0,-0.231c0.085,0.041 0.176,0.074 0.274,0.099c0.098,0.023 0.192,0.034 0.282,0.034c0.181,0 0.31,-0.035 0.389,-0.104c0.081,-0.071 0.121,-0.169 0.121,-0.294c0,-0.126 -0.05,-0.216 -0.15,-0.271c-0.098,-0.056 -0.236,-0.085 -0.415,-0.085l-0.195,0l0,-0.212l0.198,0c0.166,0 0.291,-0.035 0.375,-0.104c0.087,-0.07 0.13,-0.162 0.13,-0.277c0,-0.098 -0.033,-0.173 -0.099,-0.226c-0.066,-0.055 -0.155,-0.082 -0.268,-0.082c-0.109,0 -0.202,0.016 -0.279,0.048c-0.077,0.032 -0.153,0.072 -0.229,0.121l-0.124,-0.169c0.071,-0.056 0.16,-0.105 0.265,-0.147c0.107,-0.041 0.229,-0.062 0.364,-0.062c0.211,0 0.367,0.047 0.468,0.141c0.103,0.094 0.155,0.214 0.155,0.358l-0,-0Z" style="fill:#f00;fill-rule:nonzero;"/></g><path id="path1018-7-4" d="M2.5,12.956l180,0" style="fill:none;fill-rule:nonzero;stroke:#000;stroke-opacity:0.3;stroke-width:0.25px;stroke-dasharray:0.5,0.5;"/><rect id="path4601-3" x="2.5" y="3.958" width="180" height="23.997" style="fill:none;fill-rule:nonzero;stroke:#000;stroke-opacity:0.66;stroke-width:0.25px;stroke-linecap:round;stroke-linejoin:round;"/><path id="path1809-0" d="M37.841,27.162l-0.091,-20.978c4.879,-2.527 10.276,-1.016 9.9,3.28c-0.55,6.278 -6.924,5.962 -9.884,6.466c3.228,-0.097 12.004,-2.518 12.009,4.96c0.005,6.853 -6.837,5.825 -11.933,6.272Z" style="fill:none;fill-rule:nonzero;stroke:#000;stroke-opacity:0.32;stroke-width:0.5px;stroke-linecap:round;stroke-linejoin:round;stroke-dasharray:1,1;"/><path id="path1809-8-3" d="M68.841,27.162l-0.091,-20.978c4.879,-2.527 10.276,-1.016 9.9,3.28c-0.55,6.278 -6.924,5.962 -9.884,6.466c3.228,-0.097 12.004,-2.518 12.009,4.96c0.005,6.853 -6.837,5.825 -11.933,6.272Z" style="fill:none;fill-rule:nonzero;stroke:#000;stroke-opacity:0.16;stroke-width:0.5px;stroke-linecap:round;stroke-linejoin:round;stroke-dasharray:1,1;"/><path id="path1809-8-4-0" d="M99.841,27.162l-0.091,-20.978c4.879,-2.527 10.276,-1.016 9.9,3.28c-0.55,6.278 -6.924,5.962 -9.884,6.466c3.228,-0.097 12.004,-2.518 12.009,4.96c0.005,6.853 -6.837,5.825 -11.933,6.272l0,0Z" style="fill:none;fill-rule:nonzero;stroke:#000;stroke-opacity:0.08;stroke-width:0.5px;stroke-linecap:round;stroke-linejoin:round;stroke-dasharray:1,1;"/><path id="path1809-8-4-8-4" d="M130.841,27.162l-0.091,-20.978c4.879,-2.527 10.276,-1.016 9.9,3.28c-0.55,6.278 -6.924,5.962 -9.884,6.466c3.228,-0.097 12.004,-2.518 12.009,4.96c0.005,6.853 -6.837,5.825 -11.933,6.272l0,0Z" style="fill:none;fill-rule:nonzero;stroke:#000;stroke-opacity:0.04;stroke-width:0.5px;stroke-linecap:round;stroke-linejoin:round;stroke-dasharray:1,1;"/><path id="path1809-8-4-8-1-4" d="M161.841,27.162l-0.091,-20.978c4.879,-2.527 10.276,-1.016 9.9,3.28c-0.55,6.278 -6.924,5.962 -9.884,6.466c3.228,-0.097 12.004,-2.518 12.009,4.96c0.005,6.853 -6.837,5.825 -11.933,6.272l0,0Z" style="fill:none;fill-rule:nonzero;stroke:#000;stroke-opacity:0.04;stroke-width:0.5px;stroke-linecap:round;stroke-linejoin:round;stroke-dasharray:1,1;"/></g></svg>