<?xml version="1.0" encoding="UTF-8" standalone="no"?><!DOCTYPE svg PUBLIC "-//W3C//DTD SVG 1.1//EN" "http://www.w3.org/Graphics/SVG/1.1/DTD/svg11.dtd"><svg width="100%" height="100%" viewBox="0 0 185 42" version="1.1" xmlns="http://www.w3.org/2000/svg" xmlns:xlink="http://www.w3.org/1999/xlink" xml:space="preserve" xmlns:serif="http://www.serif.com/" style="fill-rule:evenodd;clip-rule:evenodd;"><g><path id="path1018-7-4" d="M2.5,13.005l180,0" style="fill:none;fill-rule:nonzero;stroke:#000;stroke-opacity:0.3;stroke-width:0.25px;stroke-dasharray:0.5,0.5;"/><rect id="path4601-3" x="2.5" y="4.006" width="180" height="23.997" style="fill:none;fill-rule:nonzero;stroke:#000;stroke-opacity:0.66;stroke-width:0.25px;stroke-linecap:round;stroke-linejoin:round;"/><path id="path1809-5-92-9" d="M52.733,5.228c-3.597,0.253 -11.721,0.176 -15.233,-0.092m7.915,0.677c-0.425,5.364 -0.402,17.125 0.039,21.672" style="fill:none;fill-rule:nonzero;stroke:#000;stroke-opacity:0.32;stroke-width:0.5px;stroke-linecap:round;stroke-linejoin:round;stroke-dasharray:1,1;"/><path id="path1809-5-92-0-0" d="M83.733,5.228c-3.597,0.253 -11.721,0.176 -15.233,-0.092m7.915,0.677c-0.425,5.364 -0.402,17.125 0.039,21.672" style="fill:none;fill-rule:nonzero;stroke:#000;stroke-opacity:0.16;stroke-width:0.5px;stroke-linecap:round;stroke-linejoin:round;stroke-dasharray:1,1;"/><path id="path1809-5-92-0-8-8" d="M114.733,5.228c-3.597,0.253 -11.721,0.176 -15.233,-0.092m7.915,0.677c-0.425,5.364 -0.402,17.125 0.039,21.672" style="fill:none;fill-rule:nonzero;stroke:#000;stroke-opacity:0.08;stroke-width:0.5px;stroke-linecap:round;stroke-linejoin:round;stroke-dasharray:1,1;"/><path id="path1809-5-92-0-8-2-1" d="M145.733,5.228c-3.597,0.253 -11.721,0.176 -15.233,-0.092m7.915,0.677c-0.425,5.364 -0.402,17.125 0.039,21.672" style="fill:none;fill-rule:nonzero;stroke:#000;stroke-opacity:0.04;stroke-width:0.5px;stroke-linecap:round;stroke-linejoin:round;stroke-dasharray:1,1;"/><path id="path1809-5-92-0-8-2-6-2" d="M176.733,5.228c-3.597,0.253 -11.721,0.176 -15.233,-0.092m7.915,0.677c-0.425,5.364 -0.402,17.125 0.039,21.672" style="fill:none;fill-rule:nonzero;stroke:#000;stroke-opacity:0.04;stroke-width:0.5px;stroke-linecap:round;stroke-linejoin:round;stroke-dasharray:1,1;"/><g><path id="text833" d="M6.827,5.191l14.573,-0.216c0.696,0.216 1.044,0.564 1.044,1.044c0,1.199 -0.492,1.799 -1.475,1.799c-1.799,0 -3.706,0.048 -5.721,0.144c-0.12,2.063 -0.18,3.622 -0.18,4.678l0,1.979l0.144,12.63c0,0.744 -0.192,1.175 -0.576,1.295c-0.288,0.096 -0.648,0.144 -1.079,0.144c-0.696,0 -1.079,-0.396 -1.151,-1.187c-0.144,-1.847 -0.216,-5.29 -0.216,-10.327c0,-5.062 0.072,-8.108 0.216,-9.14c-0.504,0.024 -1.247,0.036 -2.231,0.036c-0.984,0 -2.207,-0.012 -3.67,-0.036c-0.384,0 -0.684,-0.12 -0.9,-0.36c-0.216,-0.24 -0.324,-0.528 -0.324,-0.864c0,-0.36 0.144,-0.708 0.432,-1.044c0.312,-0.336 0.684,-0.528 1.115,-0.576Z" style="fill-rule:nonzero;"/><path id="path1883" d="M11.837,25.614l-0.718,1.626l-0.87,-1.55c0.416,0.378 1.21,0.34 1.588,-0.076Z" style="fill:#f00;fill-opacity:0.66;fill-rule:nonzero;"/><path d="M10.99,8.294c-0.086,5.594 -0.16,12.279 0.068,17.675" style="fill:none;fill-rule:nonzero;stroke:#f00;stroke-opacity:0.66;stroke-width:0.27px;"/><path id="path2831" d="M19.716,2.529l1.623,0.718l-1.548,0.868c0.378,-0.415 0.34,-1.208 -0.075,-1.586Z" style="fill:#f00;fill-opacity:0.66;fill-rule:nonzero;"/><path d="M6.196,3.436c3.311,-0.014 9.503,0.044 13.874,-0.129" style="fill:none;fill-rule:nonzero;stroke:#f00;stroke-opacity:0.66;stroke-width:0.26px;"/><path id="text1155" d="M9.276,13.356l-0.243,0l0,-1.408c0,-0.081 0.001,-0.146 0.003,-0.195c0.002,-0.049 0.005,-0.1 0.009,-0.152c-0.03,0.03 -0.057,0.056 -0.082,0.076c-0.024,0.021 -0.056,0.047 -0.093,0.079l-0.214,0.175l-0.13,-0.167l0.545,-0.423l0.206,0l-0,2.015Z" style="fill:#f00;fill-rule:nonzero;"/><path id="text1159" d="M9.498,2.375l-1.332,0l0,-0.206l0.528,-0.533c0.102,-0.102 0.187,-0.192 0.257,-0.271c0.07,-0.079 0.122,-0.156 0.158,-0.231c0.036,-0.077 0.054,-0.161 0.054,-0.251c0,-0.111 -0.033,-0.195 -0.099,-0.251c-0.066,-0.058 -0.151,-0.087 -0.257,-0.087c-0.098,0 -0.184,0.017 -0.26,0.051c-0.073,0.034 -0.149,0.081 -0.226,0.141l-0.133,-0.167c0.079,-0.066 0.169,-0.121 0.271,-0.167c0.103,-0.047 0.219,-0.071 0.347,-0.071c0.188,0 0.337,0.048 0.446,0.144c0.109,0.094 0.164,0.225 0.164,0.392c0,0.105 -0.022,0.204 -0.065,0.296c-0.043,0.092 -0.103,0.183 -0.181,0.274c-0.077,0.088 -0.167,0.183 -0.271,0.285l-0.421,0.415l0,0.011l1.019,0l0,0.226Z" style="fill:#f00;fill-rule:nonzero;"/></g></g></svg>