<?xml version="1.0" encoding="UTF-8" standalone="no"?><!DOCTYPE svg PUBLIC "-//W3C//DTD SVG 1.1//EN" "http://www.w3.org/Graphics/SVG/1.1/DTD/svg11.dtd"><svg width="100%" height="100%" viewBox="0 0 185 42" version="1.1" xmlns="http://www.w3.org/2000/svg" xmlns:xlink="http://www.w3.org/1999/xlink" xml:space="preserve" xmlns:serif="http://www.serif.com/" style="fill-rule:evenodd;clip-rule:evenodd;"><g><path id="path1018-7-4" d="M2.5,13.005l180,0" style="fill:none;fill-rule:nonzero;stroke:#000;stroke-opacity:0.3;stroke-width:0.25px;stroke-dasharray:0.5,0.5;"/><rect id="path4601-3" x="2.5" y="4.006" width="180" height="23.997" style="fill:none;fill-rule:nonzero;stroke:#000;stroke-opacity:0.66;stroke-width:0.25px;stroke-linecap:round;stroke-linejoin:round;"/><path id="path1809-5-92-6-1" d="M40.557,14.135c0,0 3.855,0.427 8.795,0.27m1.557,11.975c-2.809,0.449 -9.78,0.597 -13.221,0.345c1.405,-4.52 7.511,-12.289 7.511,-12.289c0,0 5.341,-5.779 6.627,-8.546c-2.096,-0.544 -10.594,-1.003 -14.076,-0.774" style="fill:none;fill-rule:nonzero;stroke:#000;stroke-opacity:0.32;stroke-width:0.5px;stroke-linecap:round;stroke-linejoin:round;stroke-dasharray:1,1;"/><path id="path1809-5-92-6-6-8" d="M71.557,14.135c0,0 3.855,0.427 8.795,0.27m1.557,11.975c-2.809,0.449 -9.78,0.597 -13.221,0.345c1.405,-4.52 7.511,-12.289 7.511,-12.289c0,0 5.341,-5.779 6.627,-8.546c-2.096,-0.544 -10.594,-1.003 -14.076,-0.774" style="fill:none;fill-rule:nonzero;stroke:#000;stroke-opacity:0.16;stroke-width:0.5px;stroke-linecap:round;stroke-linejoin:round;stroke-dasharray:1,1;"/><path id="path1809-5-92-6-6-1-7" d="M102.557,14.135c0,0 3.855,0.427 8.795,0.27m1.557,11.975c-2.809,0.449 -9.78,0.597 -13.221,0.345c1.405,-4.52 7.511,-12.289 7.511,-12.289c0,0 5.341,-5.779 6.627,-8.546c-2.096,-0.544 -10.594,-1.003 -14.076,-0.774" style="fill:none;fill-rule:nonzero;stroke:#000;stroke-opacity:0.08;stroke-width:0.5px;stroke-linecap:round;stroke-linejoin:round;stroke-dasharray:1,1;"/><path id="path1809-5-92-6-6-1-5-1" d="M133.557,14.135c0,0 3.855,0.427 8.795,0.27m1.557,11.975c-2.809,0.449 -9.78,0.597 -13.221,0.345c1.405,-4.52 7.511,-12.289 7.511,-12.289c0,0 5.341,-5.779 6.627,-8.546c-2.096,-0.544 -10.594,-1.003 -14.076,-0.774" style="fill:none;fill-rule:nonzero;stroke:#000;stroke-opacity:0.04;stroke-width:0.5px;stroke-linecap:round;stroke-linejoin:round;stroke-dasharray:1,1;"/><path id="path1809-5-92-6-6-1-5-6-5" d="M164.476,15.411c0,0 3.855,0.427 8.795,0.27m1.557,11.975c-2.809,0.449 -9.78,0.597 -13.221,0.345c1.405,-4.52 7.511,-12.289 7.511,-12.289c0,0 5.341,-5.779 6.627,-8.546c-2.096,-0.544 -10.594,-1.003 -14.076,-0.774" style="fill:none;fill-rule:nonzero;stroke:#000;stroke-opacity:0.04;stroke-width:0.5px;stroke-linecap:round;stroke-linejoin:round;stroke-dasharray:1,1;"/><g><path id="text833" d="M12.242,28.526l-5.469,0.144l-0.396,0c-0.192,0 -0.372,-0.084 -0.54,-0.252c-0.168,-0.192 -0.252,-0.504 -0.252,-0.936c0.336,-1.847 0.816,-3.31 1.439,-4.39c0.624,-1.103 1.487,-2.291 2.591,-3.562c1.127,-1.271 1.847,-2.099 2.159,-2.483c-2.975,-0.504 -4.462,-1.223 -4.462,-2.159c0,-0.504 0.156,-0.912 0.468,-1.223c0.336,-0.336 0.612,-0.504 0.828,-0.504c0.216,0 0.912,0.168 2.087,0.504c1.199,0.312 2.327,0.516 3.382,0.612c0.072,-0.12 0.324,-0.456 0.756,-1.008c0.432,-0.552 0.828,-1.056 1.187,-1.511c0.888,-1.175 1.643,-2.339 2.267,-3.49c-2.855,-0.624 -6.765,-0.936 -11.731,-0.936c-0.816,0 -1.223,-0.372 -1.223,-1.115c0,-0.264 0.18,-0.564 0.54,-0.9c0.36,-0.36 0.792,-0.564 1.295,-0.612c0.528,-0.048 1.427,-0.072 2.699,-0.072c1.271,0 3.191,0.168 5.757,0.504c3.718,0.48 5.685,1.151 5.901,2.015c0.024,0.072 0.036,0.24 0.036,0.504c0,0.24 -0.204,0.744 -0.612,1.511c-0.552,1.079 -1.631,2.663 -3.238,4.75c-0.216,0.288 -0.384,0.504 -0.504,0.648l0.648,0c0.36,-0.024 0.6,-0.024 0.72,0c0.12,0 0.288,0.024 0.504,0.072c0.48,0.144 0.72,0.54 0.72,1.187c0,0.624 -0.324,1.056 -0.972,1.295c-0.624,0.216 -1.151,0.324 -1.583,0.324l-0.9,0l-1.295,-0.144c-1.559,1.751 -2.687,3.059 -3.382,3.922c-1.175,1.535 -2.015,3.059 -2.519,4.57l4.93,0.144c0.744,0 1.583,-0.036 2.519,-0.108l1.979,-0.18c0.192,-0.024 0.384,-0.036 0.576,-0.036c0.216,0 0.468,0.012 0.756,0.036c0.624,0.048 1.008,0.468 1.151,1.259c0.096,0.6 -0.204,1.02 -0.9,1.259c-0.768,0.264 -1.547,0.396 -2.339,0.396c-0.792,0.024 -1.391,0.036 -1.799,0.036l-2.987,-0.072l-0.792,0l-0,0Z" style="fill-rule:nonzero;"/><path id="path2831" d="M17.725,17.018l1.685,0.558l-1.458,1.013c0.336,-0.45 0.222,-1.235 -0.227,-1.571Z" style="fill:#f00;fill-opacity:0.66;fill-rule:nonzero;"/><path d="M6.801,15.917c2.896,1.599 7.329,2.293 11.352,1.841" style="fill:none;fill-rule:nonzero;stroke:#f00;stroke-opacity:0.66;stroke-width:0.26px;"/><path id="text1155" d="M9.663,10.692l-0.243,0l0,-1.408c0,-0.081 0.001,-0.146 0.003,-0.195c0.002,-0.049 0.005,-0.1 0.009,-0.152c-0.03,0.03 -0.057,0.056 -0.082,0.076c-0.024,0.021 -0.056,0.047 -0.093,0.079l-0.214,0.175l-0.13,-0.167l0.545,-0.423l0.206,0l-0,2.015Z" style="fill:#f00;fill-rule:nonzero;"/><path id="text1159" d="M17.792,20.829l-1.332,0l0,-0.206l0.528,-0.533c0.102,-0.102 0.187,-0.192 0.257,-0.271c0.07,-0.079 0.122,-0.156 0.158,-0.231c0.036,-0.077 0.054,-0.161 0.054,-0.251c0,-0.111 -0.033,-0.195 -0.099,-0.251c-0.066,-0.058 -0.151,-0.087 -0.257,-0.087c-0.098,0 -0.184,0.017 -0.26,0.051c-0.073,0.034 -0.149,0.081 -0.226,0.141l-0.133,-0.167c0.079,-0.066 0.169,-0.121 0.271,-0.167c0.103,-0.047 0.219,-0.071 0.347,-0.071c0.188,0 0.337,0.048 0.446,0.144c0.109,0.094 0.164,0.225 0.164,0.392c0,0.105 -0.022,0.204 -0.065,0.296c-0.043,0.092 -0.103,0.183 -0.181,0.274c-0.077,0.088 -0.167,0.183 -0.271,0.285l-0.421,0.415l0,0.011l1.019,0l0,0.226Z" style="fill:#f00;fill-rule:nonzero;"/><path id="path2831-8" d="M18.755,28.085l1.613,0.74l-1.56,0.846c0.383,-0.41 0.357,-1.203 -0.053,-1.587Z" style="fill:#f00;fill-opacity:0.66;fill-rule:nonzero;"/><path d="M5.999,7.908c1.694,-0.496 9.616,0.281 10.737,0.565c-1.338,1.679 -2.887,3.989 -5.113,6.385c-2.277,2.45 -7.802,8.731 -7.166,14.224c2.843,-0.241 10.64,-0.126 14.643,-0.215" style="fill:none;fill-rule:nonzero;stroke:#f00;stroke-opacity:0.66;stroke-width:0.26px;"/></g></g></svg>