<?xml version="1.0" encoding="UTF-8" standalone="no"?><!DOCTYPE svg PUBLIC "-//W3C//DTD SVG 1.1//EN" "http://www.w3.org/Graphics/SVG/1.1/DTD/svg11.dtd"><svg width="100%" height="100%" viewBox="0 0 185 42" version="1.1" xmlns="http://www.w3.org/2000/svg" xmlns:xlink="http://www.w3.org/1999/xlink" xml:space="preserve" xmlns:serif="http://www.serif.com/" style="fill-rule:evenodd;clip-rule:evenodd;"><g><path id="path1018-7-4" d="M2.5,12.956l180,0" style="fill:none;fill-rule:nonzero;stroke:#000;stroke-opacity:0.3;stroke-width:0.25px;stroke-dasharray:0.5,0.5;"/><rect id="path4601-3" x="2.5" y="3.958" width="180" height="23.997" style="fill:none;fill-rule:nonzero;stroke:#000;stroke-opacity:0.66;stroke-width:0.25px;stroke-linecap:round;stroke-linejoin:round;"/><path id="path1809-5-92-6-6" d="M55.215,4.918c-3.024,5.266 -14.193,19.036 -17.465,22.232m15.534,0.141c-2.977,-3.513 -12.295,-18.339 -14.602,-22.484" style="fill:none;fill-rule:nonzero;stroke:#000;stroke-opacity:0.32;stroke-width:0.5px;stroke-linecap:round;stroke-linejoin:round;stroke-dasharray:1,1;"/><path id="path1809-5-92-6-9-9" d="M86.215,4.918c-3.024,5.266 -14.193,19.036 -17.465,22.232m15.534,0.141c-2.977,-3.513 -12.295,-18.339 -14.602,-22.484" style="fill:none;fill-rule:nonzero;stroke:#000;stroke-opacity:0.16;stroke-width:0.5px;stroke-linecap:round;stroke-linejoin:round;stroke-dasharray:1,1;"/><path id="path1809-5-92-6-9-0-0" d="M117.215,4.918c-3.024,5.266 -14.193,19.036 -17.465,22.232m15.534,0.141c-2.977,-3.513 -12.295,-18.339 -14.602,-22.484" style="fill:none;fill-rule:nonzero;stroke:#000;stroke-opacity:0.08;stroke-width:0.5px;stroke-linecap:round;stroke-linejoin:round;stroke-dasharray:1,1;"/><path id="path1809-5-92-6-9-0-8-8" d="M148.215,4.918c-3.024,5.266 -14.193,19.036 -17.465,22.232m15.534,0.141c-2.977,-3.513 -12.295,-18.339 -14.602,-22.484" style="fill:none;fill-rule:nonzero;stroke:#000;stroke-opacity:0.04;stroke-width:0.5px;stroke-linecap:round;stroke-linejoin:round;stroke-dasharray:1,1;"/><path id="path1809-5-92-6-9-0-8-2-1" d="M179.215,4.918c-3.024,5.266 -14.193,19.036 -17.465,22.232m15.534,0.141c-2.977,-3.513 -12.295,-18.339 -14.602,-22.484" style="fill:none;fill-rule:nonzero;stroke:#000;stroke-opacity:0.04;stroke-width:0.5px;stroke-linecap:round;stroke-linejoin:round;stroke-dasharray:1,1;"/><g><path id="text833" d="M6.431,28.866c-0.816,0 -1.223,-0.348 -1.223,-1.044c0,-0.384 0.096,-0.768 0.288,-1.151c0.192,-0.216 1.103,-1.223 2.735,-3.023c1.655,-1.823 3.179,-3.598 4.57,-5.326c-3.262,-5.086 -5.338,-8.408 -6.225,-9.967c-0.12,-0.288 -0.18,-0.6 -0.18,-0.936c0,-0.36 0.168,-0.72 0.504,-1.079c0.36,-0.36 0.756,-0.54 1.187,-0.54c0.456,0 0.816,0.204 1.079,0.612c2.399,3.934 4.33,7.041 5.793,9.32c2.495,-2.927 4.858,-6.189 7.089,-9.787c0.408,-0.72 0.984,-1.079 1.727,-1.079c0.288,0 0.528,0.096 0.72,0.288c0.216,0.168 0.324,0.384 0.324,0.648c0,0.264 -0.072,0.6 -0.216,1.008c-1.799,2.999 -4.486,6.753 -8.06,11.263c2.063,3.31 3.97,5.985 5.721,8.024c0.192,0.384 0.288,0.744 0.288,1.079c0,0.336 -0.18,0.684 -0.54,1.044c-0.336,0.36 -0.72,0.54 -1.151,0.54c-0.432,0 -0.804,-0.12 -1.115,-0.36c-1.079,-1.367 -2.879,-3.958 -5.397,-7.772c-1.607,1.895 -3.898,4.498 -6.873,7.808c-0.384,0.288 -0.732,0.432 -1.044,0.432Z" style="fill-rule:nonzero;"/><path id="path2831" d="M5.468,25.965l-1.642,0.674l0.446,-1.718c0.038,0.56 0.636,1.082 1.196,1.044Z" style="fill:#f00;fill-opacity:0.66;fill-rule:nonzero;"/><path d="M21.026,4.839c-1.621,3.482 -11.921,15.725 -16.364,20.843" style="fill:none;fill-rule:nonzero;stroke:#f00;stroke-opacity:0.66;stroke-width:0.26px;"/><path id="text1155" d="M5.093,12.232l-0.243,0l0,-1.408c0,-0.081 0.001,-0.146 0.003,-0.195c0.002,-0.049 0.005,-0.1 0.009,-0.152c-0.03,0.03 -0.057,0.056 -0.082,0.076c-0.024,0.021 -0.056,0.047 -0.093,0.079l-0.214,0.175l-0.13,-0.167l0.545,-0.423l0.206,0l-0,2.015Z" style="fill:#f00;fill-rule:nonzero;"/><path id="text1159" d="M18.6,7.065l-1.332,0l0,-0.206l0.528,-0.533c0.102,-0.102 0.187,-0.192 0.257,-0.271c0.07,-0.079 0.122,-0.156 0.158,-0.231c0.036,-0.077 0.054,-0.161 0.054,-0.251c0,-0.111 -0.033,-0.195 -0.099,-0.251c-0.066,-0.058 -0.151,-0.087 -0.257,-0.087c-0.098,0 -0.184,0.017 -0.26,0.051c-0.073,0.034 -0.149,0.081 -0.226,0.141l-0.133,-0.167c0.079,-0.066 0.169,-0.121 0.271,-0.167c0.103,-0.047 0.219,-0.071 0.347,-0.071c0.188,0 0.337,0.048 0.446,0.144c0.109,0.094 0.164,0.225 0.164,0.392c0,0.105 -0.022,0.204 -0.065,0.296c-0.043,0.092 -0.103,0.183 -0.181,0.274c-0.077,0.088 -0.167,0.183 -0.271,0.285l-0.421,0.415l0,0.011l1.019,0l-0,0.226Z" style="fill:#f00;fill-rule:nonzero;"/><path id="path2831-8" d="M18.079,26.163l0.285,1.752l-1.572,-0.823c0.554,0.09 1.198,-0.375 1.287,-0.929Z" style="fill:#f00;fill-opacity:0.66;fill-rule:nonzero;"/><path d="M4.931,6.94c1.403,2.82 9.539,15.456 12.69,19.945" style="fill:none;fill-rule:nonzero;stroke:#f00;stroke-opacity:0.66;stroke-width:0.26px;"/></g></g></svg>