<?xml version="1.0" encoding="UTF-8" standalone="no"?><!DOCTYPE svg PUBLIC "-//W3C//DTD SVG 1.1//EN" "http://www.w3.org/Graphics/SVG/1.1/DTD/svg11.dtd"><svg width="100%" height="100%" viewBox="0 0 185 42" version="1.1" xmlns="http://www.w3.org/2000/svg" xmlns:xlink="http://www.w3.org/1999/xlink" xml:space="preserve" xmlns:serif="http://www.serif.com/" style="fill-rule:evenodd;clip-rule:evenodd;"><g><path id="path1018-7-4" d="M2.5,13.005l180,0" style="fill:none;fill-rule:nonzero;stroke:#000;stroke-opacity:0.3;stroke-width:0.25px;stroke-dasharray:0.5,0.5;"/><rect id="path4601-3" x="2.5" y="4.006" width="180" height="23.997" style="fill:none;fill-rule:nonzero;stroke:#000;stroke-opacity:0.66;stroke-width:0.25px;stroke-linecap:round;stroke-linejoin:round;"/><path id="path1809-5-92-3" d="M37.895,5.555c0.163,6.793 0.512,15.175 -0.174,21.293" style="fill:none;fill-rule:nonzero;stroke:#000;stroke-opacity:0.32;stroke-width:0.5px;stroke-linecap:round;stroke-linejoin:round;stroke-dasharray:1,1;"/><path id="path1809-5-92-8-4" d="M68.895,5.555c0.163,6.793 0.512,15.175 -0.174,21.293" style="fill:none;fill-rule:nonzero;stroke:#000;stroke-opacity:0.16;stroke-width:0.5px;stroke-linecap:round;stroke-linejoin:round;stroke-dasharray:1,1;"/><path id="path1809-5-92-8-6-6" d="M99.895,5.555c0.163,6.793 0.512,15.175 -0.174,21.293" style="fill:none;fill-rule:nonzero;stroke:#000;stroke-opacity:0.08;stroke-width:0.5px;stroke-linecap:round;stroke-linejoin:round;stroke-dasharray:1,1;"/><path id="path1809-5-92-8-6-3-0" d="M130.894,5.555c0.163,6.793 0.512,15.175 -0.174,21.293" style="fill:none;fill-rule:nonzero;stroke:#000;stroke-opacity:0.04;stroke-width:0.5px;stroke-linecap:round;stroke-linejoin:round;stroke-dasharray:1,1;"/><path id="path1809-5-92-8-6-3-3-8" d="M161.894,5.555c0.163,6.793 0.512,15.175 -0.174,21.293" style="fill:none;fill-rule:nonzero;stroke:#000;stroke-opacity:0.04;stroke-width:0.5px;stroke-linecap:round;stroke-linejoin:round;stroke-dasharray:1,1;"/><g><path id="text833" d="M8.841,5.722c0.384,-0.24 0.816,-0.36 1.295,-0.36c0.48,0 0.78,0.276 0.9,0.828c0.024,2.783 0.072,6.945 0.144,12.486c0,3.382 -0.096,6.249 -0.288,8.6c-0.048,0.36 -0.276,0.684 -0.684,0.972c-0.384,0.264 -0.78,0.396 -1.187,0.396c-0.672,0 -1.008,-0.348 -1.008,-1.044c0.24,-2.399 0.36,-5.374 0.36,-8.924l-0.216,-12.09c0.096,-0.336 0.324,-0.624 0.684,-0.864Z" style="fill-rule:nonzero;"/><path id="path1883" d="M7.574,25.398l-0.89,1.539l-0.697,-1.635c0.373,0.421 1.166,0.469 1.587,0.097Z" style="fill:#f00;fill-opacity:0.66;fill-rule:nonzero;"/><path d="M6.619,5.788c0.2,6.356 0.432,14.253 0.142,19.878" style="fill:none;fill-rule:nonzero;stroke:#f00;stroke-opacity:0.66;stroke-width:0.27px;"/><path id="text1155" d="M5.307,10.869l-0.243,0l0,-1.408c0,-0.081 0.001,-0.146 0.003,-0.195c0.002,-0.049 0.005,-0.1 0.009,-0.152c-0.03,0.03 -0.057,0.056 -0.082,0.076c-0.024,0.021 -0.056,0.047 -0.093,0.079l-0.214,0.175l-0.13,-0.167l0.545,-0.423l0.206,0l-0,2.015Z" style="fill:#f00;fill-rule:nonzero;"/></g></g></svg>