<?xml version="1.0" encoding="UTF-8" standalone="no"?><!DOCTYPE svg PUBLIC "-//W3C//DTD SVG 1.1//EN" "http://www.w3.org/Graphics/SVG/1.1/DTD/svg11.dtd"><svg width="100%" height="100%" viewBox="0 0 185 42" version="1.1" xmlns="http://www.w3.org/2000/svg" xmlns:xlink="http://www.w3.org/1999/xlink" xml:space="preserve" xmlns:serif="http://www.serif.com/" style="fill-rule:evenodd;clip-rule:evenodd;"><g><path id="path1018-7-4" d="M2.5,13.005l180,0" style="fill:none;fill-rule:nonzero;stroke:#000;stroke-opacity:0.3;stroke-width:0.25px;stroke-dasharray:0.5,0.5;"/><rect id="path4601-3" x="2.5" y="4.006" width="180" height="23.997" style="fill:none;fill-rule:nonzero;stroke:#000;stroke-opacity:0.66;stroke-width:0.25px;stroke-linecap:round;stroke-linejoin:round;"/><path id="path1809-5-92-1-9" d="M37.75,27.024c0.499,-4.247 0.772,-17.534 0.406,-21.583c4.191,4.016 9.407,16.61 13.31,21.344c-0.553,-5.979 -0.687,-15.841 -0.436,-21.73" style="fill:none;fill-rule:nonzero;stroke:#000;stroke-opacity:0.32;stroke-width:0.5px;stroke-linecap:round;stroke-linejoin:round;stroke-dasharray:1,1;"/><path id="path1809-5-92-1-7-1" d="M68.75,27.024c0.499,-4.247 0.772,-17.534 0.406,-21.583c4.191,4.016 9.407,16.61 13.31,21.344c-0.553,-5.979 -0.687,-15.841 -0.436,-21.73" style="fill:none;fill-rule:nonzero;stroke:#000;stroke-opacity:0.16;stroke-width:0.5px;stroke-linecap:round;stroke-linejoin:round;stroke-dasharray:1,1;"/><path id="path1809-5-92-1-7-9-70" d="M99.75,27.024c0.499,-4.247 0.772,-17.534 0.406,-21.583c4.191,4.016 9.407,16.61 13.31,21.344c-0.553,-5.979 -0.687,-15.841 -0.436,-21.73" style="fill:none;fill-rule:nonzero;stroke:#000;stroke-opacity:0.08;stroke-width:0.5px;stroke-linecap:round;stroke-linejoin:round;stroke-dasharray:1,1;"/><path id="path1809-5-92-1-7-9-7-6" d="M130.75,27.024c0.499,-4.247 0.772,-17.534 0.406,-21.583c4.191,4.016 9.407,16.61 13.31,21.344c-0.553,-5.979 -0.687,-15.841 -0.436,-21.73" style="fill:none;fill-rule:nonzero;stroke:#000;stroke-opacity:0.04;stroke-width:0.5px;stroke-linecap:round;stroke-linejoin:round;stroke-dasharray:1,1;"/><path id="path1809-5-92-1-7-9-7-4-0" d="M161.75,27.024c0.499,-4.247 0.772,-17.534 0.406,-21.583c4.191,4.016 9.407,16.61 13.31,21.344c-0.553,-5.979 -0.687,-15.841 -0.436,-21.73" style="fill:none;fill-rule:nonzero;stroke:#000;stroke-opacity:0.04;stroke-width:0.5px;stroke-linecap:round;stroke-linejoin:round;stroke-dasharray:1,1;"/><g><path id="text833" d="M20.594,4.934c0.24,-0.144 0.552,-0.216 0.936,-0.216c0.384,0 0.732,0.168 1.044,0.504c0.312,0.312 0.468,0.684 0.468,1.115c0,9.38 0.036,15.053 0.108,17.02c0.096,1.943 0.144,2.939 0.144,2.987c0,0.528 -0.144,1.032 -0.432,1.511c-0.288,0.456 -0.612,0.684 -0.972,0.684c-0.336,0 -0.6,-0.012 -0.792,-0.036c-0.168,-0.048 -0.324,-0.096 -0.468,-0.144c-0.144,-0.048 -0.288,-0.144 -0.432,-0.288l-0.36,-0.36c-0.096,-0.096 -0.228,-0.276 -0.396,-0.54c-0.144,-0.288 -0.264,-0.516 -0.36,-0.684c-0.096,-0.168 -0.252,-0.456 -0.468,-0.864c-0.192,-0.432 -0.636,-1.295 -1.331,-2.591c-0.672,-1.295 -1.283,-2.459 -1.835,-3.49c-1.895,-3.478 -3.658,-6.225 -5.29,-8.24c0,7.796 -0.216,13.206 -0.648,16.228c-0.072,0.576 -0.516,0.864 -1.331,0.864c-0.384,0 -0.708,-0.096 -0.972,-0.288c-0.24,-0.192 -0.36,-0.504 -0.36,-0.936c0,-0.432 0.084,-2.807 0.252,-7.125c0.192,-4.318 0.288,-7.005 0.288,-8.06l0,-2.051c0,-1.727 0.132,-2.699 0.396,-2.915c0.264,-0.216 0.54,-0.324 0.828,-0.324c1.319,0 3.334,2.159 6.045,6.477c0.528,0.84 1.535,2.603 3.023,5.29c1.487,2.663 2.375,4.306 2.663,4.93l-0.432,-14.933c0,-2.063 0.228,-3.238 0.684,-3.526l0,-0Z" style="fill-rule:nonzero;"/><path id="path1883" d="M6.543,25.168l-0.834,1.57l-0.755,-1.609c0.388,0.407 1.182,0.427 1.59,0.039Z" style="fill:#f00;fill-opacity:0.66;fill-rule:nonzero;"/><path d="M6.2,6.833c0.118,5.705 -0.308,13.289 -0.46,18.633" style="fill:none;fill-rule:nonzero;stroke:#f00;stroke-opacity:0.66;stroke-width:0.27px;"/><path id="path2831" d="M19.502,17.888l-0.033,1.775l-1.4,-1.091c0.529,0.187 1.245,-0.154 1.433,-0.683Z" style="fill:#f00;fill-opacity:0.66;fill-rule:nonzero;"/><path d="M9.109,4.913c4.082,2.229 7.55,8.895 9.813,13.604" style="fill:none;fill-rule:nonzero;stroke:#f00;stroke-opacity:0.66;stroke-width:0.26px;"/><path id="text1155" d="M4.74,12.945l-0.243,0l0,-1.408c0,-0.081 0.001,-0.146 0.003,-0.195c0.002,-0.049 0.005,-0.1 0.009,-0.152c-0.03,0.03 -0.057,0.056 -0.082,0.076c-0.024,0.021 -0.056,0.047 -0.093,0.079l-0.214,0.175l-0.13,-0.167l0.545,-0.423l0.206,0l-0,2.015Z" style="fill:#f00;fill-rule:nonzero;"/><path id="text1159" d="M12.96,5.37l-1.332,0l0,-0.206l0.528,-0.533c0.102,-0.102 0.187,-0.192 0.257,-0.271c0.07,-0.079 0.122,-0.156 0.158,-0.231c0.036,-0.077 0.054,-0.161 0.054,-0.251c0,-0.111 -0.033,-0.195 -0.099,-0.251c-0.066,-0.058 -0.151,-0.087 -0.257,-0.087c-0.098,0 -0.184,0.017 -0.26,0.051c-0.073,0.034 -0.149,0.081 -0.226,0.141l-0.133,-0.167c0.079,-0.066 0.169,-0.121 0.271,-0.167c0.103,-0.047 0.219,-0.071 0.347,-0.071c0.188,0 0.337,0.048 0.446,0.144c0.109,0.094 0.164,0.225 0.164,0.392c0,0.105 -0.022,0.204 -0.065,0.296c-0.043,0.092 -0.103,0.183 -0.181,0.274c-0.077,0.088 -0.167,0.183 -0.271,0.285l-0.421,0.415l0,0.011l1.019,0l0,0.226Z" style="fill:#f00;fill-rule:nonzero;"/><path id="text1159-2" d="M26.244,8.746c0,0.135 -0.038,0.244 -0.113,0.325c-0.075,0.079 -0.177,0.132 -0.305,0.158l0,0.011c0.162,0.019 0.282,0.07 0.361,0.152c0.079,0.083 0.119,0.191 0.119,0.325c0,0.117 -0.027,0.221 -0.082,0.313c-0.055,0.09 -0.139,0.161 -0.254,0.212c-0.113,0.051 -0.259,0.076 -0.437,0.076c-0.105,0 -0.203,-0.008 -0.294,-0.025c-0.09,-0.015 -0.177,-0.043 -0.26,-0.085l0,-0.231c0.085,0.041 0.176,0.074 0.274,0.099c0.098,0.023 0.192,0.034 0.282,0.034c0.181,0 0.31,-0.035 0.389,-0.104c0.081,-0.071 0.121,-0.169 0.121,-0.294c0,-0.126 -0.05,-0.216 -0.15,-0.271c-0.098,-0.056 -0.236,-0.085 -0.415,-0.085l-0.195,0l0,-0.212l0.198,0c0.166,0 0.291,-0.035 0.375,-0.104c0.087,-0.07 0.13,-0.162 0.13,-0.277c0,-0.098 -0.033,-0.173 -0.099,-0.226c-0.066,-0.055 -0.155,-0.082 -0.268,-0.082c-0.109,0 -0.202,0.016 -0.279,0.048c-0.077,0.032 -0.153,0.072 -0.229,0.121l-0.124,-0.169c0.071,-0.056 0.16,-0.105 0.265,-0.147c0.107,-0.041 0.229,-0.062 0.364,-0.062c0.211,0 0.367,0.047 0.468,0.141c0.103,0.094 0.155,0.214 0.155,0.358l0,-0Z" style="fill:#f00;fill-rule:nonzero;"/><path id="path1883-2" d="M25.136,25.43l-0.738,1.617l-0.851,-1.561c0.411,0.383 1.206,0.355 1.589,-0.056Z" style="fill:#f00;fill-opacity:0.66;fill-rule:nonzero;"/><path d="M24.276,5.075c-0.23,5.104 -0.11,14.96 0.076,20.7" style="fill:none;fill-rule:nonzero;stroke:#f00;stroke-opacity:0.66;stroke-width:0.27px;"/></g></g></svg>