<?xml version="1.0" encoding="UTF-8" standalone="no"?><!DOCTYPE svg PUBLIC "-//W3C//DTD SVG 1.1//EN" "http://www.w3.org/Graphics/SVG/1.1/DTD/svg11.dtd"><svg width="100%" height="100%" viewBox="0 0 185 42" version="1.1" xmlns="http://www.w3.org/2000/svg" xmlns:xlink="http://www.w3.org/1999/xlink" xml:space="preserve" xmlns:serif="http://www.serif.com/" style="fill-rule:evenodd;clip-rule:evenodd;"><g><g><path id="text833" d="M16.042,5.017c1.607,0 3.382,0.312 5.326,0.936c0.432,0.336 0.648,0.708 0.648,1.115c0,0.384 -0.204,0.732 -0.612,1.044c-0.384,0.288 -0.828,0.432 -1.331,0.432c-1.295,-0.336 -2.507,-0.504 -3.634,-0.504c-2.591,0 -4.558,0.768 -5.901,2.303c-1.343,1.535 -2.015,3.814 -2.015,6.837c0,3.023 0.792,5.386 2.375,7.089c0.816,0.888 1.787,1.331 2.915,1.331c1.127,0 2.927,-0.6 5.397,-1.799c0.864,-0.408 1.439,-0.612 1.727,-0.612c0.624,0 0.936,0.324 0.936,0.972c0,0.648 -0.3,1.187 -0.9,1.619c-2.063,1.079 -3.67,1.811 -4.822,2.195c-1.151,0.36 -2.147,0.54 -2.987,0.54c-1.727,0 -3.203,-0.636 -4.426,-1.907c-2.183,-2.351 -3.274,-5.553 -3.274,-9.608c0,-4.078 1.032,-7.089 3.095,-9.032c2.087,-1.967 4.582,-2.951 7.485,-2.951Z" style="fill-rule:nonzero;"/><path id="path1883" d="M19.453,26.355l1.768,-0.184l-0.913,1.525c0.122,-0.549 -0.306,-1.219 -0.855,-1.341Z" style="fill:#f00;fill-opacity:0.66;fill-rule:nonzero;"/><path d="M21.388,4.168c-10.43,-2.784 -17.332,2.108 -16.963,12.322c0.449,12.458 7.805,15.096 15.724,10.365" style="fill:none;fill-rule:nonzero;stroke:#f00;stroke-opacity:0.66;stroke-width:0.27px;"/><path id="text1155" d="M5.584,6.88l-0.243,0l0,-1.408c0,-0.081 0.001,-0.146 0.003,-0.195c0.002,-0.049 0.005,-0.1 0.009,-0.152c-0.03,0.03 -0.057,0.056 -0.082,0.076c-0.024,0.021 -0.056,0.047 -0.093,0.079l-0.214,0.175l-0.13,-0.167l0.545,-0.423l0.206,0l-0,2.015Z" style="fill:#f00;fill-rule:nonzero;"/></g><path id="path1018-7-4" d="M2.5,13.005l180,0" style="fill:none;fill-rule:nonzero;stroke:#000;stroke-opacity:0.3;stroke-width:0.25px;stroke-dasharray:0.5,0.5;"/><rect id="path4601-3" x="2.5" y="4.006" width="180" height="23.997" style="fill:none;fill-rule:nonzero;stroke:#000;stroke-opacity:0.66;stroke-width:0.25px;stroke-linecap:round;stroke-linejoin:round;"/><path id="path1809-3-5-3" d="M51.705,24.486c-10.09,7.133 -13.793,-1.387 -13.949,-7.42c-0.201,-7.764 3.538,-14.003 14.504,-11.418" style="fill:none;fill-rule:nonzero;stroke:#000;stroke-opacity:0.32;stroke-width:0.5px;stroke-linecap:round;stroke-linejoin:round;stroke-dasharray:1,1;"/><path id="path1809-3-5-8-3" d="M82.705,24.486c-10.09,7.133 -13.793,-1.387 -13.949,-7.42c-0.201,-7.764 3.538,-14.003 14.504,-11.418" style="fill:none;fill-rule:nonzero;stroke:#000;stroke-opacity:0.16;stroke-width:0.5px;stroke-linecap:round;stroke-linejoin:round;stroke-dasharray:1,1;"/><path id="path1809-3-5-8-9-8" d="M113.705,24.486c-10.09,7.133 -13.793,-1.387 -13.949,-7.42c-0.201,-7.764 3.538,-14.003 14.505,-11.418" style="fill:none;fill-rule:nonzero;stroke:#000;stroke-opacity:0.08;stroke-width:0.5px;stroke-linecap:round;stroke-linejoin:round;stroke-dasharray:1,1;"/><path id="path1809-3-5-8-9-4-6" d="M144.705,24.486c-10.09,7.133 -13.793,-1.387 -13.949,-7.42c-0.201,-7.764 3.538,-14.003 14.505,-11.418" style="fill:none;fill-rule:nonzero;stroke:#000;stroke-opacity:0.04;stroke-width:0.5px;stroke-linecap:round;stroke-linejoin:round;stroke-dasharray:1,1;"/><path id="path1809-3-5-8-9-4-3-0" d="M175.705,24.486c-10.09,7.133 -13.793,-1.387 -13.949,-7.42c-0.201,-7.764 3.538,-14.003 14.505,-11.418" style="fill:none;fill-rule:nonzero;stroke:#000;stroke-opacity:0.04;stroke-width:0.5px;stroke-linecap:round;stroke-linejoin:round;stroke-dasharray:1,1;"/></g></svg>