<?xml version="1.0" encoding="UTF-8" standalone="no"?><!DOCTYPE svg PUBLIC "-//W3C//DTD SVG 1.1//EN" "http://www.w3.org/Graphics/SVG/1.1/DTD/svg11.dtd"><svg width="100%" height="100%" viewBox="0 0 185 42" version="1.1" xmlns="http://www.w3.org/2000/svg" xmlns:xlink="http://www.w3.org/1999/xlink" xml:space="preserve" xmlns:serif="http://www.serif.com/" style="fill-rule:evenodd;clip-rule:evenodd;"><g><path id="path1018-7-4" d="M2.5,13.005l180,0" style="fill:none;fill-rule:nonzero;stroke:#000;stroke-opacity:0.3;stroke-width:0.25px;stroke-dasharray:0.5,0.5;"/><rect id="path4601-3" x="2.5" y="4.006" width="180" height="23.997" style="fill:none;fill-rule:nonzero;stroke:#000;stroke-opacity:0.66;stroke-width:0.25px;stroke-linecap:round;stroke-linejoin:round;"/><path id="path1809-5-92-6-7" d="M78.32,26.526c-3.648,0.153 -6.861,0.24 -9.595,0.04c0.391,-5.994 0.587,-15.07 0.524,-21.564" style="fill:none;fill-rule:nonzero;stroke:#010000;stroke-opacity:0.17;stroke-width:0.5px;stroke-linecap:round;stroke-linejoin:round;stroke-dasharray:1,1;"/><path id="path1809-5-92-5" d="M47.32,26.526c-3.648,0.153 -6.861,0.24 -9.595,0.04c0.391,-5.994 0.587,-15.07 0.524,-21.564" style="fill:none;fill-rule:nonzero;stroke:#010000;stroke-opacity:0.32;stroke-width:0.5px;stroke-linecap:round;stroke-linejoin:round;stroke-dasharray:1,1;"/><path id="path1809-5-92-6-6-3" d="M109.32,26.526c-3.648,0.153 -6.861,0.24 -9.595,0.04c0.391,-5.994 0.587,-15.07 0.524,-21.564" style="fill:none;fill-rule:nonzero;stroke:#010000;stroke-opacity:0.08;stroke-width:0.5px;stroke-linecap:round;stroke-linejoin:round;stroke-dasharray:1,1;"/><path id="path1809-5-92-6-6-9-3" d="M140.32,26.526c-3.648,0.153 -6.861,0.24 -9.595,0.04c0.391,-5.994 0.587,-15.07 0.524,-21.564" style="fill:none;fill-rule:nonzero;stroke:#010000;stroke-opacity:0.04;stroke-width:0.5px;stroke-linecap:round;stroke-linejoin:round;stroke-dasharray:1,1;"/><path id="path1809-5-92-6-6-9-5-9" d="M171.32,26.526c-3.648,0.153 -6.861,0.24 -9.595,0.04c0.391,-5.994 0.587,-15.07 0.524,-21.564" style="fill:none;fill-rule:nonzero;stroke:#010000;stroke-opacity:0.04;stroke-width:0.5px;stroke-linecap:round;stroke-linejoin:round;stroke-dasharray:1,1;"/><g><path id="text833" d="M6.263,23.792l0.036,-2.807l0.324,-15.041c0,-0.288 0.156,-0.516 0.468,-0.684c0.312,-0.168 0.708,-0.252 1.187,-0.252c1.151,0 1.727,0.408 1.727,1.223c0,0.264 -0.144,2.279 -0.432,6.045c-0.264,3.766 -0.396,6.021 -0.396,6.765l0,3.814c0,1.799 0.12,2.783 0.36,2.951c0.36,0.12 0.78,0.18 1.259,0.18l5.182,-0.36c1.127,0 1.691,0.408 1.691,1.223c0,0.648 -0.312,1.127 -0.936,1.439c-0.6,0.288 -1.199,0.456 -1.799,0.504c-0.6,0.024 -1.331,0.036 -2.195,0.036c-3.766,0 -5.805,-0.12 -6.117,-0.36c-0.168,-0.144 -0.264,-0.684 -0.288,-1.619c-0.024,-0.96 -0.048,-1.631 -0.072,-2.015l0,-1.044l0,0Z" style="fill-rule:nonzero;"/><path id="path1883" d="M5.968,25.657l-0.731,1.62l-0.857,-1.557c0.413,0.381 1.207,0.35 1.589,-0.063Z" style="fill:#f00;fill-opacity:0.66;fill-rule:nonzero;"/><path d="M5.324,5.285c0.26,5.496 -0.298,14.927 -0.138,20.721" style="fill:none;fill-rule:nonzero;stroke:#f00;stroke-opacity:0.66;stroke-width:0.27px;"/><path id="path2831" d="M15.36,28.308l1.632,0.699l-1.538,0.886c0.373,-0.42 0.326,-1.212 -0.094,-1.585Z" style="fill:#f00;fill-opacity:0.66;fill-rule:nonzero;"/><path d="M6.842,29.042c2.929,0.354 5.053,0.264 8.882,0.039" style="fill:none;fill-rule:nonzero;stroke:#f00;stroke-opacity:0.66;stroke-width:0.26px;"/><path id="text1155" d="M3.986,13.777l-0.243,0l0,-1.408c0,-0.081 0.001,-0.146 0.003,-0.195c0.002,-0.049 0.005,-0.1 0.009,-0.152c-0.03,0.03 -0.057,0.056 -0.082,0.076c-0.024,0.021 -0.056,0.047 -0.093,0.079l-0.214,0.175l-0.13,-0.167l0.545,-0.423l0.206,0l-0,2.015Z" style="fill:#f00;fill-rule:nonzero;"/><path id="text1159" d="M10.642,32.177l-1.332,0l0,-0.206l0.528,-0.533c0.102,-0.102 0.187,-0.192 0.257,-0.271c0.07,-0.079 0.122,-0.156 0.158,-0.231c0.036,-0.077 0.054,-0.161 0.054,-0.251c0,-0.111 -0.033,-0.195 -0.099,-0.251c-0.066,-0.058 -0.151,-0.087 -0.257,-0.087c-0.098,0 -0.184,0.017 -0.26,0.051c-0.073,0.034 -0.149,0.081 -0.226,0.141l-0.133,-0.167c0.079,-0.066 0.169,-0.121 0.271,-0.167c0.103,-0.047 0.219,-0.071 0.347,-0.071c0.188,0 0.337,0.048 0.446,0.144c0.109,0.094 0.164,0.225 0.164,0.392c0,0.105 -0.022,0.204 -0.065,0.296c-0.043,0.092 -0.103,0.183 -0.181,0.274c-0.077,0.088 -0.167,0.183 -0.271,0.285l-0.421,0.415l0,0.011l1.019,0l0,0.226Z" style="fill:#f00;fill-rule:nonzero;"/></g></g></svg>