<?xml version="1.0" encoding="UTF-8" standalone="no"?><!DOCTYPE svg PUBLIC "-//W3C//DTD SVG 1.1//EN" "http://www.w3.org/Graphics/SVG/1.1/DTD/svg11.dtd"><svg width="100%" height="100%" viewBox="0 0 185 42" version="1.1" xmlns="http://www.w3.org/2000/svg" xmlns:xlink="http://www.w3.org/1999/xlink" xml:space="preserve" xmlns:serif="http://www.serif.com/" style="fill-rule:evenodd;clip-rule:evenodd;"><g><path id="path1018-7-4" d="M2.5,13.005l180,0" style="fill:none;fill-rule:nonzero;stroke:#000;stroke-opacity:0.3;stroke-width:0.25px;stroke-dasharray:0.5,0.5;"/><rect id="path4601-3" x="2.5" y="4.006" width="180" height="23.997" style="fill:none;fill-rule:nonzero;stroke:#000;stroke-opacity:0.66;stroke-width:0.25px;stroke-linecap:round;stroke-linejoin:round;"/><path id="path1809-3-5-3-5" d="M48.539,18.445c0.821,1.534 6.346,6.877 7.2,8.594m-17.99,-10.924c0.044,5.718 3.036,10.931 8.52,10.917c5.649,-0.015 9.476,-4.875 9.478,-11.049c0.002,-6.507 -3.881,-11.206 -9.622,-11.178c-5.628,0.027 -8.417,5.892 -8.376,11.31Z" style="fill:none;fill-rule:nonzero;stroke:#000;stroke-opacity:0.32;stroke-width:0.5px;stroke-linecap:round;stroke-linejoin:round;stroke-dasharray:1,1;"/><path id="path1809-3-5-3-6-6" d="M79.539,18.445c0.821,1.534 6.346,6.877 7.2,8.594m-17.99,-10.924c0.044,5.718 3.036,10.931 8.52,10.917c5.649,-0.015 9.476,-4.875 9.478,-11.049c0.002,-6.507 -3.881,-11.206 -9.622,-11.178c-5.628,0.027 -8.417,5.892 -8.376,11.31Z" style="fill:none;fill-rule:nonzero;stroke:#000;stroke-opacity:0.16;stroke-width:0.5px;stroke-linecap:round;stroke-linejoin:round;stroke-dasharray:1,1;"/><path id="path1809-3-5-3-6-7-2" d="M110.539,18.445c0.821,1.534 6.346,6.877 7.2,8.594m-17.99,-10.924c0.044,5.718 3.036,10.931 8.52,10.917c5.649,-0.015 9.476,-4.875 9.478,-11.049c0.002,-6.507 -3.881,-11.206 -9.622,-11.178c-5.628,0.027 -8.417,5.892 -8.376,11.31Z" style="fill:none;fill-rule:nonzero;stroke:#000;stroke-opacity:0.08;stroke-width:0.5px;stroke-linecap:round;stroke-linejoin:round;stroke-dasharray:1,1;"/><path id="path1809-3-5-3-6-7-5-9" d="M141.539,18.445c0.821,1.534 6.346,6.877 7.2,8.594m-17.99,-10.924c0.044,5.718 3.036,10.931 8.52,10.917c5.649,-0.015 9.476,-4.875 9.478,-11.049c0.002,-6.507 -3.881,-11.206 -9.622,-11.178c-5.628,0.027 -8.417,5.892 -8.376,11.31Z" style="fill:none;fill-rule:nonzero;stroke:#000;stroke-opacity:0.04;stroke-width:0.5px;stroke-linecap:round;stroke-linejoin:round;stroke-dasharray:1,1;"/><path id="path1809-3-5-3-6-7-5-3-1" d="M172.539,18.445c0.821,1.534 6.346,6.877 7.2,8.594m-17.99,-10.924c0.044,5.718 3.036,10.931 8.52,10.917c5.649,-0.015 9.476,-4.875 9.478,-11.049c0.002,-6.507 -3.881,-11.206 -9.622,-11.178c-5.628,0.027 -8.417,5.892 -8.376,11.31Z" style="fill:none;fill-rule:nonzero;stroke:#000;stroke-opacity:0.04;stroke-width:0.5px;stroke-linecap:round;stroke-linejoin:round;stroke-dasharray:1,1;"/><g><path id="text833" d="M21.221,26.875l-0.468,-0.54c-1.703,1.463 -3.79,2.315 -6.261,2.555c-1.823,-0.144 -3.466,-0.768 -4.93,-1.871c-1.439,-1.127 -2.531,-2.531 -3.274,-4.21c-0.72,-1.703 -1.079,-3.406 -1.079,-5.11c0,-3.262 0.828,-6.177 2.483,-8.744c0.792,-1.271 1.823,-2.279 3.095,-3.023c1.271,-0.744 2.663,-1.115 4.174,-1.115c1.511,0 2.939,0.348 4.282,1.044c1.343,0.696 2.447,1.643 3.31,2.843c1.775,2.495 2.663,5.35 2.663,8.564c0,2.423 -0.72,4.726 -2.159,6.909c0,0.024 0.372,0.42 1.115,1.187c0.696,0.768 1.044,1.343 1.044,1.727c0,0.36 -0.132,0.732 -0.396,1.115c-0.24,0.384 -0.648,0.576 -1.223,0.576c-0.576,0 -1.367,-0.636 -2.375,-1.907Zm-11.515,-3.922c1.103,1.991 2.843,3.059 5.218,3.203c1.919,-0.168 3.418,-0.66 4.498,-1.475l-2.843,-3.274c-0.744,-0.84 -1.115,-1.475 -1.115,-1.907c0,-0.456 0.156,-0.828 0.468,-1.115c0.312,-0.312 0.696,-0.468 1.151,-0.468c0.48,0 1.103,0.408 1.871,1.223c0.456,0.528 1.068,1.283 1.835,2.267c0.336,0.48 0.552,0.768 0.648,0.864c0.768,-1.391 1.151,-2.915 1.151,-4.57c0,-3.742 -1.247,-6.597 -3.742,-8.564c-1.247,-1.008 -2.723,-1.511 -4.426,-1.511c-2.207,0 -3.838,1.008 -4.894,3.023c-0.888,1.775 -1.331,3.826 -1.331,6.153c0,2.303 0.504,4.354 1.511,6.153Z" style="fill-rule:nonzero;"/><path id="path1883" d="M23.317,8.972l-0.213,-1.765l1.54,0.888c-0.551,-0.113 -1.214,0.326 -1.327,0.877Z" style="fill:#f00;fill-opacity:0.66;fill-rule:nonzero;"/><path d="M21.843,5.573c-11.919,-7.705 -17.722,4.468 -17.56,11.133c0.145,5.975 3.591,12.412 10.343,12.432c4.824,0.014 11.457,-4.291 11.421,-12.65c-0.018,-4.146 -0.776,-5.936 -2.241,-8.218" style="fill:none;fill-rule:nonzero;stroke:#f00;stroke-opacity:0.66;stroke-width:0.27px;"/><path id="text1155" d="M6.682,6.936l-0.243,0l0,-1.408c0,-0.081 0.001,-0.146 0.003,-0.195c0.002,-0.049 0.005,-0.1 0.009,-0.152c-0.03,0.03 -0.057,0.056 -0.082,0.076c-0.024,0.021 -0.056,0.047 -0.093,0.079l-0.214,0.175l-0.13,-0.167l0.545,-0.423l0.206,0l-0,2.015Z" style="fill:#f00;fill-rule:nonzero;"/><path id="path1883-0" d="M21.795,27.115l0.351,1.743l-1.605,-0.765c0.558,0.069 1.185,-0.42 1.254,-0.978Z" style="fill:#f00;fill-opacity:0.66;fill-rule:nonzero;"/><path d="M14.73,19.931c1.771,2.379 4.703,5.533 6.634,7.924" style="fill:none;fill-rule:nonzero;stroke:#f00;stroke-opacity:0.66;stroke-width:0.27px;"/><path id="text1155-2" d="M15.205,23.99l-1.332,0l0,-0.206l0.528,-0.533c0.102,-0.102 0.187,-0.192 0.257,-0.271c0.07,-0.079 0.122,-0.156 0.158,-0.231c0.036,-0.077 0.054,-0.161 0.054,-0.251c0,-0.111 -0.033,-0.195 -0.099,-0.251c-0.066,-0.058 -0.151,-0.087 -0.257,-0.087c-0.098,0 -0.184,0.017 -0.26,0.051c-0.073,0.034 -0.149,0.081 -0.226,0.141l-0.133,-0.167c0.079,-0.066 0.169,-0.121 0.271,-0.167c0.103,-0.047 0.219,-0.071 0.347,-0.071c0.188,0 0.337,0.048 0.446,0.144c0.109,0.094 0.164,0.225 0.164,0.392c0,0.105 -0.022,0.204 -0.065,0.296c-0.043,0.092 -0.103,0.183 -0.181,0.274c-0.077,0.088 -0.167,0.183 -0.271,0.285l-0.421,0.415l0,0.011l1.019,0l-0,0.226Z" style="fill:#f00;fill-rule:nonzero;"/></g></g></svg>