<?xml version="1.0" encoding="UTF-8" standalone="no"?><!DOCTYPE svg PUBLIC "-//W3C//DTD SVG 1.1//EN" "http://www.w3.org/Graphics/SVG/1.1/DTD/svg11.dtd"><svg width="100%" height="100%" viewBox="0 0 185 42" version="1.1" xmlns="http://www.w3.org/2000/svg" xmlns:xlink="http://www.w3.org/1999/xlink" xml:space="preserve" xmlns:serif="http://www.serif.com/" style="fill-rule:evenodd;clip-rule:evenodd;stroke-linecap:round;stroke-linejoin:round;"><g><rect id="path4601-3" x="2.5" y="3.958" width="180" height="23.997" style="fill:none;fill-rule:nonzero;stroke:#000;stroke-opacity:0.66;stroke-width:0.25px;"/><path id="path1018-7-4" d="M2.5,12.956l180,0" style="fill:none;fill-rule:nonzero;stroke:#000;stroke-opacity:0.3;stroke-width:0.25px;stroke-linecap:butt;stroke-linejoin:miter;stroke-dasharray:0.5,0.5;"/><path id="path1809-5-92-6-5" d="M50.572,4.795c-2.654,2.918 -6.797,10.904 -6.797,10.904c0,0 -0.164,8.004 0.187,11.469m-0.187,-11.469c-1.589,-3.07 -4.13,-7.338 -6.026,-11.042" style="fill:none;fill-rule:nonzero;stroke:#000;stroke-opacity:0.32;stroke-width:0.5px;stroke-dasharray:1,1;"/><path id="path1809-5-92-6-4-3" d="M81.572,4.795c-2.654,2.918 -6.797,10.904 -6.797,10.904c0,0 -0.164,8.004 0.187,11.469m-0.187,-11.469c-1.589,-3.07 -4.13,-7.338 -6.026,-11.042" style="fill:none;fill-rule:nonzero;stroke:#000;stroke-opacity:0.16;stroke-width:0.5px;stroke-dasharray:1,1;"/><path id="path1809-5-92-6-4-0-8" d="M112.572,4.795c-2.654,2.918 -6.797,10.904 -6.797,10.904c0,0 -0.164,8.004 0.187,11.469m-0.187,-11.469c-1.589,-3.07 -4.13,-7.338 -6.026,-11.042" style="fill:none;fill-rule:nonzero;stroke:#000;stroke-opacity:0.08;stroke-width:0.5px;stroke-dasharray:1,1;"/><path id="path1809-5-92-6-4-0-1-2" d="M143.572,4.795c-2.654,2.918 -6.797,10.904 -6.797,10.904c0,0 -0.164,8.004 0.187,11.469m-0.187,-11.469c-1.589,-3.07 -4.13,-7.338 -6.026,-11.042" style="fill:none;fill-rule:nonzero;stroke:#000;stroke-opacity:0.04;stroke-width:0.5px;stroke-dasharray:1,1;"/><path id="path1809-5-92-6-4-0-1-7-3" d="M174.572,4.795c-2.654,2.918 -6.797,10.904 -6.797,10.904c0,0 -0.164,8.004 0.187,11.469m-0.187,-11.469c-1.589,-3.07 -4.13,-7.338 -6.026,-11.042" style="fill:none;fill-rule:nonzero;stroke:#000;stroke-opacity:0.04;stroke-width:0.5px;stroke-dasharray:1,1;"/><g><path id="text833" d="M10.706,19.784l0.036,-1.835c0,-0.624 -0.204,-1.235 -0.612,-1.835c-0.384,-0.6 -1.331,-2.339 -2.843,-5.218c-1.511,-2.879 -2.267,-4.498 -2.267,-4.858c0,-0.384 0.156,-0.72 0.468,-1.008c0.312,-0.312 0.612,-0.468 0.9,-0.468c0.312,0 0.672,0.276 1.079,0.828c0.432,0.552 1.259,2.003 2.483,4.354c1.247,2.351 1.967,3.646 2.159,3.886c2.303,-4.078 4.15,-6.957 5.541,-8.636c0.336,-0.312 0.6,-0.468 0.792,-0.468c0.216,0 0.372,0.024 0.468,0.072c0.576,0.24 0.864,0.564 0.864,0.972c0,0.384 -0.096,0.72 -0.288,1.008c-0.192,0.288 -0.72,1.044 -1.583,2.267c-1.271,1.775 -2.375,3.574 -3.31,5.397c-0.912,1.799 -1.367,2.903 -1.367,3.31l0,6.585l0.108,2.879c0,0.528 -0.144,0.9 -0.432,1.115c-0.288,0.192 -0.648,0.288 -1.079,0.288c-0.408,0 -0.684,-0.228 -0.828,-0.684c-0.144,-0.456 -0.228,-1.056 -0.252,-1.799c-0.024,-0.744 -0.036,-1.835 -0.036,-3.274l-0,-2.879Z" style="fill-rule:nonzero;"/><path id="path2831" d="M15.248,25.159l-0.658,1.648l-0.924,-1.516c0.429,0.362 1.22,0.296 1.582,-0.133Z" style="fill:#f00;fill-opacity:0.66;fill-rule:nonzero;"/><path d="M21.295,5.19c-2.886,3.865 -6.112,8.865 -6.982,11.597c-0.001,1.235 -0.027,5.711 0.171,8.754" style="fill:none;fill-rule:nonzero;stroke:#f00;stroke-opacity:0.66;stroke-width:0.26px;stroke-linecap:butt;stroke-linejoin:miter;"/><path id="text1155" d="M5.03,12.594l-0.243,0l0,-1.408c0,-0.081 0.001,-0.146 0.003,-0.195c0.002,-0.049 0.005,-0.1 0.009,-0.152c-0.03,0.03 -0.057,0.056 -0.082,0.076c-0.024,0.021 -0.056,0.047 -0.093,0.079l-0.214,0.175l-0.13,-0.167l0.545,-0.423l0.206,0l-0,2.015Z" style="fill:#f00;fill-rule:nonzero;"/><path id="text1159" d="M19.795,12.692l-1.332,0l0,-0.206l0.528,-0.533c0.102,-0.102 0.187,-0.192 0.257,-0.271c0.07,-0.079 0.122,-0.156 0.158,-0.231c0.036,-0.077 0.054,-0.161 0.054,-0.251c0,-0.111 -0.033,-0.195 -0.099,-0.251c-0.066,-0.058 -0.151,-0.087 -0.257,-0.087c-0.098,0 -0.184,0.017 -0.26,0.051c-0.073,0.034 -0.149,0.081 -0.226,0.141l-0.133,-0.167c0.079,-0.066 0.169,-0.121 0.271,-0.167c0.103,-0.047 0.219,-0.071 0.347,-0.071c0.188,0 0.337,0.048 0.446,0.144c0.109,0.094 0.164,0.225 0.164,0.392c0,0.105 -0.022,0.204 -0.065,0.296c-0.043,0.092 -0.103,0.183 -0.181,0.274c-0.077,0.088 -0.167,0.183 -0.271,0.285l-0.421,0.415l0,0.011l1.019,0l0,0.226Z" style="fill:#f00;fill-rule:nonzero;"/><path id="path2831-8" d="M9.629,15.146l0.176,1.766l-1.519,-0.919c0.547,0.124 1.219,-0.3 1.342,-0.847Z" style="fill:#f00;fill-opacity:0.66;fill-rule:nonzero;"/><path d="M3.736,5.325c1.562,3.119 3.654,7.613 5.391,10.513" style="fill:none;fill-rule:nonzero;stroke:#f00;stroke-opacity:0.66;stroke-width:0.26px;stroke-linecap:butt;stroke-linejoin:miter;"/></g></g></svg>