<?xml version="1.0" encoding="UTF-8" standalone="no"?><!DOCTYPE svg PUBLIC "-//W3C//DTD SVG 1.1//EN" "http://www.w3.org/Graphics/SVG/1.1/DTD/svg11.dtd"><svg width="100%" height="100%" viewBox="0 0 185 42" version="1.1" xmlns="http://www.w3.org/2000/svg" xmlns:xlink="http://www.w3.org/1999/xlink" xml:space="preserve" xmlns:serif="http://www.serif.com/" style="fill-rule:evenodd;clip-rule:evenodd;"><g><path id="path1018-7-4-8-4-9-7" d="M2.5,13.005l180,0" style="fill:none;fill-rule:nonzero;stroke:#000;stroke-opacity:0.3;stroke-width:0.25px;stroke-dasharray:0.5,0.5;"/><rect id="path4601-3-6-3-2-1" x="2.5" y="4.006" width="180" height="23.997" style="fill:none;fill-rule:nonzero;stroke:#000;stroke-opacity:0.66;stroke-width:0.25px;stroke-linecap:round;stroke-linejoin:round;"/><path id="path5452-78-8" d="M43.418,25.189c-1.12,1.874 -3.655,3.651 -4.949,-0.567c-1.138,-5.821 -0.627,-13.961 -0.455,-20.06" style="fill:none;fill-rule:nonzero;stroke:#000;stroke-opacity:0.32;stroke-width:0.5px;stroke-linecap:round;stroke-linejoin:round;stroke-dasharray:1,1;"/><path id="path5452-78-7-8" d="M74.418,25.189c-1.12,1.874 -3.655,3.651 -4.949,-0.567c-1.138,-5.821 -0.627,-13.961 -0.455,-20.06" style="fill:none;fill-rule:nonzero;stroke:#000;stroke-opacity:0.16;stroke-width:0.5px;stroke-linecap:round;stroke-linejoin:round;stroke-dasharray:1,1;"/><path id="path5452-78-7-7-7" d="M105.418,25.189c-1.12,1.874 -3.655,3.651 -4.949,-0.567c-1.138,-5.821 -0.627,-13.961 -0.455,-20.06" style="fill:none;fill-rule:nonzero;stroke:#000;stroke-opacity:0.08;stroke-width:0.5px;stroke-linecap:round;stroke-linejoin:round;stroke-dasharray:1,1;"/><path id="path5452-78-7-7-1-3" d="M136.418,25.189c-1.12,1.874 -3.655,3.651 -4.949,-0.567c-1.138,-5.821 -0.627,-13.961 -0.455,-20.06" style="fill:none;fill-rule:nonzero;stroke:#000;stroke-opacity:0.04;stroke-width:0.5px;stroke-linecap:round;stroke-linejoin:round;stroke-dasharray:1,1;"/><path id="path5452-78-7-7-1-0-0" d="M167.418,25.189c-1.12,1.874 -3.655,3.651 -4.949,-0.567c-1.138,-5.821 -0.627,-13.961 -0.455,-20.06" style="fill:none;fill-rule:nonzero;stroke:#000;stroke-opacity:0.04;stroke-width:0.5px;stroke-linecap:round;stroke-linejoin:round;stroke-dasharray:1,1;"/><g><path id="text833" d="M6.411,5.885c0.072,-0.912 0.216,-1.499 0.432,-1.763c0.24,-0.288 0.612,-0.432 1.115,-0.432c1.032,0 1.547,0.42 1.547,1.259c0,0.648 -0.06,2.339 -0.18,5.074c-0.096,2.735 -0.144,5.182 -0.144,7.341c0,2.159 0.084,3.898 0.252,5.218c0.288,2.303 0.696,3.454 1.223,3.454c0.528,0 0.924,-0.372 1.187,-1.115c0.12,-0.288 0.312,-0.54 0.576,-0.756c0.264,-0.24 0.6,-0.36 1.008,-0.36c0.84,0 1.259,0.708 1.259,2.123c0,0.768 -0.42,1.535 -1.259,2.303c-0.816,0.744 -1.631,1.115 -2.447,1.115c-0.816,0 -1.475,-0.132 -1.979,-0.396c-0.48,-0.288 -0.876,-0.708 -1.187,-1.259c-0.288,-0.552 -0.528,-1.079 -0.72,-1.583c-0.168,-0.528 -0.288,-1.163 -0.36,-1.907c-0.144,-1.199 -0.252,-3.119 -0.324,-5.757c-0.048,-2.663 -0.072,-5.194 -0.072,-7.592c0,-2.423 0.024,-4.078 0.072,-4.966Z" style="fill-rule:nonzero;"/><path id="path3391" d="M13.206,28.286l1.675,-0.596l-0.528,1.698c-0.011,-0.562 -0.585,-1.113 -1.147,-1.101Z" style="fill:#f00;fill-opacity:0.66;fill-rule:nonzero;"/><path d="M5.392,4.33c-0.361,7.378 -0.242,16.133 0.49,20.979c1.395,5.335 5.848,5.065 8.118,3.298" style="fill:none;fill-rule:nonzero;stroke:#f00;stroke-opacity:0.66;stroke-width:0.27px;"/><path id="text1155-1" d="M3.678,10.944l-0.243,0l0,-1.408c0,-0.081 0.001,-0.146 0.003,-0.195c0.002,-0.049 0.005,-0.1 0.008,-0.152c-0.03,0.03 -0.057,0.055 -0.082,0.076c-0.024,0.021 -0.056,0.047 -0.093,0.079l-0.214,0.175l-0.13,-0.167l0.545,-0.423l0.206,0l-0,2.015Z" style="fill:#f00;fill-rule:nonzero;"/></g></g></svg>