<?xml version="1.0" encoding="UTF-8" standalone="no"?><!DOCTYPE svg PUBLIC "-//W3C//DTD SVG 1.1//EN" "http://www.w3.org/Graphics/SVG/1.1/DTD/svg11.dtd"><svg width="100%" height="100%" viewBox="0 0 185 42" version="1.1" xmlns="http://www.w3.org/2000/svg" xmlns:xlink="http://www.w3.org/1999/xlink" xml:space="preserve" xmlns:serif="http://www.serif.com/" style="fill-rule:evenodd;clip-rule:evenodd;"><g><path id="path1018-7-4-8-4-9" d="M2.5,12.956l180,0" style="fill:none;fill-rule:nonzero;stroke:#000;stroke-opacity:0.3;stroke-width:0.25px;stroke-dasharray:0.5,0.5;"/><rect id="path4601-3-6-3-2" x="2.5" y="3.958" width="180" height="23.997" style="fill:none;fill-rule:nonzero;stroke:#000;stroke-opacity:0.66;stroke-width:0.25px;stroke-linecap:round;stroke-linejoin:round;"/><path id="path988-2-9-8" d="M47.276,15.929c-0.477,-3.144 -9.404,-5.448 -9.275,4.77c0.271,10.31 8.958,7.237 9.279,-0.191" style="fill:none;fill-rule:nonzero;stroke:#000;stroke-opacity:0.32;stroke-width:0.5px;stroke-linecap:round;stroke-linejoin:round;stroke-dasharray:1,1;"/><path id="path990-9-3-8" d="M47.25,12.915c0,0 0.017,1.453 0.026,3.014c-0.047,1.475 0.004,4.579 0.004,4.579l0.426,7.228" style="fill:none;fill-rule:nonzero;stroke:#000;stroke-opacity:0.32;stroke-width:0.5px;stroke-linecap:round;stroke-linejoin:round;stroke-dasharray:1,1;"/><path id="path988-2-9-5-0" d="M78.276,15.929c-0.477,-3.144 -9.404,-5.448 -9.275,4.77c0.271,10.31 8.958,7.237 9.279,-0.191" style="fill:none;fill-rule:nonzero;stroke:#000;stroke-opacity:0.16;stroke-width:0.5px;stroke-linecap:round;stroke-linejoin:round;stroke-dasharray:1,1;"/><path id="path990-9-3-6-9" d="M78.25,12.915c0,0 0.017,1.453 0.026,3.014c-0.047,1.475 0.004,4.579 0.004,4.579l0.426,7.228" style="fill:none;fill-rule:nonzero;stroke:#000;stroke-opacity:0.16;stroke-width:0.5px;stroke-linecap:round;stroke-linejoin:round;stroke-dasharray:1,1;"/><path id="path988-2-9-5-9-3" d="M109.276,15.929c-0.477,-3.144 -9.404,-5.448 -9.275,4.77c0.271,10.31 8.958,7.237 9.279,-0.191" style="fill:none;fill-rule:nonzero;stroke:#000;stroke-opacity:0.08;stroke-width:0.5px;stroke-linecap:round;stroke-linejoin:round;stroke-dasharray:1,1;"/><path id="path990-9-3-6-4-8" d="M109.25,12.915c0,0 0.017,1.453 0.026,3.014c-0.047,1.475 0.004,4.579 0.004,4.579l0.426,7.228" style="fill:none;fill-rule:nonzero;stroke:#000;stroke-opacity:0.08;stroke-width:0.5px;stroke-linecap:round;stroke-linejoin:round;stroke-dasharray:1,1;"/><path id="path988-2-9-5-9-1-6" d="M140.276,15.929c-0.477,-3.144 -9.404,-5.448 -9.275,4.77c0.271,10.31 8.958,7.237 9.279,-0.191" style="fill:none;fill-rule:nonzero;stroke:#000;stroke-opacity:0.04;stroke-width:0.5px;stroke-linecap:round;stroke-linejoin:round;stroke-dasharray:1,1;"/><path id="path990-9-3-6-4-2-1" d="M140.25,12.915c0,0 0.017,1.453 0.026,3.014c-0.047,1.475 0.004,4.579 0.004,4.579l0.426,7.228" style="fill:none;fill-rule:nonzero;stroke:#000;stroke-opacity:0.04;stroke-width:0.5px;stroke-linecap:round;stroke-linejoin:round;stroke-dasharray:1,1;"/><path id="path988-2-9-5-9-1-3-5" d="M171.276,15.929c-0.477,-3.144 -9.404,-5.448 -9.275,4.77c0.271,10.31 8.958,7.237 9.279,-0.191" style="fill:none;fill-rule:nonzero;stroke:#000;stroke-opacity:0.04;stroke-width:0.5px;stroke-linecap:round;stroke-linejoin:round;stroke-dasharray:1,1;"/><path id="path990-9-3-6-4-2-9-9" d="M171.25,12.915c0,0 0.017,1.453 0.026,3.014c-0.047,1.475 0.004,4.579 0.004,4.579l0.426,7.228" style="fill:none;fill-rule:nonzero;stroke:#000;stroke-opacity:0.04;stroke-width:0.5px;stroke-linecap:round;stroke-linejoin:round;stroke-dasharray:1,1;"/><g><path id="text833" d="M15.968,11.793c1.056,0 1.583,0.9 1.583,2.699l0,0.612l-0.072,2.519c-0.024,0.792 -0.036,1.571 -0.036,2.339l0.54,8.132c0,0.6 -0.612,0.9 -1.835,0.9l-0.54,0c-0.264,0 -0.456,-0.108 -0.576,-0.324c-0.096,-0.216 -0.108,-0.48 -0.036,-0.792c0.096,-0.312 0.072,-0.66 -0.072,-1.044c-1.103,1.175 -2.567,1.763 -4.39,1.763c-3.382,0 -5.074,-2.615 -5.074,-7.844c0,-2.903 0.54,-5.098 1.619,-6.585c1.103,-1.487 2.675,-2.231 4.714,-2.231c0.96,0 1.919,0.168 2.879,0.504c0.312,-0.432 0.744,-0.648 1.295,-0.648Zm-3.742,3.274c-1.367,0 -2.387,0.396 -3.059,1.187c-0.672,0.792 -1.008,2.243 -1.008,4.354c0,3.55 0.96,5.326 2.879,5.326c0.504,0 1.056,-0.228 1.655,-0.684c0.624,-0.456 1.056,-0.972 1.295,-1.547c0.456,-1.295 0.684,-2.711 0.684,-4.246c0,-1.535 -0.192,-2.651 -0.576,-3.346c-0.36,-0.696 -0.984,-1.044 -1.871,-1.044Z" style="fill-rule:nonzero;"/><path id="path3147" d="M12.336,28.793l1.775,-0.101l-0.984,1.481c0.147,-0.543 -0.248,-1.232 -0.791,-1.379Z" style="fill:#f00;fill-opacity:0.66;fill-rule:nonzero;"/><path d="M14.397,11.208c-6.568,-1.391 -9.84,1.685 -10.021,9.917c-0.021,8.833 5.42,9.608 8.632,8.2" style="fill:none;fill-rule:nonzero;stroke:#f00;stroke-opacity:0.66;stroke-width:0.27px;"/><path id="path3391" d="M19.807,27.12l-0.576,1.682l-1,-1.47c0.447,0.341 1.235,0.235 1.576,-0.212Z" style="fill:#f00;fill-opacity:0.66;fill-rule:nonzero;"/><path d="M18.831,12.12c-0.559,4.773 -0.231,11.534 0.23,15.421" style="fill:none;fill-rule:nonzero;stroke:#f00;stroke-opacity:0.66;stroke-width:0.27px;"/><path id="text1155-1" d="M3.559,16.389l-0.243,0l0,-1.408c0,-0.081 0.001,-0.146 0.003,-0.195c0.002,-0.049 0.005,-0.1 0.008,-0.152c-0.03,0.03 -0.057,0.056 -0.082,0.076c-0.024,0.021 -0.056,0.047 -0.093,0.079l-0.214,0.175l-0.13,-0.167l0.545,-0.423l0.206,0l-0,2.015Z" style="fill:#f00;fill-rule:nonzero;"/><path id="text1159-8" d="M20.88,20.989l-1.332,0l0,-0.206l0.528,-0.533c0.102,-0.102 0.187,-0.192 0.257,-0.271c0.07,-0.079 0.122,-0.156 0.158,-0.231c0.036,-0.077 0.054,-0.161 0.054,-0.251c0,-0.111 -0.033,-0.195 -0.099,-0.251c-0.066,-0.058 -0.151,-0.087 -0.257,-0.087c-0.098,0 -0.184,0.017 -0.26,0.051c-0.073,0.034 -0.149,0.081 -0.226,0.141l-0.133,-0.167c0.079,-0.066 0.169,-0.121 0.271,-0.167c0.103,-0.047 0.219,-0.071 0.347,-0.071c0.188,0 0.337,0.048 0.446,0.144c0.109,0.094 0.164,0.225 0.164,0.392c0,0.105 -0.022,0.204 -0.065,0.296c-0.043,0.092 -0.103,0.183 -0.181,0.274c-0.077,0.088 -0.167,0.183 -0.271,0.285l-0.421,0.415l0,0.011l1.019,0l0,0.226Z" style="fill:#f00;fill-rule:nonzero;"/></g></g></svg>