<?xml version="1.0" encoding="UTF-8" standalone="no"?><!DOCTYPE svg PUBLIC "-//W3C//DTD SVG 1.1//EN" "http://www.w3.org/Graphics/SVG/1.1/DTD/svg11.dtd"><svg width="100%" height="100%" viewBox="0 0 185 42" version="1.1" xmlns="http://www.w3.org/2000/svg" xmlns:xlink="http://www.w3.org/1999/xlink" xml:space="preserve" xmlns:serif="http://www.serif.com/" style="fill-rule:evenodd;clip-rule:evenodd;"><g><path id="path1018-7-4-8-4-9-7" d="M2.5,13.005l180,0" style="fill:none;fill-rule:nonzero;stroke:#000;stroke-opacity:0.3;stroke-width:0.25px;stroke-dasharray:0.5,0.5;"/><rect id="path4601-3-6-3-2-1" x="2.5" y="4.006" width="180" height="23.997" style="fill:none;fill-rule:nonzero;stroke:#000;stroke-opacity:0.66;stroke-width:0.25px;stroke-linecap:round;stroke-linejoin:round;"/><path id="path5452-78-5" d="M39.216,12.983c-0.018,4.277 0.033,9.552 0.031,14.31" style="fill:none;fill-rule:nonzero;stroke:#000;stroke-opacity:0.32;stroke-width:0.5px;stroke-linecap:round;stroke-linejoin:round;stroke-dasharray:1,1;"/><path id="path5452-2-5-8" d="M40.054,8.964c1.093,-1.467 -1.156,-3.067 -2.064,-1.829c-0.908,1.238 0.97,3.296 2.064,1.829Z" style="fill:none;fill-rule:nonzero;stroke:#000;stroke-opacity:0.32;stroke-width:0.5px;stroke-linecap:round;stroke-linejoin:round;stroke-dasharray:1,1;"/><path id="path5452-78-9-9" d="M70.216,12.983c-0.018,4.277 0.033,9.552 0.031,14.31" style="fill:none;fill-rule:nonzero;stroke:#000;stroke-opacity:0.16;stroke-width:0.5px;stroke-linecap:round;stroke-linejoin:round;stroke-dasharray:1,1;"/><path id="path5452-2-5-0-6" d="M71.054,8.964c1.093,-1.467 -1.156,-3.067 -2.064,-1.829c-0.908,1.238 0.97,3.296 2.064,1.829Z" style="fill:none;fill-rule:nonzero;stroke:#000;stroke-opacity:0.16;stroke-width:0.5px;stroke-linecap:round;stroke-linejoin:round;stroke-dasharray:1,1;"/><path id="path5452-78-9-3-4" d="M101.216,12.983c-0.018,4.277 0.033,9.552 0.031,14.31" style="fill:none;fill-rule:nonzero;stroke:#000;stroke-opacity:0.08;stroke-width:0.5px;stroke-linecap:round;stroke-linejoin:round;stroke-dasharray:1,1;"/><path id="path5452-2-5-0-3-1" d="M102.054,8.964c1.093,-1.467 -1.156,-3.067 -2.064,-1.829c-0.908,1.238 0.97,3.296 2.064,1.829Z" style="fill:none;fill-rule:nonzero;stroke:#000;stroke-opacity:0.08;stroke-width:0.5px;stroke-linecap:round;stroke-linejoin:round;stroke-dasharray:1,1;"/><path id="path5452-78-9-3-3-4" d="M132.216,12.983c-0.018,4.277 0.033,9.552 0.031,14.31" style="fill:none;fill-rule:nonzero;stroke:#000;stroke-opacity:0.04;stroke-width:0.5px;stroke-linecap:round;stroke-linejoin:round;stroke-dasharray:1,1;"/><path id="path5452-2-5-0-3-2-8" d="M133.054,8.964c1.093,-1.467 -1.156,-3.067 -2.064,-1.829c-0.908,1.238 0.97,3.296 2.064,1.829Z" style="fill:none;fill-rule:nonzero;stroke:#000;stroke-opacity:0.04;stroke-width:0.5px;stroke-linecap:round;stroke-linejoin:round;stroke-dasharray:1,1;"/><path id="path5452-78-9-3-3-5-0" d="M163.216,12.983c-0.018,4.277 0.033,9.552 0.031,14.31" style="fill:none;fill-rule:nonzero;stroke:#000;stroke-opacity:0.04;stroke-width:0.5px;stroke-linecap:round;stroke-linejoin:round;stroke-dasharray:1,1;"/><path id="path5452-2-5-0-3-2-2-8" d="M164.054,8.964c1.093,-1.467 -1.156,-3.067 -2.064,-1.829c-0.908,1.238 0.97,3.296 2.064,1.829Z" style="fill:none;fill-rule:nonzero;stroke:#000;stroke-opacity:0.04;stroke-width:0.5px;stroke-linecap:round;stroke-linejoin:round;stroke-dasharray:1,1;"/><g><path id="text833" d="M8.202,6.324c0.432,0 0.84,0.204 1.223,0.612c0.384,0.408 0.576,0.84 0.576,1.295c0,0.432 -0.216,0.876 -0.648,1.331c-0.408,0.456 -0.84,0.684 -1.295,0.684c-0.456,0 -0.876,-0.192 -1.259,-0.576c-0.36,-0.384 -0.54,-0.876 -0.54,-1.475c0,-1.151 0.624,-1.775 1.871,-1.871l0.072,0l-0,-0Zm1.511,18.855l0.036,2.519c0,0.456 -0.18,0.84 -0.54,1.151c-0.36,0.288 -0.744,0.432 -1.151,0.432c-0.6,0 -0.912,-0.3 -0.936,-0.9c-0.312,-7.652 -0.468,-11.886 -0.468,-12.702c0,-0.816 0.036,-1.811 0.108,-2.987c0.048,-0.432 0.324,-0.648 0.828,-0.648c1.271,0 1.991,0.516 2.159,1.547c0.072,0.528 0.108,0.948 0.108,1.259l-0.144,2.267l0,8.06Z" style="fill-rule:nonzero;"/><path id="path3391" d="M6.373,26.063l-0.743,1.615l-0.846,-1.563c0.41,0.384 1.205,0.359 1.589,-0.052Z" style="fill:#f00;fill-opacity:0.66;fill-rule:nonzero;"/><path d="M5.19,12.312c-0.093,5.449 0.239,9.756 0.398,14.095" style="fill:none;fill-rule:nonzero;stroke:#f00;stroke-opacity:0.66;stroke-width:0.27px;"/><path id="text1155-1" d="M3.596,16.545l-0.243,0l0,-1.408c0,-0.081 0.001,-0.146 0.003,-0.195c0.002,-0.049 0.005,-0.1 0.008,-0.152c-0.03,0.03 -0.057,0.056 -0.082,0.076c-0.024,0.021 -0.056,0.047 -0.093,0.079l-0.214,0.175l-0.13,-0.167l0.545,-0.423l0.206,0l-0,2.015Z" style="fill:#f00;fill-rule:nonzero;"/><path id="text1159-9" d="M12.643,7.846l-1.332,0l0,-0.206l0.528,-0.533c0.102,-0.102 0.187,-0.192 0.257,-0.271c0.07,-0.079 0.122,-0.156 0.158,-0.231c0.036,-0.077 0.054,-0.161 0.054,-0.251c0,-0.111 -0.033,-0.195 -0.099,-0.251c-0.066,-0.058 -0.151,-0.087 -0.257,-0.087c-0.098,0 -0.184,0.017 -0.26,0.051c-0.073,0.034 -0.149,0.081 -0.226,0.141l-0.133,-0.167c0.079,-0.066 0.169,-0.121 0.271,-0.167c0.103,-0.047 0.219,-0.071 0.347,-0.071c0.188,0 0.337,0.048 0.446,0.144c0.109,0.094 0.164,0.225 0.164,0.392c0,0.105 -0.022,0.204 -0.065,0.296c-0.043,0.092 -0.103,0.183 -0.181,0.274c-0.077,0.088 -0.167,0.183 -0.271,0.285l-0.421,0.415l0,0.011l1.019,0l-0,0.226Z" style="fill:#f00;fill-rule:nonzero;"/></g></g></svg>