<?xml version="1.0" encoding="UTF-8" standalone="no"?><!DOCTYPE svg PUBLIC "-//W3C//DTD SVG 1.1//EN" "http://www.w3.org/Graphics/SVG/1.1/DTD/svg11.dtd"><svg width="100%" height="100%" viewBox="0 0 185 42" version="1.1" xmlns="http://www.w3.org/2000/svg" xmlns:xlink="http://www.w3.org/1999/xlink" xml:space="preserve" xmlns:serif="http://www.serif.com/" style="fill-rule:evenodd;clip-rule:evenodd;"><g><path id="path1018-7-4-8-4-9-7" d="M2.5,12.956l180,0" style="fill:none;fill-rule:nonzero;stroke:#000;stroke-opacity:0.3;stroke-width:0.25px;stroke-dasharray:0.5,0.5;"/><rect id="path4601-3-6-3-2-1" x="2.5" y="3.958" width="180" height="23.997" style="fill:none;fill-rule:nonzero;stroke:#000;stroke-opacity:0.66;stroke-width:0.25px;stroke-linecap:round;stroke-linejoin:round;"/><path id="path1809-3-5-8-6-2" d="M37.81,25.567c3.3,3.584 8.873,1.611 8.725,-1.849c-0.103,-2.411 -2.393,-3.187 -4.463,-3.552c-2.182,-0.385 -4.163,-0.968 -4.344,-3.182c-0.229,-2.8 4.374,-5.094 8.522,-2.178" style="fill:none;fill-rule:nonzero;stroke:#000;stroke-opacity:0.32;stroke-width:0.5px;stroke-linecap:round;stroke-linejoin:round;stroke-dasharray:1,1;"/><path id="path1809-3-5-8-6-1-06" d="M68.81,25.567c3.3,3.584 8.873,1.611 8.725,-1.849c-0.103,-2.411 -2.393,-3.187 -4.463,-3.552c-2.182,-0.385 -4.163,-0.968 -4.344,-3.182c-0.229,-2.8 4.374,-5.094 8.522,-2.178" style="fill:none;fill-rule:nonzero;stroke:#000;stroke-opacity:0.16;stroke-width:0.5px;stroke-linecap:round;stroke-linejoin:round;stroke-dasharray:1,1;"/><path id="path1809-3-5-8-6-1-0-1" d="M99.81,25.567c3.3,3.584 8.873,1.611 8.725,-1.849c-0.103,-2.411 -2.393,-3.187 -4.463,-3.552c-2.182,-0.385 -4.163,-0.968 -4.344,-3.182c-0.229,-2.8 4.374,-5.094 8.522,-2.178" style="fill:none;fill-rule:nonzero;stroke:#000;stroke-opacity:0.08;stroke-width:0.5px;stroke-linecap:round;stroke-linejoin:round;stroke-dasharray:1,1;"/><path id="path1809-3-5-8-6-1-0-6-5" d="M130.81,25.567c3.3,3.584 8.873,1.611 8.725,-1.849c-0.103,-2.411 -2.393,-3.187 -4.463,-3.552c-2.182,-0.385 -4.163,-0.968 -4.344,-3.182c-0.229,-2.8 4.374,-5.094 8.522,-2.178" style="fill:none;fill-rule:nonzero;stroke:#000;stroke-opacity:0.04;stroke-width:0.5px;stroke-linecap:round;stroke-linejoin:round;stroke-dasharray:1,1;"/><path id="path1809-3-5-8-6-1-0-6-3-5" d="M161.81,25.567c3.3,3.584 8.873,1.611 8.725,-1.849c-0.103,-2.411 -2.393,-3.187 -4.463,-3.552c-2.182,-0.385 -4.163,-0.968 -4.344,-3.182c-0.229,-2.8 4.374,-5.094 8.522,-2.178" style="fill:none;fill-rule:nonzero;stroke:#000;stroke-opacity:0.04;stroke-width:0.5px;stroke-linecap:round;stroke-linejoin:round;stroke-dasharray:1,1;"/><g><path id="path1883-2" d="M7.684,24.993l-1.214,-1.298l1.767,-0.193c-0.511,0.235 -0.787,0.98 -0.553,1.491Z" style="fill:#f00;fill-opacity:0.66;fill-rule:nonzero;"/><path d="M15.282,12.09c-6.266,-2.493 -10.7,-0.078 -10.742,4.052c-0.052,5.016 3.167,4.89 5.134,5.365c1.797,0.434 2.882,0.473 2.779,1.862c-0.059,0.8 -0.593,1.6 -1.972,1.566c-0.863,-0.021 -1.701,-0.367 -2.818,-0.799" style="fill:none;fill-rule:nonzero;stroke:#f00;stroke-opacity:0.66;stroke-width:0.27px;"/><path id="text833" d="M5.156,17.078c0,-1.415 0.504,-2.543 1.511,-3.382c1.008,-0.84 2.171,-1.259 3.49,-1.259c1.343,0 2.627,0.24 3.85,0.72c1.223,0.48 1.835,1.115 1.835,1.907c0,0.408 -0.156,0.732 -0.468,0.972c-0.312,0.24 -0.588,0.36 -0.828,0.36l-0.54,0c-0.12,-0.024 -0.6,-0.252 -1.439,-0.684c-0.816,-0.432 -1.571,-0.648 -2.267,-0.648c-0.696,0 -1.295,0.18 -1.799,0.54c-0.48,0.336 -0.72,0.84 -0.72,1.511c0,0.672 0.276,1.199 0.828,1.583c0.576,0.384 1.571,0.72 2.987,1.008c1.415,0.264 2.495,0.648 3.238,1.151c0.768,0.504 1.151,1.439 1.151,2.807c0,1.991 -0.528,3.406 -1.583,4.246c-1.032,0.816 -2.291,1.223 -3.778,1.223c-1.487,0 -2.759,-0.204 -3.814,-0.612c-1.032,-0.408 -1.547,-1.02 -1.547,-1.835c0,-0.936 0.468,-1.403 1.403,-1.403c0.24,0 0.768,0.168 1.583,0.504c0.816,0.336 1.619,0.504 2.411,0.504c0.816,0 1.427,-0.252 1.835,-0.756c0.432,-0.528 0.648,-1.127 0.648,-1.799c0,-0.672 -0.276,-1.151 -0.828,-1.439c-0.552,-0.312 -1.391,-0.564 -2.519,-0.756c-1.127,-0.192 -1.955,-0.396 -2.483,-0.612c-1.439,-0.576 -2.159,-1.859 -2.159,-3.85Z" style="fill-rule:nonzero;"/><path id="text1155-9" d="M5.94,11.234l-0.243,0l0,-1.408c0,-0.081 0.001,-0.146 0.003,-0.195c0.002,-0.049 0.005,-0.1 0.008,-0.152c-0.03,0.03 -0.057,0.056 -0.082,0.076c-0.024,0.021 -0.056,0.047 -0.093,0.079l-0.214,0.175l-0.13,-0.167l0.545,-0.423l0.206,0l-0,2.015Z" style="fill:#f00;fill-rule:nonzero;"/></g></g></svg>