<?xml version="1.0" encoding="UTF-8" standalone="no"?><!DOCTYPE svg PUBLIC "-//W3C//DTD SVG 1.1//EN" "http://www.w3.org/Graphics/SVG/1.1/DTD/svg11.dtd"><svg width="100%" height="100%" viewBox="0 0 185 42" version="1.1" xmlns="http://www.w3.org/2000/svg" xmlns:xlink="http://www.w3.org/1999/xlink" xml:space="preserve" xmlns:serif="http://www.serif.com/" style="fill-rule:evenodd;clip-rule:evenodd;"><g><path id="path1018-7-4-8-4-9-7" d="M2.5,13.005l180,0" style="fill:none;fill-rule:nonzero;stroke:#000;stroke-opacity:0.3;stroke-width:0.25px;stroke-dasharray:0.5,0.5;"/><rect id="path4601-3-6-3-2-1" x="2.5" y="4.006" width="180" height="23.997" style="fill:none;fill-rule:nonzero;stroke:#000;stroke-opacity:0.66;stroke-width:0.25px;stroke-linecap:round;stroke-linejoin:round;"/><path id="path1809-3-5-5-6" d="M43.667,27.611c-3.858,0.005 -5.894,-4.485 -5.916,-7.258c-0.027,-3.403 1.789,-6.933 5.918,-6.898c3.661,0.031 5.746,3.371 5.717,6.735c-0.031,3.578 -2.248,7.417 -5.719,7.421Z" style="fill:none;fill-rule:nonzero;stroke:#000;stroke-opacity:0.32;stroke-width:0.5px;stroke-linecap:round;stroke-linejoin:round;stroke-dasharray:1,1;"/><path id="path1809-3-5-5-2-06" d="M74.667,27.611c-3.858,0.005 -5.894,-4.485 -5.916,-7.258c-0.027,-3.403 1.789,-6.933 5.918,-6.898c3.661,0.031 5.746,3.371 5.717,6.735c-0.031,3.578 -2.248,7.417 -5.719,7.421Z" style="fill:none;fill-rule:nonzero;stroke:#000;stroke-opacity:0.16;stroke-width:0.5px;stroke-linecap:round;stroke-linejoin:round;stroke-dasharray:1,1;"/><path id="path1809-3-5-5-2-0-2" d="M105.667,27.611c-3.858,0.005 -5.894,-4.485 -5.916,-7.258c-0.027,-3.403 1.789,-6.933 5.918,-6.898c3.661,0.031 5.746,3.371 5.717,6.735c-0.031,3.578 -2.248,7.417 -5.719,7.421Z" style="fill:none;fill-rule:nonzero;stroke:#000;stroke-opacity:0.08;stroke-width:0.5px;stroke-linecap:round;stroke-linejoin:round;stroke-dasharray:1,1;"/><path id="path1809-3-5-5-2-0-9-6" d="M136.667,27.611c-3.858,0.005 -5.894,-4.485 -5.916,-7.258c-0.027,-3.403 1.789,-6.933 5.918,-6.898c3.661,0.031 5.746,3.371 5.717,6.735c-0.031,3.578 -2.248,7.417 -5.719,7.421Z" style="fill:none;fill-rule:nonzero;stroke:#000;stroke-opacity:0.04;stroke-width:0.5px;stroke-linecap:round;stroke-linejoin:round;stroke-dasharray:1,1;"/><path id="path1809-3-5-5-2-0-9-3-1" d="M167.667,27.611c-3.858,0.005 -5.894,-4.485 -5.916,-7.258c-0.027,-3.403 1.789,-6.933 5.918,-6.898c3.661,0.031 5.746,3.371 5.717,6.735c-0.031,3.578 -2.248,7.417 -5.719,7.421Z" style="fill:none;fill-rule:nonzero;stroke:#000;stroke-opacity:0.04;stroke-width:0.5px;stroke-linecap:round;stroke-linejoin:round;stroke-dasharray:1,1;"/><g><path id="text833" d="M11.947,12.664c1.727,0 3.143,0.828 4.246,2.483c1.127,1.655 1.691,3.646 1.691,5.973c0,2.303 -0.576,4.27 -1.727,5.901c-1.127,1.631 -2.639,2.447 -4.534,2.447c-1.871,0 -3.382,-0.828 -4.534,-2.483c-1.151,-1.679 -1.727,-3.538 -1.727,-5.577c0,-2.615 0.528,-4.702 1.583,-6.261c1.127,-1.655 2.795,-2.483 5.002,-2.483Zm-0.432,2.951c-1.008,0 -1.835,0.528 -2.483,1.583c-0.648,1.056 -0.972,2.171 -0.972,3.346c0,1.823 0.36,3.215 1.079,4.174c0.72,0.96 1.535,1.439 2.447,1.439c1.631,0 2.675,-0.708 3.131,-2.123c0.192,-0.672 0.288,-1.511 0.288,-2.519c0,-3.934 -1.163,-5.901 -3.49,-5.901Z" style="fill-rule:nonzero;"/><path id="path3391" d="M17.826,16.594l0.104,-1.775l1.358,1.148c-0.522,-0.209 -1.253,0.105 -1.461,0.627Z" style="fill:#f00;fill-opacity:0.66;fill-rule:nonzero;"/><path d="M16.67,12.692c-5.259,-4.245 -13.019,-1.493 -12.417,8.668c0.369,6.238 4.621,8.851 7.988,8.558c5.405,-0.471 8.406,-7.866 6.191,-13.93" style="fill:none;fill-rule:nonzero;stroke:#f00;stroke-opacity:0.66;stroke-width:0.27px;"/><path id="text1155-7" d="M5.881,11.826l-0.243,0l0,-1.408c0,-0.081 0.001,-0.146 0.003,-0.195c0.002,-0.049 0.005,-0.1 0.008,-0.152c-0.03,0.03 -0.057,0.056 -0.082,0.076c-0.024,0.021 -0.056,0.047 -0.093,0.079l-0.214,0.175l-0.13,-0.167l0.545,-0.423l0.206,0l-0,2.015Z" style="fill:#f00;fill-rule:nonzero;"/></g></g></svg>