<?xml version="1.0" encoding="UTF-8" standalone="no"?><!DOCTYPE svg PUBLIC "-//W3C//DTD SVG 1.1//EN" "http://www.w3.org/Graphics/SVG/1.1/DTD/svg11.dtd"><svg width="100%" height="100%" viewBox="0 0 185 42" version="1.1" xmlns="http://www.w3.org/2000/svg" xmlns:xlink="http://www.w3.org/1999/xlink" xml:space="preserve" xmlns:serif="http://www.serif.com/" style="fill-rule:evenodd;clip-rule:evenodd;"><g><path id="path1018-7-4-8-4-9-7" d="M2.5,13.005l180,0" style="fill:none;fill-rule:nonzero;stroke:#000;stroke-opacity:0.3;stroke-width:0.25px;stroke-dasharray:0.5,0.5;"/><rect id="path4601-3-6-3-2-1" x="2.5" y="4.006" width="180" height="23.997" style="fill:none;fill-rule:nonzero;stroke:#000;stroke-opacity:0.66;stroke-width:0.25px;stroke-linecap:round;stroke-linejoin:round;"/><path id="path5452-78-1-0-4" d="M47.131,27.484c-0.111,-6.545 0.719,-14.587 -3.156,-14.156c-2.722,0.303 -4.782,2.154 -6.05,4.629m0.233,9.404c0.175,-4.91 0.077,-8.853 -0.515,-13.946" style="fill:none;fill-rule:nonzero;stroke:#000;stroke-opacity:0.32;stroke-width:0.5px;stroke-linecap:round;stroke-linejoin:round;stroke-dasharray:1,1;"/><path id="path5452-78-1-0-8-1" d="M78.131,27.484c-0.111,-6.545 0.719,-14.587 -3.156,-14.156c-2.722,0.303 -4.782,2.154 -6.05,4.629m0.233,9.404c0.175,-4.91 0.077,-8.853 -0.515,-13.946" style="fill:none;fill-rule:nonzero;stroke:#000;stroke-opacity:0.16;stroke-width:0.5px;stroke-linecap:round;stroke-linejoin:round;stroke-dasharray:1,1;"/><path id="path5452-78-1-0-8-5-5" d="M109.131,27.484c-0.111,-6.545 0.719,-14.587 -3.156,-14.156c-2.722,0.303 -4.782,2.154 -6.05,4.629m0.233,9.404c0.175,-4.91 0.077,-8.853 -0.515,-13.946" style="fill:none;fill-rule:nonzero;stroke:#000;stroke-opacity:0.08;stroke-width:0.5px;stroke-linecap:round;stroke-linejoin:round;stroke-dasharray:1,1;"/><path id="path5452-78-1-0-8-5-3-4" d="M140.131,27.484c-0.111,-6.545 0.719,-14.587 -3.156,-14.156c-2.722,0.303 -4.782,2.154 -6.05,4.629m0.233,9.404c0.175,-4.91 0.077,-8.853 -0.515,-13.946" style="fill:none;fill-rule:nonzero;stroke:#000;stroke-opacity:0.04;stroke-width:0.5px;stroke-linecap:round;stroke-linejoin:round;stroke-dasharray:1,1;"/><path id="path5452-78-1-0-8-5-3-9-1" d="M171.131,27.484c-0.111,-6.545 0.719,-14.587 -3.156,-14.156c-2.722,0.303 -4.782,2.154 -6.05,4.629m0.233,9.404c0.175,-4.91 0.077,-8.853 -0.515,-13.946" style="fill:none;fill-rule:nonzero;stroke:#000;stroke-opacity:0.04;stroke-width:0.5px;stroke-linecap:round;stroke-linejoin:round;stroke-dasharray:1,1;"/><g><path id="text833" d="M6.587,28.083l-0.396,-14.609c0,-0.456 0.156,-0.828 0.468,-1.115c0.312,-0.288 0.624,-0.432 0.936,-0.432c0.768,0 1.211,0.324 1.331,0.972c0.096,0.648 0.144,1.319 0.144,2.015c1.295,-1.703 2.915,-2.555 4.858,-2.555c2.975,0 4.462,3.394 4.462,10.183l0,2.843c0,1.247 -0.072,2.159 -0.216,2.735c-0.168,0.72 -0.684,1.079 -1.547,1.079c-0.576,0 -0.864,-0.384 -0.864,-1.151l0.036,-2.015c0,-2.783 -0.096,-4.678 -0.288,-5.685c-0.168,-1.032 -0.336,-1.847 -0.504,-2.447c-0.408,-1.295 -1.068,-1.943 -1.979,-1.943c-1.199,0 -2.039,0.432 -2.519,1.295c-0.528,0.936 -0.84,2.039 -0.936,3.31c-0.168,2.231 -0.252,4.594 -0.252,7.089c0,0.48 -0.18,0.864 -0.54,1.151c-0.36,0.288 -0.792,0.432 -1.295,0.432c-0.6,0 -0.9,-0.384 -0.9,-1.151l0,0Z" style="fill-rule:nonzero;"/><path id="path3391" d="M6.34,25.937l-0.805,1.585l-0.785,-1.595c0.395,0.4 1.19,0.405 1.59,0.01Z" style="fill:#f00;fill-opacity:0.66;fill-rule:nonzero;"/><path d="M5.128,12.379c0.254,5.313 0.419,9.964 0.414,13.871" style="fill:none;fill-rule:nonzero;stroke:#f00;stroke-opacity:0.66;stroke-width:0.27px;"/><path id="text1155-1" d="M4.021,18.049l-0.243,0l0,-1.408c0,-0.081 0.001,-0.146 0.003,-0.195c0.002,-0.049 0.005,-0.1 0.008,-0.152c-0.03,0.03 -0.057,0.056 -0.082,0.076c-0.024,0.021 -0.056,0.047 -0.093,0.079l-0.214,0.175l-0.13,-0.167l0.545,-0.423l0.206,0l-0,2.015Z" style="fill:#f00;fill-rule:nonzero;"/><path id="path2831-4" d="M20.057,25.965l-0.876,1.544l-0.71,-1.627c0.376,0.417 1.168,0.459 1.585,0.083Z" style="fill:#f00;fill-opacity:0.66;fill-rule:nonzero;"/><path d="M9.818,12.14c2.32,-1.847 6.97,-2.063 8.276,1.424c1.021,2.726 1.411,6.957 1.153,12.676" style="fill:none;fill-rule:nonzero;stroke:#f00;stroke-opacity:0.66;stroke-width:0.26px;"/><path id="text1159-1" d="M20.382,14.031l-1.332,0l0,-0.206l0.528,-0.533c0.102,-0.102 0.187,-0.192 0.257,-0.271c0.07,-0.079 0.122,-0.156 0.158,-0.231c0.036,-0.077 0.054,-0.161 0.054,-0.251c0,-0.111 -0.033,-0.195 -0.099,-0.251c-0.066,-0.058 -0.151,-0.087 -0.257,-0.087c-0.098,0 -0.184,0.017 -0.26,0.051c-0.073,0.034 -0.149,0.081 -0.226,0.141l-0.133,-0.167c0.079,-0.066 0.169,-0.121 0.271,-0.167c0.103,-0.047 0.219,-0.071 0.347,-0.071c0.188,0 0.337,0.048 0.446,0.144c0.109,0.094 0.164,0.225 0.164,0.392c0,0.105 -0.022,0.204 -0.065,0.296c-0.043,0.092 -0.103,0.183 -0.181,0.274c-0.077,0.088 -0.167,0.183 -0.271,0.285l-0.421,0.415l0,0.011l1.019,0l0,0.226Z" style="fill:#f00;fill-rule:nonzero;"/></g></g></svg>