<?xml version="1.0" encoding="UTF-8" standalone="no"?><!DOCTYPE svg PUBLIC "-//W3C//DTD SVG 1.1//EN" "http://www.w3.org/Graphics/SVG/1.1/DTD/svg11.dtd"><svg width="100%" height="100%" viewBox="0 0 185 42" version="1.1" xmlns="http://www.w3.org/2000/svg" xmlns:xlink="http://www.w3.org/1999/xlink" xml:space="preserve" xmlns:serif="http://www.serif.com/" style="fill-rule:evenodd;clip-rule:evenodd;"><g><path id="path1018-7-4-8-4-9-7" d="M2.5,13.005l180,0" style="fill:none;fill-rule:nonzero;stroke:#000;stroke-opacity:0.3;stroke-width:0.25px;stroke-dasharray:0.5,0.5;"/><rect id="path4601-3-6-3-2-1" x="2.5" y="4.006" width="180" height="23.997" style="fill:none;fill-rule:nonzero;stroke:#000;stroke-opacity:0.66;stroke-width:0.25px;stroke-linecap:round;stroke-linejoin:round;"/><path id="path5452-2-5-0-0" d="M42.805,18.343c2.631,2.419 4.642,6.72 5.181,9.158m-0.842,-14.614c-1.625,2.688 -5.982,7.507 -8.636,9.177m-0.757,-17.51c0.07,7.438 0.488,16.23 0.596,22.836" style="fill:none;fill-rule:nonzero;stroke:#000;stroke-opacity:0.32;stroke-width:0.5px;stroke-linecap:round;stroke-linejoin:round;stroke-dasharray:1,1;"/><path id="path5452-2-5-0-1-4" d="M73.805,18.343c2.631,2.419 4.642,6.72 5.181,9.158m-0.842,-14.614c-1.625,2.688 -5.982,7.507 -8.636,9.177m-0.757,-17.51c0.07,7.438 0.488,16.23 0.596,22.836" style="fill:none;fill-rule:nonzero;stroke:#000;stroke-opacity:0.16;stroke-width:0.5px;stroke-linecap:round;stroke-linejoin:round;stroke-dasharray:1,1;"/><path id="path5452-2-5-0-1-7-0" d="M104.805,18.343c2.631,2.419 4.642,6.72 5.181,9.158m-0.842,-14.614c-1.625,2.688 -5.982,7.507 -8.636,9.177m-0.757,-17.51c0.07,7.438 0.488,16.23 0.596,22.836" style="fill:none;fill-rule:nonzero;stroke:#000;stroke-opacity:0.08;stroke-width:0.5px;stroke-linecap:round;stroke-linejoin:round;stroke-dasharray:1,1;"/><path id="path5452-2-5-0-1-7-4-8" d="M135.805,18.343c2.631,2.419 4.642,6.72 5.181,9.158m-0.842,-14.614c-1.625,2.688 -5.982,7.507 -8.636,9.177m-0.757,-17.51c0.07,7.438 0.488,16.23 0.596,22.836" style="fill:none;fill-rule:nonzero;stroke:#000;stroke-opacity:0.04;stroke-width:0.5px;stroke-linecap:round;stroke-linejoin:round;stroke-dasharray:1,1;"/><path id="path5452-2-5-0-1-7-4-0-0" d="M166.805,18.343c2.631,2.419 4.642,6.72 5.181,9.158m-0.842,-14.614c-1.625,2.688 -5.982,7.507 -8.636,9.177m-0.757,-17.51c0.07,7.438 0.488,16.23 0.596,22.836" style="fill:none;fill-rule:nonzero;stroke:#000;stroke-opacity:0.04;stroke-width:0.5px;stroke-linecap:round;stroke-linejoin:round;stroke-dasharray:1,1;"/><g><path id="path2831-8-9" d="M14.574,26.111l0.044,1.774l-1.446,-1.029c0.537,0.164 1.238,-0.208 1.402,-0.745Z" style="fill:#f00;fill-opacity:0.66;fill-rule:nonzero;"/><path d="M11.432,22.121c1.495,1.459 1.761,2.889 2.59,4.643" style="fill:none;fill-rule:nonzero;stroke:#f00;stroke-opacity:0.66;stroke-width:0.26px;"/><path id="text833" d="M17.844,27.383c0,1.127 -0.516,1.691 -1.547,1.691c-0.432,0 -1.02,-1.056 -1.763,-3.167c-0.744,-2.135 -1.739,-3.778 -2.987,-4.93c-0.12,0.168 -0.636,0.648 -1.547,1.439c-0.888,0.768 -1.415,1.235 -1.583,1.403l0,3.598c-0.048,0.36 -0.108,0.636 -0.18,0.828c-0.072,0.192 -0.24,0.372 -0.504,0.54c-0.24,0.168 -0.576,0.252 -1.008,0.252c-0.648,0 -0.972,-0.396 -0.972,-1.187c0,-2.231 -0.096,-5.685 -0.288,-10.363c-0.192,-4.702 -0.288,-8.912 -0.288,-12.63c0,-0.456 0.18,-0.816 0.54,-1.079c0.384,-0.264 0.78,-0.396 1.187,-0.396c0.552,0 0.888,0.348 1.008,1.044l0,6.369c0,0.768 0.012,1.343 0.036,1.727c0.024,0.384 0.048,0.96 0.072,1.727c0.048,1.583 0.132,3.37 0.252,5.362c0.696,-0.528 1.583,-1.355 2.663,-2.483c1.103,-1.151 1.931,-2.135 2.483,-2.951c0.864,-1.367 1.655,-2.051 2.375,-2.051c0.192,0 0.384,0.048 0.576,0.144c0.504,0.288 0.756,0.624 0.756,1.008c0,0.384 -0.168,0.888 -0.504,1.511c-0.864,1.487 -1.859,2.843 -2.987,4.066c1.079,1.199 2.159,2.915 3.238,5.146c0.648,1.439 0.972,2.567 0.972,3.382Z" style="fill-rule:nonzero;"/><path id="path3391" d="M5.276,25.827l-0.732,1.62l-0.857,-1.558c0.413,0.382 1.207,0.35 1.589,-0.062Z" style="fill:#f00;fill-opacity:0.66;fill-rule:nonzero;"/><path d="M3.793,8.481c-0.071,7.612 0.37,9.715 0.701,17.695" style="fill:none;fill-rule:nonzero;stroke:#f00;stroke-opacity:0.66;stroke-width:0.27px;"/><path id="text1155-1" d="M4.164,7.426l-0.243,0l0,-1.408c0,-0.081 0.001,-0.146 0.003,-0.195c0.002,-0.049 0.005,-0.1 0.008,-0.152c-0.03,0.03 -0.057,0.056 -0.082,0.076c-0.024,0.021 -0.056,0.047 -0.093,0.079l-0.214,0.175l-0.13,-0.167l0.545,-0.423l0.206,0l-0,2.015Z" style="fill:#f00;fill-rule:nonzero;"/><path id="text1159-9" d="M12.271,9.511l-1.332,0l0,-0.206l0.528,-0.533c0.102,-0.102 0.187,-0.192 0.257,-0.271c0.07,-0.079 0.122,-0.156 0.158,-0.231c0.036,-0.077 0.054,-0.161 0.054,-0.251c0,-0.111 -0.033,-0.195 -0.099,-0.251c-0.066,-0.058 -0.151,-0.087 -0.257,-0.087c-0.098,0 -0.184,0.017 -0.26,0.051c-0.073,0.034 -0.149,0.081 -0.226,0.141l-0.133,-0.167c0.079,-0.066 0.169,-0.121 0.271,-0.167c0.103,-0.047 0.219,-0.071 0.347,-0.071c0.188,0 0.337,0.048 0.446,0.144c0.109,0.094 0.164,0.225 0.164,0.392c0,0.105 -0.022,0.204 -0.065,0.296c-0.043,0.092 -0.103,0.183 -0.181,0.274c-0.077,0.088 -0.167,0.183 -0.271,0.285l-0.421,0.415l0,0.011l1.019,0l0,0.226Z" style="fill:#f00;fill-rule:nonzero;"/><path id="path2831-1" d="M10.705,16.363l-1.683,0.565l0.557,-1.685c0.001,0.561 0.564,1.121 1.125,1.12Z" style="fill:#f00;fill-opacity:0.66;fill-rule:nonzero;"/><path d="M13.929,10.825c-1.169,1.933 -2.277,3.412 -4.01,5.203" style="fill:none;fill-rule:nonzero;stroke:#f00;stroke-opacity:0.66;stroke-width:0.26px;"/></g></g></svg>