<?xml version="1.0" encoding="UTF-8" standalone="no"?><!DOCTYPE svg PUBLIC "-//W3C//DTD SVG 1.1//EN" "http://www.w3.org/Graphics/SVG/1.1/DTD/svg11.dtd"><svg width="100%" height="100%" viewBox="0 0 185 42" version="1.1" xmlns="http://www.w3.org/2000/svg" xmlns:xlink="http://www.w3.org/1999/xlink" xml:space="preserve" xmlns:serif="http://www.serif.com/" style="fill-rule:evenodd;clip-rule:evenodd;"><g><path id="path1018-7-4-8-4-9-7" d="M2.5,12.956l180,0" style="fill:none;fill-rule:nonzero;stroke:#000;stroke-opacity:0.3;stroke-width:0.25px;stroke-dasharray:0.5,0.5;"/><rect id="path4601-3-6-3-2-1" x="2.5" y="3.958" width="180" height="23.997" style="fill:none;fill-rule:nonzero;stroke:#000;stroke-opacity:0.66;stroke-width:0.25px;stroke-linecap:round;stroke-linejoin:round;"/><path id="path1809-3-5-6-2-5" d="M37.905,25.023c5.415,5.005 11.062,1.949 11.15,-4.924c0.084,-6.53 -7.153,-9.399 -11.181,-3.226m-0.018,-3.355l-0.107,24.961" style="fill:none;fill-rule:nonzero;stroke:#000;stroke-opacity:0.32;stroke-width:0.5px;stroke-linecap:round;stroke-linejoin:round;stroke-dasharray:1,1;"/><path id="path1809-3-5-6-2-0-4" d="M68.905,25.023c5.415,5.005 11.062,1.949 11.15,-4.924c0.084,-6.53 -7.153,-9.399 -11.181,-3.226m-0.018,-3.355l-0.107,24.961" style="fill:none;fill-rule:nonzero;stroke:#000;stroke-opacity:0.16;stroke-width:0.5px;stroke-linecap:round;stroke-linejoin:round;stroke-dasharray:1,1;"/><path id="path1809-3-5-6-2-0-6-7" d="M99.905,25.023c5.415,5.005 11.062,1.949 11.15,-4.924c0.084,-6.53 -7.153,-9.399 -11.181,-3.226m-0.018,-3.355l-0.107,24.961" style="fill:none;fill-rule:nonzero;stroke:#000;stroke-opacity:0.08;stroke-width:0.5px;stroke-linecap:round;stroke-linejoin:round;stroke-dasharray:1,1;"/><path id="path1809-3-5-6-2-0-6-1-6" d="M130.905,25.023c5.415,5.005 11.062,1.949 11.15,-4.924c0.084,-6.53 -7.153,-9.399 -11.181,-3.226m-0.018,-3.355l-0.107,24.961" style="fill:none;fill-rule:nonzero;stroke:#000;stroke-opacity:0.04;stroke-width:0.5px;stroke-linecap:round;stroke-linejoin:round;stroke-dasharray:1,1;"/><path id="path1809-3-5-6-2-0-6-1-5-5" d="M161.905,25.023c5.415,5.005 11.062,1.949 11.15,-4.924c0.084,-6.53 -7.153,-9.399 -11.181,-3.226m-0.018,-3.355l-0.107,24.961" style="fill:none;fill-rule:nonzero;stroke:#000;stroke-opacity:0.04;stroke-width:0.5px;stroke-linecap:round;stroke-linejoin:round;stroke-dasharray:1,1;"/><g><path id="text833" d="M11.327,29.305c-0.816,0 -1.571,-0.276 -2.267,-0.828c0,0 -0.156,-0.132 -0.468,-0.396l0,10.795c-0.144,0.48 -0.396,0.876 -0.756,1.187c-0.36,0.336 -0.744,0.504 -1.151,0.504c-0.624,0 -0.936,-0.42 -0.936,-1.259l0,-25.08c0.144,-0.624 0.312,-1.068 0.504,-1.331c0.216,-0.264 0.54,-0.396 0.972,-0.396c0.456,0 0.744,0.108 0.864,0.324c0.144,0.192 0.312,0.744 0.504,1.655c0.096,-0.48 0.48,-0.924 1.151,-1.331c0.672,-0.408 1.571,-0.612 2.699,-0.612c2.447,0 4.186,0.888 5.218,2.663c1.032,1.775 1.547,3.874 1.547,6.297c0,2.399 -0.708,4.306 -2.123,5.721c-1.391,1.391 -3.31,2.087 -5.757,2.087Zm-2.735,-10.795l0,6.693c0.144,0.072 0.312,0.192 0.504,0.36c0.696,0.624 1.451,0.936 2.267,0.936c3.31,0 4.966,-1.703 4.966,-5.11c0,-2.903 -0.744,-4.738 -2.231,-5.505c-0.624,-0.336 -1.391,-0.504 -2.303,-0.504c-0.888,0.12 -1.643,0.516 -2.267,1.187c-0.624,0.648 -0.936,1.295 -0.936,1.943Z" style="fill-rule:nonzero;"/><path id="path1883-1" d="M10.879,31.664l-1.39,-1.109l1.721,-0.447c-0.472,0.306 -0.637,1.084 -0.331,1.555Z" style="fill:#f00;fill-opacity:0.66;fill-rule:nonzero;"/><path d="M9.095,11.634c6.013,-2.208 10.918,0.61 10.913,9.119c-0.004,5.706 -3.917,10.78 -9.274,10.067" style="fill:none;fill-rule:nonzero;stroke:#f00;stroke-opacity:0.66;stroke-width:0.27px;"/><path id="text1155-29" d="M3.823,16.096l-0.243,0l0,-1.408c0,-0.081 0.001,-0.146 0.003,-0.195c0.002,-0.049 0.005,-0.1 0.008,-0.152c-0.03,0.03 -0.057,0.056 -0.082,0.076c-0.024,0.021 -0.056,0.047 -0.093,0.079l-0.214,0.175l-0.13,-0.167l0.545,-0.423l0.206,0l-0,2.015Z" style="fill:#f00;fill-rule:nonzero;"/><path id="path1883-0-9" d="M5.336,37.18l-0.82,1.577l-0.77,-1.602c0.391,0.404 1.186,0.416 1.59,0.025Z" style="fill:#f00;fill-opacity:0.66;fill-rule:nonzero;"/><path d="M4.591,12.928c-0.033,3.511 -0.002,19.341 -0.055,24.558" style="fill:none;fill-rule:nonzero;stroke:#f00;stroke-opacity:0.66;stroke-width:0.27px;"/><path id="text1155-2-4" d="M17.369,10.634l-1.332,0l0,-0.206l0.528,-0.533c0.102,-0.102 0.187,-0.192 0.257,-0.271c0.07,-0.079 0.122,-0.156 0.158,-0.231c0.036,-0.077 0.054,-0.161 0.054,-0.251c0,-0.111 -0.033,-0.195 -0.099,-0.251c-0.066,-0.058 -0.151,-0.087 -0.257,-0.087c-0.098,0 -0.184,0.017 -0.26,0.051c-0.073,0.034 -0.149,0.081 -0.226,0.141l-0.133,-0.167c0.079,-0.066 0.169,-0.121 0.271,-0.167c0.103,-0.047 0.219,-0.071 0.347,-0.071c0.188,0 0.337,0.048 0.446,0.144c0.109,0.094 0.164,0.225 0.164,0.392c0,0.105 -0.022,0.204 -0.065,0.296c-0.043,0.092 -0.103,0.183 -0.181,0.274c-0.077,0.088 -0.167,0.183 -0.271,0.285l-0.421,0.415l0,0.011l1.019,0l0,0.226Z" style="fill:#f00;fill-rule:nonzero;"/></g></g></svg>