<?xml version="1.0" encoding="UTF-8" standalone="no"?><!DOCTYPE svg PUBLIC "-//W3C//DTD SVG 1.1//EN" "http://www.w3.org/Graphics/SVG/1.1/DTD/svg11.dtd"><svg width="100%" height="100%" viewBox="0 0 185 42" version="1.1" xmlns="http://www.w3.org/2000/svg" xmlns:xlink="http://www.w3.org/1999/xlink" xml:space="preserve" xmlns:serif="http://www.serif.com/" style="fill-rule:evenodd;clip-rule:evenodd;"><g><path id="path1018-7-4-8-4-9-7" d="M2.5,12.956l180,0" style="fill:none;fill-rule:nonzero;stroke:#000;stroke-opacity:0.3;stroke-width:0.25px;stroke-dasharray:0.5,0.5;"/><rect id="path4601-3-6-3-2-1" x="2.5" y="3.958" width="180" height="23.997" style="fill:none;fill-rule:nonzero;stroke:#000;stroke-opacity:0.66;stroke-width:0.25px;stroke-linecap:round;stroke-linejoin:round;"/><path id="path5452-2-5-0-3" d="M37.75,13.721c2.385,-0.312 8.41,-0.148 11.374,0.203c-1.228,4.19 -9.16,8.439 -10.901,13.146c1.439,0.171 8.208,0.47 11.498,-0.159" style="fill:none;fill-rule:nonzero;stroke:#000;stroke-opacity:0.32;stroke-width:0.5px;stroke-linecap:round;stroke-linejoin:round;stroke-dasharray:1,1;"/><path id="path5452-2-5-0-5-0" d="M68.75,13.721c2.385,-0.312 8.41,-0.148 11.374,0.203c-1.228,4.19 -9.16,8.439 -10.901,13.146c1.439,0.171 8.208,0.47 11.498,-0.159" style="fill:none;fill-rule:nonzero;stroke:#000;stroke-opacity:0.16;stroke-width:0.5px;stroke-linecap:round;stroke-linejoin:round;stroke-dasharray:1,1;"/><path id="path5452-2-5-0-5-8-88" d="M99.75,13.721c2.385,-0.312 8.41,-0.148 11.374,0.203c-1.228,4.19 -9.16,8.439 -10.901,13.146c1.439,0.171 8.208,0.47 11.498,-0.159" style="fill:none;fill-rule:nonzero;stroke:#000;stroke-opacity:0.08;stroke-width:0.5px;stroke-linecap:round;stroke-linejoin:round;stroke-dasharray:1,1;"/><path id="path5452-2-5-0-5-8-8-6" d="M161.669,14.997c2.385,-0.312 8.41,-0.148 11.374,0.203c-1.228,4.19 -9.16,8.439 -10.901,13.146c1.439,0.171 8.208,0.47 11.498,-0.159" style="fill:none;fill-rule:nonzero;stroke:#000;stroke-opacity:0.04;stroke-width:0.5px;stroke-linecap:round;stroke-linejoin:round;stroke-dasharray:1,1;"/><path id="path5452-2-5-0-5-8-8-4-0" d="M130.75,13.721c2.385,-0.312 8.41,-0.148 11.374,0.203c-1.228,4.19 -9.16,8.439 -10.901,13.146c1.439,0.171 8.208,0.47 11.498,-0.159" style="fill:none;fill-rule:nonzero;stroke:#000;stroke-opacity:0.04;stroke-width:0.5px;stroke-linecap:round;stroke-linejoin:round;stroke-dasharray:1,1;"/><g><path id="path2831-8-9" d="M16.34,28.979l1.751,0.292l-1.284,1.225c0.263,-0.496 0.029,-1.255 -0.467,-1.517Z" style="fill:#f00;fill-opacity:0.66;fill-rule:nonzero;"/><path d="M5.387,16.261c1.993,0.115 5.918,-0.473 8.051,0.092c-4.255,2.54 -9.995,8.842 -8.955,12.48c0,0 7.289,2.037 12.393,0.811" style="fill:none;fill-rule:nonzero;stroke:#f00;stroke-opacity:0.66;stroke-width:0.26px;"/><path id="text833" d="M12.232,15.382l-5.146,0.468c-1.127,0 -1.691,-0.492 -1.691,-1.475c0,-1.032 0.588,-1.583 1.763,-1.655c0.36,-0.024 2.675,-0.036 6.945,-0.036c0.888,0 1.775,0.24 2.663,0.72c1.032,0.576 1.547,1.487 1.547,2.735c0,1.247 -0.864,2.615 -2.591,4.102c-0.72,0.624 -1.487,1.247 -2.303,1.871c-2.663,2.015 -3.994,3.286 -3.994,3.814c0,0.36 0.444,0.54 1.331,0.54c0.912,0 1.739,-0.048 2.483,-0.144c0.768,-0.12 1.583,-0.24 2.447,-0.36c0.864,-0.144 1.403,-0.216 1.619,-0.216c1.008,0 1.511,0.36 1.511,1.079c0,1.631 -2.447,2.447 -7.341,2.447c-1.775,0 -3.047,-0.192 -3.814,-0.576c-0.744,-0.384 -1.235,-1.068 -1.475,-2.051c-0.024,-0.144 -0.036,-0.288 -0.036,-0.432c0,-0.672 0.384,-1.487 1.151,-2.447c1.056,-1.295 2.435,-2.531 4.138,-3.706c1.943,-1.343 3.071,-2.291 3.382,-2.843c0.168,-0.312 0.228,-0.588 0.18,-0.828c-0.144,-0.672 -1.068,-1.008 -2.771,-1.008l-0,-0Z" style="fill-rule:nonzero;"/><path id="text1155-1" d="M6.802,20.287l-0.243,0l0,-1.408c0,-0.081 0.001,-0.146 0.003,-0.195c0.002,-0.049 0.005,-0.1 0.008,-0.152c-0.03,0.03 -0.057,0.056 -0.082,0.076c-0.024,0.021 -0.056,0.047 -0.093,0.079l-0.214,0.175l-0.13,-0.167l0.545,-0.423l0.206,0l-0,2.015Z" style="fill:#f00;fill-rule:nonzero;"/></g></g></svg>