<?xml version="1.0" encoding="UTF-8" standalone="no"?><!DOCTYPE svg PUBLIC "-//W3C//DTD SVG 1.1//EN" "http://www.w3.org/Graphics/SVG/1.1/DTD/svg11.dtd"><svg width="100%" height="100%" viewBox="0 0 185 42" version="1.1" xmlns="http://www.w3.org/2000/svg" xmlns:xlink="http://www.w3.org/1999/xlink" xml:space="preserve" xmlns:serif="http://www.serif.com/" style="fill-rule:evenodd;clip-rule:evenodd;"><g><path id="path1018-7-4-8-4-9-7" d="M2.5,13.005l180,0" style="fill:none;fill-rule:nonzero;stroke:#000;stroke-opacity:0.3;stroke-width:0.25px;stroke-dasharray:0.5,0.5;"/><rect id="path4601-3-6-3-2-1" x="2.5" y="4.006" width="180" height="23.997" style="fill:none;fill-rule:nonzero;stroke:#000;stroke-opacity:0.66;stroke-width:0.25px;stroke-linecap:round;stroke-linejoin:round;"/><path id="path1809-5-92-1-5-3-8" d="M37.75,13.705c-0.018,5.397 0.827,9.684 2.463,13.592c2.108,-2.646 2.596,-4.242 4.059,-7.613c1.032,2.87 2.442,4.886 3.615,7.782c1.96,-3.217 2.758,-9.084 2.214,-13.791" style="fill:none;fill-rule:nonzero;stroke:#000;stroke-opacity:0.32;stroke-width:0.5px;stroke-linecap:round;stroke-linejoin:round;stroke-dasharray:1,1;"/><path id="path1809-5-92-1-5-3-0-8" d="M68.75,13.705c-0.018,5.397 0.827,9.684 2.463,13.592c2.108,-2.646 2.596,-4.242 4.059,-7.613c1.032,2.87 2.442,4.886 3.615,7.782c1.96,-3.217 2.758,-9.084 2.214,-13.791" style="fill:none;fill-rule:nonzero;stroke:#000;stroke-opacity:0.16;stroke-width:0.5px;stroke-linecap:round;stroke-linejoin:round;stroke-dasharray:1,1;"/><path id="path1809-5-92-1-5-3-0-7-4" d="M99.75,13.705c-0.018,5.397 0.827,9.684 2.463,13.592c2.108,-2.646 2.596,-4.242 4.059,-7.613c1.032,2.87 2.442,4.886 3.615,7.782c1.96,-3.217 2.758,-9.084 2.214,-13.791" style="fill:none;fill-rule:nonzero;stroke:#000;stroke-opacity:0.08;stroke-width:0.5px;stroke-linecap:round;stroke-linejoin:round;stroke-dasharray:1,1;"/><path id="path1809-5-92-1-5-3-0-7-8-3" d="M130.75,13.705c-0.018,5.397 0.827,9.684 2.463,13.592c2.108,-2.646 2.596,-4.242 4.059,-7.613c1.032,2.87 2.442,4.886 3.615,7.782c1.96,-3.217 2.758,-9.084 2.214,-13.791" style="fill:none;fill-rule:nonzero;stroke:#000;stroke-opacity:0.04;stroke-width:0.5px;stroke-linecap:round;stroke-linejoin:round;stroke-dasharray:1,1;"/><path id="path1809-5-92-1-5-3-0-7-8-6-1" d="M161.75,13.705c-0.018,5.397 0.827,9.684 2.463,13.592c2.108,-2.646 2.596,-4.242 4.059,-7.613c1.032,2.87 2.442,4.886 3.615,7.782c1.96,-3.217 2.758,-9.084 2.214,-13.791" style="fill:none;fill-rule:nonzero;stroke:#000;stroke-opacity:0.04;stroke-width:0.5px;stroke-linecap:round;stroke-linejoin:round;stroke-dasharray:1,1;"/><g><path id="text833" d="M8.983,28.981c-0.816,0 -1.607,-1.583 -2.375,-4.75c-0.744,-3.191 -1.115,-6.765 -1.115,-10.723c0,-0.408 0.168,-0.72 0.504,-0.936c0.36,-0.24 0.684,-0.36 0.972,-0.36c0.288,0 0.516,0.096 0.684,0.288c0.192,0.168 0.288,0.396 0.288,0.684c0,3.742 0.636,7.341 1.907,10.795c0.192,-0.288 0.492,-0.864 0.9,-1.727c0.408,-0.888 0.792,-1.535 1.151,-1.943c0.36,-0.408 0.792,-0.612 1.295,-0.612c0.504,0 1.032,0.372 1.583,1.115c0.552,0.744 1.02,1.547 1.403,2.411c0.408,0.84 0.636,1.283 0.684,1.331c0.648,-2.015 0.972,-3.886 0.972,-5.613l-0.216,-5.469c-0.024,-0.36 0.144,-0.66 0.504,-0.9c0.36,-0.264 0.708,-0.396 1.044,-0.396c0.696,0 1.044,1.355 1.044,4.066l0,1.979c0,3.215 -0.492,6.081 -1.475,8.6c-0.528,1.439 -1.187,2.159 -1.979,2.159c-0.456,0 -0.876,-0.288 -1.259,-0.864c-0.384,-0.6 -0.816,-1.439 -1.295,-2.519c-0.48,-1.079 -0.852,-1.823 -1.115,-2.231l-1.079,2.123c-0.408,0.84 -0.72,1.451 -0.936,1.835c-0.216,0.36 -0.516,0.732 -0.9,1.115c-0.384,0.36 -0.78,0.54 -1.187,0.54Z" style="fill-rule:nonzero;"/><path id="text1155-1" d="M3.823,16.717l-0.243,0l0,-1.408c0,-0.081 0.001,-0.146 0.003,-0.195c0.002,-0.049 0.005,-0.1 0.008,-0.152c-0.03,0.03 -0.057,0.056 -0.082,0.076c-0.024,0.021 -0.056,0.047 -0.093,0.079l-0.214,0.175l-0.13,-0.167l0.545,-0.423l0.206,0l-0,2.015Z" style="fill:#f00;fill-rule:nonzero;"/><path id="path2831-9" d="M20.347,14.08l0.709,-1.627l0.876,1.544c-0.417,-0.375 -1.21,-0.334 -1.585,0.084Z" style="fill:#f00;fill-opacity:0.66;fill-rule:nonzero;"/><path d="M4.367,12.841c0.025,3.493 0.796,9.69 1.604,12.325c0.894,2.915 1.236,3.998 3.065,4.063c2.362,0.01 4.01,-4.521 4.01,-4.521c0,0 1.7,4.632 3.945,4.526c1.355,-0.064 2.49,-1.665 3.152,-4.08c0.805,-2.937 1.249,-5.619 0.981,-11.433" style="fill:none;fill-rule:nonzero;stroke:#f00;stroke-opacity:0.66;stroke-width:0.26px;"/></g></g></svg>