<?xml version="1.0" encoding="UTF-8" standalone="no"?><!DOCTYPE svg PUBLIC "-//W3C//DTD SVG 1.1//EN" "http://www.w3.org/Graphics/SVG/1.1/DTD/svg11.dtd"><svg width="100%" height="100%" viewBox="0 0 185 42" version="1.1" xmlns="http://www.w3.org/2000/svg" xmlns:xlink="http://www.w3.org/1999/xlink" xml:space="preserve" xmlns:serif="http://www.serif.com/" style="fill-rule:evenodd;clip-rule:evenodd;"><g><path id="path1018-7-4-8-4-9-7" d="M2.673,12.956l180,0" style="fill:none;fill-rule:nonzero;stroke:#000;stroke-opacity:0.3;stroke-width:0.25px;stroke-dasharray:0.5,0.5;"/><rect id="path4601-3-6-3-2-1" x="2.673" y="3.958" width="180" height="23.997" style="fill:none;fill-rule:nonzero;stroke:#000;stroke-opacity:0.66;stroke-width:0.25px;stroke-linecap:round;stroke-linejoin:round;"/><path id="path1809-3-5-6-2-5" d="M173.074,25.023c-5.415,5.005 -11.062,1.949 -11.15,-4.924c-0.084,-6.53 7.153,-9.399 11.181,-3.226m0.018,-3.355l0.107,24.961" style="fill:none;fill-rule:nonzero;stroke:#000;stroke-opacity:0.04;stroke-width:0.5px;stroke-linecap:round;stroke-linejoin:round;stroke-dasharray:1,1;"/><path id="path1809-3-5-6-2-0-4" d="M142.074,25.023c-5.415,5.005 -11.062,1.949 -11.15,-4.924c-0.084,-6.53 7.153,-9.399 11.181,-3.226m0.018,-3.355l0.107,24.961" style="fill:none;fill-rule:nonzero;stroke:#000;stroke-opacity:0.04;stroke-width:0.5px;stroke-linecap:round;stroke-linejoin:round;stroke-dasharray:1,1;"/><path id="path1809-3-5-6-2-0-6-7" d="M111.074,25.023c-5.415,5.005 -11.062,1.949 -11.151,-4.924c-0.084,-6.53 7.153,-9.399 11.181,-3.226m0.018,-3.355l0.107,24.961" style="fill:none;fill-rule:nonzero;stroke:#000;stroke-opacity:0.08;stroke-width:0.5px;stroke-linecap:round;stroke-linejoin:round;stroke-dasharray:1,1;"/><path id="path1809-3-5-6-2-0-6-1-6" d="M80.074,25.023c-5.415,5.005 -11.062,1.949 -11.15,-4.924c-0.084,-6.53 7.153,-9.399 11.181,-3.226m0.018,-3.355l0.107,24.961" style="fill:none;fill-rule:nonzero;stroke:#000;stroke-opacity:0.16;stroke-width:0.5px;stroke-linecap:round;stroke-linejoin:round;stroke-dasharray:1,1;"/><path id="path1809-3-5-6-2-0-6-1-5-5" d="M49.074,25.023c-5.415,5.005 -11.062,1.949 -11.151,-4.924c-0.084,-6.53 7.153,-9.399 11.181,-3.226m0.018,-3.355l0.107,24.961" style="fill:none;fill-rule:nonzero;stroke:#000;stroke-opacity:0.32;stroke-width:0.5px;stroke-linecap:round;stroke-linejoin:round;stroke-dasharray:1,1;"/><g><path id="text833" d="M17.147,39.395l0,-0.18l0.144,-5.685c0,-1.223 -0.048,-2.495 -0.144,-3.814l-0.216,-2.807c-0.792,1.559 -2.471,2.339 -5.038,2.339c-1.223,0 -2.363,-0.396 -3.418,-1.187c-2.015,-1.559 -3.023,-3.886 -3.023,-6.981c0,-2.663 0.6,-4.75 1.799,-6.261c1.223,-1.511 2.963,-2.267 5.218,-2.267c2.255,0 3.922,0.6 5.002,1.799c0.744,0.816 1.271,1.679 1.583,2.591c0.456,1.583 0.696,3.43 0.72,5.541l0,1.331l0.288,7.449c0.024,0.744 0.036,1.775 0.036,3.095l0,4.426c-0.096,0.456 -0.336,0.852 -0.72,1.187c-0.384,0.336 -0.732,0.504 -1.044,0.504c-0.792,0 -1.187,-0.36 -1.187,-1.079l0,-0Zm-5.757,-24.001c-1.032,0 -1.799,0.408 -2.303,1.223c-0.504,0.816 -0.756,2.135 -0.756,3.958c0,1.823 0.396,3.286 1.187,4.39c0.792,1.079 1.703,1.619 2.735,1.619c1.032,0 1.943,-0.372 2.735,-1.115c0.816,-0.744 1.439,-1.799 1.871,-3.167c-0.12,-2.543 -0.6,-4.33 -1.439,-5.362c-0.84,-1.032 -2.183,-1.547 -4.03,-1.547Z" style="fill-rule:nonzero;"/><path id="path1883-1" d="M14.501,28.311l1.773,0.122l-1.162,1.345c0.214,-0.52 -0.092,-1.254 -0.612,-1.468Z" style="fill:#f00;fill-opacity:0.66;fill-rule:nonzero;"/><path d="M17.143,12.323c-6.226,-3.107 -12.629,-0.361 -12.476,8.395c0.106,6.036 4.249,10.417 10.434,8.204" style="fill:none;fill-rule:nonzero;stroke:#f00;stroke-opacity:0.66;stroke-width:0.27px;"/><path id="text1155-29" d="M8.216,10.853l-0.243,0l0,-1.408c0,-0.081 0.001,-0.146 0.003,-0.195c0.002,-0.049 0.005,-0.1 0.008,-0.152c-0.03,0.03 -0.057,0.055 -0.082,0.076c-0.024,0.021 -0.056,0.047 -0.093,0.079l-0.214,0.175l-0.13,-0.167l0.545,-0.423l0.206,0l-0,2.015Z" style="fill:#f00;fill-rule:nonzero;"/><path id="path1883-0-9" d="M21.868,37.227l-0.819,1.578l-0.771,-1.602c0.391,0.403 1.186,0.416 1.59,0.024Z" style="fill:#f00;fill-opacity:0.66;fill-rule:nonzero;"/><path d="M19.717,13.633c1.26,3.07 1.396,18.708 1.351,23.9" style="fill:none;fill-rule:nonzero;stroke:#f00;stroke-opacity:0.66;stroke-width:0.27px;"/><path id="text1155-2-4" d="M22.818,17.226l-1.332,0l0,-0.206l0.528,-0.533c0.102,-0.102 0.187,-0.192 0.257,-0.271c0.07,-0.079 0.122,-0.156 0.158,-0.231c0.036,-0.077 0.054,-0.161 0.054,-0.251c0,-0.111 -0.033,-0.195 -0.099,-0.251c-0.066,-0.058 -0.151,-0.087 -0.257,-0.087c-0.098,0 -0.184,0.017 -0.26,0.051c-0.073,0.034 -0.149,0.081 -0.226,0.141l-0.133,-0.167c0.079,-0.066 0.169,-0.121 0.271,-0.167c0.103,-0.047 0.219,-0.071 0.347,-0.071c0.188,0 0.337,0.048 0.446,0.144c0.109,0.094 0.164,0.225 0.164,0.392c0,0.105 -0.022,0.204 -0.065,0.296c-0.043,0.092 -0.103,0.183 -0.181,0.274c-0.077,0.088 -0.167,0.183 -0.271,0.285l-0.421,0.415l0,0.011l1.019,0l0,0.226Z" style="fill:#f00;fill-rule:nonzero;"/></g></g></svg>