<?xml version="1.0" encoding="UTF-8" standalone="no"?><!DOCTYPE svg PUBLIC "-//W3C//DTD SVG 1.1//EN" "http://www.w3.org/Graphics/SVG/1.1/DTD/svg11.dtd"><svg width="100%" height="100%" viewBox="0 0 185 42" version="1.1" xmlns="http://www.w3.org/2000/svg" xmlns:xlink="http://www.w3.org/1999/xlink" xml:space="preserve" xmlns:serif="http://www.serif.com/" style="fill-rule:evenodd;clip-rule:evenodd;"><g><path id="path1018-7-4-8-4-9-7" d="M2.5,13.005l180,0" style="fill:none;fill-rule:nonzero;stroke:#000;stroke-opacity:0.3;stroke-width:0.25px;stroke-dasharray:0.5,0.5;"/><rect id="path4601-3-6-3-2-1" x="2.5" y="4.006" width="180" height="23.997" style="fill:none;fill-rule:nonzero;stroke:#000;stroke-opacity:0.66;stroke-width:0.25px;stroke-linecap:round;stroke-linejoin:round;"/><path id="path5452-2-5-0-1" d="M38.575,13.705c1.812,2.916 8.031,12.099 9.355,13.845m0.143,-13.837c-1.543,2.727 -9.183,10.953 -10.513,13.861" style="fill:none;fill-rule:nonzero;stroke:#000;stroke-opacity:0.32;stroke-width:0.5px;stroke-linecap:round;stroke-linejoin:round;stroke-dasharray:1,1;"/><path id="path5452-2-5-0-7-0" d="M69.575,13.705c1.812,2.916 8.031,12.099 9.355,13.845m0.143,-13.837c-1.543,2.727 -9.183,10.953 -10.513,13.861" style="fill:none;fill-rule:nonzero;stroke:#000;stroke-opacity:0.16;stroke-width:0.5px;stroke-linecap:round;stroke-linejoin:round;stroke-dasharray:1,1;"/><path id="path5452-2-5-0-7-2-6" d="M100.575,13.705c1.812,2.916 8.031,12.099 9.355,13.845m0.143,-13.837c-1.543,2.727 -9.183,10.953 -10.513,13.861" style="fill:none;fill-rule:nonzero;stroke:#000;stroke-opacity:0.08;stroke-width:0.5px;stroke-linecap:round;stroke-linejoin:round;stroke-dasharray:1,1;"/><path id="path5452-2-5-0-7-2-7-1" d="M131.575,13.705c1.812,2.916 8.031,12.099 9.355,13.845m0.143,-13.837c-1.543,2.727 -9.183,10.953 -10.513,13.861" style="fill:none;fill-rule:nonzero;stroke:#000;stroke-opacity:0.04;stroke-width:0.5px;stroke-linecap:round;stroke-linejoin:round;stroke-dasharray:1,1;"/><path id="path5452-2-5-0-7-2-7-2-5" d="M162.575,13.705c1.812,2.916 8.031,12.099 9.355,13.845m0.143,-13.837c-1.543,2.727 -9.183,10.953 -10.513,13.861" style="fill:none;fill-rule:nonzero;stroke:#000;stroke-opacity:0.04;stroke-width:0.5px;stroke-linecap:round;stroke-linejoin:round;stroke-dasharray:1,1;"/><g><path id="path2831-8-9" d="M14.066,26.554l0.401,1.729l-1.624,-0.717c0.559,0.053 1.17,-0.453 1.223,-1.012Z" style="fill:#f00;fill-opacity:0.66;fill-rule:nonzero;"/><path d="M5.179,13.192c1.529,1.998 6.252,10.963 8.478,14.113" style="fill:none;fill-rule:nonzero;stroke:#f00;stroke-opacity:0.66;stroke-width:0.26px;"/><path id="text833" d="M9.267,12.998l2.951,5.182c0.816,-0.888 1.583,-1.871 2.303,-2.951l1.511,-2.231c0.288,-0.408 0.636,-0.612 1.044,-0.612c0.432,0 0.78,0.132 1.044,0.396c0.264,0.24 0.396,0.54 0.396,0.9c0,0.336 -0.504,1.271 -1.511,2.807c-1.008,1.511 -2.087,2.987 -3.238,4.426c0.216,0.336 0.696,1.115 1.439,2.339c0.744,1.223 1.559,2.387 2.447,3.49c0.168,0.264 0.252,0.588 0.252,0.972c0,0.36 -0.144,0.696 -0.432,1.008c-0.288,0.312 -0.612,0.468 -0.972,0.468c-0.6,0 -1.379,-0.66 -2.339,-1.979c-0.96,-1.343 -1.811,-2.807 -2.555,-4.39c-0.72,0.984 -1.427,2.015 -2.123,3.095c-0.672,1.079 -1.199,1.871 -1.583,2.375c-0.36,0.48 -0.768,0.72 -1.223,0.72c-0.432,0 -0.78,-0.132 -1.044,-0.396c-0.24,-0.264 -0.36,-0.588 -0.36,-0.972c0,-0.936 1.679,-3.298 5.038,-7.089c-0.408,-0.792 -1.151,-2.027 -2.231,-3.706c-1.079,-1.679 -1.619,-2.711 -1.619,-3.095c0,-0.384 0.156,-0.72 0.468,-1.008c0.336,-0.288 0.744,-0.432 1.223,-0.432c0.504,0 0.876,0.228 1.115,0.684Z" style="fill-rule:nonzero;"/><path id="text1155-1" d="M4.721,16.954l-0.243,0l0,-1.408c0,-0.081 0.001,-0.146 0.003,-0.195c0.002,-0.049 0.005,-0.1 0.008,-0.152c-0.03,0.03 -0.057,0.056 -0.082,0.076c-0.024,0.021 -0.056,0.047 -0.093,0.079l-0.214,0.175l-0.13,-0.167l0.545,-0.423l0.206,0l-0,2.015Z" style="fill:#f00;fill-rule:nonzero;"/><path id="text1159-9" d="M13.782,12.1l-1.332,0l0,-0.206l0.528,-0.533c0.102,-0.102 0.187,-0.192 0.257,-0.271c0.07,-0.079 0.122,-0.156 0.158,-0.231c0.036,-0.077 0.054,-0.161 0.054,-0.251c0,-0.111 -0.033,-0.195 -0.099,-0.251c-0.066,-0.058 -0.151,-0.087 -0.257,-0.087c-0.098,0 -0.184,0.017 -0.26,0.051c-0.073,0.034 -0.149,0.081 -0.226,0.141l-0.133,-0.167c0.079,-0.066 0.169,-0.121 0.271,-0.167c0.103,-0.047 0.219,-0.071 0.347,-0.071c0.188,0 0.337,0.048 0.446,0.144c0.109,0.094 0.164,0.225 0.164,0.392c0,0.105 -0.022,0.204 -0.065,0.296c-0.043,0.092 -0.103,0.183 -0.181,0.274c-0.077,0.088 -0.167,0.183 -0.271,0.285l-0.421,0.415l0,0.011l1.019,0l0,0.226Z" style="fill:#f00;fill-rule:nonzero;"/><path id="path2831-1" d="M5.512,25.758l-1.431,1.05l0.019,-1.775c0.172,0.534 0.878,0.897 1.412,0.725Z" style="fill:#f00;fill-opacity:0.66;fill-rule:nonzero;"/><path d="M14.954,12.186c-1.111,2.4 -8.016,9.724 -10.292,13.492" style="fill:none;fill-rule:nonzero;stroke:#f00;stroke-opacity:0.66;stroke-width:0.26px;"/></g></g></svg>