<?xml version="1.0" encoding="UTF-8" standalone="no"?><!DOCTYPE svg PUBLIC "-//W3C//DTD SVG 1.1//EN" "http://www.w3.org/Graphics/SVG/1.1/DTD/svg11.dtd"><svg width="100%" height="100%" viewBox="0 0 185 42" version="1.1" xmlns="http://www.w3.org/2000/svg" xmlns:xlink="http://www.w3.org/1999/xlink" xml:space="preserve" xmlns:serif="http://www.serif.com/" style="fill-rule:evenodd;clip-rule:evenodd;"><g><path id="path1018-7-4-8-4-9-7" d="M2.5,13.005l180,0" style="fill:none;fill-rule:nonzero;stroke:#000;stroke-opacity:0.3;stroke-width:0.25px;stroke-dasharray:0.5,0.5;"/><rect id="path4601-3-6-3-2-1" x="2.5" y="4.006" width="180" height="23.997" style="fill:none;fill-rule:nonzero;stroke:#000;stroke-opacity:0.66;stroke-width:0.25px;stroke-linecap:round;stroke-linejoin:round;"/><path id="path5452-78-0" d="M37.75,4.555c0.19,4.262 0.35,8.484 0.471,11.742c0.005,5.45 0.298,7.326 0.357,11.035" style="fill:none;fill-rule:nonzero;stroke:#030000;stroke-opacity:0.32;stroke-width:0.5px;stroke-linecap:round;stroke-linejoin:round;stroke-dasharray:1,1;"/><path id="path5452-2-5-4" d="M47.243,27.471c0.312,-4.131 1.232,-8.134 -0.285,-11.959c-1.145,-2.885 -7.615,-2.754 -8.736,0.786" style="fill:none;fill-rule:nonzero;stroke:#030000;stroke-opacity:0.32;stroke-width:0.5px;stroke-linecap:round;stroke-linejoin:round;stroke-dasharray:1,1;"/><path id="path5452-78-2-1" d="M68.75,4.555c0.19,4.262 0.35,8.484 0.471,11.742c0.005,5.45 0.298,7.326 0.357,11.035" style="fill:none;fill-rule:nonzero;stroke:#030000;stroke-opacity:0.17;stroke-width:0.5px;stroke-linecap:round;stroke-linejoin:round;stroke-dasharray:1,1;"/><path id="path5452-2-5-2-9" d="M78.243,27.471c0.312,-4.131 1.232,-8.134 -0.285,-11.959c-1.145,-2.885 -7.615,-2.754 -8.736,0.786" style="fill:none;fill-rule:nonzero;stroke:#030000;stroke-opacity:0.17;stroke-width:0.5px;stroke-linecap:round;stroke-linejoin:round;stroke-dasharray:1,1;"/><path id="path5452-78-2-5-2" d="M99.75,4.555c0.19,4.262 0.35,8.484 0.471,11.742c0.005,5.45 0.298,7.326 0.357,11.035" style="fill:none;fill-rule:nonzero;stroke:#030000;stroke-opacity:0.08;stroke-width:0.5px;stroke-linecap:round;stroke-linejoin:round;stroke-dasharray:1,1;"/><path id="path5452-2-5-2-5-5" d="M109.243,27.471c0.312,-4.131 1.232,-8.134 -0.285,-11.959c-1.145,-2.885 -7.615,-2.754 -8.736,0.786" style="fill:none;fill-rule:nonzero;stroke:#030000;stroke-opacity:0.08;stroke-width:0.5px;stroke-linecap:round;stroke-linejoin:round;stroke-dasharray:1,1;"/><path id="path5452-78-2-5-9-4" d="M130.749,4.555c0.19,4.262 0.35,8.484 0.471,11.742c0.005,5.45 0.298,7.326 0.357,11.035" style="fill:none;fill-rule:nonzero;stroke:#030000;stroke-opacity:0.04;stroke-width:0.5px;stroke-linecap:round;stroke-linejoin:round;stroke-dasharray:1,1;"/><path id="path5452-2-5-2-5-0-9" d="M140.243,27.471c0.312,-4.131 1.232,-8.134 -0.285,-11.959c-1.145,-2.885 -7.615,-2.754 -8.736,0.786" style="fill:none;fill-rule:nonzero;stroke:#030000;stroke-opacity:0.04;stroke-width:0.5px;stroke-linecap:round;stroke-linejoin:round;stroke-dasharray:1,1;"/><path id="path5452-78-2-5-9-8-3" d="M161.749,4.555c0.19,4.262 0.35,8.484 0.471,11.742c0.005,5.45 0.298,7.326 0.357,11.035" style="fill:none;fill-rule:nonzero;stroke:#030000;stroke-opacity:0.04;stroke-width:0.5px;stroke-linecap:round;stroke-linejoin:round;stroke-dasharray:1,1;"/><path id="path5452-2-5-2-5-0-3-6" d="M171.243,27.471c0.312,-4.131 1.232,-8.134 -0.285,-11.959c-1.145,-2.885 -7.615,-2.754 -8.736,0.786" style="fill:none;fill-rule:nonzero;stroke:#030000;stroke-opacity:0.04;stroke-width:0.5px;stroke-linecap:round;stroke-linejoin:round;stroke-dasharray:1,1;"/><g><path id="text833" d="M9.802,17.514l0.288,8.492c0,1.056 -0.048,1.667 -0.144,1.835c-0.048,0.432 -0.192,0.768 -0.432,1.008c-0.216,0.24 -0.648,0.36 -1.295,0.36c-0.312,0 -0.564,-0.192 -0.756,-0.576c-0.192,-0.408 -0.3,-0.864 -0.324,-1.367c-0.168,-4.222 -0.396,-8.18 -0.684,-11.874c-0.264,-3.718 -0.396,-7.173 -0.396,-10.363c0,-0.504 0.168,-0.9 0.504,-1.187c0.336,-0.288 0.732,-0.432 1.187,-0.432c0.672,0 1.068,0.576 1.187,1.727c0.144,1.151 0.228,2.591 0.252,4.318c0.048,1.727 0.096,2.987 0.144,3.778c1.199,-0.624 2.399,-0.936 3.598,-0.936c2.783,0 4.546,1.223 5.29,3.67c0.432,1.391 0.648,3.179 0.648,5.362c0,0.72 -0.072,1.859 -0.216,3.418c-0.12,1.535 -0.192,2.531 -0.216,2.987c-0.024,0.456 -0.228,0.816 -0.612,1.079c-0.36,0.24 -0.756,0.36 -1.187,0.36c-0.672,0 -1.008,-0.36 -1.008,-1.079l0.252,-6.261c0,-0.528 -0.024,-1.403 -0.072,-2.627c-0.048,-1.223 -0.3,-2.195 -0.756,-2.915c-0.432,-0.72 -1.199,-1.079 -2.303,-1.079c-1.967,0 -2.951,0.768 -2.951,2.303l0,0Z" style="fill-rule:nonzero;"/><path id="path3391" d="M6.587,25.98l-0.731,1.62l-0.858,-1.557c0.413,0.381 1.207,0.35 1.589,-0.064Z" style="fill:#f00;fill-opacity:0.66;fill-rule:nonzero;"/><path d="M4.761,3.97c-0.071,7.622 0.684,13.953 1.045,22.36" style="fill:none;fill-rule:nonzero;stroke:#f00;stroke-opacity:0.66;stroke-width:0.27px;"/><path id="text1155-1" d="M3.817,7.894l-0.243,0l0,-1.408c0,-0.081 0.001,-0.146 0.003,-0.195c0.002,-0.049 0.005,-0.1 0.008,-0.152c-0.03,0.03 -0.057,0.056 -0.082,0.076c-0.024,0.021 -0.056,0.047 -0.093,0.079l-0.214,0.175l-0.13,-0.167l0.545,-0.423l0.206,0l-0,2.015Z" style="fill:#f00;fill-rule:nonzero;"/><path id="path2831-5" d="M20.326,26.196l-0.964,1.49l-0.613,-1.665c0.351,0.438 1.139,0.526 1.578,0.175Z" style="fill:#f00;fill-opacity:0.66;fill-rule:nonzero;"/><path d="M10.313,10.966c2.2,-0.712 5.606,-1.318 7.884,1.773c1.711,2.322 2.2,5.301 1.306,13.685" style="fill:none;fill-rule:nonzero;stroke:#f00;stroke-opacity:0.66;stroke-width:0.26px;"/><path id="text1159-9" d="M13.44,9.681l-1.332,0l0,-0.206l0.528,-0.533c0.102,-0.102 0.187,-0.192 0.257,-0.271c0.07,-0.079 0.122,-0.156 0.158,-0.231c0.036,-0.077 0.054,-0.161 0.054,-0.251c0,-0.111 -0.033,-0.195 -0.099,-0.251c-0.066,-0.058 -0.151,-0.087 -0.257,-0.087c-0.098,0 -0.184,0.017 -0.26,0.051c-0.073,0.034 -0.149,0.081 -0.226,0.141l-0.133,-0.167c0.079,-0.066 0.169,-0.121 0.271,-0.167c0.103,-0.047 0.219,-0.071 0.347,-0.071c0.188,0 0.337,0.048 0.446,0.144c0.109,0.094 0.164,0.225 0.164,0.392c0,0.105 -0.022,0.204 -0.065,0.296c-0.043,0.092 -0.103,0.183 -0.181,0.274c-0.077,0.088 -0.167,0.183 -0.271,0.285l-0.421,0.415l0,0.011l1.019,0l0,0.226Z" style="fill:#f00;fill-rule:nonzero;"/></g></g></svg>