<?xml version="1.0" encoding="UTF-8" standalone="no"?><!DOCTYPE svg PUBLIC "-//W3C//DTD SVG 1.1//EN" "http://www.w3.org/Graphics/SVG/1.1/DTD/svg11.dtd"><svg width="100%" height="100%" viewBox="0 0 185 42" version="1.1" xmlns="http://www.w3.org/2000/svg" xmlns:xlink="http://www.w3.org/1999/xlink" xml:space="preserve" xmlns:serif="http://www.serif.com/" style="fill-rule:evenodd;clip-rule:evenodd;"><g><path id="path1018-7-4-8-4-9-7" d="M2.5,13.005l180,0" style="fill:none;fill-rule:nonzero;stroke:#000;stroke-opacity:0.3;stroke-width:0.25px;stroke-dasharray:0.5,0.5;"/><rect id="path4601-3-6-3-2-1" x="2.5" y="4.006" width="180" height="23.997" style="fill:none;fill-rule:nonzero;stroke:#000;stroke-opacity:0.66;stroke-width:0.25px;stroke-linecap:round;stroke-linejoin:round;"/><path id="path5452-78-0" d="M47.872,5.887c0,0 -2.198,-2.077 -4.268,-0.852c-1.896,1.122 -1.538,5.447 -1.354,8.643c0.283,4.911 0.696,11.114 0.576,14.022" style="fill:none;fill-rule:nonzero;stroke:#000;stroke-opacity:0.32;stroke-width:0.5px;stroke-linecap:round;stroke-linejoin:round;stroke-dasharray:1,1;"/><path id="path5452-2-5-7" d="M46.717,13.427c-1.316,0.307 -6.695,0.079 -9.07,-0.135" style="fill:none;fill-rule:nonzero;stroke:#000;stroke-opacity:0.32;stroke-width:0.5px;stroke-linecap:round;stroke-linejoin:round;stroke-dasharray:1,1;"/><path id="path5452-78-6-8" d="M78.872,5.887c0,0 -2.198,-2.077 -4.268,-0.852c-1.896,1.122 -1.538,5.447 -1.354,8.643c0.283,4.911 0.696,11.114 0.576,14.022" style="fill:none;fill-rule:nonzero;stroke:#000;stroke-opacity:0.16;stroke-width:0.5px;stroke-linecap:round;stroke-linejoin:round;stroke-dasharray:1,1;"/><path id="path5452-2-5-1-7" d="M77.717,13.427c-1.316,0.307 -6.695,0.079 -9.07,-0.135" style="fill:none;fill-rule:nonzero;stroke:#000;stroke-opacity:0.16;stroke-width:0.5px;stroke-linecap:round;stroke-linejoin:round;stroke-dasharray:1,1;"/><path id="path5452-78-6-2-4" d="M109.872,5.887c0,0 -2.198,-2.077 -4.268,-0.852c-1.896,1.122 -1.538,5.447 -1.354,8.643c0.283,4.911 0.696,11.114 0.576,14.022" style="fill:none;fill-rule:nonzero;stroke:#000;stroke-opacity:0.08;stroke-width:0.5px;stroke-linecap:round;stroke-linejoin:round;stroke-dasharray:1,1;"/><path id="path5452-2-5-1-1-8" d="M108.717,13.427c-1.316,0.307 -6.695,0.079 -9.07,-0.135" style="fill:none;fill-rule:nonzero;stroke:#000;stroke-opacity:0.08;stroke-width:0.5px;stroke-linecap:round;stroke-linejoin:round;stroke-dasharray:1,1;"/><path id="path5452-78-6-2-9-42" d="M140.872,5.887c0,0 -2.198,-2.077 -4.268,-0.852c-1.896,1.122 -1.538,5.447 -1.354,8.643c0.283,4.911 0.696,11.114 0.576,14.022" style="fill:none;fill-rule:nonzero;stroke:#000;stroke-opacity:0.04;stroke-width:0.5px;stroke-linecap:round;stroke-linejoin:round;stroke-dasharray:1,1;"/><path id="path5452-2-5-1-1-9-96" d="M139.717,13.427c-1.316,0.307 -6.695,0.079 -9.07,-0.135" style="fill:none;fill-rule:nonzero;stroke:#000;stroke-opacity:0.04;stroke-width:0.5px;stroke-linecap:round;stroke-linejoin:round;stroke-dasharray:1,1;"/><path id="path5452-78-6-2-9-4-0" d="M171.872,5.887c0,0 -2.198,-2.077 -4.268,-0.852c-1.896,1.122 -1.538,5.447 -1.354,8.643c0.283,4.911 0.696,11.114 0.576,14.022" style="fill:none;fill-rule:nonzero;stroke:#000;stroke-opacity:0.04;stroke-width:0.5px;stroke-linecap:round;stroke-linejoin:round;stroke-dasharray:1,1;"/><path id="path5452-2-5-1-1-9-9-4" d="M170.717,13.427c-1.316,0.307 -6.695,0.079 -9.07,-0.135" style="fill:none;fill-rule:nonzero;stroke:#000;stroke-opacity:0.04;stroke-width:0.5px;stroke-linecap:round;stroke-linejoin:round;stroke-dasharray:1,1;"/><g><path id="text833" d="M10.786,4.015c0.384,-0.288 0.708,-0.444 0.972,-0.468c0.288,-0.048 0.924,-0.072 1.907,-0.072c1.008,0 1.835,0.144 2.483,0.432c0.648,0.288 0.972,0.864 0.972,1.727c0,0.864 -0.348,1.295 -1.044,1.295c-0.144,0 -0.552,-0.12 -1.223,-0.36c-0.672,-0.264 -1.103,-0.396 -1.295,-0.396c-0.84,0 -1.343,0.504 -1.511,1.511c-0.048,0.36 -0.072,1.103 -0.072,2.231l0,2.735l2.519,0c1.056,0.048 1.583,0.42 1.583,1.115c0,1.008 -0.72,1.535 -2.159,1.583c-0.216,0.024 -0.48,0.036 -0.792,0.036c-0.312,0 -0.672,-0.012 -1.079,-0.036c0.048,0.96 0.156,2.675 0.324,5.146c0.168,2.447 0.252,4.834 0.252,7.161c0,0.48 -0.192,0.864 -0.576,1.151c-0.384,0.288 -0.78,0.432 -1.187,0.432c-0.648,0 -0.972,-0.384 -0.972,-1.151c0,-2.159 -0.084,-4.258 -0.252,-6.297c-0.168,-2.039 -0.288,-4.186 -0.36,-6.441c-2.159,0 -3.418,-0.216 -3.778,-0.648c-0.144,-0.168 -0.216,-0.384 -0.216,-0.648c0,-0.624 0.252,-1.032 0.756,-1.223c0.528,-0.192 1.127,-0.288 1.799,-0.288l1.439,0c0.072,-3.91 0.288,-6.333 0.648,-7.269c0.216,-0.576 0.504,-0.996 0.864,-1.259l0,0Z" style="fill-rule:nonzero;"/><path id="path3391" d="M9.633,26.219l-0.827,1.573l-0.762,-1.606c0.389,0.406 1.184,0.422 1.59,0.033Z" style="fill:#f00;fill-opacity:0.66;fill-rule:nonzero;"/><path d="M16.225,2.128c-9.151,-1.705 -7.273,3.552 -7.955,11.214c0.144,7.199 0.589,9.428 0.562,13.178" style="fill:none;fill-rule:nonzero;stroke:#f00;stroke-opacity:0.66;stroke-width:0.27px;"/><path id="text1155-1" d="M7.627,4.387l-0.243,0l0,-1.408c0,-0.081 0.001,-0.146 0.003,-0.195c0.002,-0.049 0.005,-0.1 0.008,-0.152c-0.03,0.03 -0.057,0.056 -0.082,0.076c-0.024,0.021 -0.056,0.047 -0.093,0.079l-0.214,0.175l-0.13,-0.167l0.545,-0.423l0.206,0l-0,2.015Z" style="fill:#f00;fill-rule:nonzero;"/><path id="path2831-5" d="M13.723,14.897l1.588,0.793l-1.587,0.795c0.397,-0.397 0.396,-1.191 -0.001,-1.587Z" style="fill:#f00;fill-opacity:0.66;fill-rule:nonzero;"/><path d="M6.065,15.645c2.66,0.183 5.363,0.067 7.976,0.046" style="fill:none;fill-rule:nonzero;stroke:#f00;stroke-opacity:0.66;stroke-width:0.26px;"/><path id="text1159-9" d="M14.599,18.61l-1.332,0l0,-0.206l0.528,-0.533c0.102,-0.102 0.187,-0.192 0.257,-0.271c0.07,-0.079 0.122,-0.156 0.158,-0.231c0.036,-0.077 0.054,-0.161 0.054,-0.251c0,-0.111 -0.033,-0.195 -0.099,-0.251c-0.066,-0.058 -0.151,-0.087 -0.257,-0.087c-0.098,0 -0.184,0.017 -0.26,0.051c-0.073,0.034 -0.149,0.081 -0.226,0.141l-0.133,-0.167c0.079,-0.066 0.169,-0.121 0.271,-0.167c0.103,-0.047 0.219,-0.071 0.347,-0.071c0.188,0 0.337,0.048 0.446,0.144c0.109,0.094 0.164,0.225 0.164,0.392c0,0.105 -0.022,0.204 -0.065,0.296c-0.043,0.092 -0.103,0.183 -0.181,0.274c-0.077,0.088 -0.167,0.183 -0.271,0.285l-0.421,0.415l0,0.011l1.019,0l0,0.226Z" style="fill:#f00;fill-rule:nonzero;"/></g></g></svg>