<?xml version="1.0" encoding="UTF-8" standalone="no"?><!DOCTYPE svg PUBLIC "-//W3C//DTD SVG 1.1//EN" "http://www.w3.org/Graphics/SVG/1.1/DTD/svg11.dtd"><svg width="100%" height="100%" viewBox="0 0 185 42" version="1.1" xmlns="http://www.w3.org/2000/svg" xmlns:xlink="http://www.w3.org/1999/xlink" xml:space="preserve" xmlns:serif="http://www.serif.com/" style="fill-rule:evenodd;clip-rule:evenodd;"><g><path id="path1018-7-4" d="M2.5,12.956l180,0" style="fill:none;fill-rule:nonzero;stroke:#000;stroke-opacity:0.3;stroke-width:0.25px;stroke-dasharray:0.5,0.5;"/><rect id="path4601-3" x="2.5" y="3.958" width="180" height="23.997" style="fill:none;fill-rule:nonzero;stroke:#000;stroke-opacity:0.66;stroke-width:0.25px;stroke-linecap:round;stroke-linejoin:round;"/><path id="path1809-5-92-4" d="M48.398,26.849c0.171,-7.559 0.219,-18.033 0.227,-22.042m-10.832,0.146c0.182,7.125 -0.322,15.415 0.205,22.158" style="fill:none;fill-rule:nonzero;stroke:#020000;stroke-opacity:0.32;stroke-width:0.5px;stroke-linecap:round;stroke-linejoin:round;stroke-dasharray:1,1;"/><path id="path1809-5-92-6-6" d="M48.351,15.408c-2.975,0.436 -7.341,0.287 -10.461,-0.462" style="fill:none;fill-rule:nonzero;stroke:#020000;stroke-opacity:0.32;stroke-width:0.5px;stroke-linecap:round;stroke-linejoin:round;stroke-dasharray:1,1;"/><path id="path1809-5-92-5-4" d="M79.398,26.849c0.171,-7.559 0.219,-18.033 0.227,-22.042m-10.832,0.146c0.182,7.125 -0.322,15.415 0.205,22.158" style="fill:none;fill-rule:nonzero;stroke:#020000;stroke-opacity:0.17;stroke-width:0.5px;stroke-linecap:round;stroke-linejoin:round;stroke-dasharray:1,1;"/><path id="path1809-5-92-6-0-2" d="M79.352,15.408c-2.975,0.436 -7.341,0.287 -10.461,-0.462" style="fill:none;fill-rule:nonzero;stroke:#020000;stroke-opacity:0.17;stroke-width:0.5px;stroke-linecap:round;stroke-linejoin:round;stroke-dasharray:1,1;"/><path id="path1809-5-92-5-9-6" d="M110.398,26.849c0.171,-7.559 0.219,-18.033 0.227,-22.042m-10.832,0.146c0.182,7.125 -0.322,15.415 0.205,22.158" style="fill:none;fill-rule:nonzero;stroke:#020000;stroke-opacity:0.08;stroke-width:0.5px;stroke-linecap:round;stroke-linejoin:round;stroke-dasharray:1,1;"/><path id="path1809-5-92-6-0-4-4" d="M110.352,15.408c-2.975,0.436 -7.341,0.287 -10.461,-0.462" style="fill:none;fill-rule:nonzero;stroke:#020000;stroke-opacity:0.08;stroke-width:0.5px;stroke-linecap:round;stroke-linejoin:round;stroke-dasharray:1,1;"/><path id="path1809-5-92-5-9-5-2" d="M141.399,26.849c0.171,-7.559 0.219,-18.033 0.227,-22.042m-10.832,0.146c0.182,7.125 -0.322,15.415 0.205,22.158" style="fill:none;fill-rule:nonzero;stroke:#020000;stroke-opacity:0.04;stroke-width:0.5px;stroke-linecap:round;stroke-linejoin:round;stroke-dasharray:1,1;"/><path id="path1809-5-92-6-0-4-1-8" d="M141.352,15.408c-2.975,0.436 -7.341,0.287 -10.461,-0.462" style="fill:none;fill-rule:nonzero;stroke:#020000;stroke-opacity:0.04;stroke-width:0.5px;stroke-linecap:round;stroke-linejoin:round;stroke-dasharray:1,1;"/><path id="path1809-5-92-5-9-5-4-9" d="M172.399,26.849c0.171,-7.559 0.219,-18.033 0.227,-22.042m-10.832,0.146c0.182,7.125 -0.322,15.415 0.205,22.158" style="fill:none;fill-rule:nonzero;stroke:#020000;stroke-opacity:0.04;stroke-width:0.5px;stroke-linecap:round;stroke-linejoin:round;stroke-dasharray:1,1;"/><path id="path1809-5-92-6-0-4-1-3-2" d="M172.352,15.408c-2.975,0.436 -7.341,0.287 -10.461,-0.462" style="fill:none;fill-rule:nonzero;stroke:#020000;stroke-opacity:0.04;stroke-width:0.5px;stroke-linecap:round;stroke-linejoin:round;stroke-dasharray:1,1;"/><g><path id="text833" d="M10.093,14.915c1.871,0.312 3.586,0.468 5.146,0.468c1.559,0 2.555,-0.012 2.987,-0.036c-0.048,-1.823 -0.072,-3.574 -0.072,-5.254l0,-3.418c0,-0.6 0.024,-0.972 0.072,-1.115c0.048,-0.168 0.204,-0.324 0.468,-0.468c0.264,-0.144 0.648,-0.216 1.151,-0.216c0.72,0 1.079,0.432 1.079,1.295l0,12.738c0,2.639 -0.06,5.541 -0.18,8.708c-0.024,0.696 -0.612,1.044 -1.763,1.044c-0.576,0 -0.864,-0.348 -0.864,-1.044l0.144,-9.536c-0.768,0.048 -1.823,0.072 -3.167,0.072c-1.319,0 -2.987,-0.144 -5.002,-0.432c0,3.167 0.144,6.477 0.432,9.931c0.024,0.384 -0.144,0.684 -0.504,0.9c-0.36,0.192 -0.816,0.288 -1.367,0.288c-0.528,0 -0.816,-0.276 -0.864,-0.828c-0.312,-3.406 -0.468,-6.765 -0.468,-10.075l0.216,-11.227c0,-0.48 0.18,-0.828 0.54,-1.044c0.36,-0.24 0.744,-0.36 1.151,-0.36c0.672,0 1.008,0.324 1.008,0.972l-0.144,8.636Z" style="fill-rule:nonzero;"/><path id="path1883" d="M7.055,25.717l-0.665,1.648l-0.92,-1.521c0.428,0.364 1.22,0.301 1.585,-0.127Z" style="fill:#f00;fill-opacity:0.66;fill-rule:nonzero;"/><path d="M5.925,5.817c0.133,6.314 -0.042,14.474 0.363,20.28" style="fill:none;fill-rule:nonzero;stroke:#f00;stroke-opacity:0.66;stroke-width:0.27px;"/><path id="path2831" d="M22.893,25.371l-0.859,1.553l-0.727,-1.619c0.38,0.413 1.173,0.446 1.586,0.066Z" style="fill:#f00;fill-opacity:0.66;fill-rule:nonzero;"/><path d="M22.246,5.032c0.089,4.632 0.056,14.767 -0.16,20.623" style="fill:none;fill-rule:nonzero;stroke:#f00;stroke-opacity:0.66;stroke-width:0.26px;"/><path id="text1155" d="M4.171,11.11l-0.243,0l0,-1.408c0,-0.081 0.001,-0.146 0.003,-0.195c0.002,-0.049 0.005,-0.1 0.009,-0.152c-0.03,0.03 -0.057,0.056 -0.082,0.076c-0.024,0.021 -0.056,0.047 -0.093,0.079l-0.214,0.175l-0.13,-0.167l0.545,-0.423l0.206,0l-0,2.015Z" style="fill:#f00;fill-rule:nonzero;"/><path id="text1159" d="M24.477,11.514l-1.332,0l0,-0.206l0.528,-0.533c0.102,-0.102 0.187,-0.192 0.257,-0.271c0.07,-0.079 0.122,-0.156 0.158,-0.231c0.036,-0.077 0.054,-0.161 0.054,-0.251c0,-0.111 -0.033,-0.195 -0.099,-0.251c-0.066,-0.058 -0.151,-0.087 -0.257,-0.087c-0.098,0 -0.184,0.017 -0.26,0.051c-0.073,0.034 -0.149,0.081 -0.226,0.141l-0.133,-0.167c0.079,-0.066 0.169,-0.121 0.271,-0.167c0.103,-0.047 0.219,-0.071 0.347,-0.071c0.188,0 0.337,0.048 0.446,0.144c0.109,0.094 0.164,0.225 0.164,0.392c0,0.105 -0.022,0.204 -0.065,0.296c-0.043,0.092 -0.103,0.183 -0.181,0.274c-0.077,0.088 -0.167,0.183 -0.271,0.285l-0.421,0.415l0,0.011l1.019,0l0,0.226Z" style="fill:#f00;fill-rule:nonzero;"/><path id="path2831-8" d="M15.609,18.164l1.618,0.729l-1.554,0.857c0.381,-0.413 0.349,-1.206 -0.064,-1.586Z" style="fill:#f00;fill-opacity:0.66;fill-rule:nonzero;"/><path d="M10.99,18.561c1.704,0.404 2.921,0.453 4.968,0.383" style="fill:none;fill-rule:nonzero;stroke:#f00;stroke-opacity:0.66;stroke-width:0.26px;"/><path id="text1159-2" d="M14.267,19.687c0,0.135 -0.038,0.244 -0.113,0.325c-0.075,0.079 -0.177,0.132 -0.305,0.158l0,0.011c0.162,0.019 0.282,0.07 0.361,0.152c0.079,0.083 0.119,0.191 0.119,0.325c0,0.117 -0.027,0.221 -0.082,0.313c-0.055,0.09 -0.139,0.161 -0.254,0.212c-0.113,0.051 -0.259,0.076 -0.437,0.076c-0.105,0 -0.203,-0.008 -0.294,-0.025c-0.09,-0.015 -0.177,-0.043 -0.26,-0.085l0,-0.231c0.085,0.041 0.176,0.074 0.274,0.099c0.098,0.023 0.192,0.034 0.282,0.034c0.181,0 0.31,-0.035 0.389,-0.104c0.081,-0.071 0.121,-0.169 0.121,-0.294c0,-0.126 -0.05,-0.216 -0.15,-0.271c-0.098,-0.056 -0.236,-0.085 -0.415,-0.085l-0.195,0l0,-0.212l0.198,0c0.166,0 0.291,-0.035 0.375,-0.104c0.087,-0.07 0.13,-0.162 0.13,-0.277c0,-0.098 -0.033,-0.173 -0.099,-0.226c-0.066,-0.055 -0.155,-0.082 -0.268,-0.082c-0.109,0 -0.202,0.016 -0.279,0.048c-0.077,0.032 -0.153,0.072 -0.229,0.121l-0.124,-0.169c0.071,-0.056 0.16,-0.105 0.265,-0.147c0.107,-0.041 0.229,-0.062 0.364,-0.062c0.211,0 0.367,0.047 0.468,0.141c0.103,0.094 0.155,0.214 0.155,0.358l-0,-0Z" style="fill:#f00;fill-rule:nonzero;"/></g></g></svg>