<svg xmlns="http://www.w3.org/2000/svg" xml:space="preserve" style="fill-rule:evenodd;clip-rule:evenodd" viewBox="0 0 185 42"><path d="M2.5 13.005h180" style="fill:none;fill-rule:nonzero;stroke:#000;stroke-opacity:.3;stroke-width:.25px;stroke-dasharray:.5,.5"/><path d="M2.5 4.006h180v23.997H2.5z" style="fill:none;fill-rule:nonzero;stroke:#000;stroke-opacity:.66;stroke-width:.25px;stroke-linecap:round;stroke-linejoin:round"/><path d="M77.026 27.033c-5.516.181-8.279-7.403-8.281-11.168-.004-6.195 2.923-11.009 8.547-10.96 4.988.043 6.893 5.522 6.732 10.739-.167 5.424-2.273 11.234-6.999 11.389Z" style="fill:none;fill-rule:nonzero;stroke:#000;stroke-opacity:.16;stroke-width:.5px;stroke-linecap:round;stroke-linejoin:round;stroke-dasharray:1,1"/><path d="M108.026 27.033c-5.516.181-8.279-7.403-8.281-11.168-.004-6.195 2.923-11.009 8.547-10.96 4.988.043 6.893 5.522 6.732 10.739-.167 5.424-2.273 11.234-6.999 11.389Z" style="fill:none;fill-rule:nonzero;stroke:#000;stroke-opacity:.08;stroke-width:.5px;stroke-linecap:round;stroke-linejoin:round;stroke-dasharray:1,1"/><path d="M139.026 27.033c-5.516.181-8.279-7.403-8.281-11.168-.004-6.195 2.923-11.009 8.547-10.96 4.988.043 6.893 5.522 6.732 10.739-.167 5.424-2.273 11.234-6.999 11.389ZM170.026 27.033c-5.516.181-8.279-7.403-8.281-11.168-.004-6.195 2.923-11.009 8.547-10.96 4.988.043 6.893 5.522 6.732 10.739-.167 5.424-2.273 11.234-6.999 11.389Z" style="fill:none;fill-rule:nonzero;stroke:#000;stroke-opacity:.04;stroke-width:.5px;stroke-linecap:round;stroke-linejoin:round;stroke-dasharray:1,1"/><path d="M46.026 27.033c-5.516.181-8.279-7.403-8.281-11.168-.004-6.195 2.923-11.009 8.547-10.96 4.988.043 6.893 5.522 6.732 10.739-.167 5.424-2.273 11.234-6.999 11.389Z" style="fill:none;fill-rule:nonzero;stroke:#000;stroke-opacity:.32;stroke-width:.5px;stroke-linecap:round;stroke-linejoin:round;stroke-dasharray:1,1"/><path d="M14.619 4.791q2.519 0 4.282 1.619 3.454 3.095 3.454 9.787 0 6.657-3.814 10.471-1.979 1.907-4.57 2.087-3.418 0-5.326-2.339a14.5 14.5 0 0 1-2.735-5.218q-.792-2.915-.792-5.613 0-4.606 2.195-7.592Q9.616 4.79 14.618 4.79Zm-.252 2.987q-4.822 0-6.009 4.57-.36 1.224-.36 3.131t.72 4.426q.972 3.382 2.879 4.75 1.116.864 2.699.864 1.584 0 2.843-1.403 1.26-1.44 1.727-3.634t.468-4.426q0-3.958-1.151-6.117-1.116-2.159-3.814-2.159Z" style="fill-rule:nonzero"/><path d="m21.802 9.703.23-1.763 1.272 1.241c-.506-.245-1.257.016-1.502.521Z" style="fill:red;fill-opacity:.66;fill-rule:nonzero"/><path d="M20.943 6.027C15.851-.409 2.855 2.652 4.081 16.66c.5 5.717 3.132 12.964 10.429 12.49 5.048-.328 11.776-8.068 7.939-20.007" style="fill:none;fill-rule:nonzero;stroke:red;stroke-opacity:.66;stroke-width:.27px"/><path d="M5.392 5.988h-.243V4.58a5 5 0 0 1 .012-.347q-.045.046-.082.076l-.093.079-.214.175-.13-.167.545-.423h.206v2.015Z" style="fill:red;fill-rule:nonzero"/></svg>