<svg xmlns="http://www.w3.org/2000/svg" xml:space="preserve" style="fill-rule:evenodd;clip-rule:evenodd" viewBox="0 0 185 42"><path d="M2.5 13.005h180" style="fill:none;fill-rule:nonzero;stroke:#000;stroke-opacity:.3;stroke-width:.25px;stroke-dasharray:.5,.5"/><path d="M2.5 4.006h180v23.997H2.5z" style="fill:none;fill-rule:nonzero;stroke:#000;stroke-opacity:.66;stroke-width:.25px;stroke-linecap:round;stroke-linejoin:round"/><path d="M37.858 15.551c8.615 1.617 10.403-.206 10.741-4.169.482-5.646-3.792-8.003-10.849-5.825l.229 21.665" style="fill:none;fill-rule:nonzero;stroke:#000;stroke-opacity:.32;stroke-width:.5px;stroke-linecap:round;stroke-linejoin:round;stroke-dasharray:1,1"/><path d="M68.858 15.551c8.615 1.617 10.403-.206 10.741-4.169.482-5.646-3.792-8.003-10.849-5.825l.229 21.665" style="fill:none;fill-rule:nonzero;stroke:#000;stroke-opacity:.16;stroke-width:.5px;stroke-linecap:round;stroke-linejoin:round;stroke-dasharray:1,1"/><path d="M99.858 15.551c8.615 1.617 10.403-.206 10.741-4.169.482-5.646-3.792-8.003-10.849-5.825l.229 21.665" style="fill:none;fill-rule:nonzero;stroke:#000;stroke-opacity:.08;stroke-width:.5px;stroke-linecap:round;stroke-linejoin:round;stroke-dasharray:1,1"/><path d="M130.858 15.551c8.615 1.617 10.403-.206 10.741-4.169.482-5.646-3.792-8.003-10.849-5.825l.229 21.665M161.858 15.551c8.615 1.617 10.403-.206 10.741-4.169.482-5.646-3.792-8.003-10.849-5.825l.229 21.665" style="fill:none;fill-rule:nonzero;stroke:#000;stroke-opacity:.04;stroke-width:.5px;stroke-linecap:round;stroke-linejoin:round;stroke-dasharray:1,1"/><path d="M5.914 24.929q-.252-3.706-.252-10.003 0-6.333.18-8.204.18-1.151 1.583-1.511 1.404-.396 3.706-.396 3.383 0 5.685 1.475 2.339 1.44 2.339 4.282 0 2.339-.648 3.922-.648 1.548-1.619 2.303-1.584 1.223-4.678 1.223-1.332 0-3.49-.36.18 7.197.144 9.068t-1.259 1.871q-.792 0-1.008-.288t-.288-.396a2.4 2.4 0 0 1-.144-.396q-.072-.252-.108-.396a6 6 0 0 1-.072-.504q0-.324-.036-.504-.036-.54-.036-1.187ZM16.169 10.68q0-1.476-1.583-2.303a6.96 6.96 0 0 0-3.382-.864q-1.799 0-2.519.324a58 58 0 0 0-.144 3.922q0 1.763.144 3.203.971.108 1.331.18.935.108 1.583.108h.9q.252-.036.9-.108.684-.108.972-.324t.72-.576.612-.828a8 8 0 0 0 .468-2.735Z" style="fill-rule:nonzero"/><path d="m11.23 19.61-1.513-.933 1.654-.651c-.431.361-.502 1.152-.141 1.584" style="fill:red;fill-opacity:.66;fill-rule:nonzero"/><path d="M7.098 3.533c5.649-.777 14.119-.366 12.909 7.728-.891 5.961-3.444 7.884-9.023 7.529" style="fill:none;fill-rule:nonzero;stroke:red;stroke-opacity:.66;stroke-width:.27px"/><path d="M3.812 8.897h-.243V7.489q0-.122.003-.195l.008-.152q-.045.045-.082.076l-.093.079-.214.175-.13-.167.545-.423h.206z" style="fill:red;fill-rule:nonzero"/><path d="m5.601 25.504-.689 1.639-.898-1.534c.423.371 1.216.318 1.587-.104Z" style="fill:red;fill-opacity:.66;fill-rule:nonzero"/><path d="M4.684 5.514c-.253 3.208-.089 15.721.145 20.359" style="fill:none;fill-rule:nonzero;stroke:red;stroke-opacity:.66;stroke-width:.27px"/><path d="M15.109 2.608h-1.332v-.206l.528-.533q.153-.153.257-.271t.158-.231a.6.6 0 0 0 .054-.251q0-.167-.099-.251a.37.37 0 0 0-.257-.087.6.6 0 0 0-.26.051 1.2 1.2 0 0 0-.226.141l-.133-.167q.118-.099.271-.167a.8.8 0 0 1 .347-.071q.282 0 .446.144a.49.49 0 0 1 .164.392.7.7 0 0 1-.065.296 1.2 1.2 0 0 1-.181.274 5 5 0 0 1-.271.285l-.421.415v.011h1.019z" style="fill:red;fill-rule:nonzero"/></svg>