<svg xmlns="http://www.w3.org/2000/svg" xml:space="preserve" style="fill-rule:evenodd;clip-rule:evenodd" viewBox="0 0 185 42"><path d="M14.088 4.983q.9 0 1.511.792.612.792 1.583 3.274 2.267 5.865 4.426 18.387.036.144.036.432 0 .252-.36.576-.324.288-.972.288-.612 0-1.044-.288-.432-.324-.576-1.008-.144-.72-.54-2.771-.864-4.57-1.151-4.75-.431-.252-2.879-.54-2.41-.288-3.203-.288t-.936.144q-.648.576-1.763 8.744-.144.684-1.367.684T5.63 27.615q0-2.591 1.907-9.895 1.907-7.305 3.167-9.68 1.584-3.059 3.382-3.059Zm-.144 3.994q-.54 0-1.871 3.203-1.332 3.166-1.331 3.922 0 .18.072.252.288.288 2.267.504t2.627.216.72-.072q.072-.108.072-.576 0-.504-.972-3.958-.972-3.49-1.583-3.49Z" style="fill-rule:nonzero"/><path d="m5.59 25.808-1.027 1.451-.544-1.692c.333.453 1.118.574 1.572.241Z" style="fill:red;fill-opacity:.66;fill-rule:nonzero"/><path d="M13.502 4.178c-4.079-.421-7.645 15.136-8.746 21.823" style="fill:none;fill-rule:nonzero;stroke:red;stroke-opacity:.66;stroke-width:.27px"/><path d="m23.267 25.769-.512 1.7-1.053-1.429c.459.323 1.241.188 1.564-.27Z" style="fill:red;fill-opacity:.66;fill-rule:nonzero"/><path d="M15.09 4.178c3.227-.192 6.344 15.768 7.449 22.04" style="fill:none;fill-rule:nonzero;stroke:red;stroke-opacity:.66;stroke-width:.26px"/><path d="m14.928 19.868 1.415 1.072-1.706.489c.463-.317.609-1.098.291-1.561" style="fill:red;fill-opacity:.66;fill-rule:nonzero"/><path d="M10.598 20.331c.831-.002 3.014.171 4.496.376" style="fill:none;fill-rule:nonzero;stroke:red;stroke-opacity:.66;stroke-width:.26px"/><path d="M6.036 13.861h-.243v-1.408a5 5 0 0 1 .012-.347q-.045.045-.082.076l-.093.079-.214.175-.13-.167.545-.423h.206v2.015ZM22.335 13.833h-1.332v-.206l.528-.533q.153-.153.257-.271t.158-.231a.6.6 0 0 0 .054-.251q0-.167-.099-.251a.37.37 0 0 0-.257-.087.6.6 0 0 0-.26.051 1.2 1.2 0 0 0-.226.141l-.133-.167q.118-.099.271-.167a.8.8 0 0 1 .347-.071q.282 0 .446.144a.49.49 0 0 1 .164.392.7.7 0 0 1-.065.296 1.2 1.2 0 0 1-.181.274 5 5 0 0 1-.271.285l-.421.415v.011h1.019v.226ZM14.108 21.956a.46.46 0 0 1-.113.325.56.56 0 0 1-.305.158v.011q.243.029.361.152a.45.45 0 0 1 .119.325.6.6 0 0 1-.082.313.55.55 0 0 1-.254.212 1.1 1.1 0 0 1-.437.076q-.157 0-.294-.025a.9.9 0 0 1-.26-.085v-.231q.127.062.274.099.147.034.282.034.271 0 .389-.104a.37.37 0 0 0 .121-.294q0-.189-.15-.271a.84.84 0 0 0-.415-.085h-.195v-.212h.198q.249 0 .375-.104a.34.34 0 0 0 .13-.277.27.27 0 0 0-.099-.226.4.4 0 0 0-.268-.082.7.7 0 0 0-.279.048 1.5 1.5 0 0 0-.229.121l-.124-.169q.107-.084.265-.147.161-.062.364-.062.317 0 .468.141a.47.47 0 0 1 .155.358Z" style="fill:red;fill-rule:nonzero"/><path d="M2.5 13.005h180" style="fill:none;fill-rule:nonzero;stroke:#000;stroke-opacity:.3;stroke-width:.25px;stroke-dasharray:.5,.5"/><path d="M2.5 4.006h180v23.997H2.5z" style="fill:none;fill-rule:nonzero;stroke:#000;stroke-opacity:.66;stroke-width:.25px;stroke-linecap:round;stroke-linejoin:round"/><path d="M37.75 26.873c.802-6.668 4.189-21.269 7.509-21.721 2.828-.385 5.369 17.446 6.538 21.889" style="fill:none;fill-rule:nonzero;stroke:#010000;stroke-opacity:.32;stroke-width:.5px;stroke-linecap:round;stroke-linejoin:round;stroke-dasharray:1,1"/><path d="M39.738 16.652c3.087.093 7.231.606 10.155 1.086" style="fill:none;fill-rule:nonzero;stroke:#010000;stroke-opacity:.32;stroke-width:.5px;stroke-linecap:round;stroke-linejoin:round;stroke-dasharray:1,1"/><path d="M68.75 26.873c.802-6.668 4.189-21.269 7.509-21.721 2.828-.385 5.369 17.446 6.538 21.889" style="fill:none;fill-rule:nonzero;stroke:#010000;stroke-opacity:.17;stroke-width:.5px;stroke-linecap:round;stroke-linejoin:round;stroke-dasharray:1,1"/><path d="M70.738 16.652c3.087.093 7.231.606 10.155 1.086" style="fill:none;fill-rule:nonzero;stroke:#010000;stroke-opacity:.17;stroke-width:.5px;stroke-linecap:round;stroke-linejoin:round;stroke-dasharray:1,1"/><path d="M99.75 26.873c.802-6.668 4.189-21.269 7.509-21.721 2.828-.385 5.369 17.446 6.538 21.889" style="fill:none;fill-rule:nonzero;stroke:#010000;stroke-opacity:.08;stroke-width:.5px;stroke-linecap:round;stroke-linejoin:round;stroke-dasharray:1,1"/><path d="M101.738 16.652c3.087.093 7.231.606 10.155 1.086" style="fill:none;fill-rule:nonzero;stroke:#010000;stroke-opacity:.08;stroke-width:.5px;stroke-linecap:round;stroke-linejoin:round;stroke-dasharray:1,1"/><path d="M130.75 26.873c.802-6.668 4.189-21.269 7.509-21.721 2.828-.385 5.369 17.446 6.538 21.889" style="fill:none;fill-rule:nonzero;stroke:#010000;stroke-opacity:.04;stroke-width:.5px;stroke-linecap:round;stroke-linejoin:round;stroke-dasharray:1,1"/><path d="M132.738 16.652c3.087.093 7.231.606 10.155 1.086M161.75 26.873c.802-6.668 4.189-21.269 7.509-21.721 2.828-.385 5.369 17.446 6.538 21.889" style="fill:none;fill-rule:nonzero;stroke:#010000;stroke-opacity:.04;stroke-width:.5px;stroke-linecap:round;stroke-linejoin:round;stroke-dasharray:1,1"/><path d="M163.738 16.652c3.087.093 7.231.606 10.155 1.086" style="fill:none;fill-rule:nonzero;stroke:#010000;stroke-opacity:.04;stroke-width:.5px;stroke-linecap:round;stroke-linejoin:round;stroke-dasharray:1,1"/></svg>