<svg xmlns="http://www.w3.org/2000/svg" xml:space="preserve" style="fill-rule:evenodd;clip-rule:evenodd" viewBox="0 0 185 42"><path d="M2.5 13.005h180" style="fill:none;fill-rule:nonzero;stroke:#000;stroke-opacity:.3;stroke-width:.25px;stroke-dasharray:.5,.5"/><path d="M2.5 4.006h180v23.997H2.5z" style="fill:none;fill-rule:nonzero;stroke:#000;stroke-opacity:.66;stroke-width:.25px;stroke-linecap:round;stroke-linejoin:round"/><path d="M68.75 5.129c.278 5.397 1.511 17.412 2.854 21.936 1.227-2.53 4.071-9.95 5.987-13.076.676 3.483 4.359 10.834 5.789 13.007 1.079-4.539 3.548-17.426 3.652-22.192" style="fill:none;fill-rule:nonzero;stroke:#000;stroke-opacity:.16;stroke-width:.5px;stroke-linecap:round;stroke-linejoin:round;stroke-dasharray:1,1"/><path d="M37.75 5.129c.278 5.397 1.511 17.412 2.854 21.936 1.227-2.53 4.071-9.95 5.987-13.076.676 3.483 4.359 10.834 5.789 13.007 1.079-4.539 3.548-17.426 3.652-22.192" style="fill:none;fill-rule:nonzero;stroke:#000;stroke-opacity:.32;stroke-width:.5px;stroke-linecap:round;stroke-linejoin:round;stroke-dasharray:1,1"/><path d="M99.75 5.129c.278 5.397 1.511 17.412 2.854 21.936 1.227-2.53 4.071-9.95 5.987-13.076.676 3.483 4.359 10.834 5.789 13.007 1.079-4.539 3.548-17.426 3.652-22.192" style="fill:none;fill-rule:nonzero;stroke:#000;stroke-opacity:.08;stroke-width:.5px;stroke-linecap:round;stroke-linejoin:round;stroke-dasharray:1,1"/><path d="M130.75 5.129c.278 5.397 1.511 17.412 2.854 21.936 1.227-2.53 4.071-9.95 5.987-13.076.676 3.483 4.359 10.834 5.789 13.007 1.079-4.539 3.548-17.426 3.652-22.192M161.75 5.129c.278 5.397 1.511 17.412 2.854 21.936 1.227-2.53 4.071-9.95 5.987-13.076.676 3.483 4.359 10.834 5.789 13.007 1.079-4.539 3.548-17.426 3.652-22.192" style="fill:none;fill-rule:nonzero;stroke:#000;stroke-opacity:.04;stroke-width:.5px;stroke-linecap:round;stroke-linejoin:round;stroke-dasharray:1,1"/><path d="M25.081 4.599q.756 0 1.044 1.079-.216 3.634-.468 5.182a270 270 0 0 0-.432 2.663 47 47 0 0 1-.216 1.583q-.036.432-.288 1.763t-.54 2.663q-.252 1.296-.324 1.547-.036.252-.648 3.238-.612 2.951-.936 3.634-.288.648-1.044.648-.72 0-1.151-.432-1.655-2.267-3.131-5.613a52 52 0 0 0-.828-1.871l-.648-1.511-.324-.756q-.755 1.296-2.087 4.39t-2.339 4.966q-.648.828-1.439.828-1.655 0-2.519-8.816 0-.036-.072-.396a74 74 0 0 0-.144-1.259q-.072-.9-.216-1.979-.108-1.116-.9-9.104 0-.72.54-1.295.54-.612 1.187-.612.792 0 1.079 1.044.972 11.695 1.943 17.272.288-.504 1.475-3.31 1.187-2.842 2.159-4.498.971-1.69 1.871-1.691.612 0 1.044.648 2.267 6.441 3.886 9.068.036-.396.432-2.159l.468-2.303q0-.216.072-.612.108-.396.144-.756.072-.396.144-.72l.396-2.267q.864-5.325 1.079-8.744.144-.612.648-1.044.54-.468 1.079-.468Z" style="fill-rule:nonzero"/><path d="m26.414 7.009.92-1.518.662 1.647c-.363-.428-1.154-.492-1.582-.129" style="fill:red;fill-opacity:.66;fill-rule:nonzero"/><path d="M4.239 6.226c.465 3.368 1.435 14.909 2.029 17.6.836 3.784 1.334 5.186 3.163 5.252 2.601 0 5.665-9.025 5.665-9.025s3.252 9.373 6.173 9.069c1.731-.18 2.139-1.449 3.073-5.261 1.025-4.184 2.271-10.048 2.89-17.104" style="fill:none;fill-rule:nonzero;stroke:red;stroke-opacity:.66;stroke-width:.26px"/><path d="M3.574 15.531h-.243v-1.408q0-.122.003-.195l.008-.152q-.045.045-.082.076l-.093.079-.214.175-.13-.167.545-.423h.206z" style="fill:red;fill-rule:nonzero"/></svg>