<?xml version="1.0" encoding="UTF-8" standalone="no"?><!DOCTYPE svg PUBLIC "-//W3C//DTD SVG 1.1//EN" "http://www.w3.org/Graphics/SVG/1.1/DTD/svg11.dtd"><svg width="100%" height="100%" viewBox="0 0 185 42" version="1.1" xmlns="http://www.w3.org/2000/svg" xmlns:xlink="http://www.w3.org/1999/xlink" xml:space="preserve" xmlns:serif="http://www.serif.com/" style="fill-rule:evenodd;clip-rule:evenodd;"><g><g><path id="text833" d="M13.167,5.149l3.994,-0.072c1.775,0 2.663,0.468 2.663,1.403c0,0.336 -0.048,0.576 -0.144,0.72c-0.096,0.12 -0.168,0.216 -0.216,0.288c-0.048,0.072 -0.144,0.132 -0.288,0.18c-0.288,0.096 -0.528,0.156 -0.72,0.18c-0.192,0.024 -0.324,0.036 -0.396,0.036c-0.264,0.048 -0.708,0.084 -1.331,0.108c-0.624,0.024 -1.535,0.036 -2.735,0.036c-1.175,0 -2.627,-0.048 -4.354,-0.144l0,6.621l7.341,0c0.264,0 0.504,0.12 0.72,0.36c0.24,0.24 0.36,0.504 0.36,0.792c0,1.103 -0.468,1.655 -1.403,1.655l-7.017,0l0.144,9.428c0,1.223 -0.42,1.835 -1.259,1.835c-0.816,0 -1.295,-0.552 -1.439,-1.655c-0.072,-0.36 -0.12,-3.406 -0.144,-9.14c0,-5.757 -0.024,-9.068 -0.072,-9.931c-0.888,0.096 -1.331,-0.408 -1.331,-1.511c0,-0.288 0.12,-0.6 0.36,-0.936c0.24,-0.36 0.444,-0.552 0.612,-0.576c0.192,-0.024 0.42,-0.036 0.684,-0.036c0.288,0 0.972,0.048 2.051,0.144c1.487,0.144 2.795,0.216 3.922,0.216l0,0Z" style="fill-rule:nonzero;"/><path id="path1883" d="M6.65,25.663l-0.722,1.625l-0.867,-1.552c0.415,0.379 1.209,0.343 1.588,-0.072Z" style="fill:#f00;fill-opacity:0.66;fill-rule:nonzero;"/><path d="M5.617,8.145c0.259,5.482 0.047,12.435 0.253,17.871" style="fill:none;fill-rule:nonzero;stroke:#f00;stroke-opacity:0.66;stroke-width:0.27px;"/><path id="path2831" d="M17.366,2.591l1.613,0.741l-1.56,0.846c0.384,-0.41 0.357,-1.203 -0.052,-1.587Z" style="fill:#f00;fill-opacity:0.66;fill-rule:nonzero;"/><path d="M6.949,2.951c2.95,0.357 6.482,0.537 10.761,0.423" style="fill:none;fill-rule:nonzero;stroke:#f00;stroke-opacity:0.66;stroke-width:0.26px;"/><path id="text1155" d="M4.309,13.905l-0.243,0l0,-1.408c0,-0.081 0.001,-0.146 0.003,-0.195c0.002,-0.049 0.005,-0.1 0.009,-0.152c-0.03,0.03 -0.057,0.056 -0.082,0.076c-0.024,0.021 -0.056,0.047 -0.093,0.079l-0.214,0.175l-0.13,-0.167l0.545,-0.423l0.206,0l-0,2.015Z" style="fill:#f00;fill-rule:nonzero;"/><path id="text1159" d="M12.121,2.473l-1.332,0l0,-0.206l0.528,-0.533c0.102,-0.102 0.187,-0.192 0.257,-0.271c0.07,-0.079 0.122,-0.156 0.158,-0.231c0.036,-0.077 0.054,-0.161 0.054,-0.251c0,-0.111 -0.033,-0.195 -0.099,-0.251c-0.066,-0.058 -0.151,-0.087 -0.257,-0.087c-0.098,0 -0.184,0.017 -0.26,0.051c-0.073,0.034 -0.149,0.081 -0.226,0.141l-0.133,-0.167c0.079,-0.066 0.169,-0.121 0.271,-0.167c0.103,-0.047 0.219,-0.071 0.347,-0.071c0.188,0 0.337,0.048 0.446,0.144c0.109,0.094 0.164,0.225 0.164,0.392c0,0.105 -0.022,0.204 -0.065,0.296c-0.043,0.092 -0.103,0.183 -0.181,0.274c-0.077,0.088 -0.167,0.183 -0.271,0.285l-0.421,0.415l0,0.011l1.019,0l-0,0.226Z" style="fill:#f00;fill-rule:nonzero;"/><path id="path2831-8" d="M15.636,17.181l1.609,0.749l-1.565,0.838c0.386,-0.408 0.364,-1.201 -0.044,-1.587Z" style="fill:#f00;fill-opacity:0.66;fill-rule:nonzero;"/><path d="M10.863,17.952c1.349,-0.113 2.925,0.04 5.113,0.013" style="fill:none;fill-rule:nonzero;stroke:#f00;stroke-opacity:0.66;stroke-width:0.26px;"/><path id="text1159-2" d="M14.177,19.383c0,0.135 -0.038,0.244 -0.113,0.325c-0.075,0.079 -0.177,0.132 -0.305,0.158l0,0.011c0.162,0.019 0.282,0.07 0.361,0.152c0.079,0.083 0.119,0.191 0.119,0.325c0,0.117 -0.027,0.221 -0.082,0.313c-0.055,0.09 -0.139,0.161 -0.254,0.212c-0.113,0.051 -0.259,0.076 -0.437,0.076c-0.105,0 -0.203,-0.008 -0.294,-0.025c-0.09,-0.015 -0.177,-0.043 -0.26,-0.085l0,-0.231c0.085,0.041 0.176,0.074 0.274,0.099c0.098,0.023 0.192,0.034 0.282,0.034c0.181,0 0.31,-0.035 0.389,-0.104c0.081,-0.071 0.121,-0.169 0.121,-0.294c0,-0.126 -0.05,-0.216 -0.15,-0.271c-0.098,-0.056 -0.236,-0.085 -0.415,-0.085l-0.195,0l0,-0.212l0.198,0c0.166,0 0.291,-0.035 0.375,-0.104c0.087,-0.07 0.13,-0.162 0.13,-0.277c0,-0.098 -0.033,-0.173 -0.099,-0.226c-0.066,-0.055 -0.155,-0.082 -0.268,-0.082c-0.109,0 -0.202,0.016 -0.279,0.048c-0.077,0.032 -0.153,0.072 -0.229,0.121l-0.124,-0.169c0.071,-0.056 0.16,-0.105 0.265,-0.147c0.107,-0.041 0.229,-0.062 0.364,-0.062c0.211,0 0.367,0.047 0.468,0.141c0.103,0.094 0.155,0.214 0.155,0.358l0,0Z" style="fill:#f00;fill-rule:nonzero;"/></g><path id="path1018-7-4" d="M2.5,13.005l180,0" style="fill:none;fill-rule:nonzero;stroke:#000;stroke-opacity:0.3;stroke-width:0.25px;stroke-dasharray:0.5,0.5;"/><rect id="path4601-3" x="2.5" y="4.006" width="180" height="23.997" style="fill:none;fill-rule:nonzero;stroke:#000;stroke-opacity:0.66;stroke-width:0.25px;stroke-linecap:round;stroke-linejoin:round;"/><path id="path1809-5-92-67" d="M48.678,5.072c-3.597,0.253 -8.283,-0.067 -10.929,-0.217c0.198,4.385 0.326,17.63 0.267,22.053" style="fill:none;fill-rule:nonzero;stroke:#000;stroke-opacity:0.32;stroke-width:0.5px;stroke-linecap:round;stroke-linejoin:round;stroke-dasharray:1,1;"/><path id="path1809-5-92-6-5" d="M46.65,14.599c-3.04,-0.033 -6.216,0.113 -8.643,-0.177" style="fill:none;fill-rule:nonzero;stroke:#000;stroke-opacity:0.32;stroke-width:0.5px;stroke-linecap:round;stroke-linejoin:round;stroke-dasharray:1,1;"/><path id="path1809-5-92-3-9" d="M79.678,5.072c-3.597,0.253 -8.283,-0.067 -10.929,-0.217c0.198,4.385 0.326,17.63 0.267,22.053" style="fill:none;fill-rule:nonzero;stroke:#000;stroke-opacity:0.16;stroke-width:0.5px;stroke-linecap:round;stroke-linejoin:round;stroke-dasharray:1,1;"/><path id="path1809-5-92-6-8-8" d="M77.65,14.599c-3.04,-0.033 -6.216,0.113 -8.643,-0.177" style="fill:none;fill-rule:nonzero;stroke:#000;stroke-opacity:0.16;stroke-width:0.5px;stroke-linecap:round;stroke-linejoin:round;stroke-dasharray:1,1;"/><path id="path1809-5-92-3-5-2" d="M110.678,5.072c-3.597,0.253 -8.283,-0.067 -10.929,-0.217c0.198,4.385 0.326,17.63 0.267,22.053" style="fill:none;fill-rule:nonzero;stroke:#000;stroke-opacity:0.08;stroke-width:0.5px;stroke-linecap:round;stroke-linejoin:round;stroke-dasharray:1,1;"/><path id="path1809-5-92-6-8-6-8" d="M108.65,14.599c-3.04,-0.033 -6.216,0.113 -8.643,-0.177" style="fill:none;fill-rule:nonzero;stroke:#000;stroke-opacity:0.08;stroke-width:0.5px;stroke-linecap:round;stroke-linejoin:round;stroke-dasharray:1,1;"/><path id="path1809-5-92-3-5-4-9" d="M141.679,5.072c-3.597,0.253 -8.283,-0.067 -10.929,-0.217c0.198,4.385 0.326,17.63 0.267,22.053" style="fill:none;fill-rule:nonzero;stroke:#000;stroke-opacity:0.04;stroke-width:0.5px;stroke-linecap:round;stroke-linejoin:round;stroke-dasharray:1,1;"/><path id="path1809-5-92-6-8-6-0-9" d="M139.65,14.599c-3.04,-0.033 -6.216,0.113 -8.643,-0.177" style="fill:none;fill-rule:nonzero;stroke:#000;stroke-opacity:0.04;stroke-width:0.5px;stroke-linecap:round;stroke-linejoin:round;stroke-dasharray:1,1;"/><path id="path1809-5-92-3-5-4-4-0" d="M172.679,5.072c-3.597,0.253 -8.283,-0.067 -10.929,-0.217c0.198,4.385 0.326,17.63 0.267,22.053" style="fill:none;fill-rule:nonzero;stroke:#000;stroke-opacity:0.04;stroke-width:0.5px;stroke-linecap:round;stroke-linejoin:round;stroke-dasharray:1,1;"/><path id="path1809-5-92-6-8-6-0-6-2" d="M170.65,14.599c-3.04,-0.033 -6.216,0.113 -8.643,-0.177" style="fill:none;fill-rule:nonzero;stroke:#000;stroke-opacity:0.04;stroke-width:0.5px;stroke-linecap:round;stroke-linejoin:round;stroke-dasharray:1,1;"/></g></svg>