<svg xmlns="http://www.w3.org/2000/svg" xml:space="preserve" style="fill-rule:evenodd;clip-rule:evenodd" viewBox="0 0 185 42"><path d="M2.5 13.005h180" style="fill:none;fill-rule:nonzero;stroke:#000;stroke-opacity:.3;stroke-width:.25px;stroke-dasharray:.5,.5"/><path d="M2.5 4.006h180v23.997H2.5z" style="fill:none;fill-rule:nonzero;stroke:#000;stroke-opacity:.66;stroke-width:.25px;stroke-linecap:round;stroke-linejoin:round"/><path d="M48.539 18.445c.821 1.534 6.346 6.877 7.2 8.594m-17.99-10.924c.044 5.718 3.036 10.931 8.52 10.917 5.649-.015 9.476-4.875 9.478-11.049.002-6.507-3.881-11.206-9.622-11.178-5.628.027-8.417 5.892-8.376 11.31" style="fill:none;fill-rule:nonzero;stroke:#000;stroke-opacity:.32;stroke-width:.5px;stroke-linecap:round;stroke-linejoin:round;stroke-dasharray:1,1"/><path d="M79.539 18.445c.821 1.534 6.346 6.877 7.2 8.594m-17.99-10.924c.044 5.718 3.036 10.931 8.52 10.917 5.649-.015 9.476-4.875 9.478-11.049.002-6.507-3.881-11.206-9.622-11.178-5.628.027-8.417 5.892-8.376 11.31" style="fill:none;fill-rule:nonzero;stroke:#000;stroke-opacity:.16;stroke-width:.5px;stroke-linecap:round;stroke-linejoin:round;stroke-dasharray:1,1"/><path d="M110.539 18.445c.821 1.534 6.346 6.877 7.2 8.594m-17.99-10.924c.044 5.718 3.036 10.931 8.52 10.917 5.649-.015 9.476-4.875 9.478-11.049.002-6.507-3.881-11.206-9.622-11.178-5.628.027-8.417 5.892-8.376 11.31" style="fill:none;fill-rule:nonzero;stroke:#000;stroke-opacity:.08;stroke-width:.5px;stroke-linecap:round;stroke-linejoin:round;stroke-dasharray:1,1"/><path d="M141.539 18.445c.821 1.534 6.346 6.877 7.2 8.594m-17.99-10.924c.044 5.718 3.036 10.931 8.52 10.917 5.649-.015 9.476-4.875 9.478-11.049.002-6.507-3.881-11.206-9.622-11.178-5.628.027-8.417 5.892-8.376 11.31M172.539 18.445c.821 1.534 6.346 6.877 7.2 8.594m-17.99-10.924c.044 5.718 3.036 10.931 8.52 10.917 5.649-.015 9.476-4.875 9.478-11.049.002-6.507-3.881-11.206-9.622-11.178-5.628.027-8.417 5.892-8.376 11.31" style="fill:none;fill-rule:nonzero;stroke:#000;stroke-opacity:.04;stroke-width:.5px;stroke-linecap:round;stroke-linejoin:round;stroke-dasharray:1,1"/><path d="m21.221 26.875-.468-.54q-2.554 2.195-6.261 2.555a9.24 9.24 0 0 1-4.93-1.871 10.84 10.84 0 0 1-3.274-4.21q-1.08-2.554-1.079-5.11 0-4.893 2.483-8.744a8.9 8.9 0 0 1 3.095-3.023q1.907-1.115 4.174-1.115t4.282 1.044a9.26 9.26 0 0 1 3.31 2.843q2.663 3.743 2.663 8.564 0 3.635-2.159 6.909 0 .036 1.115 1.187 1.044 1.152 1.044 1.727 0 .54-.396 1.115-.36.576-1.223.576t-2.375-1.907ZM9.706 22.953q1.655 2.987 5.218 3.203 2.878-.252 4.498-1.475l-2.843-3.274q-1.115-1.26-1.115-1.907 0-.684.468-1.115a1.57 1.57 0 0 1 1.151-.468q.72 0 1.871 1.223a62 62 0 0 1 1.835 2.267q.504.72.648.864 1.152-2.087 1.151-4.57 0-5.613-3.742-8.564-1.871-1.511-4.426-1.511-3.31 0-4.894 3.023-1.331 2.663-1.331 6.153 0 3.454 1.511 6.153Z" style="fill-rule:nonzero"/><path d="m23.317 8.972-.213-1.765 1.54.888c-.551-.113-1.214.326-1.327.877" style="fill:red;fill-opacity:.66;fill-rule:nonzero"/><path d="M21.843 5.573C9.924-2.132 4.121 10.041 4.283 16.706c.145 5.975 3.591 12.412 10.343 12.432 4.824.014 11.457-4.291 11.421-12.65-.018-4.146-.776-5.936-2.241-8.218" style="fill:none;fill-rule:nonzero;stroke:red;stroke-opacity:.66;stroke-width:.27px"/><path d="M6.682 6.936h-.243V5.528a5 5 0 0 1 .012-.347q-.045.046-.082.076l-.093.079-.214.175-.13-.167.545-.423h.206v2.015Z" style="fill:red;fill-rule:nonzero"/><path d="m21.795 27.115.351 1.743-1.605-.765c.558.069 1.185-.42 1.254-.978" style="fill:red;fill-opacity:.66;fill-rule:nonzero"/><path d="M14.73 19.931c1.771 2.379 4.703 5.533 6.634 7.924" style="fill:none;fill-rule:nonzero;stroke:red;stroke-opacity:.66;stroke-width:.27px"/><path d="M15.205 23.99h-1.332v-.206l.528-.533q.152-.153.257-.271.104-.118.158-.231a.6.6 0 0 0 .054-.251q0-.167-.099-.251a.37.37 0 0 0-.257-.087.6.6 0 0 0-.26.051 1.2 1.2 0 0 0-.226.141l-.133-.167q.118-.098.271-.167a.8.8 0 0 1 .347-.071q.282 0 .446.144a.49.49 0 0 1 .164.392.7.7 0 0 1-.065.296 1.2 1.2 0 0 1-.181.274 5 5 0 0 1-.271.285l-.421.415v.011h1.019z" style="fill:red;fill-rule:nonzero"/></svg>