<?xml version="1.0" encoding="UTF-8" standalone="no"?><!DOCTYPE svg PUBLIC "-//W3C//DTD SVG 1.1//EN" "http://www.w3.org/Graphics/SVG/1.1/DTD/svg11.dtd"><svg width="100%" height="100%" viewBox="0 0 185 42" version="1.1" xmlns="http://www.w3.org/2000/svg" xmlns:xlink="http://www.w3.org/1999/xlink" xml:space="preserve" xmlns:serif="http://www.serif.com/" style="fill-rule:evenodd;clip-rule:evenodd;"><g><path id="path1018-7-4" d="M2.5,13.005l180,0" style="fill:none;fill-rule:nonzero;stroke:#000;stroke-opacity:0.3;stroke-width:0.25px;stroke-dasharray:0.5,0.5;"/><rect id="path4601-3" x="2.5" y="4.006" width="180" height="23.997" style="fill:none;fill-rule:nonzero;stroke:#000;stroke-opacity:0.66;stroke-width:0.25px;stroke-linecap:round;stroke-linejoin:round;"/><path id="path1809-5-92-1-3-2" d="M68.75,5.129c0.278,5.397 1.511,17.412 2.854,21.936c1.227,-2.53 4.071,-9.95 5.987,-13.076c0.676,3.483 4.359,10.834 5.789,13.007c1.079,-4.539 3.548,-17.426 3.652,-22.192" style="fill:none;fill-rule:nonzero;stroke:#000;stroke-opacity:0.16;stroke-width:0.5px;stroke-linecap:round;stroke-linejoin:round;stroke-dasharray:1,1;"/><path id="path1809-5-92-1-5" d="M37.75,5.129c0.278,5.397 1.511,17.412 2.854,21.936c1.227,-2.53 4.071,-9.95 5.987,-13.076c0.676,3.483 4.359,10.834 5.789,13.007c1.079,-4.539 3.548,-17.426 3.652,-22.192" style="fill:none;fill-rule:nonzero;stroke:#000;stroke-opacity:0.32;stroke-width:0.5px;stroke-linecap:round;stroke-linejoin:round;stroke-dasharray:1,1;"/><path id="path1809-5-92-1-3-7-47" d="M99.75,5.129c0.278,5.397 1.511,17.412 2.854,21.936c1.227,-2.53 4.071,-9.95 5.987,-13.076c0.676,3.483 4.359,10.834 5.789,13.007c1.079,-4.539 3.548,-17.426 3.652,-22.192" style="fill:none;fill-rule:nonzero;stroke:#000;stroke-opacity:0.08;stroke-width:0.5px;stroke-linecap:round;stroke-linejoin:round;stroke-dasharray:1,1;"/><path id="path1809-5-92-1-3-7-4-4" d="M130.75,5.129c0.278,5.397 1.511,17.412 2.854,21.936c1.227,-2.53 4.071,-9.95 5.987,-13.076c0.676,3.483 4.359,10.834 5.789,13.007c1.079,-4.539 3.548,-17.426 3.652,-22.192" style="fill:none;fill-rule:nonzero;stroke:#000;stroke-opacity:0.04;stroke-width:0.5px;stroke-linecap:round;stroke-linejoin:round;stroke-dasharray:1,1;"/><path id="path1809-5-92-1-3-7-4-5-4" d="M161.75,5.129c0.278,5.397 1.511,17.412 2.854,21.936c1.227,-2.53 4.071,-9.95 5.987,-13.076c0.676,3.483 4.359,10.834 5.789,13.007c1.079,-4.539 3.548,-17.426 3.652,-22.192" style="fill:none;fill-rule:nonzero;stroke:#000;stroke-opacity:0.04;stroke-width:0.5px;stroke-linecap:round;stroke-linejoin:round;stroke-dasharray:1,1;"/><g><path id="text833" d="M25.081,4.599c0.504,0 0.852,0.36 1.044,1.079c-0.144,2.423 -0.3,4.15 -0.468,5.182c-0.168,1.008 -0.312,1.895 -0.432,2.663c-0.096,0.768 -0.168,1.295 -0.216,1.583c-0.024,0.288 -0.12,0.876 -0.288,1.763c-0.168,0.888 -0.348,1.775 -0.54,2.663c-0.168,0.864 -0.276,1.379 -0.324,1.547c-0.024,0.168 -0.24,1.247 -0.648,3.238c-0.408,1.967 -0.72,3.179 -0.936,3.634c-0.192,0.432 -0.54,0.648 -1.044,0.648c-0.48,0 -0.864,-0.144 -1.151,-0.432c-1.103,-1.511 -2.147,-3.382 -3.131,-5.613c-0.24,-0.576 -0.516,-1.199 -0.828,-1.871c-0.288,-0.672 -0.504,-1.175 -0.648,-1.511l-0.324,-0.756c-0.504,0.864 -1.199,2.327 -2.087,4.39c-0.888,2.063 -1.667,3.718 -2.339,4.966c-0.432,0.552 -0.912,0.828 -1.439,0.828c-1.103,0 -1.943,-2.939 -2.519,-8.816c0,-0.024 -0.024,-0.156 -0.072,-0.396c-0.024,-0.24 -0.072,-0.66 -0.144,-1.259c-0.048,-0.6 -0.12,-1.259 -0.216,-1.979c-0.072,-0.744 -0.372,-3.778 -0.9,-9.104c0,-0.48 0.18,-0.912 0.54,-1.295c0.36,-0.408 0.756,-0.612 1.187,-0.612c0.528,0 0.888,0.348 1.079,1.044c0.648,7.796 1.295,13.554 1.943,17.272c0.192,-0.336 0.684,-1.439 1.475,-3.31c0.792,-1.895 1.511,-3.394 2.159,-4.498c0.648,-1.127 1.271,-1.691 1.871,-1.691c0.408,0 0.756,0.216 1.044,0.648c1.511,4.294 2.807,7.317 3.886,9.068c0.024,-0.264 0.168,-0.984 0.432,-2.159l0.468,-2.303c0,-0.144 0.024,-0.348 0.072,-0.612c0.072,-0.264 0.12,-0.516 0.144,-0.756c0.048,-0.264 0.096,-0.504 0.144,-0.72l0.396,-2.267c0.576,-3.55 0.936,-6.465 1.079,-8.744c0.096,-0.408 0.312,-0.756 0.648,-1.044c0.36,-0.312 0.72,-0.468 1.079,-0.468l-0,-0Z" style="fill-rule:nonzero;"/><path id="path2831" d="M26.414,7.009l0.92,-1.518l0.662,1.647c-0.363,-0.428 -1.154,-0.492 -1.582,-0.129Z" style="fill:#f00;fill-opacity:0.66;fill-rule:nonzero;"/><path d="M4.239,6.226c0.465,3.368 1.435,14.909 2.029,17.6c0.836,3.784 1.334,5.186 3.163,5.252c2.601,0 5.665,-9.025 5.665,-9.025c0,0 3.252,9.373 6.173,9.069c1.731,-0.18 2.139,-1.449 3.073,-5.261c1.025,-4.184 2.271,-10.048 2.89,-17.104" style="fill:none;fill-rule:nonzero;stroke:#f00;stroke-opacity:0.66;stroke-width:0.26px;"/><path id="text1155" d="M3.574,15.531l-0.243,0l0,-1.408c0,-0.081 0.001,-0.146 0.003,-0.195c0.002,-0.049 0.005,-0.1 0.008,-0.152c-0.03,0.03 -0.057,0.056 -0.082,0.076c-0.024,0.021 -0.056,0.047 -0.093,0.079l-0.214,0.175l-0.13,-0.167l0.545,-0.423l0.206,0l-0,2.015Z" style="fill:#f00;fill-rule:nonzero;"/></g></g></svg>