<svg xmlns="http://www.w3.org/2000/svg" xml:space="preserve" style="fill-rule:evenodd;clip-rule:evenodd" viewBox="0 0 185 42"><path d="M2.5 12.956h180" style="fill:none;fill-rule:nonzero;stroke:#000;stroke-opacity:.3;stroke-width:.25px;stroke-dasharray:.5,.5"/><path d="M2.5 3.958h180v23.997H2.5z" style="fill:none;fill-rule:nonzero;stroke:#000;stroke-opacity:.66;stroke-width:.25px;stroke-linecap:round;stroke-linejoin:round"/><path d="M55.215 4.918C52.191 10.184 41.022 23.954 37.75 27.15m15.534.141C50.307 23.778 40.989 8.952 38.682 4.807" style="fill:none;fill-rule:nonzero;stroke:#000;stroke-opacity:.32;stroke-width:.5px;stroke-linecap:round;stroke-linejoin:round;stroke-dasharray:1,1"/><path d="M86.215 4.918C83.191 10.184 72.022 23.954 68.75 27.15m15.534.141C81.307 23.778 71.989 8.952 69.682 4.807" style="fill:none;fill-rule:nonzero;stroke:#000;stroke-opacity:.16;stroke-width:.5px;stroke-linecap:round;stroke-linejoin:round;stroke-dasharray:1,1"/><path d="M117.215 4.918c-3.024 5.266-14.193 19.036-17.465 22.232m15.534.141c-2.977-3.513-12.295-18.339-14.602-22.484" style="fill:none;fill-rule:nonzero;stroke:#000;stroke-opacity:.08;stroke-width:.5px;stroke-linecap:round;stroke-linejoin:round;stroke-dasharray:1,1"/><path d="M148.215 4.918c-3.024 5.266-14.193 19.036-17.465 22.232m15.534.141c-2.977-3.513-12.295-18.339-14.602-22.484M179.215 4.918c-3.024 5.266-14.193 19.036-17.465 22.232m15.534.141c-2.977-3.513-12.295-18.339-14.602-22.484" style="fill:none;fill-rule:nonzero;stroke:#000;stroke-opacity:.04;stroke-width:.5px;stroke-linecap:round;stroke-linejoin:round;stroke-dasharray:1,1"/><path d="M6.431 28.866q-1.224 0-1.223-1.044 0-.576.288-1.151.287-.324 2.735-3.023a119 119 0 0 0 4.57-5.326q-4.894-7.629-6.225-9.967a2.4 2.4 0 0 1-.18-.936q0-.54.504-1.079.54-.54 1.187-.54.684 0 1.079.612 3.599 5.901 5.793 9.32 3.743-4.39 7.089-9.787.612-1.08 1.727-1.079.432 0 .72.288a.79.79 0 0 1 .324.648q0 .396-.216 1.008-2.699 4.498-8.06 11.263 3.094 4.965 5.721 8.024.288.576.288 1.079 0 .504-.54 1.044-.504.54-1.151.54-.648 0-1.115-.36-1.62-2.05-5.397-7.772-2.41 2.843-6.873 7.808-.576.432-1.044.432Z" style="fill-rule:nonzero"/><path d="m5.468 25.965-1.642.674.446-1.718c.038.56.636 1.082 1.196 1.044" style="fill:red;fill-opacity:.66;fill-rule:nonzero"/><path d="M21.026 4.839C19.405 8.321 9.105 20.564 4.662 25.682" style="fill:none;fill-rule:nonzero;stroke:red;stroke-opacity:.66;stroke-width:.26px"/><path d="M5.093 12.232H4.85v-1.408a5 5 0 0 1 .012-.347q-.045.045-.082.076l-.093.079-.214.175-.13-.167.545-.423h.206v2.015ZM18.6 7.065h-1.332v-.206l.528-.533q.153-.153.257-.271t.158-.231a.6.6 0 0 0 .054-.251q0-.167-.099-.251a.37.37 0 0 0-.257-.087.6.6 0 0 0-.26.051 1.2 1.2 0 0 0-.226.141l-.133-.167q.118-.098.271-.167a.8.8 0 0 1 .347-.071q.282 0 .446.144a.49.49 0 0 1 .164.392.7.7 0 0 1-.065.296 1.2 1.2 0 0 1-.181.274 5 5 0 0 1-.271.285l-.421.415v.011h1.019v.226Z" style="fill:red;fill-rule:nonzero"/><path d="m18.079 26.163.285 1.752-1.572-.823c.554.09 1.198-.375 1.287-.929" style="fill:red;fill-opacity:.66;fill-rule:nonzero"/><path d="M4.931 6.94c1.403 2.82 9.539 15.456 12.69 19.945" style="fill:none;fill-rule:nonzero;stroke:red;stroke-opacity:.66;stroke-width:.26px"/></svg>