<?xml version="1.0" encoding="UTF-8" standalone="no"?><!DOCTYPE svg PUBLIC "-//W3C//DTD SVG 1.1//EN" "http://www.w3.org/Graphics/SVG/1.1/DTD/svg11.dtd"><svg width="100%" height="100%" viewBox="0 0 185 42" version="1.1" xmlns="http://www.w3.org/2000/svg" xmlns:xlink="http://www.w3.org/1999/xlink" xml:space="preserve" xmlns:serif="http://www.serif.com/" style="fill-rule:evenodd;clip-rule:evenodd;"><g><g><path id="text833" d="M6.084,16.137c-0.336,-0.216 -0.504,-0.528 -0.504,-0.936c0,-0.408 0.132,-0.78 0.396,-1.115c-0.096,-2.399 -0.144,-4.93 -0.144,-7.592c0.144,-0.576 0.36,-0.996 0.648,-1.259c0.312,-0.264 0.756,-0.432 1.331,-0.504c3.167,0.144 6.597,0.216 10.291,0.216c0.912,0.192 1.367,0.588 1.367,1.187c0,1.008 -0.984,1.595 -2.951,1.763c-0.528,0.024 -1.103,0.036 -1.727,0.036l-2.339,0c-0.456,0 -1.715,-0.096 -3.778,-0.288c0,2.999 0.048,5.062 0.144,6.189c1.271,0.024 3.718,0.036 7.341,0.036c0.864,0.168 1.295,0.564 1.295,1.187c0,0.6 -0.348,1.068 -1.044,1.403c-0.072,0.048 -0.204,0.096 -0.396,0.144l-6.225,-0.108c-0.384,0 -0.696,0.024 -0.936,0.072l0.144,6.189c0,1.391 -0.036,2.387 -0.108,2.987l8.348,-0.108c0.768,0.12 1.151,0.444 1.151,0.972c0,0.36 -0.168,0.72 -0.504,1.079c-0.312,0.36 -0.684,0.588 -1.115,0.684l-9.212,0.144c-0.552,0 -0.936,-0.096 -1.151,-0.288c-0.216,-0.216 -0.324,-0.564 -0.324,-1.044c0.096,-0.672 0.144,-1.751 0.144,-3.238l0,-2.519l-0.144,-5.29Z" style="fill-rule:nonzero;"/><path id="text1159-2-6" d="M13.401,31.267l-0.294,0l0,0.457l-0.24,0l0,-0.457l-0.965,0l0,-0.212l0.948,-1.357l0.257,0l0,1.346l0.294,0l0,0.223Zm-0.533,-0.858c0,-0.098 0.002,-0.181 0.006,-0.248c0.004,-0.07 0.007,-0.135 0.009,-0.198l-0.011,0c-0.015,0.036 -0.034,0.074 -0.056,0.116c-0.023,0.041 -0.044,0.076 -0.065,0.104l-0.604,0.861l0.722,0l0,-0.635Z" style="fill:#f00;fill-rule:nonzero;"/><path id="path1883" d="M5.674,25.129l-0.878,1.546l-0.71,-1.63c0.376,0.418 1.17,0.46 1.588,0.084Z" style="fill:#f00;fill-opacity:0.66;fill-rule:nonzero;"/><path d="M4.522,4.926c0.011,5.082 0.56,14.796 0.341,20.479" style="fill:none;fill-rule:nonzero;stroke:#f00;stroke-opacity:0.66;stroke-width:0.27px;"/><path id="path2831" d="M16.468,2.355l1.626,0.712l-1.545,0.874c0.376,-0.417 0.336,-1.209 -0.081,-1.585Z" style="fill:#f00;fill-opacity:0.66;fill-rule:nonzero;"/><path d="M6.739,2.895c2.142,0.107 6.457,0.368 10.087,0.236" style="fill:none;fill-rule:nonzero;stroke:#f00;stroke-opacity:0.66;stroke-width:0.26px;"/><path id="text1155" d="M3.837,9.658l-0.243,0l0,-1.408c0,-0.081 0.001,-0.146 0.003,-0.195c0.002,-0.049 0.005,-0.1 0.008,-0.152c-0.03,0.03 -0.057,0.056 -0.082,0.076c-0.024,0.021 -0.056,0.047 -0.093,0.079l-0.214,0.175l-0.13,-0.167l0.545,-0.423l0.206,0l-0,2.015Z" style="fill:#f00;fill-rule:nonzero;"/><path id="text1159" d="M10.971,2.139l-1.332,0l0,-0.206l0.528,-0.533c0.102,-0.102 0.187,-0.192 0.257,-0.271c0.07,-0.079 0.122,-0.156 0.158,-0.231c0.036,-0.077 0.054,-0.161 0.054,-0.251c0,-0.111 -0.033,-0.195 -0.099,-0.251c-0.066,-0.058 -0.151,-0.087 -0.257,-0.087c-0.098,0 -0.184,0.017 -0.26,0.051c-0.073,0.034 -0.149,0.081 -0.226,0.141l-0.133,-0.167c0.079,-0.066 0.169,-0.121 0.271,-0.167c0.103,-0.047 0.219,-0.071 0.347,-0.071c0.188,0 0.337,0.048 0.446,0.144c0.109,0.094 0.164,0.225 0.164,0.392c0,0.105 -0.022,0.204 -0.065,0.296c-0.043,0.092 -0.103,0.183 -0.181,0.274c-0.077,0.088 -0.167,0.183 -0.271,0.285l-0.421,0.415l0,0.011l1.019,0l0,0.226Z" style="fill:#f00;fill-rule:nonzero;"/><path id="path2831-8" d="M15.09,16.225l1.547,0.87l-1.624,0.715c0.416,-0.377 0.455,-1.17 0.078,-1.586Z" style="fill:#f00;fill-opacity:0.66;fill-rule:nonzero;"/><path d="M10.008,17.006c0,0 2.568,-0.08 5.361,0.028" style="fill:none;fill-rule:nonzero;stroke:#f00;stroke-opacity:0.66;stroke-width:0.26px;"/><path id="path2831-8-9" d="M15.837,28.111l1.616,0.734l-1.557,0.852c0.382,-0.411 0.352,-1.205 -0.059,-1.586Z" style="fill:#f00;fill-opacity:0.66;fill-rule:nonzero;"/><path d="M7.068,28.995c2.554,-0.01 5.458,0.02 9.116,-0.102" style="fill:none;fill-rule:nonzero;stroke:#f00;stroke-opacity:0.66;stroke-width:0.26px;"/><path id="text1159-2" d="M13.73,18.147c0,0.135 -0.038,0.244 -0.113,0.325c-0.075,0.079 -0.177,0.132 -0.305,0.158l0,0.011c0.162,0.019 0.282,0.07 0.361,0.152c0.079,0.083 0.119,0.191 0.119,0.325c0,0.117 -0.027,0.221 -0.082,0.313c-0.055,0.09 -0.139,0.161 -0.254,0.212c-0.113,0.051 -0.259,0.076 -0.437,0.076c-0.105,0 -0.203,-0.008 -0.294,-0.025c-0.09,-0.015 -0.177,-0.043 -0.26,-0.085l0,-0.231c0.085,0.041 0.176,0.074 0.274,0.099c0.098,0.023 0.192,0.034 0.282,0.034c0.181,0 0.31,-0.035 0.389,-0.104c0.081,-0.071 0.121,-0.169 0.121,-0.294c0,-0.126 -0.05,-0.216 -0.15,-0.271c-0.098,-0.056 -0.236,-0.085 -0.415,-0.085l-0.195,0l0,-0.212l0.198,0c0.166,0 0.291,-0.035 0.375,-0.104c0.087,-0.07 0.13,-0.162 0.13,-0.277c0,-0.098 -0.033,-0.173 -0.099,-0.226c-0.066,-0.055 -0.155,-0.082 -0.268,-0.082c-0.109,0 -0.202,0.016 -0.279,0.048c-0.077,0.032 -0.153,0.072 -0.229,0.121l-0.124,-0.169c0.071,-0.056 0.16,-0.105 0.265,-0.147c0.107,-0.041 0.229,-0.062 0.364,-0.062c0.211,0 0.367,0.047 0.468,0.141c0.103,0.094 0.155,0.214 0.155,0.358l0,-0Z" style="fill:#f00;fill-rule:nonzero;"/></g><path id="path1018-7-4" d="M2.5,12.956l180,0" style="fill:none;fill-rule:nonzero;stroke:#000;stroke-opacity:0.3;stroke-width:0.25px;stroke-dasharray:0.5,0.5;"/><rect id="path4601-3" x="2.5" y="3.958" width="180" height="23.997" style="fill:none;fill-rule:nonzero;stroke:#000;stroke-opacity:0.66;stroke-width:0.25px;stroke-linecap:round;stroke-linejoin:round;"/><path id="path1809-5-92-4-7" d="M48.831,5.387c-3.107,0.186 -11.131,-0.289 -11.131,-0.289c0.227,3.118 0.629,20.352 0.376,21.906c1.689,-0.1 8.555,-0.069 10.943,-0.089" style="fill:none;fill-rule:nonzero;stroke:#000;stroke-opacity:0.32;stroke-width:0.5px;stroke-linecap:round;stroke-linejoin:round;stroke-dasharray:1,1;"/><path id="path1809-5-92-6-9-2" d="M47.086,14.577c-2.239,-0.047 -7.554,-0.112 -9.084,-0.011" style="fill:none;fill-rule:nonzero;stroke:#000;stroke-opacity:0.32;stroke-width:0.5px;stroke-linecap:round;stroke-linejoin:round;stroke-dasharray:1,1;"/><path id="path1809-5-92-4-5-0" d="M79.831,5.387c-3.107,0.186 -11.131,-0.289 -11.131,-0.289c0.227,3.118 0.629,20.352 0.376,21.906c1.689,-0.1 8.555,-0.069 10.943,-0.089" style="fill:none;fill-rule:nonzero;stroke:#000;stroke-opacity:0.16;stroke-width:0.5px;stroke-linecap:round;stroke-linejoin:round;stroke-dasharray:1,1;"/><path id="path1809-5-92-6-9-0-62" d="M78.086,14.577c-2.239,-0.047 -7.554,-0.112 -9.084,-0.011" style="fill:none;fill-rule:nonzero;stroke:#000;stroke-opacity:0.16;stroke-width:0.5px;stroke-linecap:round;stroke-linejoin:round;stroke-dasharray:1,1;"/><path id="path1809-5-92-4-5-4-9" d="M110.831,5.387c-3.107,0.186 -11.131,-0.289 -11.131,-0.289c0.227,3.118 0.629,20.352 0.376,21.906c1.689,-0.1 8.555,-0.069 10.943,-0.089" style="fill:none;fill-rule:nonzero;stroke:#000;stroke-opacity:0.08;stroke-width:0.5px;stroke-linecap:round;stroke-linejoin:round;stroke-dasharray:1,1;"/><path id="path1809-5-92-6-9-0-6-0" d="M109.086,14.577c-2.239,-0.047 -7.554,-0.112 -9.084,-0.011" style="fill:none;fill-rule:nonzero;stroke:#000;stroke-opacity:0.08;stroke-width:0.5px;stroke-linecap:round;stroke-linejoin:round;stroke-dasharray:1,1;"/><path id="path1809-5-92-4-5-4-5-1" d="M141.831,5.387c-3.107,0.186 -11.131,-0.289 -11.131,-0.289c0.227,3.118 0.629,20.352 0.376,21.906c1.689,-0.1 8.555,-0.069 10.943,-0.089" style="fill:none;fill-rule:nonzero;stroke:#000;stroke-opacity:0.04;stroke-width:0.5px;stroke-linecap:round;stroke-linejoin:round;stroke-dasharray:1,1;"/><path id="path1809-5-92-6-9-0-6-8-3" d="M140.086,14.577c-2.239,-0.047 -7.554,-0.112 -9.084,-0.011" style="fill:none;fill-rule:nonzero;stroke:#000;stroke-opacity:0.04;stroke-width:0.5px;stroke-linecap:round;stroke-linejoin:round;stroke-dasharray:1,1;"/><path id="path1809-5-92-4-5-4-5-2-1" d="M172.831,5.387c-3.107,0.186 -11.131,-0.289 -11.131,-0.289c0.227,3.118 0.629,20.352 0.376,21.906c1.689,-0.1 8.555,-0.069 10.943,-0.089" style="fill:none;fill-rule:nonzero;stroke:#000;stroke-opacity:0.04;stroke-width:0.5px;stroke-linecap:round;stroke-linejoin:round;stroke-dasharray:1,1;"/><path id="path1809-5-92-6-9-0-6-8-8-0" d="M171.086,14.577c-2.239,-0.047 -7.554,-0.112 -9.084,-0.011" style="fill:none;fill-rule:nonzero;stroke:#000;stroke-opacity:0.04;stroke-width:0.5px;stroke-linecap:round;stroke-linejoin:round;stroke-dasharray:1,1;"/></g></svg>