<svg xmlns="http://www.w3.org/2000/svg" xml:space="preserve" style="fill-rule:evenodd;clip-rule:evenodd" viewBox="0 0 185 42"><path d="M2.5 13.005h180" style="fill:none;fill-rule:nonzero;stroke:#000;stroke-opacity:.3;stroke-width:.25px;stroke-dasharray:.5,.5"/><path d="M2.5 4.006h180v23.997H2.5z" style="fill:none;fill-rule:nonzero;stroke:#000;stroke-opacity:.66;stroke-width:.25px;stroke-linecap:round;stroke-linejoin:round"/><path d="M78.32 26.526c-3.648.153-6.861.24-9.595.04.391-5.994.587-15.07.524-21.564" style="fill:none;fill-rule:nonzero;stroke:#010000;stroke-opacity:.17;stroke-width:.5px;stroke-linecap:round;stroke-linejoin:round;stroke-dasharray:1,1"/><path d="M47.32 26.526c-3.648.153-6.861.24-9.595.04.391-5.994.587-15.07.524-21.564" style="fill:none;fill-rule:nonzero;stroke:#010000;stroke-opacity:.32;stroke-width:.5px;stroke-linecap:round;stroke-linejoin:round;stroke-dasharray:1,1"/><path d="M109.32 26.526c-3.648.153-6.861.24-9.595.04.391-5.994.587-15.07.524-21.564" style="fill:none;fill-rule:nonzero;stroke:#010000;stroke-opacity:.08;stroke-width:.5px;stroke-linecap:round;stroke-linejoin:round;stroke-dasharray:1,1"/><path d="M140.32 26.526c-3.648.153-6.861.24-9.595.04.391-5.994.587-15.07.524-21.564M171.32 26.526c-3.648.153-6.861.24-9.595.04.391-5.994.587-15.07.524-21.564" style="fill:none;fill-rule:nonzero;stroke:#010000;stroke-opacity:.04;stroke-width:.5px;stroke-linecap:round;stroke-linejoin:round;stroke-dasharray:1,1"/><path d="m6.263 23.792.036-2.807.324-15.041q0-.432.468-.684t1.187-.252q1.727 0 1.727 1.223 0 .396-.432 6.045-.396 5.649-.396 6.765v3.814q0 2.699.36 2.951.54.18 1.259.18l5.182-.36q1.69 0 1.691 1.223 0 .971-.936 1.439-.9.432-1.799.504-.9.036-2.195.036-5.649 0-6.117-.36-.252-.216-.288-1.619a63 63 0 0 0-.072-2.015V23.79Z" style="fill-rule:nonzero"/><path d="m5.968 25.657-.731 1.62-.857-1.557c.413.381 1.207.35 1.589-.063Z" style="fill:red;fill-opacity:.66;fill-rule:nonzero"/><path d="M5.324 5.285c.26 5.496-.298 14.927-.138 20.721" style="fill:none;fill-rule:nonzero;stroke:red;stroke-opacity:.66;stroke-width:.27px"/><path d="m15.36 28.308 1.632.699-1.538.886c.373-.42.326-1.212-.094-1.585" style="fill:red;fill-opacity:.66;fill-rule:nonzero"/><path d="M6.842 29.042c2.929.354 5.053.264 8.882.039" style="fill:none;fill-rule:nonzero;stroke:red;stroke-opacity:.66;stroke-width:.26px"/><path d="M3.986 13.777h-.243v-1.408a5 5 0 0 1 .012-.347q-.045.045-.082.076l-.093.079-.214.175-.13-.167.545-.423h.206v2.015ZM10.642 32.177H9.31v-.206l.528-.533q.152-.153.257-.271.104-.118.158-.231a.6.6 0 0 0 .054-.251q0-.167-.099-.251a.37.37 0 0 0-.257-.087.6.6 0 0 0-.26.051 1.2 1.2 0 0 0-.226.141l-.133-.167q.118-.098.271-.167a.8.8 0 0 1 .347-.071q.282 0 .446.144a.49.49 0 0 1 .164.392.7.7 0 0 1-.065.296 1.2 1.2 0 0 1-.181.274 5 5 0 0 1-.271.285l-.421.415v.011h1.019v.226Z" style="fill:red;fill-rule:nonzero"/></svg>