<?xml version="1.0" encoding="UTF-8" standalone="no"?><!DOCTYPE svg PUBLIC "-//W3C//DTD SVG 1.1//EN" "http://www.w3.org/Graphics/SVG/1.1/DTD/svg11.dtd"><svg width="100%" height="100%" viewBox="0 0 185 42" version="1.1" xmlns="http://www.w3.org/2000/svg" xmlns:xlink="http://www.w3.org/1999/xlink" xml:space="preserve" xmlns:serif="http://www.serif.com/" style="fill-rule:evenodd;clip-rule:evenodd;"><g><g><path id="text833" d="M6.303,27.267c-0.36,-0.264 -0.54,-0.552 -0.54,-0.864c0,-0.336 0.132,-0.612 0.396,-0.828c-0.456,-3.43 -0.684,-7.365 -0.684,-11.803c0,-1.343 0.06,-3.958 0.18,-7.844c0.12,-0.36 0.36,-0.672 0.72,-0.936c0.384,-0.264 0.744,-0.396 1.079,-0.396c0.336,0 0.54,0.012 0.612,0.036c3.43,0.96 6.417,2.819 8.96,5.577c2.543,2.735 3.874,6.021 3.994,9.859c0,4.222 -1.751,6.873 -5.254,7.952c-1.008,0.312 -2.075,0.468 -3.203,0.468c-1.103,0 -2.075,-0.084 -2.915,-0.252c0.096,0.192 0.144,0.444 0.144,0.756c0,0.336 -0.204,0.648 -0.612,0.936c-0.384,0.312 -0.852,0.468 -1.403,0.468c-0.528,0 -0.864,-0.324 -1.008,-0.972l-0.468,-2.159Zm2.159,-13.782c0,4.198 0.24,8.18 0.72,11.946c0.576,0.168 1.547,0.252 2.915,0.252c1.367,0 2.675,-0.228 3.922,-0.684c1.271,-0.456 1.943,-1.127 2.015,-2.015c0.072,-0.672 0.108,-1.187 0.108,-1.547c0,-3.119 -0.84,-5.877 -2.519,-8.276c-1.655,-2.399 -3.982,-4.222 -6.981,-5.469c-0.12,2.831 -0.18,4.762 -0.18,5.793Z" style="fill-rule:nonzero;"/><path id="path1883" d="M5.888,25.98l-0.556,1.689l-1.017,-1.458c0.451,0.336 1.238,0.22 1.573,-0.231Z" style="fill:#f00;fill-opacity:0.66;fill-rule:nonzero;"/><path d="M4.882,4.375c-0.625,4.605 -0.458,16.302 0.265,22.035" style="fill:none;fill-rule:nonzero;stroke:#f00;stroke-opacity:0.66;stroke-width:0.27px;"/><path id="path2831" d="M12.285,29.663l-1.536,-0.89l1.633,-0.695c-0.421,0.372 -0.469,1.164 -0.098,1.584Z" style="fill:#f00;fill-opacity:0.66;fill-rule:nonzero;"/><path d="M7.041,2.801c8.284,1.699 14.66,8.059 14.937,16.15c0.212,6.181 -2.902,10.108 -9.961,9.9" style="fill:none;fill-rule:nonzero;stroke:#f00;stroke-opacity:0.66;stroke-width:0.26px;"/><path id="text1155" d="M3.778,8.195l-0.243,0l0,-1.408c0,-0.081 0.001,-0.146 0.003,-0.195c0.002,-0.049 0.005,-0.1 0.008,-0.152c-0.03,0.03 -0.057,0.056 -0.082,0.076c-0.024,0.021 -0.056,0.047 -0.093,0.079l-0.214,0.175l-0.13,-0.167l0.545,-0.423l0.206,0l-0,2.015Z" style="fill:#f00;fill-rule:nonzero;"/><path id="text1159" d="M21.214,10.163l-1.332,0l0,-0.206l0.528,-0.533c0.102,-0.102 0.187,-0.192 0.257,-0.271c0.07,-0.079 0.122,-0.156 0.158,-0.231c0.036,-0.077 0.054,-0.161 0.054,-0.251c0,-0.111 -0.033,-0.195 -0.099,-0.251c-0.066,-0.058 -0.151,-0.087 -0.257,-0.087c-0.098,0 -0.184,0.017 -0.26,0.051c-0.073,0.034 -0.149,0.081 -0.226,0.141l-0.133,-0.167c0.079,-0.066 0.169,-0.121 0.271,-0.167c0.103,-0.047 0.219,-0.071 0.347,-0.071c0.188,0 0.337,0.048 0.446,0.144c0.109,0.094 0.164,0.225 0.164,0.392c0,0.105 -0.022,0.204 -0.065,0.296c-0.043,0.092 -0.103,0.183 -0.181,0.274c-0.077,0.088 -0.167,0.183 -0.271,0.285l-0.421,0.415l0,0.011l1.019,0l0,0.226Z" style="fill:#f00;fill-rule:nonzero;"/></g><path id="path1018-7-4" d="M2.5,13.005l180,0" style="fill:none;fill-rule:nonzero;stroke:#000;stroke-opacity:0.3;stroke-width:0.25px;stroke-dasharray:0.5,0.5;"/><rect id="path4601-3" x="2.5" y="4.006" width="180" height="23.997" style="fill:none;fill-rule:nonzero;stroke:#000;stroke-opacity:0.66;stroke-width:0.25px;stroke-linecap:round;stroke-linejoin:round;"/><path id="path1809-5-9" d="M38.604,27.129c-0.779,-6.715 -1.104,-17.769 -0.641,-22.075c9.122,1.368 12.135,8.849 12.422,13.989c0.164,8.421 -4.947,7.718 -11.781,8.086Z" style="fill:none;fill-rule:nonzero;stroke:#030000;stroke-opacity:0.32;stroke-width:0.5px;stroke-linecap:round;stroke-linejoin:round;stroke-dasharray:1,1;"/><path id="path1809-5-3-2" d="M69.604,27.129c-0.779,-6.715 -1.104,-17.769 -0.641,-22.075c9.122,1.368 12.135,8.849 12.422,13.989c0.164,8.421 -4.947,7.718 -11.781,8.086Z" style="fill:none;fill-rule:nonzero;stroke:#030000;stroke-opacity:0.17;stroke-width:0.5px;stroke-linecap:round;stroke-linejoin:round;stroke-dasharray:1,1;"/><path id="path1809-5-3-0-5" d="M100.604,27.129c-0.779,-6.715 -1.104,-17.769 -0.641,-22.075c9.122,1.368 12.135,8.849 12.422,13.989c0.164,8.421 -4.947,7.718 -11.781,8.086Z" style="fill:none;fill-rule:nonzero;stroke:#030000;stroke-opacity:0.08;stroke-width:0.5px;stroke-linecap:round;stroke-linejoin:round;stroke-dasharray:1,1;"/><path id="path1809-5-3-0-3-4" d="M131.604,27.129c-0.779,-6.715 -1.104,-17.769 -0.641,-22.075c9.122,1.368 12.135,8.849 12.422,13.989c0.164,8.421 -4.947,7.718 -11.781,8.086Z" style="fill:none;fill-rule:nonzero;stroke:#030000;stroke-opacity:0.04;stroke-width:0.5px;stroke-linecap:round;stroke-linejoin:round;stroke-dasharray:1,1;"/><path id="path1809-5-3-0-3-0-0" d="M162.604,27.129c-0.779,-6.715 -1.104,-17.769 -0.641,-22.075c9.122,1.368 12.135,8.849 12.422,13.989c0.164,8.421 -4.947,7.718 -11.781,8.086Z" style="fill:none;fill-rule:nonzero;stroke:#030000;stroke-opacity:0.04;stroke-width:0.5px;stroke-linecap:round;stroke-linejoin:round;stroke-dasharray:1,1;"/></g></svg>