<svg xmlns="http://www.w3.org/2000/svg" xml:space="preserve" style="fill-rule:evenodd;clip-rule:evenodd" viewBox="0 0 185 42"><path d="m10.669 28.76-4.642-.108q-.396-1.511-.468-13.602v-2.555q0-3.058.576-4.642.576-1.619 2.411-2.591.935-.468 2.591-.468 1.69 0 2.591.216 2.411.504 3.274 1.871.9 1.368.9 3.67 0 3.202-1.691 4.714.863.108 1.727.864a8.3 8.3 0 0 1 1.403 1.547q.936 1.44.936 3.922 0 3.887-2.375 5.541-2.339 1.619-7.233 1.619ZM8.438 11.236l.072 4.102q.072 0 1.223-.144 1.152-.18 1.943-.36 3.634-.864 3.634-4.138 0-1.619-.972-2.375-.936-.756-2.483-.756-1.943 0-2.627.684-.288.288-.468.504-.18.18-.252.612a22 22 0 0 1-.108.612v.684q.036.504.036.576Zm8.096 7.664q-.36-.396-1.115-.72t-2.195-.324q-1.404 0-4.822.468 0 5.613.18 7.592 4.21 0 5.901-.54 1.69-.576 2.267-1.367.612-.828.612-1.727 0-.936-.036-1.295 0-.396-.216-1.044-.18-.684-.576-1.044Z" style="fill-rule:nonzero"/><path d="m5.655 25.813-.754 1.61-.835-1.569c.408.387 1.202.367 1.589-.041" style="fill:red;fill-opacity:.66;fill-rule:nonzero"/><path d="M5.389 5.092c-1.312 4.649-.711 14.61-.521 21.059" style="fill:none;fill-rule:nonzero;stroke:red;stroke-opacity:.66;stroke-width:.27px"/><path d="m19.341 12.189-1.188 1.318-.342-1.742c.277.488 1.042.7 1.53.423Z" style="fill:red;fill-opacity:.66;fill-rule:nonzero"/><path d="M6.625 4.081c8.396-2.176 13.844.033 11.866 8.202" style="fill:none;fill-rule:nonzero;stroke:red;stroke-opacity:.66;stroke-width:.26px"/><path d="m8.018 29.799-1.531-.897 1.637-.687c-.422.37-.475 1.162-.105 1.584Z" style="fill:red;fill-opacity:.66;fill-rule:nonzero"/><path d="M18.782 14.9c1.107 1.305 2.57 1.905 2.521 6.047-.055 4.616-1.429 8.707-13.548 8.039" style="fill:none;fill-rule:nonzero;stroke:red;stroke-opacity:.66;stroke-width:.26px"/><path d="M3.869 8.947h-.243V7.539q0-.122.003-.195l.008-.152q-.045.045-.082.076l-.093.079-.214.175-.13-.167.545-.423h.206zM20.609 5.812h-1.332v-.206l.528-.533q.153-.153.257-.271t.158-.231a.6.6 0 0 0 .054-.251q0-.167-.099-.251a.37.37 0 0 0-.257-.087.6.6 0 0 0-.26.051 1.2 1.2 0 0 0-.226.141l-.133-.167q.118-.099.271-.167a.8.8 0 0 1 .347-.071q.282 0 .446.144a.49.49 0 0 1 .164.392.7.7 0 0 1-.065.296 1.2 1.2 0 0 1-.181.274 5 5 0 0 1-.271.285l-.421.415v.011h1.019v.226ZM21.872 26.607a.46.46 0 0 1-.113.325.56.56 0 0 1-.305.158v.011q.243.029.361.152a.45.45 0 0 1 .119.325.6.6 0 0 1-.082.313.55.55 0 0 1-.254.212 1.1 1.1 0 0 1-.437.076q-.158 0-.294-.025a.9.9 0 0 1-.26-.085v-.231q.127.062.274.099.147.034.282.034.271 0 .389-.104a.37.37 0 0 0 .121-.294q0-.189-.15-.271a.84.84 0 0 0-.415-.085h-.195v-.212h.198q.249 0 .375-.104a.34.34 0 0 0 .13-.277.27.27 0 0 0-.099-.226.4.4 0 0 0-.268-.082.7.7 0 0 0-.279.048 1.5 1.5 0 0 0-.229.121l-.124-.169q.107-.084.265-.147.161-.062.364-.062.317 0 .468.141a.47.47 0 0 1 .155.358Z" style="fill:red;fill-rule:nonzero"/><path d="M2.5 12.956h180" style="fill:none;fill-rule:nonzero;stroke:#000;stroke-opacity:.3;stroke-width:.25px;stroke-dasharray:.5,.5"/><path d="M2.5 3.958h180v23.997H2.5z" style="fill:none;fill-rule:nonzero;stroke:#000;stroke-opacity:.66;stroke-width:.25px;stroke-linecap:round;stroke-linejoin:round"/><path d="M37.841 27.162 37.75 6.184c4.879-2.527 10.276-1.016 9.9 3.28-.55 6.278-6.924 5.962-9.884 6.466 3.228-.097 12.004-2.518 12.009 4.96.005 6.853-6.837 5.825-11.933 6.272Z" style="fill:none;fill-rule:nonzero;stroke:#000;stroke-opacity:.32;stroke-width:.5px;stroke-linecap:round;stroke-linejoin:round;stroke-dasharray:1,1"/><path d="M68.841 27.162 68.75 6.184c4.879-2.527 10.276-1.016 9.9 3.28-.55 6.278-6.924 5.962-9.884 6.466 3.228-.097 12.004-2.518 12.009 4.96.005 6.853-6.837 5.825-11.933 6.272Z" style="fill:none;fill-rule:nonzero;stroke:#000;stroke-opacity:.16;stroke-width:.5px;stroke-linecap:round;stroke-linejoin:round;stroke-dasharray:1,1"/><path d="M99.841 27.162 99.75 6.184c4.879-2.527 10.276-1.016 9.9 3.28-.55 6.278-6.924 5.962-9.884 6.466 3.228-.097 12.004-2.518 12.009 4.96.005 6.853-6.837 5.825-11.933 6.272h0Z" style="fill:none;fill-rule:nonzero;stroke:#000;stroke-opacity:.08;stroke-width:.5px;stroke-linecap:round;stroke-linejoin:round;stroke-dasharray:1,1"/><path d="m130.841 27.162-.091-20.978c4.879-2.527 10.276-1.016 9.9 3.28-.55 6.278-6.924 5.962-9.884 6.466 3.228-.097 12.004-2.518 12.009 4.96.005 6.853-6.837 5.825-11.933 6.272h0ZM161.841 27.162l-.091-20.978c4.879-2.527 10.276-1.016 9.9 3.28-.55 6.278-6.924 5.962-9.884 6.466 3.228-.097 12.004-2.518 12.009 4.96.005 6.853-6.837 5.825-11.933 6.272h0Z" style="fill:none;fill-rule:nonzero;stroke:#000;stroke-opacity:.04;stroke-width:.5px;stroke-linecap:round;stroke-linejoin:round;stroke-dasharray:1,1"/></svg>