<svg xmlns="http://www.w3.org/2000/svg" xml:space="preserve" style="fill-rule:evenodd;clip-rule:evenodd" viewBox="0 0 185 42"><path d="M2.5 13.005h180" style="fill:none;fill-rule:nonzero;stroke:#000;stroke-opacity:.3;stroke-width:.25px;stroke-dasharray:.5,.5"/><path d="M2.5 4.006h180v23.997H2.5z" style="fill:none;fill-rule:nonzero;stroke:#000;stroke-opacity:.66;stroke-width:.25px;stroke-linecap:round;stroke-linejoin:round"/><path d="M37.84 16.341c4.309 1.673 10.526 8.031 11.491 10.934M37.84 16.341c5.749-.764 11.372-.227 11.466-6.88-.021-5.121-8.604-4.839-11.564-4.49zl-.052 10.702" style="fill:none;fill-rule:nonzero;stroke:#000;stroke-opacity:.32;stroke-width:.5px;stroke-linecap:round;stroke-linejoin:round;stroke-dasharray:1,1"/><path d="M68.84 16.341c4.309 1.673 10.526 8.031 11.491 10.934M68.84 16.341c5.749-.764 11.372-.227 11.466-6.88-.021-5.121-8.604-4.839-11.564-4.49zl-.052 10.702" style="fill:none;fill-rule:nonzero;stroke:#000;stroke-opacity:.16;stroke-width:.5px;stroke-linecap:round;stroke-linejoin:round;stroke-dasharray:1,1"/><path d="M99.84 16.341c4.309 1.673 10.526 8.031 11.491 10.934M99.84 16.341c5.749-.764 11.372-.227 11.466-6.88-.021-5.121-8.604-4.839-11.564-4.49zl-.052 10.702" style="fill:none;fill-rule:nonzero;stroke:#000;stroke-opacity:.08;stroke-width:.5px;stroke-linecap:round;stroke-linejoin:round;stroke-dasharray:1,1"/><path d="M130.84 16.341c4.309 1.673 10.526 8.031 11.491 10.934M130.84 16.341c5.749-.764 11.372-.227 11.466-6.88-.021-5.121-8.604-4.839-11.564-4.49zl-.052 10.702M161.84 16.341c4.309 1.673 10.526 8.031 11.491 10.934M161.84 16.341c5.749-.764 11.372-.227 11.466-6.88-.021-5.121-8.604-4.839-11.564-4.49zl-.052 10.702" style="fill:none;fill-rule:nonzero;stroke:#000;stroke-opacity:.04;stroke-width:.5px;stroke-linecap:round;stroke-linejoin:round;stroke-dasharray:1,1"/><path d="M8.111 27.115q0 .648-.576 1.187-.576.504-1.259.504-.648 0-.9-.864a416 416 0 0 1-.108-9.464L5.16 9.41q0-2.735 2.411-3.742 1.943-.9 4.606-.9 1.368 0 2.915.684a8 8 0 0 1 2.807 1.943q1.26 1.26 1.259 2.771 0 1.476-1.367 3.203-1.368 1.69-3.382 3.023-2.015 1.296-3.922 1.943 3.347 2.338 5.829 5.038 2.483 2.663 2.483 4.138 0 .468-.468.9-.468.396-1.151.396-.648 0-1.115-.576-.791-1.907-3.023-3.994-2.195-2.123-5.146-4.03l.216 6.909ZM7.967 16.32q2.41-.108 5.397-2.015 3.023-1.907 3.023-3.418 0-1.547-1.511-2.375-1.512-.828-3.598-.828-2.051 0-3.274.504-.036 1.835-.036 8.132Z" style="fill-rule:nonzero"/><path d="m4.907 25.451-.801 1.587-.789-1.593c.396.399 1.191.402 1.59.006" style="fill:red;fill-opacity:.66;fill-rule:nonzero"/><path d="M4.294 7.441c.003 5.956-.152 12.571-.183 18.324" style="fill:none;fill-rule:nonzero;stroke:red;stroke-opacity:.66;stroke-width:.27px"/><path d="M3.788 9.894h-.243V8.486q0-.122.003-.195l.008-.152q-.045.045-.082.076l-.093.079-.214.175-.13-.167.545-.423h.206z" style="fill:red;fill-rule:nonzero"/><path d="m20.313 25.368-.255 1.759-1.255-1.259c.502.252 1.257.002 1.509-.5Z" style="fill:red;fill-opacity:.66;fill-rule:nonzero"/><path d="M13.471 18.813c2.353 1.794 5.101 4.656 6.188 7.107" style="fill:none;fill-rule:nonzero;stroke:red;stroke-opacity:.66;stroke-width:.27px"/><path d="M17.204 3.18h-1.332v-.206l.528-.533q.153-.153.257-.271t.158-.231a.6.6 0 0 0 .054-.251q0-.167-.099-.251a.37.37 0 0 0-.257-.087.6.6 0 0 0-.26.051 1.2 1.2 0 0 0-.226.141l-.133-.167q.118-.099.271-.167a.8.8 0 0 1 .347-.071q.282 0 .446.144a.49.49 0 0 1 .164.392.7.7 0 0 1-.065.296 1.2 1.2 0 0 1-.181.274 5 5 0 0 1-.271.285l-.421.415v.011h1.019v.226Z" style="fill:red;fill-rule:nonzero"/><path d="m13.936 18.721-1.777-.044 1.101-1.395c-.191.529.147 1.248.676 1.439" style="fill:red;fill-opacity:.66;fill-rule:nonzero"/><path d="M5.798 4.727c7.059-3.812 14.056.112 14.291 4.333.192 3.448-3.26 7.212-6.778 9.077" style="fill:none;fill-rule:nonzero;stroke:red;stroke-opacity:.66;stroke-width:.27px"/><path d="M19.274 20.525a.46.46 0 0 1-.113.325.56.56 0 0 1-.305.158v.011q.243.029.361.152a.45.45 0 0 1 .119.325.6.6 0 0 1-.082.313.55.55 0 0 1-.254.212 1.1 1.1 0 0 1-.437.076q-.158 0-.294-.025a.9.9 0 0 1-.26-.085v-.231q.127.061.274.099.147.034.282.034.271 0 .389-.104a.37.37 0 0 0 .121-.294q0-.189-.15-.271a.84.84 0 0 0-.415-.085h-.195v-.212h.198q.249 0 .375-.104a.34.34 0 0 0 .13-.277.27.27 0 0 0-.099-.226.4.4 0 0 0-.268-.082.7.7 0 0 0-.279.048 1.5 1.5 0 0 0-.229.121l-.124-.169q.107-.084.265-.147.161-.062.364-.062.317 0 .468.141a.47.47 0 0 1 .155.358Z" style="fill:red;fill-rule:nonzero"/></svg>