<svg xmlns="http://www.w3.org/2000/svg" xml:space="preserve" style="fill-rule:evenodd;clip-rule:evenodd" viewBox="0 0 185 42"><path d="M2.5 13.005h180" style="fill:none;fill-rule:nonzero;stroke:#000;stroke-opacity:.3;stroke-width:.25px;stroke-dasharray:.5,.5"/><path d="M2.5 4.006h180v23.997H2.5z" style="fill:none;fill-rule:nonzero;stroke:#000;stroke-opacity:.66;stroke-width:.25px;stroke-linecap:round;stroke-linejoin:round"/><path d="M37.998 24.22c5.809 6.456 13.19 1.794 12.777-3.726-.286-3.822-2.965-5.25-6.307-5.833-3.521-.615-6.236-1.45-6.68-4.643-.623-4.479 6.41-7.616 11.919-3.154" style="fill:none;fill-rule:nonzero;stroke:#020000;stroke-opacity:.32;stroke-width:.5px;stroke-linecap:round;stroke-linejoin:round;stroke-dasharray:1,1"/><path d="M68.998 24.22c5.809 6.456 13.19 1.794 12.777-3.726-.286-3.822-2.965-5.25-6.307-5.833-3.521-.615-6.236-1.45-6.68-4.643-.623-4.479 6.41-7.616 11.919-3.154" style="fill:none;fill-rule:nonzero;stroke:#020000;stroke-opacity:.17;stroke-width:.5px;stroke-linecap:round;stroke-linejoin:round;stroke-dasharray:1,1"/><path d="M99.998 24.22c5.809 6.456 13.19 1.794 12.777-3.726-.286-3.822-2.965-5.25-6.307-5.833-3.521-.615-6.236-1.45-6.68-4.643-.623-4.479 6.41-7.616 11.919-3.154" style="fill:none;fill-rule:nonzero;stroke:#020000;stroke-opacity:.08;stroke-width:.5px;stroke-linecap:round;stroke-linejoin:round;stroke-dasharray:1,1"/><path d="M130.998 24.22c5.809 6.456 13.19 1.794 12.777-3.726-.286-3.822-2.965-5.25-6.307-5.833-3.521-.615-6.236-1.45-6.68-4.643-.623-4.479 6.41-7.616 11.919-3.154M161.998 24.22c5.809 6.456 13.19 1.794 12.777-3.726-.286-3.822-2.965-5.25-6.307-5.833-3.521-.615-6.236-1.45-6.68-4.643-.623-4.479 6.41-7.616 11.919-3.154" style="fill:none;fill-rule:nonzero;stroke:#020000;stroke-opacity:.04;stroke-width:.5px;stroke-linecap:round;stroke-linejoin:round;stroke-dasharray:1,1"/><path d="M13.67 4.717q2.339 0 3.958.792 1.655.792 1.655 2.015 0 .54-.288.936-.252.396-.792.396-.503 0-2.231-.792-1.727-.828-3.167-.828-1.403 0-2.915.9-1.511.9-1.511 2.195 0 1.763 1.835 2.591 1.368.612 3.922 1.115 2.555.468 4.174 1.979 1.619 1.476 1.619 4.498 0 4.607-2.771 6.801-1.548 1.223-4.39 1.223-2.806 0-5.613-1.547-1.835-.971-1.835-1.943 0-.36.288-.792a2.6 2.6 0 0 1 .864-.72q.54-.288.972-.072.468.18 1.475.684t1.475.684q1.511.576 2.843.576t2.555-1.295q1.26-1.332 1.259-3.238 0-2.519-2.519-3.526-1.223-.504-2.771-.756-3.202-.576-4.822-1.907-1.619-1.368-1.619-4.102t2.339-4.282q2.339-1.583 6.009-1.583Z" style="fill-rule:nonzero"/><path d="m7.473 22.819-1.051-1.434 1.778.02c-.535.172-.899.879-.727 1.414" style="fill:red;fill-opacity:.66;fill-rule:nonzero"/><path d="M18.57 4.269c-7.872-2.938-14.082.865-14.117 5.395-.044 5.672 3.97 6.254 6.692 6.959 2.96.766 4.941 1.236 4.982 3.817.027 1.732-1.573 3.582-3.622 3.397-1.373-.124-2.938-.846-4.951-1.872" style="fill:none;fill-rule:nonzero;stroke:red;stroke-opacity:.66;stroke-width:.27px"/><path d="M5.971 4.325h-.243V2.917a5 5 0 0 1 .012-.347q-.045.046-.082.076l-.093.079-.214.175-.13-.167.545-.423h.206v2.015Z" style="fill:red;fill-rule:nonzero"/></svg>