<svg xmlns="http://www.w3.org/2000/svg" xml:space="preserve" style="fill-rule:evenodd;clip-rule:evenodd" viewBox="0 0 185 42"><path d="M16.042 5.017q2.41 0 5.326.936.648.504.648 1.115 0 .576-.612 1.044a2.16 2.16 0 0 1-1.331.432q-1.943-.504-3.634-.504-3.886 0-5.901 2.303T8.523 17.18t2.375 7.089q1.223 1.332 2.915 1.331 1.691 0 5.397-1.799 1.296-.612 1.727-.612.936 0 .936.972t-.9 1.619q-3.094 1.619-4.822 2.195-1.727.54-2.987.54-2.591 0-4.426-1.907Q5.464 23.082 5.464 17q0-6.117 3.095-9.032 3.13-2.95 7.485-2.951Z" style="fill-rule:nonzero"/><path d="m19.453 26.355 1.768-.184-.913 1.525c.122-.549-.306-1.219-.855-1.341" style="fill:red;fill-opacity:.66;fill-rule:nonzero"/><path d="M21.388 4.168C10.958 1.384 4.056 6.276 4.425 16.49c.449 12.458 7.805 15.096 15.724 10.365" style="fill:none;fill-rule:nonzero;stroke:red;stroke-opacity:.66;stroke-width:.27px"/><path d="M5.584 6.88h-.243V5.472a5 5 0 0 1 .012-.347q-.045.046-.082.076l-.093.079-.214.175-.13-.167.545-.423h.206V6.88Z" style="fill:red;fill-rule:nonzero"/><path d="M2.5 13.005h180" style="fill:none;fill-rule:nonzero;stroke:#000;stroke-opacity:.3;stroke-width:.25px;stroke-dasharray:.5,.5"/><path d="M2.5 4.006h180v23.997H2.5z" style="fill:none;fill-rule:nonzero;stroke:#000;stroke-opacity:.66;stroke-width:.25px;stroke-linecap:round;stroke-linejoin:round"/><path d="M51.705 24.486c-10.09 7.133-13.793-1.387-13.949-7.42-.201-7.764 3.538-14.003 14.504-11.418" style="fill:none;fill-rule:nonzero;stroke:#000;stroke-opacity:.32;stroke-width:.5px;stroke-linecap:round;stroke-linejoin:round;stroke-dasharray:1,1"/><path d="M82.705 24.486c-10.09 7.133-13.793-1.387-13.949-7.42-.201-7.764 3.538-14.003 14.504-11.418" style="fill:none;fill-rule:nonzero;stroke:#000;stroke-opacity:.16;stroke-width:.5px;stroke-linecap:round;stroke-linejoin:round;stroke-dasharray:1,1"/><path d="M113.705 24.486c-10.09 7.133-13.793-1.387-13.949-7.42-.201-7.764 3.538-14.003 14.505-11.418" style="fill:none;fill-rule:nonzero;stroke:#000;stroke-opacity:.08;stroke-width:.5px;stroke-linecap:round;stroke-linejoin:round;stroke-dasharray:1,1"/><path d="M144.705 24.486c-10.09 7.133-13.793-1.387-13.949-7.42-.201-7.764 3.538-14.003 14.505-11.418M175.705 24.486c-10.09 7.133-13.793-1.387-13.949-7.42-.201-7.764 3.538-14.003 14.505-11.418" style="fill:none;fill-rule:nonzero;stroke:#000;stroke-opacity:.04;stroke-width:.5px;stroke-linecap:round;stroke-linejoin:round;stroke-dasharray:1,1"/></svg>