<svg xmlns="http://www.w3.org/2000/svg" xml:space="preserve" style="fill-rule:evenodd;clip-rule:evenodd" viewBox="0 0 185 42"><path d="M2.5 12.956h180" style="fill:none;fill-rule:nonzero;stroke:#000;stroke-opacity:.3;stroke-width:.25px;stroke-dasharray:.5,.5"/><path d="M2.5 3.958h180v23.997H2.5z" style="fill:none;fill-rule:nonzero;stroke:#000;stroke-opacity:.66;stroke-width:.25px;stroke-linecap:round;stroke-linejoin:round"/><path d="M37.75 5.424c3.84 8.517 7.999 17.382 8.938 21.78.996-4.188 4.574-17.704 6.606-21.798" style="fill:none;fill-rule:nonzero;stroke:#000;stroke-opacity:.32;stroke-width:.5px;stroke-linecap:round;stroke-linejoin:round;stroke-dasharray:1,1"/><path d="M68.75 5.424c3.84 8.517 7.999 17.382 8.938 21.78.996-4.188 4.574-17.704 6.606-21.798" style="fill:none;fill-rule:nonzero;stroke:#000;stroke-opacity:.16;stroke-width:.5px;stroke-linecap:round;stroke-linejoin:round;stroke-dasharray:1,1"/><path d="M99.75 5.424c3.84 8.517 7.999 17.382 8.938 21.78.996-4.188 4.574-17.704 6.606-21.798" style="fill:none;fill-rule:nonzero;stroke:#000;stroke-opacity:.08;stroke-width:.5px;stroke-linecap:round;stroke-linejoin:round;stroke-dasharray:1,1"/><path d="M130.75 5.424c3.84 8.517 7.999 17.382 8.938 21.78.996-4.188 4.574-17.704 6.606-21.798M161.75 5.424c3.84 8.517 7.999 17.382 8.938 21.78.996-4.188 4.574-17.704 6.606-21.798" style="fill:none;fill-rule:nonzero;stroke:#000;stroke-opacity:.04;stroke-width:.5px;stroke-linecap:round;stroke-linejoin:round;stroke-dasharray:1,1"/><path d="M13.598 27.739q-1.476-4.354-3.059-7.952a686 686 0 0 0-4.066-9.104 107 107 0 0 0-1.079-2.339 2.4 2.4 0 0 1-.216-1.008q0-.576.54-1.115.576-.54 1.259-.54.684 0 1.151.684l1.727 3.958q3.634 8.384 5.182 12.198l.648-2.519q.791-3.31 1.655-6.549 2.446-8.852 4.822-8.852.432 0 .72.252a.82.82 0 0 1 .324.684q0 .432-.468 1.259-.432.828-1.115 2.987-.684 2.159-.864 2.555-.144.36-1.727 6.045-1.547 5.685-2.663 8.924-.18.576-.684.972-.504.36-1.151.36-.612 0-.936-.9" style="fill-rule:nonzero"/><path d="m12.841 25.781-.253 1.757-1.253-1.257c.502.252 1.255.002 1.507-.5Z" style="fill:red;fill-opacity:.66;fill-rule:nonzero"/><path d="M3.822 6.955c3.257 7.014 6.952 15.416 8.366 19.377" style="fill:none;fill-rule:nonzero;stroke:red;stroke-opacity:.66;stroke-width:.26px"/><path d="M5.239 15.872h-.243v-1.408a5 5 0 0 1 .012-.347q-.045.045-.082.076l-.093.079-.214.175-.13-.167.545-.423h.206v2.015Z" style="fill:red;fill-rule:nonzero"/><path d="m22.886 6.77 1.381-1.115.063 1.774c-.196-.526-.918-.855-1.444-.659" style="fill:red;fill-opacity:.66;fill-rule:nonzero"/><path d="M17.521 27.349c1.946-7.108 4.509-16.415 6.218-20.538" style="fill:none;fill-rule:nonzero;stroke:red;stroke-opacity:.66;stroke-width:.26px"/><path d="M24.054 14.606h-1.332V14.4l.528-.533q.152-.153.257-.271t.158-.231a.6.6 0 0 0 .054-.251q0-.167-.099-.251a.37.37 0 0 0-.257-.087.6.6 0 0 0-.26.051 1.2 1.2 0 0 0-.226.141l-.133-.167q.118-.098.271-.167a.8.8 0 0 1 .347-.071q.282 0 .446.144a.49.49 0 0 1 .164.392.7.7 0 0 1-.065.296 1.2 1.2 0 0 1-.181.274 5 5 0 0 1-.271.285l-.421.415v.011h1.019v.226Z" style="fill:red;fill-rule:nonzero"/></svg>