<svg xmlns="http://www.w3.org/2000/svg" xml:space="preserve" style="fill-rule:evenodd;clip-rule:evenodd" viewBox="0 0 185 42"><path d="M2.5 12.956h180" style="fill:none;fill-rule:nonzero;stroke:#000;stroke-opacity:.3;stroke-width:.25px;stroke-dasharray:.5,.5"/><path d="M2.5 3.958h180v23.997H2.5z" style="fill:none;fill-rule:nonzero;stroke:#000;stroke-opacity:.66;stroke-width:.25px;stroke-linecap:round;stroke-linejoin:round"/><path d="M48.398 26.849c.171-7.559.219-18.033.227-22.042m-10.832.146c.182 7.125-.322 15.415.205 22.158" style="fill:none;fill-rule:nonzero;stroke:#020000;stroke-opacity:.32;stroke-width:.5px;stroke-linecap:round;stroke-linejoin:round;stroke-dasharray:1,1"/><path d="M48.351 15.408c-2.975.436-7.341.287-10.461-.462" style="fill:none;fill-rule:nonzero;stroke:#020000;stroke-opacity:.32;stroke-width:.5px;stroke-linecap:round;stroke-linejoin:round;stroke-dasharray:1,1"/><path d="M79.398 26.849c.171-7.559.219-18.033.227-22.042m-10.832.146c.182 7.125-.322 15.415.205 22.158" style="fill:none;fill-rule:nonzero;stroke:#020000;stroke-opacity:.17;stroke-width:.5px;stroke-linecap:round;stroke-linejoin:round;stroke-dasharray:1,1"/><path d="M79.352 15.408c-2.975.436-7.341.287-10.461-.462" style="fill:none;fill-rule:nonzero;stroke:#020000;stroke-opacity:.17;stroke-width:.5px;stroke-linecap:round;stroke-linejoin:round;stroke-dasharray:1,1"/><path d="M110.398 26.849c.171-7.559.219-18.033.227-22.042m-10.832.146c.182 7.125-.322 15.415.205 22.158" style="fill:none;fill-rule:nonzero;stroke:#020000;stroke-opacity:.08;stroke-width:.5px;stroke-linecap:round;stroke-linejoin:round;stroke-dasharray:1,1"/><path d="M110.352 15.408c-2.975.436-7.341.287-10.461-.462" style="fill:none;fill-rule:nonzero;stroke:#020000;stroke-opacity:.08;stroke-width:.5px;stroke-linecap:round;stroke-linejoin:round;stroke-dasharray:1,1"/><path d="M141.399 26.849c.171-7.559.219-18.033.227-22.042m-10.832.146c.182 7.125-.322 15.415.205 22.158" style="fill:none;fill-rule:nonzero;stroke:#020000;stroke-opacity:.04;stroke-width:.5px;stroke-linecap:round;stroke-linejoin:round;stroke-dasharray:1,1"/><path d="M141.352 15.408c-2.975.436-7.341.287-10.461-.462M172.399 26.849c.171-7.559.219-18.033.227-22.042m-10.832.146c.182 7.125-.322 15.415.205 22.158" style="fill:none;fill-rule:nonzero;stroke:#020000;stroke-opacity:.04;stroke-width:.5px;stroke-linecap:round;stroke-linejoin:round;stroke-dasharray:1,1"/><path d="M172.352 15.408c-2.975.436-7.341.287-10.461-.462" style="fill:none;fill-rule:nonzero;stroke:#020000;stroke-opacity:.04;stroke-width:.5px;stroke-linecap:round;stroke-linejoin:round;stroke-dasharray:1,1"/><path d="M10.093 14.915q2.806.468 5.146.468t2.987-.036a200 200 0 0 1-.072-5.254V6.675q0-.9.072-1.115.072-.252.468-.468t1.151-.216q1.08 0 1.079 1.295v12.738q0 3.958-.18 8.708-.036 1.044-1.763 1.044-.864 0-.864-1.044l.144-9.536q-1.152.072-3.167.072-1.979 0-5.002-.432 0 4.75.432 9.931.036.576-.504.9-.54.288-1.367.288-.792 0-.864-.828a110 110 0 0 1-.468-10.075L7.537 6.71q0-.72.54-1.044.54-.36 1.151-.36 1.008 0 1.008.972l-.144 8.636Z" style="fill-rule:nonzero"/><path d="m7.055 25.717-.665 1.648-.92-1.521c.428.364 1.22.301 1.585-.127" style="fill:red;fill-opacity:.66;fill-rule:nonzero"/><path d="M5.925 5.817c.133 6.314-.042 14.474.363 20.28" style="fill:none;fill-rule:nonzero;stroke:red;stroke-opacity:.66;stroke-width:.27px"/><path d="m22.893 25.371-.859 1.553-.727-1.619c.38.413 1.173.446 1.586.066" style="fill:red;fill-opacity:.66;fill-rule:nonzero"/><path d="M22.246 5.032c.089 4.632.056 14.767-.16 20.623" style="fill:none;fill-rule:nonzero;stroke:red;stroke-opacity:.66;stroke-width:.26px"/><path d="M4.171 11.11h-.243V9.702a5 5 0 0 1 .012-.347q-.045.045-.082.076l-.093.079-.214.175-.13-.167.545-.423h.206v2.015ZM24.477 11.514h-1.332v-.206l.528-.533q.152-.153.257-.271t.158-.231a.6.6 0 0 0 .054-.251q0-.167-.099-.251a.37.37 0 0 0-.257-.087.6.6 0 0 0-.26.051 1.2 1.2 0 0 0-.226.141l-.133-.167q.118-.099.271-.167a.8.8 0 0 1 .347-.071q.282 0 .446.144a.49.49 0 0 1 .164.392.7.7 0 0 1-.065.296 1.2 1.2 0 0 1-.181.274 5 5 0 0 1-.271.285l-.421.415v.011h1.019v.226Z" style="fill:red;fill-rule:nonzero"/><path d="m15.609 18.164 1.618.729-1.554.857c.381-.413.349-1.206-.064-1.586" style="fill:red;fill-opacity:.66;fill-rule:nonzero"/><path d="M10.99 18.561c1.704.404 2.921.453 4.968.383" style="fill:none;fill-rule:nonzero;stroke:red;stroke-opacity:.66;stroke-width:.26px"/><path d="M14.267 19.687a.46.46 0 0 1-.113.325.56.56 0 0 1-.305.158v.011q.243.029.361.152a.45.45 0 0 1 .119.325.6.6 0 0 1-.082.313.55.55 0 0 1-.254.212 1.1 1.1 0 0 1-.437.076q-.157 0-.294-.025a.9.9 0 0 1-.26-.085v-.231q.127.062.274.099.147.034.282.034.271 0 .389-.104a.37.37 0 0 0 .121-.294q0-.189-.15-.271a.84.84 0 0 0-.415-.085h-.195v-.212h.198q.249 0 .375-.104a.34.34 0 0 0 .13-.277.27.27 0 0 0-.099-.226.4.4 0 0 0-.268-.082.7.7 0 0 0-.279.048 1.5 1.5 0 0 0-.229.121l-.124-.169q.107-.084.265-.147.161-.062.364-.062.317 0 .468.141a.47.47 0 0 1 .155.358Z" style="fill:red;fill-rule:nonzero"/></svg>