<svg xmlns="http://www.w3.org/2000/svg" xml:space="preserve" style="fill-rule:evenodd;clip-rule:evenodd" viewBox="0 0 185 42"><path d="m13.167 5.149 3.994-.072q2.663 0 2.663 1.403 0 .504-.144.72-.144.18-.216.288t-.288.18a4 4 0 0 1-.72.18 4 4 0 0 1-.396.036q-.396.072-1.331.108a77 77 0 0 1-2.735.036q-1.763 0-4.354-.144v6.621h7.341q.396 0 .72.36.36.36.36.792 0 1.655-1.403 1.655H9.641l.144 9.428q0 1.835-1.259 1.835-1.223 0-1.439-1.655-.108-.54-.144-9.14 0-8.636-.072-9.931-1.332.144-1.331-1.511 0-.432.36-.936.36-.54.612-.576.288-.036.684-.036.432 0 2.051.144a41 41 0 0 0 3.922.216Z" style="fill-rule:nonzero"/><path d="m6.65 25.663-.722 1.625-.867-1.552c.415.379 1.209.343 1.588-.072Z" style="fill:red;fill-opacity:.66;fill-rule:nonzero"/><path d="M5.617 8.145c.259 5.482.047 12.435.253 17.871" style="fill:none;fill-rule:nonzero;stroke:red;stroke-opacity:.66;stroke-width:.27px"/><path d="m17.366 2.591 1.613.741-1.56.846c.384-.41.357-1.203-.052-1.587Z" style="fill:red;fill-opacity:.66;fill-rule:nonzero"/><path d="M6.949 2.951c2.95.357 6.482.537 10.761.423" style="fill:none;fill-rule:nonzero;stroke:red;stroke-opacity:.66;stroke-width:.26px"/><path d="M4.309 13.905h-.243v-1.408a5 5 0 0 1 .012-.347q-.045.045-.082.076l-.093.079-.214.175-.13-.167.545-.423h.206v2.015ZM12.121 2.473h-1.332v-.206l.528-.533q.153-.153.257-.271t.158-.231a.6.6 0 0 0 .054-.251q0-.167-.099-.251a.37.37 0 0 0-.257-.087.6.6 0 0 0-.26.051 1.2 1.2 0 0 0-.226.141l-.133-.167q.118-.098.271-.167a.8.8 0 0 1 .347-.071q.282 0 .446.144a.49.49 0 0 1 .164.392.7.7 0 0 1-.065.296 1.2 1.2 0 0 1-.181.274 5 5 0 0 1-.271.285l-.421.415v.011h1.019z" style="fill:red;fill-rule:nonzero"/><path d="m15.636 17.181 1.609.749-1.565.838c.386-.408.364-1.201-.044-1.587" style="fill:red;fill-opacity:.66;fill-rule:nonzero"/><path d="M10.863 17.952c1.349-.113 2.925.04 5.113.013" style="fill:none;fill-rule:nonzero;stroke:red;stroke-opacity:.66;stroke-width:.26px"/><path d="M14.177 19.383a.46.46 0 0 1-.113.325.56.56 0 0 1-.305.158v.011q.243.029.361.152a.45.45 0 0 1 .119.325.6.6 0 0 1-.082.313.55.55 0 0 1-.254.212 1.1 1.1 0 0 1-.437.076q-.158 0-.294-.025a.9.9 0 0 1-.26-.085v-.231q.127.062.274.099.147.034.282.034.271 0 .389-.104a.37.37 0 0 0 .121-.294q0-.189-.15-.271a.84.84 0 0 0-.415-.085h-.195v-.212h.198q.249 0 .375-.104a.34.34 0 0 0 .13-.277.27.27 0 0 0-.099-.226.4.4 0 0 0-.268-.082.7.7 0 0 0-.279.048 1.5 1.5 0 0 0-.229.121l-.124-.169q.107-.084.265-.147.161-.062.364-.062.317 0 .468.141a.47.47 0 0 1 .155.358Z" style="fill:red;fill-rule:nonzero"/><path d="M2.5 13.005h180" style="fill:none;fill-rule:nonzero;stroke:#000;stroke-opacity:.3;stroke-width:.25px;stroke-dasharray:.5,.5"/><path d="M2.5 4.006h180v23.997H2.5z" style="fill:none;fill-rule:nonzero;stroke:#000;stroke-opacity:.66;stroke-width:.25px;stroke-linecap:round;stroke-linejoin:round"/><path d="M48.678 5.072c-3.597.253-8.283-.067-10.929-.217.198 4.385.326 17.63.267 22.053" style="fill:none;fill-rule:nonzero;stroke:#000;stroke-opacity:.32;stroke-width:.5px;stroke-linecap:round;stroke-linejoin:round;stroke-dasharray:1,1"/><path d="M46.65 14.599c-3.04-.033-6.216.113-8.643-.177" style="fill:none;fill-rule:nonzero;stroke:#000;stroke-opacity:.32;stroke-width:.5px;stroke-linecap:round;stroke-linejoin:round;stroke-dasharray:1,1"/><path d="M79.678 5.072c-3.597.253-8.283-.067-10.929-.217.198 4.385.326 17.63.267 22.053" style="fill:none;fill-rule:nonzero;stroke:#000;stroke-opacity:.16;stroke-width:.5px;stroke-linecap:round;stroke-linejoin:round;stroke-dasharray:1,1"/><path d="M77.65 14.599c-3.04-.033-6.216.113-8.643-.177" style="fill:none;fill-rule:nonzero;stroke:#000;stroke-opacity:.16;stroke-width:.5px;stroke-linecap:round;stroke-linejoin:round;stroke-dasharray:1,1"/><path d="M110.678 5.072c-3.597.253-8.283-.067-10.929-.217.198 4.385.326 17.63.267 22.053" style="fill:none;fill-rule:nonzero;stroke:#000;stroke-opacity:.08;stroke-width:.5px;stroke-linecap:round;stroke-linejoin:round;stroke-dasharray:1,1"/><path d="M108.65 14.599c-3.04-.033-6.216.113-8.643-.177" style="fill:none;fill-rule:nonzero;stroke:#000;stroke-opacity:.08;stroke-width:.5px;stroke-linecap:round;stroke-linejoin:round;stroke-dasharray:1,1"/><path d="M141.679 5.072c-3.597.253-8.283-.067-10.929-.217.198 4.385.326 17.63.267 22.053" style="fill:none;fill-rule:nonzero;stroke:#000;stroke-opacity:.04;stroke-width:.5px;stroke-linecap:round;stroke-linejoin:round;stroke-dasharray:1,1"/><path d="M139.65 14.599c-3.04-.033-6.216.113-8.643-.177M172.679 5.072c-3.597.253-8.283-.067-10.929-.217.198 4.385.326 17.63.267 22.053" style="fill:none;fill-rule:nonzero;stroke:#000;stroke-opacity:.04;stroke-width:.5px;stroke-linecap:round;stroke-linejoin:round;stroke-dasharray:1,1"/><path d="M170.65 14.599c-3.04-.033-6.216.113-8.643-.177" style="fill:none;fill-rule:nonzero;stroke:#000;stroke-opacity:.04;stroke-width:.5px;stroke-linecap:round;stroke-linejoin:round;stroke-dasharray:1,1"/></svg>