<?xml version="1.0" encoding="UTF-8" standalone="no"?><!DOCTYPE svg PUBLIC "-//W3C//DTD SVG 1.1//EN" "http://www.w3.org/Graphics/SVG/1.1/DTD/svg11.dtd"><svg width="100%" height="100%" viewBox="0 0 185 42" version="1.1" xmlns="http://www.w3.org/2000/svg" xmlns:xlink="http://www.w3.org/1999/xlink" xml:space="preserve" xmlns:serif="http://www.serif.com/" style="fill-rule:evenodd;clip-rule:evenodd;"><g><g><path id="text833" d="M15.802,3.888c1.151,0 2.291,0.288 3.418,0.864c1.151,0.576 1.727,1.223 1.727,1.943c0,1.103 -0.456,1.655 -1.367,1.655c-0.336,0 -0.924,-0.216 -1.763,-0.648c-0.84,-0.432 -1.547,-0.648 -2.123,-0.648c-2.063,0 -3.79,0.924 -5.182,2.771c-1.367,1.847 -2.051,4.198 -2.051,7.053c0,2.135 0.468,4.006 1.403,5.613c0.936,1.607 2.039,2.411 3.31,2.411c1.295,0 2.303,-0.42 3.023,-1.259c0.744,-0.864 1.115,-1.835 1.115,-2.915c0,-0.6 -0.048,-1.091 -0.144,-1.475c-0.072,-0.408 -0.276,-0.768 -0.612,-1.079c-0.336,-0.336 -0.78,-0.504 -1.331,-0.504c-0.552,0 -1.079,-0.12 -1.583,-0.36c-0.48,-0.24 -0.72,-0.564 -0.72,-0.972c0,-0.408 0.12,-0.792 0.36,-1.151c0.24,-0.36 0.564,-0.576 0.972,-0.648c1.631,0 2.723,0.168 3.274,0.504c0.576,0.336 1.008,0.612 1.295,0.828c0.288,0.216 0.528,0.576 0.72,1.079c0.192,0.504 0.336,0.924 0.432,1.259c0.12,0.336 0.204,0.876 0.252,1.619c0.048,1.247 0.072,2.711 0.072,4.39c0,1.655 -0.12,2.675 -0.36,3.059c-0.216,0.312 -0.576,0.48 -1.079,0.504c-0.504,0 -0.852,-0.108 -1.044,-0.324c-0.192,-0.216 -0.312,-0.696 -0.36,-1.439c-0.576,0.504 -1.307,0.936 -2.195,1.295c-0.864,0.336 -1.631,0.504 -2.303,0.504c-2.111,0 -3.886,-1.115 -5.326,-3.346c-1.439,-2.255 -2.159,-4.966 -2.159,-8.132c0,-1.679 0.276,-3.322 0.828,-4.93c0.552,-1.631 1.295,-2.999 2.231,-4.102c1.967,-2.279 4.39,-3.418 7.269,-3.418l-0,0Z" style="fill-rule:nonzero;"/><path id="path1883" d="M14.902,27.685l1.777,0.027l-1.088,1.406c0.186,-0.531 -0.159,-1.247 -0.689,-1.433Z" style="fill:#f00;fill-opacity:0.66;fill-rule:nonzero;"/><path d="M20.23,4.201c-4.883,-3.237 -14.944,-0.586 -15.627,11.024c-0.451,7.659 3.919,15.877 10.93,13.039" style="fill:none;fill-rule:nonzero;stroke:#f00;stroke-opacity:0.66;stroke-width:0.27px;"/><path id="path2831" d="M21.963,25.356l-0.89,1.535l-0.694,-1.634c0.372,0.421 1.164,0.47 1.584,0.098Z" style="fill:#f00;fill-opacity:0.66;fill-rule:nonzero;"/><path d="M14.383,13.689c5.585,0.22 7.334,1.691 6.769,11.935" style="fill:none;fill-rule:nonzero;stroke:#f00;stroke-opacity:0.66;stroke-width:0.26px;"/><path id="text1155" d="M6.421,6.179l-0.243,0l0,-1.408c0,-0.081 0.001,-0.146 0.003,-0.195c0.002,-0.049 0.005,-0.1 0.009,-0.152c-0.03,0.03 -0.057,0.056 -0.082,0.076c-0.024,0.021 -0.056,0.047 -0.093,0.079l-0.214,0.175l-0.13,-0.167l0.545,-0.423l0.206,0l-0,2.015Z" style="fill:#f00;fill-rule:nonzero;"/><path id="text1159" d="M22.861,16.911l-1.332,0l0,-0.206l0.528,-0.533c0.102,-0.102 0.187,-0.192 0.257,-0.271c0.07,-0.079 0.122,-0.156 0.158,-0.231c0.036,-0.077 0.054,-0.161 0.054,-0.251c0,-0.111 -0.033,-0.195 -0.099,-0.251c-0.066,-0.058 -0.151,-0.087 -0.257,-0.087c-0.098,0 -0.184,0.017 -0.26,0.051c-0.073,0.034 -0.149,0.081 -0.226,0.141l-0.133,-0.167c0.079,-0.066 0.169,-0.121 0.271,-0.167c0.103,-0.047 0.219,-0.071 0.347,-0.071c0.188,0 0.337,0.048 0.446,0.144c0.109,0.094 0.164,0.225 0.164,0.392c0,0.105 -0.022,0.204 -0.065,0.296c-0.043,0.092 -0.103,0.183 -0.181,0.274c-0.077,0.088 -0.167,0.183 -0.271,0.285l-0.421,0.415l0,0.011l1.019,0l0,0.226Z" style="fill:#f00;fill-rule:nonzero;"/></g><rect id="path4601-3" x="2.5" y="3.958" width="180" height="23.997" style="fill:none;fill-rule:nonzero;stroke:#000;stroke-opacity:0.66;stroke-width:0.25px;stroke-linecap:round;stroke-linejoin:round;"/><path id="path1809-5-92-9-6" d="M50.49,7.068c-5.517,-4.184 -12.741,1.481 -12.748,9.083c-0.011,11.601 9.259,13.728 11.828,5.152" style="fill:none;fill-rule:nonzero;stroke:#000;stroke-opacity:0.32;stroke-width:0.5px;stroke-linecap:round;stroke-linejoin:round;stroke-dasharray:1,1;"/><path id="path1809-5-92-6-4-1" d="M49.69,26.817c0.434,-11.236 -1.783,-10.267 -4.767,-10.598" style="fill:none;fill-rule:nonzero;stroke:#000;stroke-opacity:0.32;stroke-width:0.5px;stroke-linecap:round;stroke-linejoin:round;stroke-dasharray:1,1;"/><path id="path1809-5-92-9-8-4" d="M81.49,7.067c-5.517,-4.184 -12.741,1.481 -12.748,9.083c-0.011,11.601 9.259,13.728 11.828,5.152" style="fill:none;fill-rule:nonzero;stroke:#000;stroke-opacity:0.16;stroke-width:0.5px;stroke-linecap:round;stroke-linejoin:round;stroke-dasharray:1,1;"/><path id="path1809-5-92-6-4-4-7" d="M80.69,26.817c0.434,-11.236 -1.783,-10.267 -4.767,-10.598" style="fill:none;fill-rule:nonzero;stroke:#000;stroke-opacity:0.16;stroke-width:0.5px;stroke-linecap:round;stroke-linejoin:round;stroke-dasharray:1,1;"/><path id="path1809-5-92-9-8-0-6" d="M112.49,7.067c-5.517,-4.184 -12.741,1.481 -12.748,9.083c-0.011,11.601 9.259,13.728 11.828,5.152" style="fill:none;fill-rule:nonzero;stroke:#000;stroke-opacity:0.08;stroke-width:0.5px;stroke-linecap:round;stroke-linejoin:round;stroke-dasharray:1,1;"/><path id="path1809-5-92-6-4-4-3-9" d="M111.69,26.817c0.434,-11.236 -1.783,-10.267 -4.767,-10.598" style="fill:none;fill-rule:nonzero;stroke:#000;stroke-opacity:0.08;stroke-width:0.5px;stroke-linecap:round;stroke-linejoin:round;stroke-dasharray:1,1;"/><path id="path1809-5-92-9-8-0-1-7" d="M143.491,7.067c-5.517,-4.184 -12.741,1.481 -12.748,9.083c-0.011,11.601 9.259,13.728 11.828,5.152" style="fill:none;fill-rule:nonzero;stroke:#000;stroke-opacity:0.04;stroke-width:0.5px;stroke-linecap:round;stroke-linejoin:round;stroke-dasharray:1,1;"/><path id="path1809-5-92-6-4-4-3-0-4" d="M142.69,26.817c0.434,-11.236 -1.783,-10.267 -4.767,-10.598" style="fill:none;fill-rule:nonzero;stroke:#000;stroke-opacity:0.04;stroke-width:0.5px;stroke-linecap:round;stroke-linejoin:round;stroke-dasharray:1,1;"/><path id="path1809-5-92-9-8-0-1-3-2" d="M173.491,7.067c-5.517,-4.184 -12.741,1.481 -12.748,9.083c-0.011,11.601 9.259,13.728 11.828,5.152" style="fill:none;fill-rule:nonzero;stroke:#000;stroke-opacity:0.04;stroke-width:0.5px;stroke-linecap:round;stroke-linejoin:round;stroke-dasharray:1,1;"/><path id="path1809-5-92-6-4-4-3-0-2-5" d="M172.69,26.817c0.434,-11.236 -1.783,-10.267 -4.767,-10.598" style="fill:none;fill-rule:nonzero;stroke:#000;stroke-opacity:0.04;stroke-width:0.5px;stroke-linecap:round;stroke-linejoin:round;stroke-dasharray:1,1;"/><path id="path1018-7-4" d="M2.5,12.956l180,0" style="fill:none;fill-rule:nonzero;stroke:#000;stroke-opacity:0.3;stroke-width:0.25px;stroke-dasharray:0.5,0.5;"/></g></svg>