<svg xmlns="http://www.w3.org/2000/svg" xml:space="preserve" style="fill-rule:evenodd;clip-rule:evenodd" viewBox="0 0 185 42"><path d="M2.5 12.956h180" style="fill:none;fill-rule:nonzero;stroke:#000;stroke-opacity:.3;stroke-width:.25px;stroke-dasharray:.5,.5"/><path d="M2.5 3.958h180v23.997H2.5z" style="fill:none;fill-rule:nonzero;stroke:#000;stroke-opacity:.66;stroke-width:.25px;stroke-linecap:round;stroke-linejoin:round"/><path d="M45.48 4.907c.383 5.137 1.359 13.498.651 17.758-1.259 7.576-8.518 4.309-8.379-1.569" style="fill:none;fill-rule:nonzero;stroke:#000;stroke-opacity:.32;stroke-width:.5px;stroke-linecap:round;stroke-linejoin:round;stroke-dasharray:1,1"/><path d="M76.48 4.907c.383 5.137 1.359 13.498.651 17.758-1.259 7.576-8.518 4.309-8.379-1.569" style="fill:none;fill-rule:nonzero;stroke:#000;stroke-opacity:.16;stroke-width:.5px;stroke-linecap:round;stroke-linejoin:round;stroke-dasharray:1,1"/><path d="M107.48 4.907c.383 5.137 1.359 13.498.651 17.758-1.259 7.576-8.518 4.309-8.379-1.569" style="fill:none;fill-rule:nonzero;stroke:#000;stroke-opacity:.08;stroke-width:.5px;stroke-linecap:round;stroke-linejoin:round;stroke-dasharray:1,1"/><path d="M138.48 4.907c.383 5.137 1.359 13.498.651 17.758-1.259 7.576-8.518 4.309-8.379-1.569M169.48 4.907c.383 5.137 1.359 13.498.651 17.758-1.259 7.576-8.518 4.309-8.379-1.569" style="fill:none;fill-rule:nonzero;stroke:#000;stroke-opacity:.04;stroke-width:.5px;stroke-linecap:round;stroke-linejoin:round;stroke-dasharray:1,1"/><path d="M14 5.771q0-.396.576-.792t1.115-.396q.576 0 .864.252.324.252.36.612.756 9.716.756 12.306 0 2.555-.072 3.85a21 21 0 0 1-.36 2.807q-.288 1.476-.828 2.339-1.188 2.015-3.814 2.015t-4.282-1.727Q6.66 25.274 6.66 21.999q0-.54.54-.972.576-.468 1.223-.468.792 0 .972 1.475.467 4.174 3.131 4.174.684 0 1.151-.432.504-.468.756-1.079.252-.648.396-1.691.216-1.512.216-3.598 0-2.123-.54-7.7-.504-5.577-.504-5.937Z" style="fill-rule:nonzero"/><path d="m5.205 23.912.561-1.687 1.013 1.461c-.45-.337-1.237-.224-1.574.226" style="fill:red;fill-opacity:.66;fill-rule:nonzero"/><path d="M17.979 4.772c1.233 18.86 1.019 23.224-4.541 24.253-2.873.532-6.543-.895-7.491-5.541" style="fill:none;fill-rule:nonzero;stroke:red;stroke-opacity:.66;stroke-width:.27px"/><path d="M20.061 9.373h-.243V7.965q0-.122.003-.195l.008-.152q-.045.046-.082.076l-.093.079-.214.175-.13-.167.545-.423h.206z" style="fill:red;fill-rule:nonzero"/></svg>