<svg xmlns="http://www.w3.org/2000/svg" xml:space="preserve" style="fill-rule:evenodd;clip-rule:evenodd" viewBox="0 0 185 42"><path d="M2.5 12.956h180" style="fill:none;fill-rule:nonzero;stroke:#000;stroke-opacity:.3;stroke-width:.25px;stroke-dasharray:.5,.5"/><path d="M2.5 3.958h180v23.997H2.5z" style="fill:none;fill-rule:nonzero;stroke:#000;stroke-opacity:.66;stroke-width:.25px;stroke-linecap:round;stroke-linejoin:round"/><path d="M37.75 27.195c.296-4.912.137-15.633.206-22.389 1.15 7.676 5.307 9.937 6.928 10.553 1.765-.497 7.06-5.84 8.011-10.564-.087 9.703.163 19.567-.017 22.259" style="fill:none;fill-rule:nonzero;stroke:#000;stroke-opacity:.32;stroke-width:.5px;stroke-linecap:round;stroke-linejoin:round;stroke-dasharray:1,1"/><path d="M68.75 27.195c.296-4.912.137-15.633.206-22.389 1.15 7.676 5.307 9.937 6.928 10.553 1.765-.497 7.06-5.84 8.011-10.564-.087 9.703.163 19.567-.017 22.259" style="fill:none;fill-rule:nonzero;stroke:#000;stroke-opacity:.16;stroke-width:.5px;stroke-linecap:round;stroke-linejoin:round;stroke-dasharray:1,1"/><path d="M99.75 27.195c.296-4.912.137-15.633.206-22.389 1.15 7.676 5.307 9.937 6.928 10.553 1.765-.497 7.06-5.84 8.011-10.564-.087 9.703.163 19.567-.017 22.259" style="fill:none;fill-rule:nonzero;stroke:#000;stroke-opacity:.08;stroke-width:.5px;stroke-linecap:round;stroke-linejoin:round;stroke-dasharray:1,1"/><path d="M130.75 27.195c.296-4.912.137-15.633.206-22.389 1.15 7.676 5.307 9.937 6.928 10.553 1.765-.497 7.06-5.84 8.011-10.564-.087 9.703.163 19.567-.017 22.259M161.75 27.195c.296-4.912.137-15.633.206-22.389 1.15 7.676 5.307 9.937 6.928 10.553 1.765-.497 7.06-5.84 8.011-10.564-.087 9.703.163 19.567-.017 22.259" style="fill:none;fill-rule:nonzero;stroke:#000;stroke-opacity:.04;stroke-width:.5px;stroke-linecap:round;stroke-linejoin:round;stroke-dasharray:1,1"/><path d="M23.76 4.707q.864 0 1.115 1.259.18 5.865.18 12.81 0 6.91-.072 7.988-.072 1.08-.468 1.511-.396.432-1.439.432-.936 0-.936-1.151v-8.132q0-1.979-.072-4.066a107 107 0 0 1-.072-2.627 10.6 10.6 0 0 1-3.238 3.454q-2.015 1.331-4.498 1.331t-4.174-2.051a162 162 0 0 0-.072 5.218q0 2.986.036 6.297 0 .9-.612 1.331a2.3 2.3 0 0 1-1.331.396q-.972 0-.972-1.187.036-3.238.036-10.255V7.046q0-.612.396-1.187.432-.576.972-.576.576 0 1.044.324.468.288.504.9.144 3.994 1.295 5.937t2.735 1.943 2.699-.504q1.151-.54 1.871-1.223.756-.684 1.439-1.943.971-1.799 1.871-4.426.54-1.584 1.763-1.583Z" style="fill-rule:nonzero"/><path d="m6.653 25.397-.788 1.594-.802-1.586c.399.396 1.194.392 1.59-.007Z" style="fill:red;fill-opacity:.66;fill-rule:nonzero"/><path d="M5.779 5.696c.173 5.554.066 14.46.08 20.023" style="fill:none;fill-rule:nonzero;stroke:red;stroke-opacity:.66;stroke-width:.27px"/><path d="m13.098 11.258.854 1.556-1.757-.25c.552-.101 1.004-.754.903-1.306" style="fill:red;fill-opacity:.66;fill-rule:nonzero"/><path d="M10.955 4.728c.206 2.357.234 5.66 1.953 7.363" style="fill:none;fill-rule:nonzero;stroke:red;stroke-opacity:.66;stroke-width:.26px"/><path d="M4.462 12.55h-.243v-1.408a5 5 0 0 1 .012-.347q-.045.045-.082.076l-.093.079-.214.175-.13-.167.545-.423h.206v2.015ZM13.297 7.029h-1.332v-.206l.528-.533q.152-.153.257-.271.104-.118.158-.231a.6.6 0 0 0 .054-.251q0-.167-.099-.251a.37.37 0 0 0-.257-.087.6.6 0 0 0-.26.051 1.2 1.2 0 0 0-.226.141l-.133-.167q.118-.098.271-.167a.8.8 0 0 1 .347-.071q.282 0 .446.144a.49.49 0 0 1 .164.392.7.7 0 0 1-.065.296 1.2 1.2 0 0 1-.181.274 5 5 0 0 1-.271.285l-.421.415v.011h1.019v.226Z" style="fill:red;fill-rule:nonzero"/><path d="m20.034 5.72 1.342-1.161.124 1.771c-.214-.519-.947-.823-1.466-.609Z" style="fill:red;fill-opacity:.66;fill-rule:nonzero"/><path d="M15.866 12.47c2.552-.994 3.596-3.307 5.023-6.739" style="fill:none;fill-rule:nonzero;stroke:red;stroke-opacity:.66;stroke-width:.26px"/><path d="M19.334 5.239a.46.46 0 0 1-.113.325.56.56 0 0 1-.305.158v.011q.243.029.361.152a.45.45 0 0 1 .119.325.6.6 0 0 1-.082.313.55.55 0 0 1-.254.212 1.1 1.1 0 0 1-.437.076q-.157 0-.294-.025a.9.9 0 0 1-.26-.085V6.47q.127.062.274.099.147.034.282.034.271 0 .389-.104a.37.37 0 0 0 .121-.294q0-.189-.15-.271a.84.84 0 0 0-.415-.085h-.195v-.212h.198q.249 0 .375-.104a.34.34 0 0 0 .13-.277.27.27 0 0 0-.099-.226.4.4 0 0 0-.268-.082.7.7 0 0 0-.279.048 1.5 1.5 0 0 0-.229.121l-.124-.169q.107-.084.265-.147.161-.062.364-.062.316 0 .468.141a.47.47 0 0 1 .155.358Z" style="fill:red;fill-rule:nonzero"/><path d="m27.082 25.354-.784 1.596-.806-1.584c.4.395 1.195.389 1.59-.011Z" style="fill:red;fill-opacity:.66;fill-rule:nonzero"/><path d="M26.007 4.624c.173 5.559.242 15.362.283 21.053" style="fill:none;fill-rule:nonzero;stroke:red;stroke-opacity:.66;stroke-width:.27px"/><path d="M28.402 10.598h-.294v.457h-.24v-.457h-.965v-.212l.948-1.357h.257v1.346h.294zm-.533-.858q0-.147.006-.248.006-.104.008-.198h-.011a2 2 0 0 1-.056.116 1 1 0 0 1-.065.104l-.604.861h.722z" style="fill:red;fill-rule:nonzero"/></svg>