<?xml version="1.0" encoding="UTF-8" standalone="no"?><!DOCTYPE svg PUBLIC "-//W3C//DTD SVG 1.1//EN" "http://www.w3.org/Graphics/SVG/1.1/DTD/svg11.dtd"><svg width="100%" height="100%" viewBox="0 0 185 42" version="1.1" xmlns="http://www.w3.org/2000/svg" xmlns:xlink="http://www.w3.org/1999/xlink" xml:space="preserve" xmlns:serif="http://www.serif.com/" style="fill-rule:evenodd;clip-rule:evenodd;"><g><path id="path1018-7-4" d="M2.5,12.956l180,0" style="fill:none;fill-rule:nonzero;stroke:#000;stroke-opacity:0.3;stroke-width:0.25px;stroke-dasharray:0.5,0.5;"/><rect id="path4601-3" x="2.5" y="3.958" width="180" height="23.997" style="fill:none;fill-rule:nonzero;stroke:#000;stroke-opacity:0.66;stroke-width:0.25px;stroke-linecap:round;stroke-linejoin:round;"/><path id="path1809-5-92-1-9" d="M37.75,27.195c0.296,-4.912 0.137,-15.633 0.206,-22.389c1.15,7.676 5.307,9.937 6.928,10.553c1.765,-0.497 7.06,-5.84 8.011,-10.564c-0.087,9.703 0.163,19.567 -0.017,22.259" style="fill:none;fill-rule:nonzero;stroke:#000;stroke-opacity:0.32;stroke-width:0.5px;stroke-linecap:round;stroke-linejoin:round;stroke-dasharray:1,1;"/><path id="path1809-5-92-1-6-64" d="M68.75,27.195c0.296,-4.912 0.137,-15.633 0.206,-22.389c1.15,7.676 5.307,9.937 6.928,10.553c1.765,-0.497 7.06,-5.84 8.011,-10.564c-0.087,9.703 0.163,19.567 -0.017,22.259" style="fill:none;fill-rule:nonzero;stroke:#000;stroke-opacity:0.16;stroke-width:0.5px;stroke-linecap:round;stroke-linejoin:round;stroke-dasharray:1,1;"/><path id="path1809-5-92-1-6-6-8" d="M99.75,27.195c0.296,-4.912 0.137,-15.633 0.206,-22.389c1.15,7.676 5.307,9.937 6.928,10.553c1.765,-0.497 7.06,-5.84 8.011,-10.564c-0.087,9.703 0.163,19.567 -0.017,22.259" style="fill:none;fill-rule:nonzero;stroke:#000;stroke-opacity:0.08;stroke-width:0.5px;stroke-linecap:round;stroke-linejoin:round;stroke-dasharray:1,1;"/><path id="path1809-5-92-1-6-6-2-0" d="M130.75,27.195c0.296,-4.912 0.137,-15.633 0.206,-22.389c1.15,7.676 5.307,9.937 6.928,10.553c1.765,-0.497 7.06,-5.84 8.011,-10.564c-0.087,9.703 0.163,19.567 -0.017,22.259" style="fill:none;fill-rule:nonzero;stroke:#000;stroke-opacity:0.04;stroke-width:0.5px;stroke-linecap:round;stroke-linejoin:round;stroke-dasharray:1,1;"/><path id="path1809-5-92-1-6-6-2-1-8" d="M161.75,27.195c0.296,-4.912 0.137,-15.633 0.206,-22.389c1.15,7.676 5.307,9.937 6.928,10.553c1.765,-0.497 7.06,-5.84 8.011,-10.564c-0.087,9.703 0.163,19.567 -0.017,22.259" style="fill:none;fill-rule:nonzero;stroke:#000;stroke-opacity:0.04;stroke-width:0.5px;stroke-linecap:round;stroke-linejoin:round;stroke-dasharray:1,1;"/><g><path id="text833" d="M23.76,4.707c0.576,0 0.948,0.42 1.115,1.259c0.12,3.91 0.18,8.18 0.18,12.81c0,4.606 -0.024,7.269 -0.072,7.988c-0.048,0.72 -0.204,1.223 -0.468,1.511c-0.264,0.288 -0.744,0.432 -1.439,0.432c-0.624,0 -0.936,-0.384 -0.936,-1.151l0,-8.132c0,-1.319 -0.024,-2.675 -0.072,-4.066c-0.048,-1.391 -0.072,-2.267 -0.072,-2.627c-0.816,1.391 -1.895,2.543 -3.238,3.454c-1.343,0.888 -2.843,1.331 -4.498,1.331c-1.655,0 -3.047,-0.684 -4.174,-2.051c-0.048,1.463 -0.072,3.203 -0.072,5.218c0,1.991 0.012,4.09 0.036,6.297c0,0.6 -0.204,1.044 -0.612,1.331c-0.384,0.264 -0.828,0.396 -1.331,0.396c-0.648,0 -0.972,-0.396 -0.972,-1.187c0.024,-2.159 0.036,-5.577 0.036,-10.255l0,-10.219c0,-0.408 0.132,-0.804 0.396,-1.187c0.288,-0.384 0.612,-0.576 0.972,-0.576c0.384,0 0.732,0.108 1.044,0.324c0.312,0.192 0.48,0.492 0.504,0.9c0.096,2.663 0.528,4.642 1.295,5.937c0.768,1.295 1.679,1.943 2.735,1.943c1.056,0 1.955,-0.168 2.699,-0.504c0.768,-0.36 1.391,-0.768 1.871,-1.223c0.504,-0.456 0.984,-1.103 1.439,-1.943c0.648,-1.199 1.271,-2.675 1.871,-4.426c0.36,-1.056 0.948,-1.583 1.763,-1.583l0,0Z" style="fill-rule:nonzero;"/><path id="path1883" d="M6.653,25.397l-0.788,1.594l-0.802,-1.586c0.399,0.396 1.194,0.392 1.59,-0.007Z" style="fill:#f00;fill-opacity:0.66;fill-rule:nonzero;"/><path d="M5.779,5.696c0.173,5.554 0.066,14.46 0.08,20.023" style="fill:none;fill-rule:nonzero;stroke:#f00;stroke-opacity:0.66;stroke-width:0.27px;"/><path id="path2831" d="M13.098,11.258l0.854,1.556l-1.757,-0.25c0.552,-0.101 1.004,-0.754 0.903,-1.306Z" style="fill:#f00;fill-opacity:0.66;fill-rule:nonzero;"/><path d="M10.955,4.728c0.206,2.357 0.234,5.66 1.953,7.363" style="fill:none;fill-rule:nonzero;stroke:#f00;stroke-opacity:0.66;stroke-width:0.26px;"/><path id="text1155" d="M4.462,12.55l-0.243,0l0,-1.408c0,-0.081 0.001,-0.146 0.003,-0.195c0.002,-0.049 0.005,-0.1 0.009,-0.152c-0.03,0.03 -0.057,0.056 -0.082,0.076c-0.024,0.021 -0.056,0.047 -0.093,0.079l-0.214,0.175l-0.13,-0.167l0.545,-0.423l0.206,0l-0,2.015Z" style="fill:#f00;fill-rule:nonzero;"/><path id="text1159" d="M13.297,7.029l-1.332,0l0,-0.206l0.528,-0.533c0.102,-0.102 0.187,-0.192 0.257,-0.271c0.07,-0.079 0.122,-0.156 0.158,-0.231c0.036,-0.077 0.054,-0.161 0.054,-0.251c0,-0.111 -0.033,-0.195 -0.099,-0.251c-0.066,-0.058 -0.151,-0.087 -0.257,-0.087c-0.098,0 -0.184,0.017 -0.26,0.051c-0.073,0.034 -0.149,0.081 -0.226,0.141l-0.133,-0.167c0.079,-0.066 0.169,-0.121 0.271,-0.167c0.103,-0.047 0.219,-0.071 0.347,-0.071c0.188,0 0.337,0.048 0.446,0.144c0.109,0.094 0.164,0.225 0.164,0.392c0,0.105 -0.022,0.204 -0.065,0.296c-0.043,0.092 -0.103,0.183 -0.181,0.274c-0.077,0.088 -0.167,0.183 -0.271,0.285l-0.421,0.415l0,0.011l1.019,0l0,0.226Z" style="fill:#f00;fill-rule:nonzero;"/><path id="path2831-3" d="M20.034,5.72l1.342,-1.161l0.124,1.771c-0.214,-0.519 -0.947,-0.823 -1.466,-0.609Z" style="fill:#f00;fill-opacity:0.66;fill-rule:nonzero;"/><path d="M15.866,12.47c2.552,-0.994 3.596,-3.307 5.023,-6.739" style="fill:none;fill-rule:nonzero;stroke:#f00;stroke-opacity:0.66;stroke-width:0.26px;"/><path id="text1159-2" d="M19.334,5.239c0,0.135 -0.038,0.244 -0.113,0.325c-0.075,0.079 -0.177,0.132 -0.305,0.158l0,0.011c0.162,0.019 0.282,0.07 0.361,0.152c0.079,0.083 0.119,0.191 0.119,0.325c0,0.117 -0.027,0.221 -0.082,0.313c-0.055,0.09 -0.139,0.161 -0.254,0.212c-0.113,0.051 -0.259,0.076 -0.437,0.076c-0.105,0 -0.203,-0.008 -0.294,-0.025c-0.09,-0.015 -0.177,-0.043 -0.26,-0.085l0,-0.231c0.085,0.041 0.176,0.074 0.274,0.099c0.098,0.023 0.192,0.034 0.282,0.034c0.181,0 0.31,-0.035 0.389,-0.104c0.081,-0.071 0.121,-0.169 0.121,-0.294c0,-0.126 -0.05,-0.216 -0.15,-0.271c-0.098,-0.056 -0.236,-0.085 -0.415,-0.085l-0.195,0l0,-0.212l0.198,0c0.166,0 0.291,-0.035 0.375,-0.104c0.087,-0.07 0.13,-0.162 0.13,-0.277c0,-0.098 -0.033,-0.173 -0.099,-0.226c-0.066,-0.055 -0.155,-0.082 -0.268,-0.082c-0.109,0 -0.202,0.016 -0.279,0.048c-0.077,0.032 -0.153,0.072 -0.229,0.121l-0.124,-0.169c0.071,-0.056 0.16,-0.105 0.265,-0.147c0.107,-0.041 0.229,-0.062 0.364,-0.062c0.211,0 0.367,0.047 0.468,0.141c0.103,0.094 0.155,0.214 0.155,0.358l-0,0Z" style="fill:#f00;fill-rule:nonzero;"/><path id="path1883-2" d="M27.082,25.354l-0.784,1.596l-0.806,-1.584c0.4,0.395 1.195,0.389 1.59,-0.011Z" style="fill:#f00;fill-opacity:0.66;fill-rule:nonzero;"/><path d="M26.007,4.624c0.173,5.559 0.242,15.362 0.283,21.053" style="fill:none;fill-rule:nonzero;stroke:#f00;stroke-opacity:0.66;stroke-width:0.27px;"/><path id="text1155-0" d="M28.402,10.598l-0.294,0l0,0.457l-0.24,0l0,-0.457l-0.965,0l0,-0.212l0.948,-1.357l0.257,0l0,1.346l0.294,0l0,0.223Zm-0.533,-0.858c0,-0.098 0.002,-0.181 0.006,-0.248c0.004,-0.07 0.007,-0.135 0.008,-0.198l-0.011,0c-0.015,0.036 -0.034,0.074 -0.056,0.116c-0.023,0.041 -0.044,0.076 -0.065,0.104l-0.604,0.861l0.722,0l0,-0.635Z" style="fill:#f00;fill-rule:nonzero;"/></g></g></svg>