<svg xmlns="http://www.w3.org/2000/svg" xml:space="preserve" style="fill-rule:evenodd;clip-rule:evenodd" viewBox="0 0 185 42"><path d="M6.303 27.267q-.54-.396-.54-.864 0-.504.396-.828-.684-5.145-.684-11.803 0-2.015.18-7.844.18-.54.72-.936.576-.396 1.079-.396.504 0 .612.036 5.145 1.44 8.96 5.577 3.814 4.102 3.994 9.859 0 6.333-5.254 7.952a10.8 10.8 0 0 1-3.203.468q-1.655 0-2.915-.252.144.288.144.756 0 .504-.612.936-.576.468-1.403.468-.792 0-1.008-.972l-.468-2.159Zm2.159-13.782q0 6.297.72 11.946.864.252 2.915.252t3.922-.684q1.907-.683 2.015-2.015.108-1.008.108-1.547 0-4.678-2.519-8.276-2.483-3.599-6.981-5.469-.18 4.247-.18 5.793" style="fill-rule:nonzero"/><path d="m5.888 25.98-.556 1.689-1.017-1.458c.451.336 1.238.22 1.573-.231" style="fill:red;fill-opacity:.66;fill-rule:nonzero"/><path d="M4.882 4.375c-.625 4.605-.458 16.302.265 22.035" style="fill:none;fill-rule:nonzero;stroke:red;stroke-opacity:.66;stroke-width:.27px"/><path d="m12.285 29.663-1.536-.89 1.633-.695c-.421.372-.469 1.164-.098 1.584Z" style="fill:red;fill-opacity:.66;fill-rule:nonzero"/><path d="M7.041 2.801c8.284 1.699 14.66 8.059 14.937 16.15.212 6.181-2.902 10.108-9.961 9.9" style="fill:none;fill-rule:nonzero;stroke:red;stroke-opacity:.66;stroke-width:.26px"/><path d="M3.778 8.195h-.243V6.787q0-.122.003-.195l.008-.152q-.045.045-.082.076l-.093.079-.214.175-.13-.167.545-.423h.206zM21.214 10.163h-1.332v-.206l.528-.533q.152-.153.257-.271.104-.118.158-.231a.6.6 0 0 0 .054-.251q0-.167-.099-.251a.37.37 0 0 0-.257-.087.6.6 0 0 0-.26.051 1.2 1.2 0 0 0-.226.141l-.133-.167q.118-.099.271-.167a.8.8 0 0 1 .347-.071q.282 0 .446.144a.49.49 0 0 1 .164.392.7.7 0 0 1-.065.296 1.2 1.2 0 0 1-.181.274 5 5 0 0 1-.271.285l-.421.415v.011h1.019v.226Z" style="fill:red;fill-rule:nonzero"/><path d="M2.5 13.005h180" style="fill:none;fill-rule:nonzero;stroke:#000;stroke-opacity:.3;stroke-width:.25px;stroke-dasharray:.5,.5"/><path d="M2.5 4.006h180v23.997H2.5z" style="fill:none;fill-rule:nonzero;stroke:#000;stroke-opacity:.66;stroke-width:.25px;stroke-linecap:round;stroke-linejoin:round"/><path d="M38.604 27.129c-.779-6.715-1.104-17.769-.641-22.075 9.122 1.368 12.135 8.849 12.422 13.989.164 8.421-4.947 7.718-11.781 8.086" style="fill:none;fill-rule:nonzero;stroke:#030000;stroke-opacity:.32;stroke-width:.5px;stroke-linecap:round;stroke-linejoin:round;stroke-dasharray:1,1"/><path d="M69.604 27.129c-.779-6.715-1.104-17.769-.641-22.075 9.122 1.368 12.135 8.849 12.422 13.989.164 8.421-4.947 7.718-11.781 8.086" style="fill:none;fill-rule:nonzero;stroke:#030000;stroke-opacity:.17;stroke-width:.5px;stroke-linecap:round;stroke-linejoin:round;stroke-dasharray:1,1"/><path d="M100.604 27.129c-.779-6.715-1.104-17.769-.641-22.075 9.122 1.368 12.135 8.849 12.422 13.989.164 8.421-4.947 7.718-11.781 8.086" style="fill:none;fill-rule:nonzero;stroke:#030000;stroke-opacity:.08;stroke-width:.5px;stroke-linecap:round;stroke-linejoin:round;stroke-dasharray:1,1"/><path d="M131.604 27.129c-.779-6.715-1.104-17.769-.641-22.075 9.122 1.368 12.135 8.849 12.422 13.989.164 8.421-4.947 7.718-11.781 8.086M162.604 27.129c-.779-6.715-1.104-17.769-.641-22.075 9.122 1.368 12.135 8.849 12.422 13.989.164 8.421-4.947 7.718-11.781 8.086" style="fill:none;fill-rule:nonzero;stroke:#030000;stroke-opacity:.04;stroke-width:.5px;stroke-linecap:round;stroke-linejoin:round;stroke-dasharray:1,1"/></svg>