<?xml version="1.0" encoding="UTF-8" standalone="no"?><!DOCTYPE svg PUBLIC "-//W3C//DTD SVG 1.1//EN" "http://www.w3.org/Graphics/SVG/1.1/DTD/svg11.dtd"><svg width="100%" height="100%" viewBox="0 0 185 42" version="1.1" xmlns="http://www.w3.org/2000/svg" xmlns:xlink="http://www.w3.org/1999/xlink" xml:space="preserve" xmlns:serif="http://www.serif.com/" style="fill-rule:evenodd;clip-rule:evenodd;"><g><path id="path1018-7-4" d="M2.5,12.956l180,0" style="fill:none;fill-rule:nonzero;stroke:#000;stroke-opacity:0.3;stroke-width:0.25px;stroke-dasharray:0.5,0.5;"/><rect id="path4601-3" x="2.5" y="3.958" width="180" height="23.997" style="fill:none;fill-rule:nonzero;stroke:#000;stroke-opacity:0.66;stroke-width:0.25px;stroke-linecap:round;stroke-linejoin:round;"/><path id="path1809-5-92-8" d="M51.839,26.852c-2.136,-4.076 -5.427,-9.214 -8.27,-12.827m-5.819,-9.17c0.765,7.102 1.135,17.516 0.809,22.387" style="fill:none;fill-rule:nonzero;stroke:#000;stroke-opacity:0.32;stroke-width:0.5px;stroke-linecap:round;stroke-linejoin:round;stroke-dasharray:1,1;"/><path id="path1809-5-92-6-2" d="M50.375,4.817c-2.713,5.348 -7.759,10.725 -11.78,13.332" style="fill:none;fill-rule:nonzero;stroke:#000;stroke-opacity:0.32;stroke-width:0.5px;stroke-linecap:round;stroke-linejoin:round;stroke-dasharray:1,1;"/><path id="path1809-5-92-5-0" d="M82.839,26.852c-2.136,-4.076 -5.427,-9.214 -8.27,-12.827m-5.819,-9.17c0.765,7.102 1.135,17.516 0.809,22.387" style="fill:none;fill-rule:nonzero;stroke:#000;stroke-opacity:0.16;stroke-width:0.5px;stroke-linecap:round;stroke-linejoin:round;stroke-dasharray:1,1;"/><path id="path1809-5-92-6-6-6" d="M81.375,4.817c-2.713,5.348 -7.759,10.725 -11.78,13.332" style="fill:none;fill-rule:nonzero;stroke:#000;stroke-opacity:0.16;stroke-width:0.5px;stroke-linecap:round;stroke-linejoin:round;stroke-dasharray:1,1;"/><path id="path1809-5-92-5-7-4" d="M113.839,26.852c-2.136,-4.076 -5.427,-9.214 -8.27,-12.827m-5.819,-9.17c0.765,7.102 1.135,17.516 0.809,22.387" style="fill:none;fill-rule:nonzero;stroke:#000;stroke-opacity:0.08;stroke-width:0.5px;stroke-linecap:round;stroke-linejoin:round;stroke-dasharray:1,1;"/><path id="path1809-5-92-6-6-4-6" d="M112.375,4.817c-2.713,5.348 -7.759,10.725 -11.78,13.332" style="fill:none;fill-rule:nonzero;stroke:#000;stroke-opacity:0.08;stroke-width:0.5px;stroke-linecap:round;stroke-linejoin:round;stroke-dasharray:1,1;"/><path id="path1809-5-92-5-7-6-8" d="M144.839,26.852c-2.136,-4.076 -5.427,-9.214 -8.27,-12.827m-5.819,-9.17c0.765,7.102 1.135,17.516 0.809,22.387" style="fill:none;fill-rule:nonzero;stroke:#000;stroke-opacity:0.04;stroke-width:0.5px;stroke-linecap:round;stroke-linejoin:round;stroke-dasharray:1,1;"/><path id="path1809-5-92-6-6-4-4-9" d="M143.375,4.817c-2.713,5.348 -7.759,10.725 -11.78,13.332" style="fill:none;fill-rule:nonzero;stroke:#000;stroke-opacity:0.04;stroke-width:0.5px;stroke-linecap:round;stroke-linejoin:round;stroke-dasharray:1,1;"/><path id="path1809-5-92-5-7-6-4-0" d="M175.839,26.852c-2.136,-4.076 -5.427,-9.214 -8.27,-12.827m-5.819,-9.17c0.765,7.102 1.135,17.516 0.809,22.387" style="fill:none;fill-rule:nonzero;stroke:#000;stroke-opacity:0.04;stroke-width:0.5px;stroke-linecap:round;stroke-linejoin:round;stroke-dasharray:1,1;"/><path id="path1809-5-92-6-6-4-4-8-7" d="M174.375,4.817c-2.713,5.348 -7.759,10.725 -11.78,13.332" style="fill:none;fill-rule:nonzero;stroke:#000;stroke-opacity:0.04;stroke-width:0.5px;stroke-linecap:round;stroke-linejoin:round;stroke-dasharray:1,1;"/><g><path id="text833" d="M6.155,24.511c0,-1.847 -0.12,-4.966 -0.36,-9.356c-0.216,-4.414 -0.408,-7.209 -0.576,-8.384c0,-0.528 0.18,-0.984 0.54,-1.367c0.36,-0.408 0.768,-0.612 1.223,-0.612c0.576,0 0.96,0.36 1.151,1.079c0.384,2.399 0.624,5.853 0.72,10.363c2.159,-1.991 3.826,-3.694 5.002,-5.11c1.199,-1.415 2.459,-3.227 3.778,-5.433c0.384,-0.648 0.948,-0.972 1.691,-0.972c0.384,0 0.696,0.108 0.936,0.324c0.264,0.192 0.396,0.432 0.396,0.72c0,0.768 -0.684,2.099 -2.051,3.994c-1.343,1.871 -2.771,3.694 -4.282,5.469c2.015,2.015 3.742,4.342 5.182,6.981c0.192,0.336 0.444,0.756 0.756,1.259c0.312,0.504 0.552,0.9 0.72,1.187c0.456,0.792 0.684,1.463 0.684,2.015c0,0.552 -0.144,1.008 -0.432,1.367c-0.264,0.336 -0.6,0.504 -1.008,0.504c-0.408,0 -0.936,-0.528 -1.583,-1.583c-0.648,-1.079 -1.583,-2.591 -2.807,-4.534c-1.199,-1.967 -2.471,-3.694 -3.814,-5.182c-1.343,1.295 -2.351,2.195 -3.023,2.699c0.072,1.535 0.108,2.819 0.108,3.85c0,1.008 -0.024,1.823 -0.072,2.447c-0.144,1.559 -0.78,2.339 -1.907,2.339c-0.696,0 -1.02,-0.42 -0.972,-1.259l0,-2.807Z" style="fill-rule:nonzero;"/><path id="path1883" d="M5.629,25.091l-0.833,1.571l-0.757,-1.609c0.388,0.407 1.183,0.426 1.59,0.038Z" style="fill:#f00;fill-opacity:0.66;fill-rule:nonzero;"/><path d="M4.327,6.756c0,0 0.594,12.173 0.5,18.633" style="fill:none;fill-rule:nonzero;stroke:#f00;stroke-opacity:0.66;stroke-width:0.27px;"/><path id="path2831" d="M11.26,13.112l-1.683,0.562l0.56,-1.684c0,0.561 0.562,1.122 1.123,1.122Z" style="fill:#f00;fill-opacity:0.66;fill-rule:nonzero;"/><path d="M17.13,4.105c-1.89,3.116 -4.108,6.045 -6.656,8.671" style="fill:none;fill-rule:nonzero;stroke:#f00;stroke-opacity:0.66;stroke-width:0.26px;"/><path id="text1155" d="M3.695,9.883l-0.243,0l0,-1.408c0,-0.081 0.001,-0.146 0.003,-0.195c0.002,-0.049 0.005,-0.1 0.008,-0.152c-0.03,0.03 -0.057,0.056 -0.082,0.076c-0.024,0.021 -0.056,0.047 -0.093,0.079l-0.214,0.175l-0.13,-0.167l0.545,-0.423l0.206,0l-0,2.015Z" style="fill:#f00;fill-rule:nonzero;"/><path id="text1159" d="M14.402,6.756l-1.332,0l0,-0.206l0.528,-0.533c0.102,-0.102 0.187,-0.192 0.257,-0.271c0.07,-0.079 0.122,-0.156 0.158,-0.231c0.036,-0.077 0.054,-0.161 0.054,-0.251c0,-0.111 -0.033,-0.195 -0.099,-0.251c-0.066,-0.058 -0.151,-0.087 -0.257,-0.087c-0.098,0 -0.184,0.017 -0.26,0.051c-0.073,0.034 -0.149,0.081 -0.226,0.141l-0.133,-0.167c0.079,-0.066 0.169,-0.121 0.271,-0.167c0.103,-0.047 0.219,-0.071 0.347,-0.071c0.188,0 0.337,0.048 0.446,0.144c0.109,0.094 0.164,0.225 0.164,0.392c0,0.105 -0.022,0.204 -0.065,0.296c-0.043,0.092 -0.103,0.183 -0.181,0.274c-0.077,0.088 -0.167,0.183 -0.271,0.285l-0.421,0.415l0,0.011l1.019,0l0,0.226Z" style="fill:#f00;fill-rule:nonzero;"/><path id="path2831-8" d="M17.796,25.452l0.166,1.767l-1.513,-0.928c0.547,0.127 1.22,-0.293 1.347,-0.839Z" style="fill:#f00;fill-opacity:0.66;fill-rule:nonzero;"/><path d="M11.907,18.339c1.636,1.716 3.745,5.158 5.384,7.802" style="fill:none;fill-rule:nonzero;stroke:#f00;stroke-opacity:0.66;stroke-width:0.26px;"/><path id="text1159-2" d="M15.425,25.43c0,0.135 -0.038,0.244 -0.113,0.325c-0.075,0.079 -0.177,0.132 -0.305,0.158l0,0.011c0.162,0.019 0.282,0.07 0.361,0.152c0.079,0.083 0.119,0.191 0.119,0.325c0,0.117 -0.027,0.221 -0.082,0.313c-0.055,0.09 -0.139,0.161 -0.254,0.212c-0.113,0.051 -0.259,0.076 -0.437,0.076c-0.105,0 -0.203,-0.008 -0.294,-0.025c-0.09,-0.015 -0.177,-0.043 -0.26,-0.085l0,-0.231c0.085,0.041 0.176,0.074 0.274,0.099c0.098,0.023 0.192,0.034 0.282,0.034c0.181,0 0.31,-0.035 0.389,-0.104c0.081,-0.071 0.121,-0.169 0.121,-0.294c0,-0.126 -0.05,-0.216 -0.15,-0.271c-0.098,-0.056 -0.236,-0.085 -0.415,-0.085l-0.195,0l0,-0.212l0.198,0c0.166,0 0.291,-0.035 0.375,-0.104c0.087,-0.07 0.13,-0.162 0.13,-0.277c0,-0.098 -0.033,-0.173 -0.099,-0.226c-0.066,-0.055 -0.155,-0.082 -0.268,-0.082c-0.109,0 -0.202,0.016 -0.279,0.048c-0.077,0.032 -0.153,0.072 -0.229,0.121l-0.124,-0.169c0.071,-0.056 0.16,-0.105 0.265,-0.147c0.107,-0.041 0.229,-0.062 0.364,-0.062c0.211,0 0.367,0.047 0.468,0.141c0.103,0.094 0.155,0.214 0.155,0.358l-0,-0Z" style="fill:#f00;fill-rule:nonzero;"/></g></g></svg>