<svg xmlns="http://www.w3.org/2000/svg" xml:space="preserve" style="fill-rule:evenodd;clip-rule:evenodd" viewBox="0 0 185 42"><path d="M2.5 13.005h180" style="fill:none;fill-rule:nonzero;stroke:#000;stroke-opacity:.3;stroke-width:.25px;stroke-dasharray:.5,.5"/><path d="M2.5 4.006h180v23.997H2.5z" style="fill:none;fill-rule:nonzero;stroke:#000;stroke-opacity:.66;stroke-width:.25px;stroke-linecap:round;stroke-linejoin:round"/><path d="M40.557 14.135s3.855.427 8.795.27m1.557 11.975c-2.809.449-9.78.597-13.221.345 1.405-4.52 7.511-12.289 7.511-12.289s5.341-5.779 6.627-8.546c-2.096-.544-10.594-1.003-14.076-.774" style="fill:none;fill-rule:nonzero;stroke:#000;stroke-opacity:.32;stroke-width:.5px;stroke-linecap:round;stroke-linejoin:round;stroke-dasharray:1,1"/><path d="M71.557 14.135s3.855.427 8.795.27m1.557 11.975c-2.809.449-9.78.597-13.221.345 1.405-4.52 7.511-12.289 7.511-12.289s5.341-5.779 6.627-8.546c-2.096-.544-10.594-1.003-14.076-.774" style="fill:none;fill-rule:nonzero;stroke:#000;stroke-opacity:.16;stroke-width:.5px;stroke-linecap:round;stroke-linejoin:round;stroke-dasharray:1,1"/><path d="M102.557 14.135s3.855.427 8.795.27m1.557 11.975c-2.809.449-9.78.597-13.221.345 1.405-4.52 7.511-12.289 7.511-12.289s5.341-5.779 6.627-8.546c-2.096-.544-10.594-1.003-14.076-.774" style="fill:none;fill-rule:nonzero;stroke:#000;stroke-opacity:.08;stroke-width:.5px;stroke-linecap:round;stroke-linejoin:round;stroke-dasharray:1,1"/><path d="M133.557 14.135s3.855.427 8.795.27m1.557 11.975c-2.809.449-9.78.597-13.221.345 1.405-4.52 7.511-12.289 7.511-12.289s5.341-5.779 6.627-8.546c-2.096-.544-10.594-1.003-14.076-.774M164.476 15.411s3.855.427 8.795.27m1.557 11.975c-2.809.449-9.78.597-13.221.345 1.405-4.52 7.511-12.289 7.511-12.289s5.341-5.779 6.627-8.546c-2.096-.544-10.594-1.003-14.076-.774" style="fill:none;fill-rule:nonzero;stroke:#000;stroke-opacity:.04;stroke-width:.5px;stroke-linecap:round;stroke-linejoin:round;stroke-dasharray:1,1"/><path d="m12.242 28.526-5.469.144h-.396q-.288 0-.54-.252-.252-.288-.252-.936.504-2.77 1.439-4.39.935-1.655 2.591-3.562 1.69-1.907 2.159-2.483-4.462-.756-4.462-2.159 0-.756.468-1.223.504-.504.828-.504t2.087.504a21 21 0 0 0 3.382.612q.108-.18.756-1.008t1.187-1.511a28 28 0 0 0 2.267-3.49q-4.282-.936-11.731-.936-1.223 0-1.223-1.115 0-.396.54-.9.54-.54 1.295-.612.792-.072 2.699-.072t5.757.504q5.577.72 5.901 2.015.036.108.036.504 0 .36-.612 1.511-.828 1.619-3.238 4.75-.324.432-.504.648h.648q.54-.036.72 0 .18 0 .504.072.72.216.72 1.187 0 .936-.972 1.295-.936.324-1.583.324h-.9l-1.295-.144q-2.339 2.627-3.382 3.922-1.763 2.303-2.519 4.57l4.93.144q1.115 0 2.519-.108l1.979-.18a5 5 0 0 1 .576-.036q.324 0 .756.036.936.072 1.151 1.259.144.9-.9 1.259a7.2 7.2 0 0 1-2.339.396q-1.188.036-1.799.036l-2.987-.072z" style="fill-rule:nonzero"/><path d="m17.725 17.018 1.685.558-1.458 1.013c.336-.45.222-1.235-.227-1.571" style="fill:red;fill-opacity:.66;fill-rule:nonzero"/><path d="M6.801 15.917c2.896 1.599 7.329 2.293 11.352 1.841" style="fill:none;fill-rule:nonzero;stroke:red;stroke-opacity:.66;stroke-width:.26px"/><path d="M9.663 10.692H9.42V9.284a5 5 0 0 1 .012-.347q-.045.045-.082.076l-.093.079-.214.175-.13-.167.545-.423h.206zM17.792 20.829H16.46v-.206l.528-.533q.152-.153.257-.271.104-.118.158-.231a.6.6 0 0 0 .054-.251q0-.167-.099-.251a.37.37 0 0 0-.257-.087.6.6 0 0 0-.26.051 1.2 1.2 0 0 0-.226.141l-.133-.167q.118-.098.271-.167a.8.8 0 0 1 .347-.071q.282 0 .446.144a.49.49 0 0 1 .164.392.7.7 0 0 1-.065.296 1.2 1.2 0 0 1-.181.274 5 5 0 0 1-.271.285l-.421.415v.011h1.019v.226Z" style="fill:red;fill-rule:nonzero"/><path d="m18.755 28.085 1.613.74-1.56.846c.383-.41.357-1.203-.053-1.587Z" style="fill:red;fill-opacity:.66;fill-rule:nonzero"/><path d="M5.999 7.908c1.694-.496 9.616.281 10.737.565-1.338 1.679-2.887 3.989-5.113 6.385-2.277 2.45-7.802 8.731-7.166 14.224 2.843-.241 10.64-.126 14.643-.215" style="fill:none;fill-rule:nonzero;stroke:red;stroke-opacity:.66;stroke-width:.26px"/></svg>