<svg xmlns="http://www.w3.org/2000/svg" xml:space="preserve" style="fill-rule:evenodd;clip-rule:evenodd" viewBox="0 0 185 42"><path d="M2.5 13.005h180" style="fill:none;fill-rule:nonzero;stroke:#000;stroke-opacity:.3;stroke-width:.25px;stroke-dasharray:.5,.5"/><path d="M2.5 4.006h180v23.997H2.5z" style="fill:none;fill-rule:nonzero;stroke:#000;stroke-opacity:.66;stroke-width:.25px;stroke-linecap:round;stroke-linejoin:round"/><path d="M37.75 27.024c.499-4.247.772-17.534.406-21.583 4.191 4.016 9.407 16.61 13.31 21.344-.553-5.979-.687-15.841-.436-21.73" style="fill:none;fill-rule:nonzero;stroke:#000;stroke-opacity:.32;stroke-width:.5px;stroke-linecap:round;stroke-linejoin:round;stroke-dasharray:1,1"/><path d="M68.75 27.024c.499-4.247.772-17.534.406-21.583 4.191 4.016 9.407 16.61 13.31 21.344-.553-5.979-.687-15.841-.436-21.73" style="fill:none;fill-rule:nonzero;stroke:#000;stroke-opacity:.16;stroke-width:.5px;stroke-linecap:round;stroke-linejoin:round;stroke-dasharray:1,1"/><path d="M99.75 27.024c.499-4.247.772-17.534.406-21.583 4.191 4.016 9.407 16.61 13.31 21.344-.553-5.979-.687-15.841-.436-21.73" style="fill:none;fill-rule:nonzero;stroke:#000;stroke-opacity:.08;stroke-width:.5px;stroke-linecap:round;stroke-linejoin:round;stroke-dasharray:1,1"/><path d="M130.75 27.024c.499-4.247.772-17.534.406-21.583 4.191 4.016 9.407 16.61 13.31 21.344-.553-5.979-.687-15.841-.436-21.73M161.75 27.024c.499-4.247.772-17.534.406-21.583 4.191 4.016 9.407 16.61 13.31 21.344-.553-5.979-.687-15.841-.436-21.73" style="fill:none;fill-rule:nonzero;stroke:#000;stroke-opacity:.04;stroke-width:.5px;stroke-linecap:round;stroke-linejoin:round;stroke-dasharray:1,1"/><path d="M20.594 4.934q.36-.216.936-.216t1.044.504q.468.468.468 1.115 0 14.07.108 17.02.144 2.915.144 2.987 0 .792-.432 1.511-.432.684-.972.684-.504 0-.792-.036a11 11 0 0 1-.468-.144 1.1 1.1 0 0 1-.432-.288l-.36-.36q-.144-.144-.396-.54a15 15 0 0 0-.36-.684 35 35 0 0 1-.468-.864q-.288-.647-1.331-2.591a310 310 0 0 0-1.835-3.49q-2.842-5.217-5.29-8.24 0 11.695-.648 16.228-.108.864-1.331.864-.576 0-.972-.288-.36-.288-.36-.936t.252-7.125q.288-6.477.288-8.06V9.934q0-2.59.396-2.915.396-.324.828-.324 1.979 0 6.045 6.477.791 1.26 3.023 5.29 2.23 3.994 2.663 4.93L19.91 8.459q0-3.094.684-3.526Z" style="fill-rule:nonzero"/><path d="m6.543 25.168-.834 1.57-.755-1.609c.388.407 1.182.427 1.59.039Z" style="fill:red;fill-opacity:.66;fill-rule:nonzero"/><path d="M6.2 6.833c.118 5.705-.308 13.289-.46 18.633" style="fill:none;fill-rule:nonzero;stroke:red;stroke-opacity:.66;stroke-width:.27px"/><path d="m19.502 17.888-.033 1.775-1.4-1.091c.529.187 1.245-.154 1.433-.683Z" style="fill:red;fill-opacity:.66;fill-rule:nonzero"/><path d="M9.109 4.913c4.082 2.229 7.55 8.895 9.813 13.604" style="fill:none;fill-rule:nonzero;stroke:red;stroke-opacity:.66;stroke-width:.26px"/><path d="M4.74 12.945h-.243v-1.408a5 5 0 0 1 .012-.347q-.045.045-.082.076l-.093.079-.214.175-.13-.167.545-.423h.206v2.015ZM12.96 5.37h-1.332v-.206l.528-.533q.152-.153.257-.271t.158-.231a.6.6 0 0 0 .054-.251q0-.167-.099-.251a.37.37 0 0 0-.257-.087.6.6 0 0 0-.26.051 1.2 1.2 0 0 0-.226.141l-.133-.167q.118-.098.271-.167a.8.8 0 0 1 .347-.071q.282 0 .446.144a.49.49 0 0 1 .164.392.7.7 0 0 1-.065.296 1.2 1.2 0 0 1-.181.274 5 5 0 0 1-.271.285l-.421.415v.011h1.019v.226ZM26.244 8.746a.46.46 0 0 1-.113.325.56.56 0 0 1-.305.158v.011q.243.029.361.152a.45.45 0 0 1 .119.325.6.6 0 0 1-.082.313.55.55 0 0 1-.254.212 1.1 1.1 0 0 1-.437.076q-.158 0-.294-.025a.9.9 0 0 1-.26-.085v-.231q.127.062.274.099.147.034.282.034.271 0 .389-.104a.37.37 0 0 0 .121-.294q0-.189-.15-.271a.84.84 0 0 0-.415-.085h-.195v-.212h.198q.249 0 .375-.104a.34.34 0 0 0 .13-.277.27.27 0 0 0-.099-.226.4.4 0 0 0-.268-.082.7.7 0 0 0-.279.048 1.5 1.5 0 0 0-.229.121l-.124-.169q.107-.084.265-.147.161-.062.364-.062.317 0 .468.141a.47.47 0 0 1 .155.358Z" style="fill:red;fill-rule:nonzero"/><path d="m25.136 25.43-.738 1.617-.851-1.561c.411.383 1.206.355 1.589-.056" style="fill:red;fill-opacity:.66;fill-rule:nonzero"/><path d="M24.276 5.075c-.23 5.104-.11 14.96.076 20.7" style="fill:none;fill-rule:nonzero;stroke:red;stroke-opacity:.66;stroke-width:.27px"/></svg>