<?xml version="1.0" encoding="UTF-8" standalone="no"?><!DOCTYPE svg PUBLIC "-//W3C//DTD SVG 1.1//EN" "http://www.w3.org/Graphics/SVG/1.1/DTD/svg11.dtd"><svg width="100%" height="100%" viewBox="0 0 185 42" version="1.1" xmlns="http://www.w3.org/2000/svg" xmlns:xlink="http://www.w3.org/1999/xlink" xml:space="preserve" xmlns:serif="http://www.serif.com/" style="fill-rule:evenodd;clip-rule:evenodd;"><g><path id="path1018-7-4" d="M2.5,13.005l180,0" style="fill:none;fill-rule:nonzero;stroke:#000;stroke-opacity:0.3;stroke-width:0.25px;stroke-dasharray:0.5,0.5;"/><rect id="path4601-3" x="2.5" y="4.006" width="180" height="23.997" style="fill:none;fill-rule:nonzero;stroke:#000;stroke-opacity:0.66;stroke-width:0.25px;stroke-linecap:round;stroke-linejoin:round;"/><path id="path1809-3-5-3-8" d="M37.84,16.341c4.309,1.673 10.526,8.031 11.491,10.934m-11.491,-10.934c5.749,-0.764 11.372,-0.227 11.466,-6.88c-0.021,-5.121 -8.604,-4.839 -11.564,-4.49l0.098,11.37l-0.052,10.702" style="fill:none;fill-rule:nonzero;stroke:#000;stroke-opacity:0.32;stroke-width:0.5px;stroke-linecap:round;stroke-linejoin:round;stroke-dasharray:1,1;"/><path id="path1809-3-5-3-6-7" d="M68.84,16.341c4.309,1.673 10.526,8.031 11.491,10.934m-11.491,-10.934c5.749,-0.764 11.372,-0.227 11.466,-6.88c-0.021,-5.121 -8.604,-4.839 -11.564,-4.49l0.098,11.37l-0.052,10.702" style="fill:none;fill-rule:nonzero;stroke:#000;stroke-opacity:0.16;stroke-width:0.5px;stroke-linecap:round;stroke-linejoin:round;stroke-dasharray:1,1;"/><path id="path1809-3-5-3-6-2-9" d="M99.84,16.341c4.309,1.673 10.526,8.031 11.491,10.934m-11.491,-10.934c5.749,-0.764 11.372,-0.227 11.466,-6.88c-0.021,-5.121 -8.604,-4.839 -11.564,-4.49l0.098,11.37l-0.052,10.702" style="fill:none;fill-rule:nonzero;stroke:#000;stroke-opacity:0.08;stroke-width:0.5px;stroke-linecap:round;stroke-linejoin:round;stroke-dasharray:1,1;"/><path id="path1809-3-5-3-6-2-6-2" d="M130.84,16.341c4.309,1.673 10.526,8.031 11.491,10.934m-11.491,-10.934c5.749,-0.764 11.372,-0.227 11.466,-6.88c-0.021,-5.121 -8.604,-4.839 -11.564,-4.49l0.098,11.37l-0.052,10.702" style="fill:none;fill-rule:nonzero;stroke:#000;stroke-opacity:0.04;stroke-width:0.5px;stroke-linecap:round;stroke-linejoin:round;stroke-dasharray:1,1;"/><path id="path1809-3-5-3-6-2-6-1-0" d="M161.84,16.341c4.309,1.673 10.526,8.031 11.491,10.934m-11.491,-10.934c5.749,-0.764 11.372,-0.227 11.466,-6.88c-0.021,-5.121 -8.604,-4.839 -11.564,-4.49l0.098,11.37l-0.052,10.702" style="fill:none;fill-rule:nonzero;stroke:#000;stroke-opacity:0.04;stroke-width:0.5px;stroke-linecap:round;stroke-linejoin:round;stroke-dasharray:1,1;"/><g><path id="text833" d="M8.111,27.115c0,0.432 -0.192,0.828 -0.576,1.187c-0.384,0.336 -0.804,0.504 -1.259,0.504c-0.432,0 -0.732,-0.288 -0.9,-0.864c-0.072,-3.167 -0.108,-6.321 -0.108,-9.464l-0.108,-9.068c0,-1.823 0.804,-3.071 2.411,-3.742c1.295,-0.6 2.831,-0.9 4.606,-0.9c0.912,0 1.883,0.228 2.915,0.684c1.056,0.432 1.991,1.079 2.807,1.943c0.84,0.84 1.259,1.763 1.259,2.771c0,0.984 -0.456,2.051 -1.367,3.203c-0.912,1.127 -2.039,2.135 -3.382,3.023c-1.343,0.864 -2.651,1.511 -3.922,1.943c2.231,1.559 4.174,3.238 5.829,5.038c1.655,1.775 2.483,3.155 2.483,4.138c0,0.312 -0.156,0.612 -0.468,0.9c-0.312,0.264 -0.696,0.396 -1.151,0.396c-0.432,0 -0.804,-0.192 -1.115,-0.576c-0.528,-1.271 -1.535,-2.603 -3.023,-3.994c-1.463,-1.415 -3.179,-2.759 -5.146,-4.03l0.216,6.909Zm-0.144,-10.795c1.607,-0.072 3.406,-0.744 5.397,-2.015c2.015,-1.271 3.023,-2.411 3.023,-3.418c0,-1.032 -0.504,-1.823 -1.511,-2.375c-1.008,-0.552 -2.207,-0.828 -3.598,-0.828c-1.367,0 -2.459,0.168 -3.274,0.504c-0.024,1.223 -0.036,3.934 -0.036,8.132l-0,0Z" style="fill-rule:nonzero;"/><path id="path1883" d="M4.907,25.451l-0.801,1.587l-0.789,-1.593c0.396,0.399 1.191,0.402 1.59,0.006Z" style="fill:#f00;fill-opacity:0.66;fill-rule:nonzero;"/><path d="M4.294,7.441c0.003,5.956 -0.152,12.571 -0.183,18.324" style="fill:none;fill-rule:nonzero;stroke:#f00;stroke-opacity:0.66;stroke-width:0.27px;"/><path id="text1155" d="M3.788,9.894l-0.243,0l0,-1.408c0,-0.081 0.001,-0.146 0.003,-0.195c0.002,-0.049 0.005,-0.1 0.008,-0.152c-0.03,0.03 -0.057,0.056 -0.082,0.076c-0.024,0.021 -0.056,0.047 -0.093,0.079l-0.214,0.175l-0.13,-0.167l0.545,-0.423l0.206,0l-0,2.015Z" style="fill:#f00;fill-rule:nonzero;"/><path id="path1883-0" d="M20.313,25.368l-0.255,1.759l-1.255,-1.259c0.502,0.252 1.257,0.002 1.509,-0.5Z" style="fill:#f00;fill-opacity:0.66;fill-rule:nonzero;"/><path d="M13.471,18.813c2.353,1.794 5.101,4.656 6.188,7.107" style="fill:none;fill-rule:nonzero;stroke:#f00;stroke-opacity:0.66;stroke-width:0.27px;"/><path id="text1155-2" d="M17.204,3.18l-1.332,0l0,-0.206l0.528,-0.533c0.102,-0.102 0.187,-0.192 0.257,-0.271c0.07,-0.079 0.122,-0.156 0.158,-0.231c0.036,-0.077 0.054,-0.161 0.054,-0.251c0,-0.111 -0.033,-0.195 -0.099,-0.251c-0.066,-0.058 -0.151,-0.087 -0.257,-0.087c-0.098,0 -0.184,0.017 -0.26,0.051c-0.073,0.034 -0.149,0.081 -0.226,0.141l-0.133,-0.167c0.079,-0.066 0.169,-0.121 0.271,-0.167c0.103,-0.047 0.219,-0.071 0.347,-0.071c0.188,0 0.337,0.048 0.446,0.144c0.109,0.094 0.164,0.225 0.164,0.392c0,0.105 -0.022,0.204 -0.065,0.296c-0.043,0.092 -0.103,0.183 -0.181,0.274c-0.077,0.088 -0.167,0.183 -0.271,0.285l-0.421,0.415l0,0.011l1.019,0l0,0.226Z" style="fill:#f00;fill-rule:nonzero;"/><path id="path1883-1-3" d="M13.936,18.721l-1.777,-0.044l1.101,-1.395c-0.191,0.529 0.147,1.248 0.676,1.439Z" style="fill:#f00;fill-opacity:0.66;fill-rule:nonzero;"/><path d="M5.798,4.727c7.059,-3.812 14.056,0.112 14.291,4.333c0.192,3.448 -3.26,7.212 -6.778,9.077" style="fill:none;fill-rule:nonzero;stroke:#f00;stroke-opacity:0.66;stroke-width:0.27px;"/><path id="text1155-2-6" d="M19.274,20.525c0,0.135 -0.038,0.244 -0.113,0.325c-0.075,0.079 -0.177,0.132 -0.305,0.158l0,0.011c0.162,0.019 0.282,0.07 0.361,0.152c0.079,0.083 0.119,0.191 0.119,0.325c0,0.117 -0.027,0.221 -0.082,0.313c-0.055,0.09 -0.139,0.161 -0.254,0.212c-0.113,0.051 -0.259,0.076 -0.437,0.076c-0.105,0 -0.203,-0.008 -0.294,-0.025c-0.09,-0.015 -0.177,-0.043 -0.26,-0.085l0,-0.231c0.085,0.041 0.176,0.074 0.274,0.099c0.098,0.023 0.192,0.034 0.282,0.034c0.181,0 0.31,-0.035 0.389,-0.104c0.081,-0.071 0.121,-0.169 0.121,-0.294c0,-0.126 -0.05,-0.216 -0.15,-0.271c-0.098,-0.056 -0.236,-0.085 -0.415,-0.085l-0.195,0l0,-0.212l0.198,0c0.166,0 0.291,-0.035 0.375,-0.104c0.087,-0.07 0.13,-0.162 0.13,-0.277c0,-0.098 -0.033,-0.173 -0.099,-0.226c-0.066,-0.055 -0.155,-0.082 -0.268,-0.082c-0.109,0 -0.202,0.016 -0.279,0.048c-0.077,0.032 -0.153,0.072 -0.229,0.121l-0.124,-0.169c0.071,-0.056 0.16,-0.105 0.265,-0.147c0.107,-0.041 0.229,-0.062 0.364,-0.062c0.211,0 0.367,0.047 0.468,0.141c0.103,0.094 0.155,0.214 0.155,0.358l-0,-0Z" style="fill:#f00;fill-rule:nonzero;"/></g></g></svg>