<svg xmlns="http://www.w3.org/2000/svg" xml:space="preserve" style="fill-rule:evenodd;clip-rule:evenodd" viewBox="0 0 185 42"><path d="M2.5 12.956h180" style="fill:none;fill-rule:nonzero;stroke:#000;stroke-opacity:.3;stroke-width:.25px;stroke-dasharray:.5,.5"/><path d="M2.5 3.958h180v23.997H2.5z" style="fill:none;fill-rule:nonzero;stroke:#000;stroke-opacity:.66;stroke-width:.25px;stroke-linecap:round;stroke-linejoin:round"/><path d="M38.32 5.478c-1.325 10.277-.103 15.056 1.247 17.805 3.278 5.264 8.676 4.79 11.425.242 1.869-3.989 2.19-8.853.799-18.418" style="fill:none;fill-rule:nonzero;stroke:#020000;stroke-opacity:.32;stroke-width:.5px;stroke-linecap:round;stroke-linejoin:round;stroke-dasharray:1,1"/><path d="M69.32 5.478c-1.325 10.277-.103 15.056 1.247 17.805 3.278 5.264 8.676 4.79 11.425.242 1.869-3.989 2.19-8.853.799-18.418" style="fill:none;fill-rule:nonzero;stroke:#020000;stroke-opacity:.17;stroke-width:.5px;stroke-linecap:round;stroke-linejoin:round;stroke-dasharray:1,1"/><path d="M100.32 5.478c-1.325 10.277-.103 15.056 1.247 17.805 3.278 5.264 8.676 4.79 11.425.242 1.869-3.989 2.19-8.853.799-18.418" style="fill:none;fill-rule:nonzero;stroke:#020000;stroke-opacity:.08;stroke-width:.5px;stroke-linecap:round;stroke-linejoin:round;stroke-dasharray:1,1"/><path d="M131.32 5.478c-1.325 10.277-.103 15.056 1.247 17.805 3.278 5.264 8.676 4.79 11.425.242 1.869-3.989 2.19-8.853.799-18.418M162.32 5.478c-1.325 10.277-.103 15.056 1.247 17.805 3.278 5.264 8.676 4.79 11.425.242 1.869-3.989 2.19-8.853.799-18.418" style="fill:none;fill-rule:nonzero;stroke:#020000;stroke-opacity:.04;stroke-width:.5px;stroke-linecap:round;stroke-linejoin:round;stroke-dasharray:1,1"/><path d="M19.844 4.863q.504-.576 1.115-.576.612 0 1.044.612.612 3.13.612 7.017v2.735q0 3.094-.108 3.67-.108.54-.216 1.223a9 9 0 0 1-.216 1.044q-.072.36-.252.972a8.4 8.4 0 0 1-1.115 2.375q-1.08 2.015-2.843 3.167t-3.598 1.151q-1.799 0-3.742-1.583-1.907-1.584-3.131-3.958-1.87-3.67-1.871-8.456 0-1.69.504-8.024.252-.576.756-1.008.54-.468 1.079-.468.792 0 .972 1.079-.504 6.225-.504 7.88 0 3.959 1.547 7.017.971 2.015 2.375 3.382 1.44 1.332 2.807 1.331 2.267 0 3.886-3.526.684-1.224.756-3.922 0-.72.072-1.008l.072-4.75q0-3.31-.504-6.045 0-.756.504-1.331Z" style="fill-rule:nonzero"/><path d="m22.55 6.647.594-1.672.981 1.479c-.442-.346-1.23-.249-1.576.194Z" style="fill:red;fill-opacity:.66;fill-rule:nonzero"/><path d="M4.95 5.272c-.651 8.143-.169 12.199.558 14.621 1.622 5.409 5.617 8.769 8.953 8.706 4.392-.083 7.951-4.167 8.821-9.333.705-4.186.515-8.728.018-13.031" style="fill:none;fill-rule:nonzero;stroke:red;stroke-opacity:.66;stroke-width:.26px"/><path d="M5.178 24.703h-.243v-1.408a5 5 0 0 1 .012-.347q-.045.046-.082.076l-.093.079-.214.175-.13-.167.545-.423h.206v2.015Z" style="fill:red;fill-rule:nonzero"/></svg>