<?xml version="1.0" encoding="UTF-8" standalone="no"?><!DOCTYPE svg PUBLIC "-//W3C//DTD SVG 1.1//EN" "http://www.w3.org/Graphics/SVG/1.1/DTD/svg11.dtd"><svg width="100%" height="100%" viewBox="0 0 185 42" version="1.1" xmlns="http://www.w3.org/2000/svg" xmlns:xlink="http://www.w3.org/1999/xlink" xml:space="preserve" xmlns:serif="http://www.serif.com/" style="fill-rule:evenodd;clip-rule:evenodd;"><g><path id="path1018-7-4" d="M2.5,13.005l180,0" style="fill:none;fill-rule:nonzero;stroke:#000;stroke-opacity:0.3;stroke-width:0.25px;stroke-dasharray:0.5,0.5;"/><rect id="path4601-3" x="2.5" y="4.006" width="180" height="23.997" style="fill:none;fill-rule:nonzero;stroke:#000;stroke-opacity:0.66;stroke-width:0.25px;stroke-linecap:round;stroke-linejoin:round;"/><path id="path1809-3-5-36-6" d="M77.026,27.033c-5.516,0.181 -8.279,-7.403 -8.281,-11.168c-0.004,-6.195 2.923,-11.009 8.547,-10.96c4.988,0.043 6.893,5.522 6.732,10.739c-0.167,5.424 -2.273,11.234 -6.999,11.389Z" style="fill:none;fill-rule:nonzero;stroke:#000;stroke-opacity:0.16;stroke-width:0.5px;stroke-linecap:round;stroke-linejoin:round;stroke-dasharray:1,1;"/><path id="path1809-3-5-36-7-2" d="M108.026,27.033c-5.516,0.181 -8.279,-7.403 -8.281,-11.168c-0.004,-6.195 2.923,-11.009 8.547,-10.96c4.988,0.043 6.893,5.522 6.732,10.739c-0.167,5.424 -2.273,11.234 -6.999,11.389Z" style="fill:none;fill-rule:nonzero;stroke:#000;stroke-opacity:0.08;stroke-width:0.5px;stroke-linecap:round;stroke-linejoin:round;stroke-dasharray:1,1;"/><path id="path1809-3-5-36-7-5-9" d="M139.026,27.033c-5.516,0.181 -8.279,-7.403 -8.281,-11.168c-0.004,-6.195 2.923,-11.009 8.547,-10.96c4.988,0.043 6.893,5.522 6.732,10.739c-0.167,5.424 -2.273,11.234 -6.999,11.389Z" style="fill:none;fill-rule:nonzero;stroke:#000;stroke-opacity:0.04;stroke-width:0.5px;stroke-linecap:round;stroke-linejoin:round;stroke-dasharray:1,1;"/><path id="path1809-3-5-36-7-5-3-1" d="M170.026,27.033c-5.516,0.181 -8.279,-7.403 -8.281,-11.168c-0.004,-6.195 2.923,-11.009 8.547,-10.96c4.988,0.043 6.893,5.522 6.732,10.739c-0.167,5.424 -2.273,11.234 -6.999,11.389Z" style="fill:none;fill-rule:nonzero;stroke:#000;stroke-opacity:0.04;stroke-width:0.5px;stroke-linecap:round;stroke-linejoin:round;stroke-dasharray:1,1;"/><path id="path1809-3-5-36-6-7" d="M46.026,27.033c-5.516,0.181 -8.279,-7.403 -8.281,-11.168c-0.004,-6.195 2.923,-11.009 8.547,-10.96c4.988,0.043 6.893,5.522 6.732,10.739c-0.167,5.424 -2.273,11.234 -6.999,11.389Z" style="fill:none;fill-rule:nonzero;stroke:#000;stroke-opacity:0.32;stroke-width:0.5px;stroke-linecap:round;stroke-linejoin:round;stroke-dasharray:1,1;"/><g><path id="text833" d="M14.619,4.791c1.679,0 3.107,0.54 4.282,1.619c2.303,2.063 3.454,5.326 3.454,9.787c0,4.438 -1.271,7.928 -3.814,10.471c-1.319,1.271 -2.843,1.967 -4.57,2.087c-2.279,0 -4.054,-0.78 -5.326,-2.339c-1.271,-1.559 -2.183,-3.298 -2.735,-5.218c-0.528,-1.943 -0.792,-3.814 -0.792,-5.613c0,-3.071 0.732,-5.601 2.195,-7.592c1.535,-2.135 3.97,-3.203 7.305,-3.203Zm-0.252,2.987c-3.215,0 -5.218,1.523 -6.009,4.57c-0.24,0.816 -0.36,1.859 -0.36,3.131c0,1.271 0.24,2.747 0.72,4.426c0.648,2.255 1.607,3.838 2.879,4.75c0.744,0.576 1.643,0.864 2.699,0.864c1.056,0 2.003,-0.468 2.843,-1.403c0.84,-0.96 1.415,-2.171 1.727,-3.634c0.312,-1.463 0.468,-2.939 0.468,-4.426c0,-2.639 -0.384,-4.678 -1.151,-6.117c-0.744,-1.439 -2.015,-2.159 -3.814,-2.159Z" style="fill-rule:nonzero;"/><path id="path1883" d="M21.802,9.703l0.23,-1.763l1.272,1.241c-0.506,-0.245 -1.257,0.016 -1.502,0.521Z" style="fill:#f00;fill-opacity:0.66;fill-rule:nonzero;"/><path d="M20.943,6.027c-5.092,-6.436 -18.088,-3.375 -16.862,10.633c0.5,5.717 3.132,12.964 10.429,12.49c5.048,-0.328 11.776,-8.068 7.939,-20.007" style="fill:none;fill-rule:nonzero;stroke:#f00;stroke-opacity:0.66;stroke-width:0.27px;"/><path id="text1155" d="M5.392,5.988l-0.243,0l0,-1.408c0,-0.081 0.001,-0.146 0.003,-0.195c0.002,-0.049 0.005,-0.1 0.009,-0.152c-0.03,0.03 -0.057,0.056 -0.082,0.076c-0.024,0.021 -0.056,0.047 -0.093,0.079l-0.214,0.175l-0.13,-0.167l0.545,-0.423l0.206,0l-0,2.015Z" style="fill:#f00;fill-rule:nonzero;"/></g></g></svg>