<svg xmlns="http://www.w3.org/2000/svg" xml:space="preserve" style="fill-rule:evenodd;clip-rule:evenodd" viewBox="0 0 185 42"><path d="M15.802 3.888q1.727 0 3.418.864 1.727.863 1.727 1.943 0 1.655-1.367 1.655-.504 0-1.763-.648-1.26-.648-2.123-.648-3.094 0-5.182 2.771-2.05 2.77-2.051 7.053 0 3.203 1.403 5.613t3.31 2.411q1.943 0 3.023-1.259 1.115-1.295 1.115-2.915 0-.9-.144-1.475-.108-.612-.612-1.079-.504-.504-1.331-.504-.828 0-1.583-.36-.72-.36-.72-.972t.36-1.151q.36-.54.972-.648 2.447 0 3.274.504.864.504 1.295.828.432.324.72 1.079.288.756.432 1.259.18.504.252 1.619.072 1.871.072 4.39 0 2.483-.36 3.059-.324.468-1.079.504-.756 0-1.044-.324t-.36-1.439q-.864.756-2.195 1.295-1.296.504-2.303.504-3.166 0-5.326-3.346-2.159-3.383-2.159-8.132 0-2.518.828-4.93.828-2.447 2.231-4.102 2.95-3.418 7.269-3.418Z" style="fill-rule:nonzero"/><path d="m14.902 27.685 1.777.027-1.088 1.406c.186-.531-.159-1.247-.689-1.433" style="fill:red;fill-opacity:.66;fill-rule:nonzero"/><path d="M20.23 4.201C15.347.964 5.286 3.615 4.603 15.225c-.451 7.659 3.919 15.877 10.93 13.039" style="fill:none;fill-rule:nonzero;stroke:red;stroke-opacity:.66;stroke-width:.27px"/><path d="m21.963 25.356-.89 1.535-.694-1.634c.372.421 1.164.47 1.584.098Z" style="fill:red;fill-opacity:.66;fill-rule:nonzero"/><path d="M14.383 13.689c5.585.22 7.334 1.691 6.769 11.935" style="fill:none;fill-rule:nonzero;stroke:red;stroke-opacity:.66;stroke-width:.26px"/><path d="M6.421 6.179h-.243V4.771a5 5 0 0 1 .012-.347q-.045.046-.082.076l-.093.079-.214.175-.13-.167.545-.423h.206v2.015ZM22.861 16.911h-1.332v-.206l.528-.533q.152-.153.257-.271.104-.119.158-.231a.6.6 0 0 0 .054-.251q0-.167-.099-.251a.37.37 0 0 0-.257-.087.6.6 0 0 0-.26.051 1.2 1.2 0 0 0-.226.141l-.133-.167q.118-.098.271-.167a.8.8 0 0 1 .347-.071q.282 0 .446.144a.49.49 0 0 1 .164.392.7.7 0 0 1-.065.296 1.2 1.2 0 0 1-.181.274 5 5 0 0 1-.271.285l-.421.415v.011h1.019v.226Z" style="fill:red;fill-rule:nonzero"/><path d="M2.5 3.958h180v23.997H2.5z" style="fill:none;fill-rule:nonzero;stroke:#000;stroke-opacity:.66;stroke-width:.25px;stroke-linecap:round;stroke-linejoin:round"/><path d="M50.49 7.068c-5.517-4.184-12.741 1.481-12.748 9.083-.011 11.601 9.259 13.728 11.828 5.152" style="fill:none;fill-rule:nonzero;stroke:#000;stroke-opacity:.32;stroke-width:.5px;stroke-linecap:round;stroke-linejoin:round;stroke-dasharray:1,1"/><path d="M49.69 26.817c.434-11.236-1.783-10.267-4.767-10.598" style="fill:none;fill-rule:nonzero;stroke:#000;stroke-opacity:.32;stroke-width:.5px;stroke-linecap:round;stroke-linejoin:round;stroke-dasharray:1,1"/><path d="M81.49 7.067c-5.517-4.184-12.741 1.481-12.748 9.083-.011 11.601 9.259 13.728 11.828 5.152" style="fill:none;fill-rule:nonzero;stroke:#000;stroke-opacity:.16;stroke-width:.5px;stroke-linecap:round;stroke-linejoin:round;stroke-dasharray:1,1"/><path d="M80.69 26.817c.434-11.236-1.783-10.267-4.767-10.598" style="fill:none;fill-rule:nonzero;stroke:#000;stroke-opacity:.16;stroke-width:.5px;stroke-linecap:round;stroke-linejoin:round;stroke-dasharray:1,1"/><path d="M112.49 7.067c-5.517-4.184-12.741 1.481-12.748 9.083-.011 11.601 9.259 13.728 11.828 5.152" style="fill:none;fill-rule:nonzero;stroke:#000;stroke-opacity:.08;stroke-width:.5px;stroke-linecap:round;stroke-linejoin:round;stroke-dasharray:1,1"/><path d="M111.69 26.817c.434-11.236-1.783-10.267-4.767-10.598" style="fill:none;fill-rule:nonzero;stroke:#000;stroke-opacity:.08;stroke-width:.5px;stroke-linecap:round;stroke-linejoin:round;stroke-dasharray:1,1"/><path d="M143.491 7.067c-5.517-4.184-12.741 1.481-12.748 9.083-.011 11.601 9.259 13.728 11.828 5.152" style="fill:none;fill-rule:nonzero;stroke:#000;stroke-opacity:.04;stroke-width:.5px;stroke-linecap:round;stroke-linejoin:round;stroke-dasharray:1,1"/><path d="M142.69 26.817c.434-11.236-1.783-10.267-4.767-10.598M173.491 7.067c-5.517-4.184-12.741 1.481-12.748 9.083-.011 11.601 9.259 13.728 11.828 5.152" style="fill:none;fill-rule:nonzero;stroke:#000;stroke-opacity:.04;stroke-width:.5px;stroke-linecap:round;stroke-linejoin:round;stroke-dasharray:1,1"/><path d="M172.69 26.817c.434-11.236-1.783-10.267-4.767-10.598" style="fill:none;fill-rule:nonzero;stroke:#000;stroke-opacity:.04;stroke-width:.5px;stroke-linecap:round;stroke-linejoin:round;stroke-dasharray:1,1"/><path d="M2.5 12.956h180" style="fill:none;fill-rule:nonzero;stroke:#000;stroke-opacity:.3;stroke-width:.25px;stroke-dasharray:.5,.5"/></svg>