<?xml version="1.0" encoding="UTF-8" standalone="no"?><!DOCTYPE svg PUBLIC "-//W3C//DTD SVG 1.1//EN" "http://www.w3.org/Graphics/SVG/1.1/DTD/svg11.dtd"><svg width="100%" height="100%" viewBox="0 0 185 42" version="1.1" xmlns="http://www.w3.org/2000/svg" xmlns:xlink="http://www.w3.org/1999/xlink" xml:space="preserve" xmlns:serif="http://www.serif.com/" style="fill-rule:evenodd;clip-rule:evenodd;"><g><path id="path1018-7-4" d="M2.5,13.005l180,0" style="fill:none;fill-rule:nonzero;stroke:#000;stroke-opacity:0.3;stroke-width:0.25px;stroke-dasharray:0.5,0.5;"/><rect id="path4601-3" x="2.5" y="4.006" width="180" height="23.997" style="fill:none;fill-rule:nonzero;stroke:#000;stroke-opacity:0.66;stroke-width:0.25px;stroke-linecap:round;stroke-linejoin:round;"/><path id="path1809-3-5-8" d="M37.998,24.22c5.809,6.456 13.19,1.794 12.777,-3.726c-0.286,-3.822 -2.965,-5.25 -6.307,-5.833c-3.521,-0.615 -6.236,-1.45 -6.68,-4.643c-0.623,-4.479 6.41,-7.616 11.919,-3.154" style="fill:none;fill-rule:nonzero;stroke:#020000;stroke-opacity:0.32;stroke-width:0.5px;stroke-linecap:round;stroke-linejoin:round;stroke-dasharray:1,1;"/><path id="path1809-3-5-1-4" d="M68.998,24.22c5.809,6.456 13.19,1.794 12.777,-3.726c-0.286,-3.822 -2.965,-5.25 -6.307,-5.833c-3.521,-0.615 -6.236,-1.45 -6.68,-4.643c-0.623,-4.479 6.41,-7.616 11.919,-3.154" style="fill:none;fill-rule:nonzero;stroke:#020000;stroke-opacity:0.17;stroke-width:0.5px;stroke-linecap:round;stroke-linejoin:round;stroke-dasharray:1,1;"/><path id="path1809-3-5-1-9-5" d="M99.998,24.22c5.809,6.456 13.19,1.794 12.777,-3.726c-0.286,-3.822 -2.965,-5.25 -6.307,-5.833c-3.521,-0.615 -6.236,-1.45 -6.68,-4.643c-0.623,-4.479 6.41,-7.616 11.919,-3.154" style="fill:none;fill-rule:nonzero;stroke:#020000;stroke-opacity:0.08;stroke-width:0.5px;stroke-linecap:round;stroke-linejoin:round;stroke-dasharray:1,1;"/><path id="path1809-3-5-1-9-4-0" d="M130.998,24.22c5.809,6.456 13.19,1.794 12.777,-3.726c-0.286,-3.822 -2.965,-5.25 -6.307,-5.833c-3.521,-0.615 -6.236,-1.45 -6.68,-4.643c-0.623,-4.479 6.41,-7.616 11.919,-3.154" style="fill:none;fill-rule:nonzero;stroke:#020000;stroke-opacity:0.04;stroke-width:0.5px;stroke-linecap:round;stroke-linejoin:round;stroke-dasharray:1,1;"/><path id="path1809-3-5-1-9-4-7-3" d="M161.998,24.22c5.809,6.456 13.19,1.794 12.777,-3.726c-0.286,-3.822 -2.965,-5.25 -6.307,-5.833c-3.521,-0.615 -6.236,-1.45 -6.68,-4.643c-0.623,-4.479 6.41,-7.616 11.919,-3.154" style="fill:none;fill-rule:nonzero;stroke:#020000;stroke-opacity:0.04;stroke-width:0.5px;stroke-linecap:round;stroke-linejoin:round;stroke-dasharray:1,1;"/><g><path id="text833" d="M13.67,4.717c1.559,0 2.879,0.264 3.958,0.792c1.103,0.528 1.655,1.199 1.655,2.015c0,0.36 -0.096,0.672 -0.288,0.936c-0.168,0.264 -0.432,0.396 -0.792,0.396c-0.336,0 -1.079,-0.264 -2.231,-0.792c-1.151,-0.552 -2.207,-0.828 -3.167,-0.828c-0.936,0 -1.907,0.3 -2.915,0.9c-1.008,0.6 -1.511,1.331 -1.511,2.195c0,1.175 0.612,2.039 1.835,2.591c0.912,0.408 2.219,0.78 3.922,1.115c1.703,0.312 3.095,0.972 4.174,1.979c1.079,0.984 1.619,2.483 1.619,4.498c0,3.071 -0.924,5.338 -2.771,6.801c-1.032,0.816 -2.495,1.223 -4.39,1.223c-1.871,0 -3.742,-0.516 -5.613,-1.547c-1.223,-0.648 -1.835,-1.295 -1.835,-1.943c0,-0.24 0.096,-0.504 0.288,-0.792c0.216,-0.288 0.504,-0.528 0.864,-0.72c0.36,-0.192 0.684,-0.216 0.972,-0.072c0.312,0.12 0.804,0.348 1.475,0.684c0.672,0.336 1.163,0.564 1.475,0.684c1.008,0.384 1.955,0.576 2.843,0.576c0.888,0 1.739,-0.432 2.555,-1.295c0.84,-0.888 1.259,-1.967 1.259,-3.238c0,-1.679 -0.84,-2.855 -2.519,-3.526c-0.816,-0.336 -1.739,-0.588 -2.771,-0.756c-2.135,-0.384 -3.742,-1.02 -4.822,-1.907c-1.079,-0.912 -1.619,-2.279 -1.619,-4.102c0,-1.823 0.78,-3.25 2.339,-4.282c1.559,-1.056 3.562,-1.583 6.009,-1.583l-0,0Z" style="fill-rule:nonzero;"/><path id="path1883" d="M7.473,22.819l-1.051,-1.434l1.778,0.02c-0.535,0.172 -0.899,0.879 -0.727,1.414Z" style="fill:#f00;fill-opacity:0.66;fill-rule:nonzero;"/><path d="M18.57,4.269c-7.872,-2.938 -14.082,0.865 -14.117,5.395c-0.044,5.672 3.97,6.254 6.692,6.959c2.96,0.766 4.941,1.236 4.982,3.817c0.027,1.732 -1.573,3.582 -3.622,3.397c-1.373,-0.124 -2.938,-0.846 -4.951,-1.872" style="fill:none;fill-rule:nonzero;stroke:#f00;stroke-opacity:0.66;stroke-width:0.27px;"/><path id="text1155" d="M5.971,4.325l-0.243,0l0,-1.408c0,-0.081 0.001,-0.146 0.003,-0.195c0.002,-0.049 0.005,-0.1 0.009,-0.152c-0.03,0.03 -0.057,0.056 -0.082,0.076c-0.024,0.021 -0.056,0.047 -0.093,0.079l-0.214,0.175l-0.13,-0.167l0.545,-0.423l0.206,0l-0,2.015Z" style="fill:#f00;fill-rule:nonzero;"/></g></g></svg>