<svg xmlns="http://www.w3.org/2000/svg" xml:space="preserve" style="fill-rule:evenodd;clip-rule:evenodd" viewBox="0 0 185 42"><path d="M2.5 12.956h180" style="fill:none;fill-rule:nonzero;stroke:#000;stroke-opacity:.3;stroke-width:.25px;stroke-dasharray:.5,.5"/><path d="M2.5 3.958h180v23.997H2.5z" style="fill:none;fill-rule:nonzero;stroke:#000;stroke-opacity:.66;stroke-width:.25px;stroke-linecap:round;stroke-linejoin:round"/><path d="M51.839 26.852c-2.136-4.076-5.427-9.214-8.27-12.827m-5.819-9.17c.765 7.102 1.135 17.516.809 22.387" style="fill:none;fill-rule:nonzero;stroke:#000;stroke-opacity:.32;stroke-width:.5px;stroke-linecap:round;stroke-linejoin:round;stroke-dasharray:1,1"/><path d="M50.375 4.817c-2.713 5.348-7.759 10.725-11.78 13.332" style="fill:none;fill-rule:nonzero;stroke:#000;stroke-opacity:.32;stroke-width:.5px;stroke-linecap:round;stroke-linejoin:round;stroke-dasharray:1,1"/><path d="M82.839 26.852c-2.136-4.076-5.427-9.214-8.27-12.827m-5.819-9.17c.765 7.102 1.135 17.516.809 22.387" style="fill:none;fill-rule:nonzero;stroke:#000;stroke-opacity:.16;stroke-width:.5px;stroke-linecap:round;stroke-linejoin:round;stroke-dasharray:1,1"/><path d="M81.375 4.817c-2.713 5.348-7.759 10.725-11.78 13.332" style="fill:none;fill-rule:nonzero;stroke:#000;stroke-opacity:.16;stroke-width:.5px;stroke-linecap:round;stroke-linejoin:round;stroke-dasharray:1,1"/><path d="M113.839 26.852c-2.136-4.076-5.427-9.214-8.27-12.827m-5.819-9.17c.765 7.102 1.135 17.516.809 22.387" style="fill:none;fill-rule:nonzero;stroke:#000;stroke-opacity:.08;stroke-width:.5px;stroke-linecap:round;stroke-linejoin:round;stroke-dasharray:1,1"/><path d="M112.375 4.817c-2.713 5.348-7.759 10.725-11.78 13.332" style="fill:none;fill-rule:nonzero;stroke:#000;stroke-opacity:.08;stroke-width:.5px;stroke-linecap:round;stroke-linejoin:round;stroke-dasharray:1,1"/><path d="M144.839 26.852c-2.136-4.076-5.427-9.214-8.27-12.827m-5.819-9.17c.765 7.102 1.135 17.516.809 22.387" style="fill:none;fill-rule:nonzero;stroke:#000;stroke-opacity:.04;stroke-width:.5px;stroke-linecap:round;stroke-linejoin:round;stroke-dasharray:1,1"/><path d="M143.375 4.817c-2.713 5.348-7.759 10.725-11.78 13.332M175.839 26.852c-2.136-4.076-5.427-9.214-8.27-12.827m-5.819-9.17c.765 7.102 1.135 17.516.809 22.387" style="fill:none;fill-rule:nonzero;stroke:#000;stroke-opacity:.04;stroke-width:.5px;stroke-linecap:round;stroke-linejoin:round;stroke-dasharray:1,1"/><path d="M174.375 4.817c-2.713 5.348-7.759 10.725-11.78 13.332" style="fill:none;fill-rule:nonzero;stroke:#000;stroke-opacity:.04;stroke-width:.5px;stroke-linecap:round;stroke-linejoin:round;stroke-dasharray:1,1"/><path d="M6.155 24.511q0-2.77-.36-9.356-.324-6.621-.576-8.384 0-.792.54-1.367.54-.612 1.223-.612.864 0 1.151 1.079.576 3.598.72 10.363 3.238-2.986 5.002-5.11 1.799-2.123 3.778-5.433.576-.972 1.691-.972.576 0 .936.324.396.288.396.72 0 1.152-2.051 3.994a84 84 0 0 1-4.282 5.469q3.022 3.023 5.182 6.981.288.504.756 1.259.468.756.72 1.187.684 1.188.684 2.015t-.432 1.367q-.396.504-1.008.504t-1.583-1.583a266 266 0 0 0-2.807-4.534q-1.799-2.95-3.814-5.182-2.015 1.943-3.023 2.699.108 2.303.108 3.85 0 1.511-.072 2.447-.216 2.339-1.907 2.339-1.044 0-.972-1.259v-2.807Z" style="fill-rule:nonzero"/><path d="m5.629 25.091-.833 1.571-.757-1.609c.388.407 1.183.426 1.59.038" style="fill:red;fill-opacity:.66;fill-rule:nonzero"/><path d="M4.327 6.756s.594 12.173.5 18.633" style="fill:none;fill-rule:nonzero;stroke:red;stroke-opacity:.66;stroke-width:.27px"/><path d="m11.26 13.112-1.683.562.56-1.684c0 .561.562 1.122 1.123 1.122" style="fill:red;fill-opacity:.66;fill-rule:nonzero"/><path d="M17.13 4.105c-1.89 3.116-4.108 6.045-6.656 8.671" style="fill:none;fill-rule:nonzero;stroke:red;stroke-opacity:.66;stroke-width:.26px"/><path d="M3.695 9.883h-.243V8.475q0-.122.003-.195l.008-.152q-.045.045-.082.076l-.093.079-.214.175-.13-.167.545-.423h.206zM14.402 6.756H13.07V6.55l.528-.533q.152-.153.257-.271t.158-.231a.6.6 0 0 0 .054-.251q0-.167-.099-.251a.37.37 0 0 0-.257-.087.6.6 0 0 0-.26.051 1.2 1.2 0 0 0-.226.141l-.133-.167q.118-.098.271-.167a.8.8 0 0 1 .347-.071q.282 0 .446.144a.49.49 0 0 1 .164.392.7.7 0 0 1-.065.296 1.2 1.2 0 0 1-.181.274 5 5 0 0 1-.271.285l-.421.415v.011h1.019z" style="fill:red;fill-rule:nonzero"/><path d="m17.796 25.452.166 1.767-1.513-.928c.547.127 1.22-.293 1.347-.839" style="fill:red;fill-opacity:.66;fill-rule:nonzero"/><path d="M11.907 18.339c1.636 1.716 3.745 5.158 5.384 7.802" style="fill:none;fill-rule:nonzero;stroke:red;stroke-opacity:.66;stroke-width:.26px"/><path d="M15.425 25.43a.46.46 0 0 1-.113.325.56.56 0 0 1-.305.158v.011q.243.029.361.152a.45.45 0 0 1 .119.325.6.6 0 0 1-.082.313.55.55 0 0 1-.254.212 1.1 1.1 0 0 1-.437.076q-.157 0-.294-.025a.9.9 0 0 1-.26-.085v-.231q.127.061.274.099.147.034.282.034.271 0 .389-.104a.37.37 0 0 0 .121-.294q0-.189-.15-.271a.84.84 0 0 0-.415-.085h-.195v-.212h.198q.249 0 .375-.104a.34.34 0 0 0 .13-.277.27.27 0 0 0-.099-.226.4.4 0 0 0-.268-.082.7.7 0 0 0-.279.048 1.5 1.5 0 0 0-.229.121l-.124-.169q.107-.084.265-.147.161-.062.364-.062.317 0 .468.141a.47.47 0 0 1 .155.358Z" style="fill:red;fill-rule:nonzero"/></svg>