<svg xmlns="http://www.w3.org/2000/svg" xml:space="preserve" style="fill-rule:evenodd;clip-rule:evenodd;stroke-linecap:round;stroke-linejoin:round" viewBox="0 0 185 42"><path d="M2.5 3.958h180v23.997H2.5z" style="fill:none;fill-rule:nonzero;stroke:#000;stroke-opacity:.66;stroke-width:.25px"/><path d="M2.5 12.956h180" style="fill:none;fill-rule:nonzero;stroke:#000;stroke-opacity:.3;stroke-width:.25px;stroke-linecap:butt;stroke-linejoin:miter;stroke-dasharray:.5,.5"/><path d="M50.572 4.795c-2.654 2.918-6.797 10.904-6.797 10.904s-.164 8.004.187 11.469m-.187-11.469c-1.589-3.07-4.13-7.338-6.026-11.042" style="fill:none;fill-rule:nonzero;stroke:#000;stroke-opacity:.32;stroke-width:.5px;stroke-dasharray:1,1"/><path d="M81.572 4.795c-2.654 2.918-6.797 10.904-6.797 10.904s-.164 8.004.187 11.469m-.187-11.469c-1.589-3.07-4.13-7.338-6.026-11.042" style="fill:none;fill-rule:nonzero;stroke:#000;stroke-opacity:.16;stroke-width:.5px;stroke-dasharray:1,1"/><path d="M112.572 4.795c-2.654 2.918-6.797 10.904-6.797 10.904s-.164 8.004.187 11.469m-.187-11.469c-1.589-3.07-4.13-7.338-6.026-11.042" style="fill:none;fill-rule:nonzero;stroke:#000;stroke-opacity:.08;stroke-width:.5px;stroke-dasharray:1,1"/><path d="M143.572 4.795c-2.654 2.918-6.797 10.904-6.797 10.904s-.164 8.004.187 11.469m-.187-11.469c-1.589-3.07-4.13-7.338-6.026-11.042M174.572 4.795c-2.654 2.918-6.797 10.904-6.797 10.904s-.164 8.004.187 11.469m-.187-11.469c-1.589-3.07-4.13-7.338-6.026-11.042" style="fill:none;fill-rule:nonzero;stroke:#000;stroke-opacity:.04;stroke-width:.5px;stroke-dasharray:1,1"/><path d="m10.706 19.784.036-1.835q0-.935-.612-1.835-.575-.9-2.843-5.218T5.02 6.038q0-.576.468-1.008.468-.468.9-.468.468 0 1.079.828.648.828 2.483 4.354 1.87 3.526 2.159 3.886 3.455-6.117 5.541-8.636.504-.468.792-.468.324 0 .468.072.864.36.864.972 0 .576-.288 1.008t-1.583 2.267a43 43 0 0 0-3.31 5.397q-1.367 2.699-1.367 3.31v6.585l.108 2.879q0 .792-.432 1.115-.432.288-1.079.288-.612 0-.828-.684t-.252-1.799q-.036-1.116-.036-3.274v-2.879Z" style="fill-rule:nonzero"/><path d="m15.248 25.159-.658 1.648-.924-1.516c.429.362 1.22.296 1.582-.133Z" style="fill:red;fill-opacity:.66;fill-rule:nonzero"/><path d="M21.295 5.19c-2.886 3.865-6.112 8.865-6.982 11.597-.001 1.235-.027 5.711.171 8.754" style="fill:none;fill-rule:nonzero;stroke:red;stroke-opacity:.66;stroke-width:.26px;stroke-linecap:butt;stroke-linejoin:miter"/><path d="M5.03 12.594h-.243v-1.408a5 5 0 0 1 .012-.347q-.045.046-.082.076l-.093.079-.214.175-.13-.167.545-.423h.206v2.015ZM19.795 12.692h-1.332v-.206l.528-.533q.152-.153.257-.271.104-.119.158-.231a.6.6 0 0 0 .054-.251q0-.167-.099-.251a.37.37 0 0 0-.257-.087.6.6 0 0 0-.26.051 1.2 1.2 0 0 0-.226.141l-.133-.167q.118-.098.271-.167a.8.8 0 0 1 .347-.071q.282 0 .446.144a.49.49 0 0 1 .164.392.7.7 0 0 1-.065.296 1.2 1.2 0 0 1-.181.274 5 5 0 0 1-.271.285l-.421.415v.011h1.019v.226Z" style="fill:red;fill-rule:nonzero"/><path d="m9.629 15.146.176 1.766-1.519-.919c.547.124 1.219-.3 1.342-.847Z" style="fill:red;fill-opacity:.66;fill-rule:nonzero"/><path d="M3.736 5.325c1.562 3.119 3.654 7.613 5.391 10.513" style="fill:none;fill-rule:nonzero;stroke:red;stroke-opacity:.66;stroke-width:.26px;stroke-linecap:butt;stroke-linejoin:miter"/></svg>