<?xml version="1.0" encoding="UTF-8" standalone="no"?><!DOCTYPE svg PUBLIC "-//W3C//DTD SVG 1.1//EN" "http://www.w3.org/Graphics/SVG/1.1/DTD/svg11.dtd"><svg width="100%" height="100%" viewBox="0 0 185 42" version="1.1" xmlns="http://www.w3.org/2000/svg" xmlns:xlink="http://www.w3.org/1999/xlink" xml:space="preserve" xmlns:serif="http://www.serif.com/" style="fill-rule:evenodd;clip-rule:evenodd;"><g><path id="path1018-7-4" d="M2.5,12.956l180,0" style="fill:none;fill-rule:nonzero;stroke:#000;stroke-opacity:0.3;stroke-width:0.25px;stroke-dasharray:0.5,0.5;"/><rect id="path4601-3" x="2.5" y="3.958" width="180" height="23.997" style="fill:none;fill-rule:nonzero;stroke:#000;stroke-opacity:0.66;stroke-width:0.25px;stroke-linecap:round;stroke-linejoin:round;"/><path id="path1809-5-92-1-1" d="M38.32,5.478c-1.325,10.277 -0.103,15.056 1.247,17.805c3.278,5.264 8.676,4.79 11.425,0.242c1.869,-3.989 2.19,-8.853 0.799,-18.418" style="fill:none;fill-rule:nonzero;stroke:#020000;stroke-opacity:0.32;stroke-width:0.5px;stroke-linecap:round;stroke-linejoin:round;stroke-dasharray:1,1;"/><path id="path1809-5-92-1-5-2" d="M69.32,5.478c-1.325,10.277 -0.103,15.056 1.247,17.805c3.278,5.264 8.676,4.79 11.425,0.242c1.869,-3.989 2.19,-8.853 0.799,-18.418" style="fill:none;fill-rule:nonzero;stroke:#020000;stroke-opacity:0.17;stroke-width:0.5px;stroke-linecap:round;stroke-linejoin:round;stroke-dasharray:1,1;"/><path id="path1809-5-92-1-5-6-7" d="M100.32,5.478c-1.325,10.277 -0.103,15.056 1.247,17.805c3.278,5.264 8.676,4.79 11.425,0.242c1.869,-3.989 2.19,-8.853 0.799,-18.418" style="fill:none;fill-rule:nonzero;stroke:#020000;stroke-opacity:0.08;stroke-width:0.5px;stroke-linecap:round;stroke-linejoin:round;stroke-dasharray:1,1;"/><path id="path1809-5-92-1-5-6-2-0" d="M131.32,5.478c-1.325,10.277 -0.103,15.056 1.247,17.805c3.278,5.264 8.676,4.79 11.425,0.242c1.869,-3.989 2.19,-8.853 0.799,-18.418" style="fill:none;fill-rule:nonzero;stroke:#020000;stroke-opacity:0.04;stroke-width:0.5px;stroke-linecap:round;stroke-linejoin:round;stroke-dasharray:1,1;"/><path id="path1809-5-92-1-5-6-2-9-9" d="M162.32,5.478c-1.325,10.277 -0.103,15.056 1.247,17.805c3.278,5.264 8.676,4.79 11.425,0.242c1.869,-3.989 2.19,-8.853 0.799,-18.418" style="fill:none;fill-rule:nonzero;stroke:#020000;stroke-opacity:0.04;stroke-width:0.5px;stroke-linecap:round;stroke-linejoin:round;stroke-dasharray:1,1;"/><g><path id="text833" d="M19.844,4.863c0.336,-0.384 0.708,-0.576 1.115,-0.576c0.408,0 0.756,0.204 1.044,0.612c0.408,2.087 0.612,4.426 0.612,7.017l0,2.735c0,2.063 -0.036,3.286 -0.108,3.67c-0.072,0.36 -0.144,0.768 -0.216,1.223c-0.072,0.456 -0.144,0.804 -0.216,1.044c-0.048,0.24 -0.132,0.564 -0.252,0.972c-0.264,0.888 -0.636,1.679 -1.115,2.375c-0.72,1.343 -1.667,2.399 -2.843,3.167c-1.175,0.768 -2.375,1.151 -3.598,1.151c-1.199,0 -2.447,-0.528 -3.742,-1.583c-1.271,-1.056 -2.315,-2.375 -3.131,-3.958c-1.247,-2.447 -1.871,-5.266 -1.871,-8.456c0,-1.127 0.168,-3.802 0.504,-8.024c0.168,-0.384 0.42,-0.72 0.756,-1.008c0.36,-0.312 0.72,-0.468 1.079,-0.468c0.528,0 0.852,0.36 0.972,1.079c-0.336,4.15 -0.504,6.777 -0.504,7.88c0,2.639 0.516,4.978 1.547,7.017c0.648,1.343 1.439,2.471 2.375,3.382c0.96,0.888 1.895,1.331 2.807,1.331c1.511,0 2.807,-1.175 3.886,-3.526c0.456,-0.816 0.708,-2.123 0.756,-3.922c0,-0.48 0.024,-0.816 0.072,-1.008l0.072,-4.75c0,-2.207 -0.168,-4.222 -0.504,-6.045c0,-0.504 0.168,-0.948 0.504,-1.331l-0,-0Z" style="fill-rule:nonzero;"/><path id="path2831" d="M22.55,6.647l0.594,-1.672l0.981,1.479c-0.442,-0.346 -1.23,-0.249 -1.576,0.194Z" style="fill:#f00;fill-opacity:0.66;fill-rule:nonzero;"/><path d="M4.95,5.272c-0.651,8.143 -0.169,12.199 0.558,14.621c1.622,5.409 5.617,8.769 8.953,8.706c4.392,-0.083 7.951,-4.167 8.821,-9.333c0.705,-4.186 0.515,-8.728 0.018,-13.031" style="fill:none;fill-rule:nonzero;stroke:#f00;stroke-opacity:0.66;stroke-width:0.26px;"/><path id="text1155" d="M5.178,24.703l-0.243,0l0,-1.408c0,-0.081 0.001,-0.146 0.003,-0.195c0.002,-0.049 0.005,-0.1 0.009,-0.152c-0.03,0.03 -0.057,0.056 -0.082,0.076c-0.024,0.021 -0.056,0.047 -0.093,0.079l-0.214,0.175l-0.13,-0.167l0.545,-0.423l0.206,0l-0,2.015Z" style="fill:#f00;fill-rule:nonzero;"/></g></g></svg>