<?xml version="1.0" encoding="UTF-8" standalone="no"?><!DOCTYPE svg PUBLIC "-//W3C//DTD SVG 1.1//EN" "http://www.w3.org/Graphics/SVG/1.1/DTD/svg11.dtd"><svg width="100%" height="100%" viewBox="0 0 185 42" version="1.1" xmlns="http://www.w3.org/2000/svg" xmlns:xlink="http://www.w3.org/1999/xlink" xml:space="preserve" xmlns:serif="http://www.serif.com/" style="fill-rule:evenodd;clip-rule:evenodd;"><g><path id="path1018-7-4" d="M2.5,12.956l180,0" style="fill:none;fill-rule:nonzero;stroke:#000;stroke-opacity:0.3;stroke-width:0.25px;stroke-dasharray:0.5,0.5;"/><rect id="path4601-3" x="2.5" y="3.958" width="180" height="23.997" style="fill:none;fill-rule:nonzero;stroke:#000;stroke-opacity:0.66;stroke-width:0.25px;stroke-linecap:round;stroke-linejoin:round;"/><path id="path1809-5-92-1-7" d="M37.75,5.424c3.84,8.517 7.999,17.382 8.938,21.78c0.996,-4.188 4.574,-17.704 6.606,-21.798" style="fill:none;fill-rule:nonzero;stroke:#000;stroke-opacity:0.32;stroke-width:0.5px;stroke-linecap:round;stroke-linejoin:round;stroke-dasharray:1,1;"/><path id="path1809-5-92-1-2-3" d="M68.75,5.424c3.84,8.517 7.999,17.382 8.938,21.78c0.996,-4.188 4.574,-17.704 6.606,-21.798" style="fill:none;fill-rule:nonzero;stroke:#000;stroke-opacity:0.16;stroke-width:0.5px;stroke-linecap:round;stroke-linejoin:round;stroke-dasharray:1,1;"/><path id="path1809-5-92-1-2-2-6" d="M99.75,5.424c3.84,8.517 7.999,17.382 8.938,21.78c0.996,-4.188 4.574,-17.704 6.606,-21.798" style="fill:none;fill-rule:nonzero;stroke:#000;stroke-opacity:0.08;stroke-width:0.5px;stroke-linecap:round;stroke-linejoin:round;stroke-dasharray:1,1;"/><path id="path1809-5-92-1-2-2-8-1" d="M130.75,5.424c3.84,8.517 7.999,17.382 8.938,21.78c0.996,-4.188 4.574,-17.704 6.606,-21.798" style="fill:none;fill-rule:nonzero;stroke:#000;stroke-opacity:0.04;stroke-width:0.5px;stroke-linecap:round;stroke-linejoin:round;stroke-dasharray:1,1;"/><path id="path1809-5-92-1-2-2-8-9-2" d="M161.75,5.424c3.84,8.517 7.999,17.382 8.938,21.78c0.996,-4.188 4.574,-17.704 6.606,-21.798" style="fill:none;fill-rule:nonzero;stroke:#000;stroke-opacity:0.04;stroke-width:0.5px;stroke-linecap:round;stroke-linejoin:round;stroke-dasharray:1,1;"/><g><path id="text833" d="M13.598,27.739c-0.984,-2.903 -2.003,-5.553 -3.059,-7.952c-1.056,-2.423 -2.411,-5.457 -4.066,-9.104c-0.576,-1.271 -0.936,-2.051 -1.079,-2.339c-0.144,-0.312 -0.216,-0.648 -0.216,-1.008c0,-0.384 0.18,-0.756 0.54,-1.115c0.384,-0.36 0.804,-0.54 1.259,-0.54c0.456,0 0.84,0.228 1.151,0.684l1.727,3.958c2.423,5.589 4.15,9.656 5.182,12.198l0.648,-2.519c0.528,-2.207 1.079,-4.39 1.655,-6.549c1.631,-5.901 3.238,-8.852 4.822,-8.852c0.288,0 0.528,0.084 0.72,0.252c0.216,0.168 0.324,0.396 0.324,0.684c0,0.288 -0.156,0.708 -0.468,1.259c-0.288,0.552 -0.66,1.547 -1.115,2.987c-0.456,1.439 -0.744,2.291 -0.864,2.555c-0.096,0.24 -0.672,2.255 -1.727,6.045c-1.032,3.79 -1.919,6.765 -2.663,8.924c-0.12,0.384 -0.348,0.708 -0.684,0.972c-0.336,0.24 -0.72,0.36 -1.151,0.36c-0.408,0 -0.72,-0.3 -0.936,-0.9Z" style="fill-rule:nonzero;"/><path id="path2831" d="M12.841,25.781l-0.253,1.757l-1.253,-1.257c0.502,0.252 1.255,0.002 1.507,-0.5Z" style="fill:#f00;fill-opacity:0.66;fill-rule:nonzero;"/><path d="M3.822,6.955c3.257,7.014 6.952,15.416 8.366,19.377" style="fill:none;fill-rule:nonzero;stroke:#f00;stroke-opacity:0.66;stroke-width:0.26px;"/><path id="text1155" d="M5.239,15.872l-0.243,0l0,-1.408c0,-0.081 0.001,-0.146 0.003,-0.195c0.002,-0.049 0.005,-0.1 0.009,-0.152c-0.03,0.03 -0.057,0.055 -0.082,0.076c-0.024,0.021 -0.056,0.047 -0.093,0.079l-0.214,0.175l-0.13,-0.167l0.545,-0.423l0.206,0l-0,2.015Z" style="fill:#f00;fill-rule:nonzero;"/><path id="path2831-7" d="M22.886,6.77l1.381,-1.115l0.063,1.774c-0.196,-0.526 -0.918,-0.855 -1.444,-0.659Z" style="fill:#f00;fill-opacity:0.66;fill-rule:nonzero;"/><path d="M17.521,27.349c1.946,-7.108 4.509,-16.415 6.218,-20.538" style="fill:none;fill-rule:nonzero;stroke:#f00;stroke-opacity:0.66;stroke-width:0.26px;"/><path id="text1159-1-5" d="M24.054,14.606l-1.332,0l0,-0.206l0.528,-0.533c0.102,-0.102 0.187,-0.192 0.257,-0.271c0.07,-0.079 0.122,-0.156 0.158,-0.231c0.036,-0.077 0.054,-0.161 0.054,-0.251c0,-0.111 -0.033,-0.195 -0.099,-0.251c-0.066,-0.058 -0.151,-0.087 -0.257,-0.087c-0.098,0 -0.184,0.017 -0.26,0.051c-0.073,0.034 -0.149,0.081 -0.226,0.141l-0.133,-0.167c0.079,-0.066 0.169,-0.121 0.271,-0.167c0.103,-0.047 0.219,-0.071 0.347,-0.071c0.188,0 0.337,0.048 0.446,0.144c0.109,0.094 0.164,0.225 0.164,0.392c0,0.105 -0.022,0.204 -0.065,0.296c-0.043,0.092 -0.103,0.183 -0.181,0.274c-0.077,0.088 -0.167,0.183 -0.271,0.285l-0.421,0.415l0,0.011l1.019,0l0,0.226Z" style="fill:#f00;fill-rule:nonzero;"/></g></g></svg>