<svg xmlns="http://www.w3.org/2000/svg" xml:space="preserve" style="fill-rule:evenodd;clip-rule:evenodd" viewBox="0 0 185 42"><path d="M2.5 13.005h180" style="fill:none;fill-rule:nonzero;stroke:#000;stroke-opacity:.3;stroke-width:.25px;stroke-dasharray:.5,.5"/><path d="M2.5 4.006h180v23.997H2.5z" style="fill:none;fill-rule:nonzero;stroke:#000;stroke-opacity:.66;stroke-width:.25px;stroke-linecap:round;stroke-linejoin:round"/><path d="M52.733 5.228c-3.597.253-11.721.176-15.233-.092m7.915.677c-.425 5.364-.402 17.125.039 21.672" style="fill:none;fill-rule:nonzero;stroke:#000;stroke-opacity:.32;stroke-width:.5px;stroke-linecap:round;stroke-linejoin:round;stroke-dasharray:1,1"/><path d="M83.733 5.228c-3.597.253-11.721.176-15.233-.092m7.915.677c-.425 5.364-.402 17.125.039 21.672" style="fill:none;fill-rule:nonzero;stroke:#000;stroke-opacity:.16;stroke-width:.5px;stroke-linecap:round;stroke-linejoin:round;stroke-dasharray:1,1"/><path d="M114.733 5.228c-3.597.253-11.721.176-15.233-.092m7.915.677c-.425 5.364-.402 17.125.039 21.672" style="fill:none;fill-rule:nonzero;stroke:#000;stroke-opacity:.08;stroke-width:.5px;stroke-linecap:round;stroke-linejoin:round;stroke-dasharray:1,1"/><path d="M145.733 5.228c-3.597.253-11.721.176-15.233-.092m7.915.677c-.425 5.364-.402 17.125.039 21.672M176.733 5.228c-3.597.253-11.721.176-15.233-.092m7.915.677c-.425 5.364-.402 17.125.039 21.672" style="fill:none;fill-rule:nonzero;stroke:#000;stroke-opacity:.04;stroke-width:.5px;stroke-linecap:round;stroke-linejoin:round;stroke-dasharray:1,1"/><path d="M6.827 5.191 21.4 4.975q1.044.324 1.044 1.044 0 1.799-1.475 1.799a121 121 0 0 0-5.721.144q-.18 3.094-.18 4.678v1.979l.144 12.63q0 1.116-.576 1.295-.432.144-1.079.144-1.043 0-1.151-1.187-.216-2.771-.216-10.327 0-7.593.216-9.14-.756.036-2.231.036-1.476 0-3.67-.036-.576 0-.9-.36a1.25 1.25 0 0 1-.324-.864q0-.54.432-1.044a1.75 1.75 0 0 1 1.115-.576Z" style="fill-rule:nonzero"/><path d="m11.837 25.614-.718 1.626-.87-1.55c.416.378 1.21.34 1.588-.076" style="fill:red;fill-opacity:.66;fill-rule:nonzero"/><path d="M10.99 8.294c-.086 5.594-.16 12.279.068 17.675" style="fill:none;fill-rule:nonzero;stroke:red;stroke-opacity:.66;stroke-width:.27px"/><path d="m19.716 2.529 1.623.718-1.548.868c.378-.415.34-1.208-.075-1.586" style="fill:red;fill-opacity:.66;fill-rule:nonzero"/><path d="M6.196 3.436c3.311-.014 9.503.044 13.874-.129" style="fill:none;fill-rule:nonzero;stroke:red;stroke-opacity:.66;stroke-width:.26px"/><path d="M9.276 13.356h-.243v-1.408a5 5 0 0 1 .012-.347q-.045.046-.082.076l-.093.079-.214.175-.13-.167.545-.423h.206zM9.498 2.375H8.166v-.206l.528-.533q.152-.153.257-.271.104-.119.158-.231a.6.6 0 0 0 .054-.251q0-.167-.099-.251a.37.37 0 0 0-.257-.087.6.6 0 0 0-.26.051 1.2 1.2 0 0 0-.226.141L8.188.57q.118-.098.271-.167a.8.8 0 0 1 .347-.071q.282 0 .446.144a.49.49 0 0 1 .164.392.7.7 0 0 1-.065.296 1.2 1.2 0 0 1-.181.274 5 5 0 0 1-.271.285l-.421.415v.011h1.019z" style="fill:red;fill-rule:nonzero"/></svg>