<?xml version="1.0" encoding="UTF-8" standalone="no"?><!DOCTYPE svg PUBLIC "-//W3C//DTD SVG 1.1//EN" "http://www.w3.org/Graphics/SVG/1.1/DTD/svg11.dtd"><svg width="100%" height="100%" viewBox="0 0 185 42" version="1.1" xmlns="http://www.w3.org/2000/svg" xmlns:xlink="http://www.w3.org/1999/xlink" xml:space="preserve" xmlns:serif="http://www.serif.com/" style="fill-rule:evenodd;clip-rule:evenodd;"><g><path id="path1018-7-4" d="M2.5,13.005l180,0" style="fill:none;fill-rule:nonzero;stroke:#000;stroke-opacity:0.3;stroke-width:0.25px;stroke-dasharray:0.5,0.5;"/><rect id="path4601-3" x="2.5" y="4.006" width="180" height="23.997" style="fill:none;fill-rule:nonzero;stroke:#000;stroke-opacity:0.66;stroke-width:0.25px;stroke-linecap:round;stroke-linejoin:round;"/><path id="path1809-3-5-6" d="M37.858,15.551c8.615,1.617 10.403,-0.206 10.741,-4.169c0.482,-5.646 -3.792,-8.003 -10.849,-5.825l0.229,21.665" style="fill:none;fill-rule:nonzero;stroke:#000;stroke-opacity:0.32;stroke-width:0.5px;stroke-linecap:round;stroke-linejoin:round;stroke-dasharray:1,1;"/><path id="path1809-3-5-8-1" d="M68.858,15.551c8.615,1.617 10.403,-0.206 10.741,-4.169c0.482,-5.646 -3.792,-8.003 -10.849,-5.825l0.229,21.665" style="fill:none;fill-rule:nonzero;stroke:#000;stroke-opacity:0.16;stroke-width:0.5px;stroke-linecap:round;stroke-linejoin:round;stroke-dasharray:1,1;"/><path id="path1809-3-5-8-4-0" d="M99.858,15.551c8.615,1.617 10.403,-0.206 10.741,-4.169c0.482,-5.646 -3.792,-8.003 -10.849,-5.825l0.229,21.665" style="fill:none;fill-rule:nonzero;stroke:#000;stroke-opacity:0.08;stroke-width:0.5px;stroke-linecap:round;stroke-linejoin:round;stroke-dasharray:1,1;"/><path id="path1809-3-5-8-4-5-6" d="M130.858,15.551c8.615,1.617 10.403,-0.206 10.741,-4.169c0.482,-5.646 -3.792,-8.003 -10.849,-5.825l0.229,21.665" style="fill:none;fill-rule:nonzero;stroke:#000;stroke-opacity:0.04;stroke-width:0.5px;stroke-linecap:round;stroke-linejoin:round;stroke-dasharray:1,1;"/><path id="path1809-3-5-8-4-5-3-3" d="M161.858,15.551c8.615,1.617 10.403,-0.206 10.741,-4.169c0.482,-5.646 -3.792,-8.003 -10.849,-5.825l0.229,21.665" style="fill:none;fill-rule:nonzero;stroke:#000;stroke-opacity:0.04;stroke-width:0.5px;stroke-linecap:round;stroke-linejoin:round;stroke-dasharray:1,1;"/><g><path id="text833" d="M5.914,24.929c-0.168,-2.471 -0.252,-5.805 -0.252,-10.003c0,-4.222 0.06,-6.957 0.18,-8.204c0.12,-0.768 0.648,-1.271 1.583,-1.511c0.936,-0.264 2.171,-0.396 3.706,-0.396c2.255,0 4.15,0.492 5.685,1.475c1.559,0.96 2.339,2.387 2.339,4.282c0,1.559 -0.216,2.867 -0.648,3.922c-0.432,1.032 -0.972,1.799 -1.619,2.303c-1.056,0.816 -2.615,1.223 -4.678,1.223c-0.888,0 -2.051,-0.12 -3.49,-0.36c0.12,4.798 0.168,7.82 0.144,9.068c-0.024,1.247 -0.444,1.871 -1.259,1.871c-0.528,0 -0.864,-0.096 -1.008,-0.288c-0.144,-0.192 -0.24,-0.324 -0.288,-0.396c-0.048,-0.096 -0.096,-0.228 -0.144,-0.396c-0.048,-0.168 -0.084,-0.3 -0.108,-0.396c-0.024,-0.12 -0.048,-0.288 -0.072,-0.504c0,-0.216 -0.012,-0.384 -0.036,-0.504c-0.024,-0.36 -0.036,-0.756 -0.036,-1.187l-0,0Zm10.255,-14.249c0,-0.984 -0.528,-1.751 -1.583,-2.303c-1.056,-0.576 -2.183,-0.864 -3.382,-0.864c-1.199,0 -2.039,0.108 -2.519,0.324c-0.096,1.415 -0.144,2.723 -0.144,3.922c0,1.175 0.048,2.243 0.144,3.203c0.648,0.072 1.091,0.132 1.331,0.18c0.624,0.072 1.151,0.108 1.583,0.108l0.9,0c0.168,-0.024 0.468,-0.06 0.9,-0.108c0.456,-0.072 0.78,-0.18 0.972,-0.324c0.192,-0.144 0.432,-0.336 0.72,-0.576c0.288,-0.24 0.492,-0.516 0.612,-0.828c0.312,-0.864 0.468,-1.775 0.468,-2.735Z" style="fill-rule:nonzero;"/><path id="path1883" d="M11.23,19.61l-1.513,-0.933l1.654,-0.651c-0.431,0.361 -0.502,1.152 -0.141,1.584Z" style="fill:#f00;fill-opacity:0.66;fill-rule:nonzero;"/><path d="M7.098,3.533c5.649,-0.777 14.119,-0.366 12.909,7.728c-0.891,5.961 -3.444,7.884 -9.023,7.529" style="fill:none;fill-rule:nonzero;stroke:#f00;stroke-opacity:0.66;stroke-width:0.27px;"/><path id="text1155" d="M3.812,8.897l-0.243,0l0,-1.408c0,-0.081 0.001,-0.146 0.003,-0.195c0.002,-0.049 0.005,-0.1 0.008,-0.152c-0.03,0.03 -0.057,0.055 -0.082,0.076c-0.024,0.021 -0.056,0.047 -0.093,0.079l-0.214,0.175l-0.13,-0.167l0.545,-0.423l0.206,0l-0,2.015Z" style="fill:#f00;fill-rule:nonzero;"/><path id="path1883-0" d="M5.601,25.504l-0.689,1.639l-0.898,-1.534c0.423,0.371 1.216,0.318 1.587,-0.104Z" style="fill:#f00;fill-opacity:0.66;fill-rule:nonzero;"/><path d="M4.684,5.514c-0.253,3.208 -0.089,15.721 0.145,20.359" style="fill:none;fill-rule:nonzero;stroke:#f00;stroke-opacity:0.66;stroke-width:0.27px;"/><path id="text1155-2" d="M15.109,2.608l-1.332,0l0,-0.206l0.528,-0.533c0.102,-0.102 0.187,-0.192 0.257,-0.271c0.07,-0.079 0.122,-0.156 0.158,-0.231c0.036,-0.077 0.054,-0.161 0.054,-0.251c0,-0.111 -0.033,-0.195 -0.099,-0.251c-0.066,-0.058 -0.151,-0.087 -0.257,-0.087c-0.098,0 -0.184,0.017 -0.26,0.051c-0.073,0.034 -0.149,0.081 -0.226,0.141l-0.133,-0.167c0.079,-0.066 0.169,-0.121 0.271,-0.167c0.103,-0.047 0.219,-0.071 0.347,-0.071c0.188,0 0.337,0.048 0.446,0.144c0.109,0.094 0.164,0.225 0.164,0.392c0,0.105 -0.022,0.204 -0.065,0.296c-0.043,0.092 -0.103,0.183 -0.181,0.274c-0.077,0.088 -0.167,0.183 -0.271,0.285l-0.421,0.415l0,0.011l1.019,0l0,0.226Z" style="fill:#f00;fill-rule:nonzero;"/></g></g></svg>