<?xml version="1.0" encoding="UTF-8" standalone="no"?><!DOCTYPE svg PUBLIC "-//W3C//DTD SVG 1.1//EN" "http://www.w3.org/Graphics/SVG/1.1/DTD/svg11.dtd"><svg width="100%" height="100%" viewBox="0 0 185 42" version="1.1" xmlns="http://www.w3.org/2000/svg" xmlns:xlink="http://www.w3.org/1999/xlink" xml:space="preserve" xmlns:serif="http://www.serif.com/" style="fill-rule:evenodd;clip-rule:evenodd;"><g><path id="path1018-7-4" d="M2.5,12.956l180,0" style="fill:none;fill-rule:nonzero;stroke:#000;stroke-opacity:0.3;stroke-width:0.25px;stroke-dasharray:0.5,0.5;"/><rect id="path4601-3" x="2.5" y="3.958" width="180" height="23.997" style="fill:none;fill-rule:nonzero;stroke:#000;stroke-opacity:0.66;stroke-width:0.25px;stroke-linecap:round;stroke-linejoin:round;"/><path id="path1809-5-92-3" d="M45.48,4.907c0.383,5.137 1.359,13.498 0.651,17.758c-1.259,7.576 -8.518,4.309 -8.379,-1.569" style="fill:none;fill-rule:nonzero;stroke:#000;stroke-opacity:0.32;stroke-width:0.5px;stroke-linecap:round;stroke-linejoin:round;stroke-dasharray:1,1;"/><path id="path1809-5-92-2-1" d="M76.48,4.907c0.383,5.137 1.359,13.498 0.651,17.758c-1.259,7.576 -8.518,4.309 -8.379,-1.569" style="fill:none;fill-rule:nonzero;stroke:#000;stroke-opacity:0.16;stroke-width:0.5px;stroke-linecap:round;stroke-linejoin:round;stroke-dasharray:1,1;"/><path id="path1809-5-92-2-7-8" d="M107.48,4.907c0.383,5.137 1.359,13.498 0.651,17.758c-1.259,7.576 -8.518,4.309 -8.379,-1.569" style="fill:none;fill-rule:nonzero;stroke:#000;stroke-opacity:0.08;stroke-width:0.5px;stroke-linecap:round;stroke-linejoin:round;stroke-dasharray:1,1;"/><path id="path1809-5-92-2-7-3-5" d="M138.48,4.907c0.383,5.137 1.359,13.498 0.651,17.758c-1.259,7.576 -8.518,4.309 -8.379,-1.569" style="fill:none;fill-rule:nonzero;stroke:#000;stroke-opacity:0.04;stroke-width:0.5px;stroke-linecap:round;stroke-linejoin:round;stroke-dasharray:1,1;"/><path id="path1809-5-92-2-7-3-2-9" d="M169.48,4.907c0.383,5.137 1.359,13.498 0.651,17.758c-1.259,7.576 -8.518,4.309 -8.379,-1.569" style="fill:none;fill-rule:nonzero;stroke:#000;stroke-opacity:0.04;stroke-width:0.5px;stroke-linecap:round;stroke-linejoin:round;stroke-dasharray:1,1;"/><g><path id="text833" d="M14,5.771c0,-0.264 0.192,-0.528 0.576,-0.792c0.384,-0.264 0.756,-0.396 1.115,-0.396c0.384,0 0.672,0.084 0.864,0.252c0.216,0.168 0.336,0.372 0.36,0.612c0.504,6.477 0.756,10.579 0.756,12.306c0,1.703 -0.024,2.987 -0.072,3.85c-0.048,0.864 -0.168,1.799 -0.36,2.807c-0.192,0.984 -0.468,1.763 -0.828,2.339c-0.792,1.343 -2.063,2.015 -3.814,2.015c-1.751,0 -3.179,-0.576 -4.282,-1.727c-1.103,-1.175 -1.655,-2.855 -1.655,-5.038c0,-0.36 0.18,-0.684 0.54,-0.972c0.384,-0.312 0.792,-0.468 1.223,-0.468c0.528,0 0.852,0.492 0.972,1.475c0.312,2.783 1.355,4.174 3.131,4.174c0.456,0 0.84,-0.144 1.151,-0.432c0.336,-0.312 0.588,-0.672 0.756,-1.079c0.168,-0.432 0.3,-0.996 0.396,-1.691c0.144,-1.008 0.216,-2.207 0.216,-3.598c0,-1.415 -0.18,-3.982 -0.54,-7.7c-0.336,-3.718 -0.504,-5.697 -0.504,-5.937l0,-0Z" style="fill-rule:nonzero;"/><path id="path1883" d="M5.205,23.912l0.561,-1.687l1.013,1.461c-0.45,-0.337 -1.237,-0.224 -1.574,0.226Z" style="fill:#f00;fill-opacity:0.66;fill-rule:nonzero;"/><path d="M17.979,4.772c1.233,18.86 1.019,23.224 -4.541,24.253c-2.873,0.532 -6.543,-0.895 -7.491,-5.541" style="fill:none;fill-rule:nonzero;stroke:#f00;stroke-opacity:0.66;stroke-width:0.27px;"/><path id="text1155" d="M20.061,9.373l-0.243,0l0,-1.408c0,-0.081 0.001,-0.146 0.003,-0.195c0.002,-0.049 0.005,-0.1 0.008,-0.152c-0.03,0.03 -0.057,0.056 -0.082,0.076c-0.024,0.021 -0.056,0.047 -0.093,0.079l-0.214,0.175l-0.13,-0.167l0.545,-0.423l0.206,0l-0,2.015Z" style="fill:#f00;fill-rule:nonzero;"/></g></g></svg>