<svg xmlns="http://www.w3.org/2000/svg" xml:space="preserve" style="fill-rule:evenodd;clip-rule:evenodd" viewBox="0 0 185 42"><path d="M6.084 16.137q-.504-.324-.504-.936t.396-1.115q-.144-3.599-.144-7.592.216-.864.648-1.259.468-.396 1.331-.504 4.75.216 10.291.216 1.367.288 1.367 1.187 0 1.511-2.951 1.763a38 38 0 0 1-1.727.036h-2.339q-.684 0-3.778-.288 0 4.499.144 6.189 1.906.036 7.341.036 1.296.252 1.295 1.187 0 .9-1.044 1.403-.108.072-.396.144l-6.225-.108q-.576 0-.936.072l.144 6.189q0 2.087-.108 2.987l8.348-.108q1.151.18 1.151.972 0 .54-.504 1.079-.468.54-1.115.684l-9.212.144q-.828 0-1.151-.288-.324-.324-.324-1.044.144-1.008.144-3.238v-2.519l-.144-5.29Z" style="fill-rule:nonzero"/><path d="M13.401 31.267h-.294v.457h-.24v-.457h-.965v-.212l.948-1.357h.257v1.346h.294zm-.533-.858q0-.147.006-.248l.009-.198h-.011a2 2 0 0 1-.056.116 1 1 0 0 1-.065.104l-.604.861h.722v-.635Z" style="fill:red;fill-rule:nonzero"/><path d="m5.674 25.129-.878 1.546-.71-1.63c.376.418 1.17.46 1.588.084" style="fill:red;fill-opacity:.66;fill-rule:nonzero"/><path d="M4.522 4.926c.011 5.082.56 14.796.341 20.479" style="fill:none;fill-rule:nonzero;stroke:red;stroke-opacity:.66;stroke-width:.27px"/><path d="m16.468 2.355 1.626.712-1.545.874c.376-.417.336-1.209-.081-1.585Z" style="fill:red;fill-opacity:.66;fill-rule:nonzero"/><path d="M6.739 2.895c2.142.107 6.457.368 10.087.236" style="fill:none;fill-rule:nonzero;stroke:red;stroke-opacity:.66;stroke-width:.26px"/><path d="M3.837 9.658h-.243V8.25q0-.122.003-.195l.008-.152q-.045.046-.082.076l-.093.079-.214.175-.13-.167.545-.423h.206zM10.971 2.139H9.639v-.206l.528-.533q.152-.153.257-.271.104-.119.158-.231a.6.6 0 0 0 .054-.251q0-.167-.099-.251a.37.37 0 0 0-.257-.087.6.6 0 0 0-.26.051 1.2 1.2 0 0 0-.226.141L9.661.334q.118-.098.271-.167a.8.8 0 0 1 .347-.071q.282 0 .446.144a.49.49 0 0 1 .164.392.7.7 0 0 1-.065.296 1.2 1.2 0 0 1-.181.274 5 5 0 0 1-.271.285l-.421.415v.011h1.019v.226Z" style="fill:red;fill-rule:nonzero"/><path d="m15.09 16.225 1.547.87-1.624.715c.416-.377.455-1.17.078-1.586Z" style="fill:red;fill-opacity:.66;fill-rule:nonzero"/><path d="M10.008 17.006s2.568-.08 5.361.028" style="fill:none;fill-rule:nonzero;stroke:red;stroke-opacity:.66;stroke-width:.26px"/><path d="m15.837 28.111 1.616.734-1.557.852c.382-.411.352-1.205-.059-1.586" style="fill:red;fill-opacity:.66;fill-rule:nonzero"/><path d="M7.068 28.995c2.554-.01 5.458.02 9.116-.102" style="fill:none;fill-rule:nonzero;stroke:red;stroke-opacity:.66;stroke-width:.26px"/><path d="M13.73 18.147a.46.46 0 0 1-.113.325.56.56 0 0 1-.305.158v.011q.243.029.361.152a.45.45 0 0 1 .119.325.6.6 0 0 1-.082.313.55.55 0 0 1-.254.212 1.1 1.1 0 0 1-.437.076q-.157 0-.294-.025a.9.9 0 0 1-.26-.085v-.231q.127.061.274.099.147.034.282.034.271 0 .389-.104a.37.37 0 0 0 .121-.294q0-.189-.15-.271a.84.84 0 0 0-.415-.085h-.195v-.212h.198q.249 0 .375-.104a.34.34 0 0 0 .13-.277.27.27 0 0 0-.099-.226.4.4 0 0 0-.268-.082.7.7 0 0 0-.279.048 1.5 1.5 0 0 0-.229.121l-.124-.169q.107-.084.265-.147.161-.062.364-.062.317 0 .468.141a.47.47 0 0 1 .155.358Z" style="fill:red;fill-rule:nonzero"/><path d="M2.5 12.956h180" style="fill:none;fill-rule:nonzero;stroke:#000;stroke-opacity:.3;stroke-width:.25px;stroke-dasharray:.5,.5"/><path d="M2.5 3.958h180v23.997H2.5z" style="fill:none;fill-rule:nonzero;stroke:#000;stroke-opacity:.66;stroke-width:.25px;stroke-linecap:round;stroke-linejoin:round"/><path d="M48.831 5.387c-3.107.186-11.131-.289-11.131-.289.227 3.118.629 20.352.376 21.906 1.689-.1 8.555-.069 10.943-.089" style="fill:none;fill-rule:nonzero;stroke:#000;stroke-opacity:.32;stroke-width:.5px;stroke-linecap:round;stroke-linejoin:round;stroke-dasharray:1,1"/><path d="M47.086 14.577c-2.239-.047-7.554-.112-9.084-.011" style="fill:none;fill-rule:nonzero;stroke:#000;stroke-opacity:.32;stroke-width:.5px;stroke-linecap:round;stroke-linejoin:round;stroke-dasharray:1,1"/><path d="M79.831 5.387c-3.107.186-11.131-.289-11.131-.289.227 3.118.629 20.352.376 21.906 1.689-.1 8.555-.069 10.943-.089" style="fill:none;fill-rule:nonzero;stroke:#000;stroke-opacity:.16;stroke-width:.5px;stroke-linecap:round;stroke-linejoin:round;stroke-dasharray:1,1"/><path d="M78.086 14.577c-2.239-.047-7.554-.112-9.084-.011" style="fill:none;fill-rule:nonzero;stroke:#000;stroke-opacity:.16;stroke-width:.5px;stroke-linecap:round;stroke-linejoin:round;stroke-dasharray:1,1"/><path d="M110.831 5.387c-3.107.186-11.131-.289-11.131-.289.227 3.118.629 20.352.376 21.906 1.689-.1 8.555-.069 10.943-.089" style="fill:none;fill-rule:nonzero;stroke:#000;stroke-opacity:.08;stroke-width:.5px;stroke-linecap:round;stroke-linejoin:round;stroke-dasharray:1,1"/><path d="M109.086 14.577c-2.239-.047-7.554-.112-9.084-.011" style="fill:none;fill-rule:nonzero;stroke:#000;stroke-opacity:.08;stroke-width:.5px;stroke-linecap:round;stroke-linejoin:round;stroke-dasharray:1,1"/><path d="M141.831 5.387c-3.107.186-11.131-.289-11.131-.289.227 3.118.629 20.352.376 21.906 1.689-.1 8.555-.069 10.943-.089" style="fill:none;fill-rule:nonzero;stroke:#000;stroke-opacity:.04;stroke-width:.5px;stroke-linecap:round;stroke-linejoin:round;stroke-dasharray:1,1"/><path d="M140.086 14.577c-2.239-.047-7.554-.112-9.084-.011M172.831 5.387c-3.107.186-11.131-.289-11.131-.289.227 3.118.629 20.352.376 21.906 1.689-.1 8.555-.069 10.943-.089" style="fill:none;fill-rule:nonzero;stroke:#000;stroke-opacity:.04;stroke-width:.5px;stroke-linecap:round;stroke-linejoin:round;stroke-dasharray:1,1"/><path d="M171.086 14.577c-2.239-.047-7.554-.112-9.084-.011" style="fill:none;fill-rule:nonzero;stroke:#000;stroke-opacity:.04;stroke-width:.5px;stroke-linecap:round;stroke-linejoin:round;stroke-dasharray:1,1"/></svg>