<svg xmlns="http://www.w3.org/2000/svg" xml:space="preserve" style="fill-rule:evenodd;clip-rule:evenodd" viewBox="0 0 185 42"><path d="M2.5 13.005h180" style="fill:none;fill-rule:nonzero;stroke:#000;stroke-opacity:.3;stroke-width:.25px;stroke-dasharray:.5,.5"/><path d="M2.5 4.006h180v23.997H2.5z" style="fill:none;fill-rule:nonzero;stroke:#000;stroke-opacity:.66;stroke-width:.25px;stroke-linecap:round;stroke-linejoin:round"/><path d="M37.895 5.555c.163 6.793.512 15.175-.174 21.293" style="fill:none;fill-rule:nonzero;stroke:#000;stroke-opacity:.32;stroke-width:.5px;stroke-linecap:round;stroke-linejoin:round;stroke-dasharray:1,1"/><path d="M68.895 5.555c.163 6.793.512 15.175-.174 21.293" style="fill:none;fill-rule:nonzero;stroke:#000;stroke-opacity:.16;stroke-width:.5px;stroke-linecap:round;stroke-linejoin:round;stroke-dasharray:1,1"/><path d="M99.895 5.555c.163 6.793.512 15.175-.174 21.293" style="fill:none;fill-rule:nonzero;stroke:#000;stroke-opacity:.08;stroke-width:.5px;stroke-linecap:round;stroke-linejoin:round;stroke-dasharray:1,1"/><path d="M130.894 5.555c.163 6.793.512 15.175-.174 21.293M161.894 5.555c.163 6.793.512 15.175-.174 21.293" style="fill:none;fill-rule:nonzero;stroke:#000;stroke-opacity:.04;stroke-width:.5px;stroke-linecap:round;stroke-linejoin:round;stroke-dasharray:1,1"/><path d="M8.841 5.722q.576-.36 1.295-.36.72 0 .9.828.036 4.174.144 12.486 0 5.073-.288 8.6-.072.54-.684.972-.576.396-1.187.396-1.008 0-1.008-1.044.36-3.599.36-8.924l-.216-12.09q.144-.504.684-.864" style="fill-rule:nonzero"/><path d="m7.574 25.398-.89 1.539-.697-1.635c.373.421 1.166.469 1.587.097Z" style="fill:red;fill-opacity:.66;fill-rule:nonzero"/><path d="M6.619 5.788c.2 6.356.432 14.253.142 19.878" style="fill:none;fill-rule:nonzero;stroke:red;stroke-opacity:.66;stroke-width:.27px"/><path d="M5.307 10.869h-.243V9.461a5 5 0 0 1 .012-.347q-.045.045-.082.076l-.093.079-.214.175-.13-.167.545-.423h.206v2.015Z" style="fill:red;fill-rule:nonzero"/></svg>