<?xml version="1.0" encoding="UTF-8" standalone="no"?><!DOCTYPE svg PUBLIC "-//W3C//DTD SVG 1.1//EN" "http://www.w3.org/Graphics/SVG/1.1/DTD/svg11.dtd"><svg width="100%" height="100%" viewBox="0 0 185 42" version="1.1" xmlns="http://www.w3.org/2000/svg" xmlns:xlink="http://www.w3.org/1999/xlink" xml:space="preserve" xmlns:serif="http://www.serif.com/" style="fill-rule:evenodd;clip-rule:evenodd;"><g><path id="path1018-7-4-8-4-9-7" d="M2.5,12.956l180,0" style="fill:none;fill-rule:nonzero;stroke:#000;stroke-opacity:0.3;stroke-width:0.25px;stroke-dasharray:0.5,0.5;"/><rect id="path4601-3-6-3-2-1" x="2.5" y="3.958" width="180" height="23.997" style="fill:none;fill-rule:nonzero;stroke:#000;stroke-opacity:0.66;stroke-width:0.25px;stroke-linecap:round;stroke-linejoin:round;"/><path id="path5452-7-9" d="M37.818,20.734c3.885,0.306 10.726,1.13 9.359,-4.094c-0.492,-1.88 -2.88,-3.313 -4.969,-3.116c-6.283,0.593 -5.389,13.146 -0.685,13.865c3.673,0.562 5.916,-2.089 5.916,-2.089" style="fill:none;fill-rule:nonzero;stroke:#000;stroke-opacity:0.32;stroke-width:0.5px;stroke-linecap:round;stroke-linejoin:round;stroke-dasharray:1,1;"/><path id="path5452-7-3-1" d="M68.818,20.734c3.885,0.306 10.726,1.13 9.359,-4.094c-0.492,-1.88 -2.88,-3.313 -4.969,-3.116c-6.283,0.593 -5.389,13.146 -0.685,13.865c3.673,0.562 5.916,-2.089 5.916,-2.089" style="fill:none;fill-rule:nonzero;stroke:#000;stroke-opacity:0.16;stroke-width:0.5px;stroke-linecap:round;stroke-linejoin:round;stroke-dasharray:1,1;"/><path id="path5452-7-3-4-9" d="M99.818,20.734c3.885,0.306 10.726,1.13 9.359,-4.094c-0.492,-1.88 -2.88,-3.313 -4.969,-3.116c-6.283,0.593 -5.389,13.146 -0.685,13.865c3.673,0.562 5.916,-2.089 5.916,-2.089" style="fill:none;fill-rule:nonzero;stroke:#000;stroke-opacity:0.08;stroke-width:0.5px;stroke-linecap:round;stroke-linejoin:round;stroke-dasharray:1,1;"/><path id="path5452-7-3-4-0-6" d="M130.818,20.734c3.885,0.306 10.726,1.13 9.359,-4.094c-0.492,-1.88 -2.88,-3.313 -4.969,-3.116c-6.283,0.593 -5.389,13.146 -0.685,13.865c3.673,0.562 5.916,-2.089 5.916,-2.089" style="fill:none;fill-rule:nonzero;stroke:#000;stroke-opacity:0.04;stroke-width:0.5px;stroke-linecap:round;stroke-linejoin:round;stroke-dasharray:1,1;"/><path id="path5452-7-3-4-0-3-9" d="M161.818,20.734c3.885,0.306 10.726,1.13 9.359,-4.094c-0.492,-1.88 -2.88,-3.313 -4.969,-3.116c-6.283,0.593 -5.389,13.146 -0.685,13.865c3.673,0.562 5.916,-2.089 5.916,-2.089" style="fill:none;fill-rule:nonzero;stroke:#000;stroke-opacity:0.04;stroke-width:0.5px;stroke-linecap:round;stroke-linejoin:round;stroke-dasharray:1,1;"/><g><path id="text833" d="M11.139,12.654c1.271,0 2.483,0.372 3.634,1.115c1.151,0.744 1.727,1.667 1.727,2.771c0,1.079 -0.468,2.135 -1.403,3.167c-0.936,1.008 -2.183,1.619 -3.742,1.835c-0.672,0.096 -1.679,0.144 -3.023,0.144c0.264,2.039 0.78,3.382 1.547,4.03c0.24,0.264 0.564,0.396 0.972,0.396c1.487,0 2.735,-0.468 3.742,-1.403c1.008,-0.96 1.727,-1.439 2.159,-1.439c0.192,0 0.48,0.18 0.864,0.54c0.384,0.36 0.576,0.696 0.576,1.008c0,0.624 -0.756,1.523 -2.267,2.699c-0.672,0.552 -1.487,1.02 -2.447,1.403c-0.936,0.36 -1.811,0.54 -2.627,0.54c-2.087,0 -3.622,-1.343 -4.606,-4.03c-0.624,-1.655 -0.936,-3.478 -0.936,-5.469c0,-1.991 0.468,-3.706 1.403,-5.146c0.936,-1.439 2.411,-2.159 4.426,-2.159Zm0.18,2.483c-0.912,0 -1.691,0.516 -2.339,1.547c-0.24,0.36 -0.468,1.175 -0.684,2.447c3.358,0 5.038,-0.828 5.038,-2.483c0,-1.008 -0.672,-1.511 -2.015,-1.511Z" style="fill-rule:nonzero;"/><path id="path3391" d="M16.507,26.715l1.715,-0.47l-0.653,1.653c0.031,-0.561 -0.5,-1.153 -1.061,-1.184Z" style="fill:#f00;fill-opacity:0.66;fill-rule:nonzero;"/><path d="M9.523,21.952c10.871,-0.325 9.793,-11.01 1.612,-10.855c-6.87,0.131 -6.98,6.766 -6.607,10.478c0.931,9.271 6.876,10.448 12.747,5.519" style="fill:none;fill-rule:nonzero;stroke:#f00;stroke-opacity:0.66;stroke-width:0.27px;"/><path id="text1155-1" d="M16.247,11.268l-0.243,0l0,-1.408c0,-0.081 0.001,-0.146 0.003,-0.195c0.002,-0.049 0.005,-0.1 0.008,-0.152c-0.03,0.03 -0.057,0.056 -0.082,0.076c-0.024,0.021 -0.056,0.047 -0.093,0.079l-0.214,0.175l-0.13,-0.167l0.545,-0.423l0.206,0l-0,2.015Z" style="fill:#f00;fill-rule:nonzero;"/></g></g></svg>