<?xml version="1.0" encoding="UTF-8" standalone="no"?><!DOCTYPE svg PUBLIC "-//W3C//DTD SVG 1.1//EN" "http://www.w3.org/Graphics/SVG/1.1/DTD/svg11.dtd"><svg width="100%" height="100%" viewBox="0 0 185 42" version="1.1" xmlns="http://www.w3.org/2000/svg" xmlns:xlink="http://www.w3.org/1999/xlink" xml:space="preserve" xmlns:serif="http://www.serif.com/" style="fill-rule:evenodd;clip-rule:evenodd;"><g><path id="path1018-7-4-8-4-9-7" d="M2.5,12.956l180,0" style="fill:none;fill-rule:nonzero;stroke:#000;stroke-opacity:0.3;stroke-width:0.25px;stroke-dasharray:0.5,0.5;"/><rect id="path4601-3-6-3-2-1" x="2.5" y="3.958" width="180" height="23.997" style="fill:none;fill-rule:nonzero;stroke:#000;stroke-opacity:0.66;stroke-width:0.25px;stroke-linecap:round;stroke-linejoin:round;"/><path id="path1809-3-5-6-2-9" d="M47.096,14.056c-3.441,-1.058 -6.101,-1.019 -8.411,4.12m-0.934,-4.719c0.502,2.3 0.606,3.051 0.934,4.719c0.16,1.76 0.467,4.68 0.366,9.349" style="fill:none;fill-rule:nonzero;stroke:#000;stroke-opacity:0.32;stroke-width:0.5px;stroke-linecap:round;stroke-linejoin:round;stroke-dasharray:1,1;"/><path id="path1809-3-5-6-2-2-2" d="M78.096,14.056c-3.441,-1.058 -6.101,-1.019 -8.411,4.12m-0.934,-4.719c0.502,2.3 0.606,3.051 0.934,4.719c0.16,1.76 0.467,4.68 0.366,9.349" style="fill:none;fill-rule:nonzero;stroke:#000;stroke-opacity:0.16;stroke-width:0.5px;stroke-linecap:round;stroke-linejoin:round;stroke-dasharray:1,1;"/><path id="path1809-3-5-6-2-2-3-2" d="M109.096,14.056c-3.441,-1.058 -6.101,-1.019 -8.411,4.12m-0.934,-4.719c0.502,2.3 0.606,3.051 0.934,4.719c0.16,1.76 0.467,4.68 0.366,9.349" style="fill:none;fill-rule:nonzero;stroke:#000;stroke-opacity:0.08;stroke-width:0.5px;stroke-linecap:round;stroke-linejoin:round;stroke-dasharray:1,1;"/><path id="path1809-3-5-6-2-2-3-7-8" d="M140.096,14.056c-3.441,-1.058 -6.101,-1.019 -8.411,4.12m-0.934,-4.719c0.502,2.3 0.606,3.051 0.934,4.719c0.16,1.76 0.467,4.68 0.366,9.349" style="fill:none;fill-rule:nonzero;stroke:#000;stroke-opacity:0.04;stroke-width:0.5px;stroke-linecap:round;stroke-linejoin:round;stroke-dasharray:1,1;"/><path id="path1809-3-5-6-2-2-3-7-5-9" d="M171.096,14.056c-3.441,-1.058 -6.101,-1.019 -8.411,4.12m-0.934,-4.719c0.502,2.3 0.606,3.051 0.934,4.719c0.16,1.76 0.467,4.68 0.366,9.349" style="fill:none;fill-rule:nonzero;stroke:#000;stroke-opacity:0.04;stroke-width:0.5px;stroke-linecap:round;stroke-linejoin:round;stroke-dasharray:1,1;"/><g><path id="text833" d="M9.658,24.066l0.036,3.706c0,0.432 -0.204,0.828 -0.612,1.187c-0.384,0.36 -0.768,0.54 -1.151,0.54c-0.552,0 -0.9,-0.432 -1.044,-1.295c-0.024,-0.192 -0.12,-1.943 -0.288,-5.254c-0.168,-3.334 -0.492,-5.949 -0.972,-7.844c-0.216,-0.912 -0.324,-1.451 -0.324,-1.619c0,-0.792 0.48,-1.187 1.439,-1.187c0.408,0 0.732,0.156 0.972,0.468c0.24,0.312 0.384,0.636 0.432,0.972c0.072,0.312 0.132,0.744 0.18,1.295c0.048,0.552 0.084,0.9 0.108,1.044c0.504,-1.199 1.259,-2.099 2.267,-2.699c1.008,-0.6 2.111,-0.9 3.31,-0.9c1.967,0 2.951,0.504 2.951,1.511c0,0.504 -0.18,0.912 -0.54,1.223c-0.336,0.288 -0.732,0.432 -1.187,0.432c-2.039,0 -3.478,0.648 -4.318,1.943c-0.84,1.295 -1.259,3.454 -1.259,6.477l0,0Z" style="fill-rule:nonzero;"/><path id="path1883-1" d="M15.121,10.125l1.389,1.11l-1.721,0.445c0.472,-0.306 0.638,-1.083 0.332,-1.555Z" style="fill:#f00;fill-opacity:0.66;fill-rule:nonzero;"/><path d="M9.014,12.699c1.939,-1.601 4.289,-1.992 6.252,-1.73" style="fill:none;fill-rule:nonzero;stroke:#f00;stroke-opacity:0.66;stroke-width:0.27px;"/><path id="text1155-29" d="M3.49,18.094l-0.243,0l0,-1.408c0,-0.081 0.001,-0.146 0.003,-0.195c0.002,-0.049 0.005,-0.1 0.008,-0.152c-0.03,0.03 -0.057,0.056 -0.082,0.076c-0.024,0.021 -0.056,0.047 -0.093,0.079l-0.214,0.175l-0.13,-0.167l0.545,-0.423l0.206,0l-0,2.015Z" style="fill:#f00;fill-rule:nonzero;"/><path id="path1883-0-9" d="M6.427,26.349l-0.805,1.585l-0.785,-1.595c0.395,0.4 1.19,0.405 1.59,0.01Z" style="fill:#f00;fill-opacity:0.66;fill-rule:nonzero;"/><path d="M3.909,12.622c1.232,3 1.687,10.307 1.721,14.041" style="fill:none;fill-rule:nonzero;stroke:#f00;stroke-opacity:0.66;stroke-width:0.27px;"/><path id="text1155-2-4" d="M12.838,10.046l-1.332,0l0,-0.206l0.528,-0.533c0.102,-0.102 0.187,-0.192 0.257,-0.271c0.07,-0.079 0.122,-0.156 0.158,-0.231c0.036,-0.077 0.054,-0.161 0.054,-0.251c0,-0.111 -0.033,-0.195 -0.099,-0.251c-0.066,-0.058 -0.151,-0.087 -0.257,-0.087c-0.098,0 -0.184,0.017 -0.26,0.051c-0.073,0.034 -0.149,0.081 -0.226,0.141l-0.133,-0.167c0.079,-0.066 0.169,-0.121 0.271,-0.167c0.103,-0.047 0.219,-0.071 0.347,-0.071c0.188,0 0.337,0.048 0.446,0.144c0.109,0.094 0.164,0.225 0.164,0.392c0,0.105 -0.022,0.204 -0.065,0.296c-0.043,0.092 -0.103,0.183 -0.181,0.274c-0.077,0.088 -0.167,0.183 -0.271,0.285l-0.421,0.415l0,0.011l1.019,0l0,0.226Z" style="fill:#f00;fill-rule:nonzero;"/></g></g></svg>