<?xml version="1.0" encoding="UTF-8" standalone="no"?><!DOCTYPE svg PUBLIC "-//W3C//DTD SVG 1.1//EN" "http://www.w3.org/Graphics/SVG/1.1/DTD/svg11.dtd"><svg width="100%" height="100%" viewBox="0 0 185 42" version="1.1" xmlns="http://www.w3.org/2000/svg" xmlns:xlink="http://www.w3.org/1999/xlink" xml:space="preserve" xmlns:serif="http://www.serif.com/" style="fill-rule:evenodd;clip-rule:evenodd;"><g><path id="path1018-7-4-8-4-9-7" d="M2.5,13.005l180,0" style="fill:none;fill-rule:nonzero;stroke:#000;stroke-opacity:0.3;stroke-width:0.25px;stroke-dasharray:0.5,0.5;"/><rect id="path4601-3-6-3-2-1" x="2.5" y="4.006" width="180" height="23.997" style="fill:none;fill-rule:nonzero;stroke:#000;stroke-opacity:0.66;stroke-width:0.25px;stroke-linecap:round;stroke-linejoin:round;"/><path id="path988-2-9-0-0-0-2-9" d="M47.47,14.302c-6.661,-3.106 -9.977,3.448 -9.705,6.824c0.368,4.898 2.697,9.005 9.916,4.369" style="fill:none;fill-rule:nonzero;stroke:#000;stroke-opacity:0.32;stroke-width:0.5px;stroke-linecap:round;stroke-linejoin:round;stroke-dasharray:1,1;"/><path id="path988-2-9-0-0-0-2-4-7" d="M78.47,14.302c-6.661,-3.106 -9.977,3.448 -9.705,6.824c0.368,4.898 2.697,9.005 9.916,4.369" style="fill:none;fill-rule:nonzero;stroke:#000;stroke-opacity:0.16;stroke-width:0.5px;stroke-linecap:round;stroke-linejoin:round;stroke-dasharray:1,1;"/><path id="path988-2-9-0-0-0-2-4-8-7" d="M109.47,14.302c-6.661,-3.106 -9.977,3.448 -9.705,6.824c0.368,4.898 2.697,9.005 9.916,4.369" style="fill:none;fill-rule:nonzero;stroke:#000;stroke-opacity:0.08;stroke-width:0.5px;stroke-linecap:round;stroke-linejoin:round;stroke-dasharray:1,1;"/><path id="path988-2-9-0-0-0-2-4-8-8-6" d="M140.47,14.302c-6.661,-3.106 -9.977,3.448 -9.705,6.824c0.368,4.898 2.697,9.005 9.916,4.369" style="fill:none;fill-rule:nonzero;stroke:#000;stroke-opacity:0.04;stroke-width:0.5px;stroke-linecap:round;stroke-linejoin:round;stroke-dasharray:1,1;"/><path id="path988-2-9-0-0-0-2-4-8-8-8-4" d="M171.47,14.302c-6.661,-3.106 -9.977,3.448 -9.705,6.824c0.368,4.898 2.697,9.005 9.916,4.369" style="fill:none;fill-rule:nonzero;stroke:#000;stroke-opacity:0.04;stroke-width:0.5px;stroke-linecap:round;stroke-linejoin:round;stroke-dasharray:1,1;"/><g><path id="text833" d="M5.281,20.888c0,-1.607 0.42,-3.071 1.259,-4.39c0.864,-1.319 1.955,-2.303 3.274,-2.951c1.319,-0.672 2.603,-1.008 3.85,-1.008c1.247,0 2.243,0.156 2.987,0.468c0.768,0.288 1.151,0.684 1.151,1.187c0,0.48 -0.144,0.972 -0.432,1.475c-0.264,0.48 -0.624,0.72 -1.079,0.72c-0.168,0 -0.636,-0.132 -1.403,-0.396c-0.744,-0.288 -1.223,-0.432 -1.439,-0.432c-1.391,0 -2.579,0.516 -3.562,1.547c-0.984,1.008 -1.475,2.351 -1.475,4.03c0,1.679 0.264,2.939 0.792,3.778c0.552,0.816 1.487,1.223 2.807,1.223c0.528,0 1.427,-0.3 2.699,-0.9c1.295,-0.624 2.099,-0.936 2.411,-0.936c0.312,0 0.564,0.096 0.756,0.288c0.192,0.192 0.288,0.432 0.288,0.72c0,0.576 -0.372,1.187 -1.115,1.835c-0.72,0.624 -1.619,1.151 -2.699,1.583c-1.079,0.408 -2.051,0.612 -2.915,0.612c-1.919,0 -3.43,-0.756 -4.534,-2.267c-1.079,-1.511 -1.619,-3.574 -1.619,-6.189Z" style="fill-rule:nonzero;"/><path id="path3391" d="M16.828,28.207l1.774,-0.119l-0.969,1.49c0.142,-0.544 -0.261,-1.23 -0.805,-1.371Z" style="fill:#f00;fill-opacity:0.66;fill-rule:nonzero;"/><path d="M17.232,11.374c-7.369,-1.944 -12.973,2.753 -12.887,8.95c0.104,7.467 5.161,12.74 13.159,8.408" style="fill:none;fill-rule:nonzero;stroke:#f00;stroke-opacity:0.66;stroke-width:0.27px;"/><path id="text1155-7" d="M5.938,13.018l-0.243,0l0,-1.408c0,-0.081 0.001,-0.146 0.003,-0.195c0.002,-0.049 0.005,-0.1 0.008,-0.152c-0.03,0.03 -0.057,0.056 -0.082,0.076c-0.024,0.021 -0.056,0.047 -0.093,0.079l-0.214,0.175l-0.13,-0.167l0.545,-0.423l0.206,0l-0,2.015Z" style="fill:#f00;fill-rule:nonzero;"/></g></g></svg>