<svg xmlns="http://www.w3.org/2000/svg" xml:space="preserve" style="fill-rule:evenodd;clip-rule:evenodd" viewBox="0 0 185 42"><path d="M2.5 12.956h180" style="fill:none;fill-rule:nonzero;stroke:#000;stroke-opacity:.3;stroke-width:.25px;stroke-dasharray:.5,.5"/><path d="M2.5 3.958h180v23.997H2.5z" style="fill:none;fill-rule:nonzero;stroke:#000;stroke-opacity:.66;stroke-width:.25px;stroke-linecap:round;stroke-linejoin:round"/><path d="M37.75 13.606c1.35 3.694 4.568 11.434 6.192 13.648m4.033-13.58c-.556 2.401-3.288 11.001-4.033 13.58-.7 2.424-1.668 6.337-3.106 10.846" style="fill:none;fill-rule:nonzero;stroke:#000;stroke-opacity:.32;stroke-width:.5px;stroke-linecap:round;stroke-linejoin:round;stroke-dasharray:1,1"/><path d="M68.75 13.606c1.35 3.694 4.568 11.434 6.192 13.648m4.033-13.58c-.556 2.401-3.288 11.001-4.033 13.58-.7 2.424-1.668 6.337-3.106 10.846" style="fill:none;fill-rule:nonzero;stroke:#000;stroke-opacity:.16;stroke-width:.5px;stroke-linecap:round;stroke-linejoin:round;stroke-dasharray:1,1"/><path d="M99.75 13.606c1.35 3.694 4.568 11.434 6.192 13.648m4.033-13.58c-.556 2.401-3.288 11.001-4.033 13.58-.7 2.424-1.668 6.337-3.106 10.846" style="fill:none;fill-rule:nonzero;stroke:#000;stroke-opacity:.08;stroke-width:.5px;stroke-linecap:round;stroke-linejoin:round;stroke-dasharray:1,1"/><path d="M130.75 13.606c1.35 3.694 4.568 11.434 6.192 13.648m4.033-13.58c-.556 2.401-3.288 11.001-4.033 13.58-.7 2.424-1.668 6.337-3.106 10.846M161.75 13.606c1.35 3.694 4.568 11.434 6.192 13.648m4.033-13.58c-.556 2.401-3.288 11.001-4.033 13.58-.7 2.424-1.668 6.337-3.106 10.846" style="fill:none;fill-rule:nonzero;stroke:#000;stroke-opacity:.04;stroke-width:.5px;stroke-linecap:round;stroke-linejoin:round;stroke-dasharray:1,1"/><path d="m9.529 26.939.121 1.771-1.489-.966c.543.141 1.227-.262 1.368-.805" style="fill:red;fill-opacity:.66;fill-rule:nonzero"/><path d="M3.079 13.288c1.499 2.969 4.197 10.95 5.927 14.327" style="fill:none;fill-rule:nonzero;stroke:red;stroke-opacity:.66;stroke-width:.26px"/><path d="M16.703 12.479q.468 0 .9.324.468.324.468.72 0 1.044-3.059 11.299-3.058 10.256-4.534 14.393-.324.972-1.008.972t-1.079-.504q-.396-.468-.396-1.403 0-.936 1.187-4.498 1.224-3.526 1.475-4.498-.9-1.511-6.081-15.113a1.3 1.3 0 0 1-.072-.468q0-.288.432-.756t1.187-.468q.756 0 1.223.756.504 1.296 1.655 4.534 1.152 3.202 1.763 4.642.648 1.44 1.223 2.987.504-1.69 1.727-6.549a960 960 0 0 1 1.403-5.577q.144-.792 1.583-.792Z" style="fill-rule:nonzero"/><path d="M4.589 22.37h-.243v-1.408q0-.122.003-.195l.008-.152q-.045.046-.082.076l-.093.079-.214.175-.13-.167.545-.423h.206zM19.534 22.44h-1.332v-.206l.528-.533q.153-.153.257-.271t.158-.231a.6.6 0 0 0 .054-.251q0-.167-.099-.251a.37.37 0 0 0-.257-.087.6.6 0 0 0-.26.051 1.2 1.2 0 0 0-.226.141l-.133-.167q.118-.098.271-.167a.8.8 0 0 1 .347-.071q.282 0 .446.144a.49.49 0 0 1 .164.392.7.7 0 0 1-.065.296 1.2 1.2 0 0 1-.181.274 5 5 0 0 1-.271.285l-.421.415v.011h1.019v.226Z" style="fill:red;fill-rule:nonzero"/><path d="m12.786 37.683-1.321 1.185-.155-1.768c.223.515.962.806 1.477.583Z" style="fill:red;fill-opacity:.66;fill-rule:nonzero"/><path d="M19.435 12.965c-.971 2.866-5.435 19.083-7.504 24.722" style="fill:none;fill-rule:nonzero;stroke:red;stroke-opacity:.66;stroke-width:.26px"/></svg>