<svg xmlns="http://www.w3.org/2000/svg" xml:space="preserve" style="fill-rule:evenodd;clip-rule:evenodd" viewBox="0 0 185 42"><path d="M2.5 12.956h180" style="fill:none;fill-rule:nonzero;stroke:#000;stroke-opacity:.3;stroke-width:.25px;stroke-dasharray:.5,.5"/><path d="M2.5 3.958h180v23.997H2.5z" style="fill:none;fill-rule:nonzero;stroke:#000;stroke-opacity:.66;stroke-width:.25px;stroke-linecap:round;stroke-linejoin:round"/><path d="M44.177 12.79c.518 5.175 1.045 16.514-.563 21.071-.962 2.727-4.452 3.362-5.876.091M44.91 8.616c1.093-1.467-1.156-3.067-2.064-1.829s.97 3.296 2.064 1.829" style="fill:none;fill-rule:nonzero;stroke:#030000;stroke-opacity:.32;stroke-width:.5px;stroke-linecap:round;stroke-linejoin:round;stroke-dasharray:1,1"/><path d="M75.177 12.79c.518 5.175 1.045 16.514-.563 21.071-.962 2.727-4.452 3.362-5.876.091M75.91 8.616c1.093-1.467-1.156-3.067-2.064-1.829s.97 3.296 2.064 1.829" style="fill:none;fill-rule:nonzero;stroke:#030000;stroke-opacity:.17;stroke-width:.5px;stroke-linecap:round;stroke-linejoin:round;stroke-dasharray:1,1"/><path d="M106.178 12.79c.518 5.175 1.045 16.514-.563 21.071-.962 2.727-4.452 3.362-5.876.091M106.911 8.616c1.093-1.467-1.156-3.067-2.064-1.829s.97 3.296 2.064 1.829" style="fill:none;fill-rule:nonzero;stroke:#030000;stroke-opacity:.08;stroke-width:.5px;stroke-linecap:round;stroke-linejoin:round;stroke-dasharray:1,1"/><path d="M137.178 12.79c.518 5.175 1.045 16.514-.563 21.071-.962 2.727-4.452 3.362-5.876.091M137.911 8.616c1.093-1.467-1.156-3.067-2.064-1.829s.97 3.296 2.064 1.829M168.178 12.79c.518 5.175 1.045 16.514-.563 21.071-.962 2.727-4.452 3.362-5.876.091M168.911 8.616c1.093-1.467-1.156-3.067-2.064-1.829s.97 3.296 2.064 1.829" style="fill:none;fill-rule:nonzero;stroke:#030000;stroke-opacity:.04;stroke-width:.5px;stroke-linecap:round;stroke-linejoin:round;stroke-dasharray:1,1"/><path d="M12.854 6.549q.648 0 1.223.612t.576 1.295q0 .648-.648 1.331-.612.684-1.295.684-.684 0-1.259-.576-.54-.576-.54-1.475 0-1.727 1.871-1.871zm-1.151 7.053q-.072-.576.396-.936.468-.396 1.403-.396.936 0 1.044.9.504 4.426.504 8.384t-.252 7.916q-.252 3.994-1.151 6.153-1.224 2.843-4.426 2.843-1.619 0-2.807-1.008-1.187-1.007-1.187-2.411 0-.756.54-1.151.54-.396 1.187-.396.648 0 .972.324t.432.72q.36 1.044 1.223 1.044.9 0 1.511-1.403.648-1.404.828-3.814.216-2.41.216-5.11 0-8.456-.432-11.659Z" style="fill-rule:nonzero"/><path d="m3.169 37.714-.115-1.774 1.488.972c-.544-.143-1.23.258-1.373.802" style="fill:red;fill-opacity:.66;fill-rule:nonzero"/><path d="M15.543 12.277c.793 15.048 1.183 25.988-3.827 27.348-1.809.491-5.955.188-8.021-2.587" style="fill:none;fill-rule:nonzero;stroke:red;stroke-opacity:.66;stroke-width:.27px"/><path d="M17.652 17.881h-.243v-1.408q0-.121.003-.195l.008-.152q-.045.045-.082.076l-.093.079-.214.175-.13-.167.545-.423h.206zM17.284 8.094h-1.332v-.206l.528-.533q.153-.153.257-.271t.158-.231a.6.6 0 0 0 .054-.251q0-.167-.099-.251a.37.37 0 0 0-.257-.087.6.6 0 0 0-.26.051 1.2 1.2 0 0 0-.226.141l-.133-.167q.118-.098.271-.167a.8.8 0 0 1 .347-.071q.282 0 .446.144a.49.49 0 0 1 .164.392.7.7 0 0 1-.065.296 1.2 1.2 0 0 1-.181.274 5 5 0 0 1-.271.285l-.421.415v.011h1.019v.226Z" style="fill:red;fill-rule:nonzero"/></svg>