<svg xmlns="http://www.w3.org/2000/svg" xml:space="preserve" style="fill-rule:evenodd;clip-rule:evenodd" viewBox="0 0 185 42"><path d="M2.5 13.005h180" style="fill:none;fill-rule:nonzero;stroke:#000;stroke-opacity:.3;stroke-width:.25px;stroke-dasharray:.5,.5"/><path d="M2.5 4.006h180v23.997H2.5z" style="fill:none;fill-rule:nonzero;stroke:#000;stroke-opacity:.66;stroke-width:.25px;stroke-linecap:round;stroke-linejoin:round"/><path d="M37.75 4.555c.19 4.262.35 8.484.471 11.742.005 5.45.298 7.326.357 11.035M47.243 27.471c.312-4.131 1.232-8.134-.285-11.959-1.145-2.885-7.615-2.754-8.736.786" style="fill:none;fill-rule:nonzero;stroke:#030000;stroke-opacity:.32;stroke-width:.5px;stroke-linecap:round;stroke-linejoin:round;stroke-dasharray:1,1"/><path d="M68.75 4.555c.19 4.262.35 8.484.471 11.742.005 5.45.298 7.326.357 11.035M78.243 27.471c.312-4.131 1.232-8.134-.285-11.959-1.145-2.885-7.615-2.754-8.736.786" style="fill:none;fill-rule:nonzero;stroke:#030000;stroke-opacity:.17;stroke-width:.5px;stroke-linecap:round;stroke-linejoin:round;stroke-dasharray:1,1"/><path d="M99.75 4.555c.19 4.262.35 8.484.471 11.742.005 5.45.298 7.326.357 11.035M109.243 27.471c.312-4.131 1.232-8.134-.285-11.959-1.145-2.885-7.615-2.754-8.736.786" style="fill:none;fill-rule:nonzero;stroke:#030000;stroke-opacity:.08;stroke-width:.5px;stroke-linecap:round;stroke-linejoin:round;stroke-dasharray:1,1"/><path d="M130.749 4.555c.19 4.262.35 8.484.471 11.742.005 5.45.298 7.326.357 11.035M140.243 27.471c.312-4.131 1.232-8.134-.285-11.959-1.145-2.885-7.615-2.754-8.736.786M161.749 4.555c.19 4.262.35 8.484.471 11.742.005 5.45.298 7.326.357 11.035M171.243 27.471c.312-4.131 1.232-8.134-.285-11.959-1.145-2.885-7.615-2.754-8.736.786" style="fill:none;fill-rule:nonzero;stroke:#030000;stroke-opacity:.04;stroke-width:.5px;stroke-linecap:round;stroke-linejoin:round;stroke-dasharray:1,1"/><path d="m9.802 17.514.288 8.492q0 1.584-.144 1.835-.072.648-.432 1.008-.324.36-1.295.36-.468 0-.756-.576a3.6 3.6 0 0 1-.324-1.367q-.252-6.333-.684-11.874-.396-5.578-.396-10.363 0-.756.504-1.187A1.77 1.77 0 0 1 7.75 3.41q1.008 0 1.187 1.727.216 1.727.252 4.318.072 2.591.144 3.778 1.799-.936 3.598-.936 4.174 0 5.29 3.67.648 2.087.648 5.362 0 1.08-.216 3.418-.18 2.303-.216 2.987a1.33 1.33 0 0 1-.612 1.079q-.54.36-1.187.36-1.008 0-1.008-1.079l.252-6.261q0-.791-.072-2.627t-.756-2.915q-.648-1.08-2.303-1.079-2.95 0-2.951 2.303Z" style="fill-rule:nonzero"/><path d="m6.587 25.98-.731 1.62-.858-1.557c.413.381 1.207.35 1.589-.064Z" style="fill:red;fill-opacity:.66;fill-rule:nonzero"/><path d="M4.761 3.97c-.071 7.622.684 13.953 1.045 22.36" style="fill:none;fill-rule:nonzero;stroke:red;stroke-opacity:.66;stroke-width:.27px"/><path d="M3.817 7.894h-.243V6.486q0-.122.003-.195l.008-.152q-.045.046-.082.076l-.093.079-.214.175-.13-.167.545-.423h.206z" style="fill:red;fill-rule:nonzero"/><path d="m20.326 26.196-.964 1.49-.613-1.665c.351.438 1.139.526 1.578.175Z" style="fill:red;fill-opacity:.66;fill-rule:nonzero"/><path d="M10.313 10.966c2.2-.712 5.606-1.318 7.884 1.773 1.711 2.322 2.2 5.301 1.306 13.685" style="fill:none;fill-rule:nonzero;stroke:red;stroke-opacity:.66;stroke-width:.26px"/><path d="M13.44 9.681h-1.332v-.206l.528-.533q.152-.153.257-.271.104-.119.158-.231a.6.6 0 0 0 .054-.251q0-.167-.099-.251a.37.37 0 0 0-.257-.087.6.6 0 0 0-.26.051 1.2 1.2 0 0 0-.226.141l-.133-.167q.118-.098.271-.167a.8.8 0 0 1 .347-.071q.282 0 .446.144a.49.49 0 0 1 .164.392.7.7 0 0 1-.065.296 1.2 1.2 0 0 1-.181.274 5 5 0 0 1-.271.285l-.421.415v.011h1.019z" style="fill:red;fill-rule:nonzero"/></svg>