<svg xmlns="http://www.w3.org/2000/svg" xml:space="preserve" style="fill-rule:evenodd;clip-rule:evenodd" viewBox="0 0 185 42"><path d="M2.5 12.956h180" style="fill:none;fill-rule:nonzero;stroke:#000;stroke-opacity:.3;stroke-width:.25px;stroke-dasharray:.5,.5"/><path d="M2.5 3.958h180v23.997H2.5z" style="fill:none;fill-rule:nonzero;stroke:#000;stroke-opacity:.66;stroke-width:.25px;stroke-linecap:round;stroke-linejoin:round"/><path d="M37.81 25.567c3.3 3.584 8.873 1.611 8.725-1.849-.103-2.411-2.393-3.187-4.463-3.552-2.182-.385-4.163-.968-4.344-3.182-.229-2.8 4.374-5.094 8.522-2.178" style="fill:none;fill-rule:nonzero;stroke:#000;stroke-opacity:.32;stroke-width:.5px;stroke-linecap:round;stroke-linejoin:round;stroke-dasharray:1,1"/><path d="M68.81 25.567c3.3 3.584 8.873 1.611 8.725-1.849-.103-2.411-2.393-3.187-4.463-3.552-2.182-.385-4.163-.968-4.344-3.182-.229-2.8 4.374-5.094 8.522-2.178" style="fill:none;fill-rule:nonzero;stroke:#000;stroke-opacity:.16;stroke-width:.5px;stroke-linecap:round;stroke-linejoin:round;stroke-dasharray:1,1"/><path d="M99.81 25.567c3.3 3.584 8.873 1.611 8.725-1.849-.103-2.411-2.393-3.187-4.463-3.552-2.182-.385-4.163-.968-4.344-3.182-.229-2.8 4.374-5.094 8.522-2.178" style="fill:none;fill-rule:nonzero;stroke:#000;stroke-opacity:.08;stroke-width:.5px;stroke-linecap:round;stroke-linejoin:round;stroke-dasharray:1,1"/><path d="M130.81 25.567c3.3 3.584 8.873 1.611 8.725-1.849-.103-2.411-2.393-3.187-4.463-3.552-2.182-.385-4.163-.968-4.344-3.182-.229-2.8 4.374-5.094 8.522-2.178M161.81 25.567c3.3 3.584 8.873 1.611 8.725-1.849-.103-2.411-2.393-3.187-4.463-3.552-2.182-.385-4.163-.968-4.344-3.182-.229-2.8 4.374-5.094 8.522-2.178" style="fill:none;fill-rule:nonzero;stroke:#000;stroke-opacity:.04;stroke-width:.5px;stroke-linecap:round;stroke-linejoin:round;stroke-dasharray:1,1"/><path d="M7.684 24.993 6.47 23.695l1.767-.193c-.511.235-.787.98-.553 1.491" style="fill:red;fill-opacity:.66;fill-rule:nonzero"/><path d="M15.282 12.09c-6.266-2.493-10.7-.078-10.742 4.052-.052 5.016 3.167 4.89 5.134 5.365 1.797.434 2.882.473 2.779 1.862-.059.8-.593 1.6-1.972 1.566-.863-.021-1.701-.367-2.818-.799" style="fill:none;fill-rule:nonzero;stroke:red;stroke-opacity:.66;stroke-width:.27px"/><path d="M5.156 17.078q0-2.123 1.511-3.382a5.3 5.3 0 0 1 3.49-1.259q2.015 0 3.85.72t1.835 1.907q0 .612-.468.972t-.828.36h-.54q-.18-.036-1.439-.684-1.224-.648-2.267-.648t-1.799.54q-.72.504-.72 1.511 0 1.008.828 1.583.864.576 2.987 1.008 2.123.396 3.238 1.151 1.152.756 1.151 2.807 0 2.986-1.583 4.246-1.548 1.223-3.778 1.223t-3.814-.612q-1.547-.612-1.547-1.835 0-1.404 1.403-1.403.36 0 1.583.504t2.411.504q1.223 0 1.835-.756a2.76 2.76 0 0 0 .648-1.799q0-1.008-.828-1.439-.828-.468-2.519-.756-1.69-.288-2.483-.612-2.159-.864-2.159-3.85Z" style="fill-rule:nonzero"/><path d="M5.94 11.234h-.243V9.826q0-.122.003-.195l.008-.152q-.045.045-.082.076l-.093.079-.214.175-.13-.167.545-.423h.206z" style="fill:red;fill-rule:nonzero"/></svg>