<svg xmlns="http://www.w3.org/2000/svg" xml:space="preserve" style="fill-rule:evenodd;clip-rule:evenodd" viewBox="0 0 185 42"><path d="M2.5 13.005h180" style="fill:none;fill-rule:nonzero;stroke:#000;stroke-opacity:.3;stroke-width:.25px;stroke-dasharray:.5,.5"/><path d="M2.5 4.006h180v23.997H2.5z" style="fill:none;fill-rule:nonzero;stroke:#000;stroke-opacity:.66;stroke-width:.25px;stroke-linecap:round;stroke-linejoin:round"/><path d="M43.667 27.611c-3.858.005-5.894-4.485-5.916-7.258-.027-3.403 1.789-6.933 5.918-6.898 3.661.031 5.746 3.371 5.717 6.735-.031 3.578-2.248 7.417-5.719 7.421" style="fill:none;fill-rule:nonzero;stroke:#000;stroke-opacity:.32;stroke-width:.5px;stroke-linecap:round;stroke-linejoin:round;stroke-dasharray:1,1"/><path d="M74.667 27.611c-3.858.005-5.894-4.485-5.916-7.258-.027-3.403 1.789-6.933 5.918-6.898 3.661.031 5.746 3.371 5.717 6.735-.031 3.578-2.248 7.417-5.719 7.421" style="fill:none;fill-rule:nonzero;stroke:#000;stroke-opacity:.16;stroke-width:.5px;stroke-linecap:round;stroke-linejoin:round;stroke-dasharray:1,1"/><path d="M105.667 27.611c-3.858.005-5.894-4.485-5.916-7.258-.027-3.403 1.789-6.933 5.918-6.898 3.661.031 5.746 3.371 5.717 6.735-.031 3.578-2.248 7.417-5.719 7.421" style="fill:none;fill-rule:nonzero;stroke:#000;stroke-opacity:.08;stroke-width:.5px;stroke-linecap:round;stroke-linejoin:round;stroke-dasharray:1,1"/><path d="M136.667 27.611c-3.858.005-5.894-4.485-5.916-7.258-.027-3.403 1.789-6.933 5.918-6.898 3.661.031 5.746 3.371 5.717 6.735-.031 3.578-2.248 7.417-5.719 7.421M167.667 27.611c-3.858.005-5.894-4.485-5.916-7.258-.027-3.403 1.789-6.933 5.918-6.898 3.661.031 5.746 3.371 5.717 6.735-.031 3.578-2.248 7.417-5.719 7.421" style="fill:none;fill-rule:nonzero;stroke:#000;stroke-opacity:.04;stroke-width:.5px;stroke-linecap:round;stroke-linejoin:round;stroke-dasharray:1,1"/><path d="M11.947 12.664q2.591 0 4.246 2.483 1.69 2.483 1.691 5.973 0 3.454-1.727 5.901-1.691 2.447-4.534 2.447-2.806 0-4.534-2.483a9.65 9.65 0 0 1-1.727-5.577q0-3.922 1.583-6.261 1.691-2.483 5.002-2.483m-.432 2.951q-1.511 0-2.483 1.583-.972 1.584-.972 3.346 0 2.735 1.079 4.174 1.08 1.44 2.447 1.439 2.447 0 3.131-2.123.288-1.008.288-2.519 0-5.901-3.49-5.901Z" style="fill-rule:nonzero"/><path d="m17.826 16.594.104-1.775 1.358 1.148c-.522-.209-1.253.105-1.461.627Z" style="fill:red;fill-opacity:.66;fill-rule:nonzero"/><path d="M16.67 12.692C11.411 8.447 3.651 11.199 4.253 21.36c.369 6.238 4.621 8.851 7.988 8.558 5.405-.471 8.406-7.866 6.191-13.93" style="fill:none;fill-rule:nonzero;stroke:red;stroke-opacity:.66;stroke-width:.27px"/><path d="M5.881 11.826h-.243v-1.408q0-.121.003-.195l.008-.152q-.045.045-.082.076l-.093.079-.214.175-.13-.167.545-.423h.206z" style="fill:red;fill-rule:nonzero"/></svg>