<?xml version="1.0" encoding="UTF-8" standalone="no"?><!DOCTYPE svg PUBLIC "-//W3C//DTD SVG 1.1//EN" "http://www.w3.org/Graphics/SVG/1.1/DTD/svg11.dtd"><svg width="100%" height="100%" viewBox="0 0 185 42" version="1.1" xmlns="http://www.w3.org/2000/svg" xmlns:xlink="http://www.w3.org/1999/xlink" xml:space="preserve" xmlns:serif="http://www.serif.com/" style="fill-rule:evenodd;clip-rule:evenodd;"><g><path id="path1018-7-4-8-4-9-7" d="M2.5,12.956l180,0" style="fill:none;fill-rule:nonzero;stroke:#000;stroke-opacity:0.3;stroke-width:0.25px;stroke-dasharray:0.5,0.5;"/><rect id="path4601-3-6-3-2-1" x="2.5" y="3.958" width="180" height="23.997" style="fill:none;fill-rule:nonzero;stroke:#000;stroke-opacity:0.66;stroke-width:0.25px;stroke-linecap:round;stroke-linejoin:round;"/><path id="path5452-78-8" d="M44.177,12.79c0.518,5.175 1.045,16.514 -0.563,21.071c-0.962,2.727 -4.452,3.362 -5.876,0.091" style="fill:none;fill-rule:nonzero;stroke:#030000;stroke-opacity:0.32;stroke-width:0.5px;stroke-linecap:round;stroke-linejoin:round;stroke-dasharray:1,1;"/><path id="path5452-2-5-1" d="M44.91,8.616c1.093,-1.467 -1.156,-3.067 -2.064,-1.829c-0.908,1.238 0.97,3.296 2.064,1.829Z" style="fill:none;fill-rule:nonzero;stroke:#030000;stroke-opacity:0.32;stroke-width:0.5px;stroke-linecap:round;stroke-linejoin:round;stroke-dasharray:1,1;"/><path id="path5452-78-5-97" d="M75.177,12.79c0.518,5.175 1.045,16.514 -0.563,21.071c-0.962,2.727 -4.452,3.362 -5.876,0.091" style="fill:none;fill-rule:nonzero;stroke:#030000;stroke-opacity:0.17;stroke-width:0.5px;stroke-linecap:round;stroke-linejoin:round;stroke-dasharray:1,1;"/><path id="path5452-2-5-7-8" d="M75.91,8.616c1.093,-1.467 -1.156,-3.067 -2.064,-1.829c-0.908,1.238 0.97,3.296 2.064,1.829Z" style="fill:none;fill-rule:nonzero;stroke:#030000;stroke-opacity:0.17;stroke-width:0.5px;stroke-linecap:round;stroke-linejoin:round;stroke-dasharray:1,1;"/><path id="path5452-78-5-9-53" d="M106.178,12.79c0.518,5.175 1.045,16.514 -0.563,21.071c-0.962,2.727 -4.452,3.362 -5.876,0.091" style="fill:none;fill-rule:nonzero;stroke:#030000;stroke-opacity:0.08;stroke-width:0.5px;stroke-linecap:round;stroke-linejoin:round;stroke-dasharray:1,1;"/><path id="path5452-2-5-7-9-4" d="M106.911,8.616c1.093,-1.467 -1.156,-3.067 -2.064,-1.829c-0.908,1.238 0.97,3.296 2.064,1.829Z" style="fill:none;fill-rule:nonzero;stroke:#030000;stroke-opacity:0.08;stroke-width:0.5px;stroke-linecap:round;stroke-linejoin:round;stroke-dasharray:1,1;"/><path id="path5452-78-5-9-5-0" d="M137.178,12.79c0.518,5.175 1.045,16.514 -0.563,21.071c-0.962,2.727 -4.452,3.362 -5.876,0.091" style="fill:none;fill-rule:nonzero;stroke:#030000;stroke-opacity:0.04;stroke-width:0.5px;stroke-linecap:round;stroke-linejoin:round;stroke-dasharray:1,1;"/><path id="path5452-2-5-7-9-9-2" d="M137.911,8.616c1.093,-1.467 -1.156,-3.067 -2.064,-1.829c-0.908,1.238 0.97,3.296 2.064,1.829Z" style="fill:none;fill-rule:nonzero;stroke:#030000;stroke-opacity:0.04;stroke-width:0.5px;stroke-linecap:round;stroke-linejoin:round;stroke-dasharray:1,1;"/><path id="path5452-78-5-9-5-5-1" d="M168.178,12.79c0.518,5.175 1.045,16.514 -0.563,21.071c-0.962,2.727 -4.452,3.362 -5.876,0.091" style="fill:none;fill-rule:nonzero;stroke:#030000;stroke-opacity:0.04;stroke-width:0.5px;stroke-linecap:round;stroke-linejoin:round;stroke-dasharray:1,1;"/><path id="path5452-2-5-7-9-9-7-9" d="M168.911,8.616c1.093,-1.467 -1.156,-3.067 -2.064,-1.829c-0.908,1.238 0.97,3.296 2.064,1.829Z" style="fill:none;fill-rule:nonzero;stroke:#030000;stroke-opacity:0.04;stroke-width:0.5px;stroke-linecap:round;stroke-linejoin:round;stroke-dasharray:1,1;"/><g><path id="text833" d="M12.854,6.549c0.432,0 0.84,0.204 1.223,0.612c0.384,0.408 0.576,0.84 0.576,1.295c0,0.432 -0.216,0.876 -0.648,1.331c-0.408,0.456 -0.84,0.684 -1.295,0.684c-0.456,0 -0.876,-0.192 -1.259,-0.576c-0.36,-0.384 -0.54,-0.876 -0.54,-1.475c0,-1.151 0.624,-1.775 1.871,-1.871l0.072,0l-0,-0Zm-1.151,7.053c-0.048,-0.384 0.084,-0.696 0.396,-0.936c0.312,-0.264 0.78,-0.396 1.403,-0.396c0.624,0 0.972,0.3 1.044,0.9c0.336,2.951 0.504,5.745 0.504,8.384c0,2.639 -0.084,5.278 -0.252,7.916c-0.168,2.663 -0.552,4.714 -1.151,6.153c-0.816,1.895 -2.291,2.843 -4.426,2.843c-1.079,0 -2.015,-0.336 -2.807,-1.008c-0.792,-0.672 -1.187,-1.475 -1.187,-2.411c0,-0.504 0.18,-0.888 0.54,-1.151c0.36,-0.264 0.756,-0.396 1.187,-0.396c0.432,0 0.756,0.108 0.972,0.324c0.216,0.216 0.36,0.456 0.432,0.72c0.24,0.696 0.648,1.044 1.223,1.044c0.6,0 1.103,-0.468 1.511,-1.403c0.432,-0.936 0.708,-2.207 0.828,-3.814c0.144,-1.607 0.216,-3.31 0.216,-5.11c0,-5.637 -0.144,-9.524 -0.432,-11.659Z" style="fill-rule:nonzero;"/><path id="path3391" d="M3.169,37.714l-0.115,-1.774l1.488,0.972c-0.544,-0.143 -1.23,0.258 -1.373,0.802Z" style="fill:#f00;fill-opacity:0.66;fill-rule:nonzero;"/><path d="M15.543,12.277c0.793,15.048 1.183,25.988 -3.827,27.348c-1.809,0.491 -5.955,0.188 -8.021,-2.587" style="fill:none;fill-rule:nonzero;stroke:#f00;stroke-opacity:0.66;stroke-width:0.27px;"/><path id="text1155-1" d="M17.652,17.881l-0.243,0l0,-1.408c0,-0.081 0.001,-0.146 0.003,-0.195c0.002,-0.049 0.005,-0.1 0.008,-0.152c-0.03,0.03 -0.057,0.055 -0.082,0.076c-0.024,0.021 -0.056,0.047 -0.093,0.079l-0.214,0.175l-0.13,-0.167l0.545,-0.423l0.206,0l-0,2.015Z" style="fill:#f00;fill-rule:nonzero;"/><path id="text1159-9" d="M17.284,8.094l-1.332,0l0,-0.206l0.528,-0.533c0.102,-0.102 0.187,-0.192 0.257,-0.271c0.07,-0.079 0.122,-0.156 0.158,-0.231c0.036,-0.077 0.054,-0.161 0.054,-0.251c0,-0.111 -0.033,-0.195 -0.099,-0.251c-0.066,-0.058 -0.151,-0.087 -0.257,-0.087c-0.098,0 -0.184,0.017 -0.26,0.051c-0.073,0.034 -0.149,0.081 -0.226,0.141l-0.133,-0.167c0.079,-0.066 0.169,-0.121 0.271,-0.167c0.103,-0.047 0.219,-0.071 0.347,-0.071c0.188,0 0.337,0.048 0.446,0.144c0.109,0.094 0.164,0.225 0.164,0.392c0,0.105 -0.022,0.204 -0.065,0.296c-0.043,0.092 -0.103,0.183 -0.181,0.274c-0.077,0.088 -0.167,0.183 -0.271,0.285l-0.421,0.415l0,0.011l1.019,0l0,0.226Z" style="fill:#f00;fill-rule:nonzero;"/></g></g></svg>