<svg xmlns="http://www.w3.org/2000/svg" xml:space="preserve" style="fill-rule:evenodd;clip-rule:evenodd" viewBox="0 0 185 42"><path d="M2.5 13.005h180" style="fill:none;fill-rule:nonzero;stroke:#000;stroke-opacity:.3;stroke-width:.25px;stroke-dasharray:.5,.5"/><path d="M2.5 4.006h180v23.997H2.5z" style="fill:none;fill-rule:nonzero;stroke:#000;stroke-opacity:.66;stroke-width:.25px;stroke-linecap:round;stroke-linejoin:round"/><path d="M37.755 13.355c.111 6.545-.719 14.587 3.156 14.156 2.722-.303 4.782-2.154 6.05-4.629m-.233-9.404c-.175 4.91-.052 9.059.54 14.153" style="fill:none;fill-rule:nonzero;stroke:#000;stroke-opacity:.32;stroke-width:.5px;stroke-linecap:round;stroke-linejoin:round;stroke-dasharray:1,1"/><path d="M68.755 13.355c.111 6.545-.719 14.587 3.156 14.156 2.722-.303 4.782-2.154 6.05-4.629m-.233-9.404c-.175 4.91-.052 9.059.54 14.153" style="fill:none;fill-rule:nonzero;stroke:#000;stroke-opacity:.16;stroke-width:.5px;stroke-linecap:round;stroke-linejoin:round;stroke-dasharray:1,1"/><path d="M99.755 13.355c.111 6.545-.719 14.587 3.156 14.156 2.722-.303 4.782-2.154 6.05-4.629m-.233-9.404c-.175 4.91-.052 9.059.54 14.153" style="fill:none;fill-rule:nonzero;stroke:#000;stroke-opacity:.08;stroke-width:.5px;stroke-linecap:round;stroke-linejoin:round;stroke-dasharray:1,1"/><path d="M130.755 13.355c.111 6.545-.719 14.587 3.156 14.156 2.722-.303 4.782-2.154 6.05-4.629m-.233-9.404c-.175 4.91-.052 9.059.54 14.153M161.755 13.355c.111 6.545-.719 14.587 3.156 14.156 2.722-.303 4.782-2.154 6.05-4.629m-.233-9.404c-.175 4.91-.052 9.059.54 14.153" style="fill:none;fill-rule:nonzero;stroke:#000;stroke-opacity:.04;stroke-width:.5px;stroke-linecap:round;stroke-linejoin:round;stroke-dasharray:1,1"/><path d="m19.799 26.433-.4 1.732-1.146-1.359c.48.293 1.252.106 1.546-.373" style="fill:red;fill-opacity:.66;fill-rule:nonzero"/><path d="M17.964 12.453c.112 5.221.343 10.703 1.138 14.476" style="fill:none;fill-rule:nonzero;stroke:red;stroke-opacity:.66;stroke-width:.27px"/><path d="M5.549 13.871q.144-.612.612-1.008.468-.432.936-.432.504 0 .756.18.288.18.324.324.072.144.144.504a67 67 0 0 0-.216 5.074q0 2.231.54 5.146.54 2.879 1.187 2.879.971 0 2.447-1.079 1.511-1.08 2.159-2.267-.432-5.181-.432-8.888 0-.756.468-1.295.504-.54 1.187-.54 1.116 0 1.115 1.511 0 2.555.36 7.592.396 5.037.792 6.405.072.288.072.684 0 .36-.504.684-.468.36-1.259.36-.756 0-1.008-.864-.072-.72-.36-2.159-2.518 2.627-5.074 2.627-1.188 0-2.123-.9t-1.475-2.447q-.936-2.986-.936-5.613 0-2.626.288-6.477Z" style="fill-rule:nonzero"/><path d="M4.146 26.936h-.243v-1.408q0-.122.003-.195l.008-.152q-.045.046-.082.076l-.093.079-.214.175-.13-.167.545-.423h.206z" style="fill:red;fill-rule:nonzero"/><path d="m12.366 28.179 1.76-.231-.871 1.547c.107-.551-.338-1.209-.889-1.315Z" style="fill:red;fill-opacity:.66;fill-rule:nonzero"/><path d="M4.48 13.029c-.731 8.525.16 11.713 1.142 13.64 1.785 3.503 4.425 3.823 7.451 1.99" style="fill:none;fill-rule:nonzero;stroke:red;stroke-opacity:.66;stroke-width:.26px"/><path d="M20.602 18.939H19.27v-.206l.528-.533q.152-.153.257-.271t.158-.231a.6.6 0 0 0 .054-.251q0-.167-.099-.251a.37.37 0 0 0-.257-.087.6.6 0 0 0-.26.051 1.2 1.2 0 0 0-.226.141l-.133-.167q.118-.098.271-.167a.8.8 0 0 1 .347-.071q.282 0 .446.144a.49.49 0 0 1 .164.392.7.7 0 0 1-.065.296 1.2 1.2 0 0 1-.181.274 5 5 0 0 1-.271.285l-.421.415v.011h1.019v.226Z" style="fill:red;fill-rule:nonzero"/></svg>