<svg xmlns="http://www.w3.org/2000/svg" xml:space="preserve" style="fill-rule:evenodd;clip-rule:evenodd" viewBox="0 0 185 42"><path d="M2.5 12.956h180" style="fill:none;fill-rule:nonzero;stroke:#000;stroke-opacity:.3;stroke-width:.25px;stroke-dasharray:.5,.5"/><path d="M2.5 3.958h180v23.997H2.5z" style="fill:none;fill-rule:nonzero;stroke:#000;stroke-opacity:.66;stroke-width:.25px;stroke-linecap:round;stroke-linejoin:round"/><path d="M37.818 20.734c3.885.306 10.726 1.13 9.359-4.094-.492-1.88-2.88-3.313-4.969-3.116-6.283.593-5.389 13.146-.685 13.865 3.673.562 5.916-2.089 5.916-2.089" style="fill:none;fill-rule:nonzero;stroke:#000;stroke-opacity:.32;stroke-width:.5px;stroke-linecap:round;stroke-linejoin:round;stroke-dasharray:1,1"/><path d="M68.818 20.734c3.885.306 10.726 1.13 9.359-4.094-.492-1.88-2.88-3.313-4.969-3.116-6.283.593-5.389 13.146-.685 13.865 3.673.562 5.916-2.089 5.916-2.089" style="fill:none;fill-rule:nonzero;stroke:#000;stroke-opacity:.16;stroke-width:.5px;stroke-linecap:round;stroke-linejoin:round;stroke-dasharray:1,1"/><path d="M99.818 20.734c3.885.306 10.726 1.13 9.359-4.094-.492-1.88-2.88-3.313-4.969-3.116-6.283.593-5.389 13.146-.685 13.865 3.673.562 5.916-2.089 5.916-2.089" style="fill:none;fill-rule:nonzero;stroke:#000;stroke-opacity:.08;stroke-width:.5px;stroke-linecap:round;stroke-linejoin:round;stroke-dasharray:1,1"/><path d="M130.818 20.734c3.885.306 10.726 1.13 9.359-4.094-.492-1.88-2.88-3.313-4.969-3.116-6.283.593-5.389 13.146-.685 13.865 3.673.562 5.916-2.089 5.916-2.089M161.818 20.734c3.885.306 10.726 1.13 9.359-4.094-.492-1.88-2.88-3.313-4.969-3.116-6.283.593-5.389 13.146-.685 13.865 3.673.562 5.916-2.089 5.916-2.089" style="fill:none;fill-rule:nonzero;stroke:#000;stroke-opacity:.04;stroke-width:.5px;stroke-linecap:round;stroke-linejoin:round;stroke-dasharray:1,1"/><path d="M11.139 12.654q1.907 0 3.634 1.115Q16.5 14.885 16.5 16.54q0 1.619-1.403 3.167-1.404 1.511-3.742 1.835-1.008.144-3.023.144.396 3.058 1.547 4.03.36.396.972.396 2.231 0 3.742-1.403 1.511-1.44 2.159-1.439.288 0 .864.54t.576 1.008q0 .935-2.267 2.699-1.008.828-2.447 1.403-1.404.54-2.627.54-3.13 0-4.606-4.03-.936-2.483-.936-5.469t1.403-5.146q1.404-2.159 4.426-2.159Zm.18 2.483q-1.367 0-2.339 1.547-.36.54-.684 2.447 5.038 0 5.038-2.483 0-1.511-2.015-1.511" style="fill-rule:nonzero"/><path d="m16.507 26.715 1.715-.47-.653 1.653c.031-.561-.5-1.153-1.061-1.184Z" style="fill:red;fill-opacity:.66;fill-rule:nonzero"/><path d="M9.523 21.952c10.871-.325 9.793-11.01 1.612-10.855-6.87.131-6.98 6.766-6.607 10.478.931 9.271 6.876 10.448 12.747 5.519" style="fill:none;fill-rule:nonzero;stroke:red;stroke-opacity:.66;stroke-width:.27px"/><path d="M16.247 11.268h-.243V9.86q0-.121.003-.195l.008-.152q-.045.045-.082.076l-.093.079-.214.175-.13-.167.545-.423h.206z" style="fill:red;fill-rule:nonzero"/></svg>