<?xml version="1.0" encoding="UTF-8" standalone="no"?><!DOCTYPE svg PUBLIC "-//W3C//DTD SVG 1.1//EN" "http://www.w3.org/Graphics/SVG/1.1/DTD/svg11.dtd"><svg width="100%" height="100%" viewBox="0 0 185 42" version="1.1" xmlns="http://www.w3.org/2000/svg" xmlns:xlink="http://www.w3.org/1999/xlink" xml:space="preserve" xmlns:serif="http://www.serif.com/" style="fill-rule:evenodd;clip-rule:evenodd;"><g><path id="path1018-7-4-8-4-9-7" d="M2.5,13.005l180,0" style="fill:none;fill-rule:nonzero;stroke:#000;stroke-opacity:0.3;stroke-width:0.25px;stroke-dasharray:0.5,0.5;"/><rect id="path4601-3-6-3-2-1" x="2.5" y="4.006" width="180" height="23.997" style="fill:none;fill-rule:nonzero;stroke:#000;stroke-opacity:0.66;stroke-width:0.25px;stroke-linecap:round;stroke-linejoin:round;"/><path id="path988-2-9-0-0-1-8-1" d="M46.804,14.315c-5.519,-2.435 -8.948,0.315 -9.055,6.96c0.128,5.908 3.796,7.817 9.387,4.846" style="fill:none;fill-rule:nonzero;stroke:#000;stroke-opacity:0.32;stroke-width:0.5px;stroke-linecap:round;stroke-linejoin:round;stroke-dasharray:1,1;"/><path id="path990-9-3-8-6-94-4-2" d="M46.585,4.655l0.219,9.659l0.431,13.125" style="fill:none;fill-rule:nonzero;stroke:#000;stroke-opacity:0.32;stroke-width:0.5px;stroke-linecap:round;stroke-linejoin:round;stroke-dasharray:1,1;"/><path id="path988-2-9-0-0-1-8-9-93" d="M77.805,14.315c-5.519,-2.435 -8.948,0.315 -9.055,6.96c0.128,5.908 3.796,7.817 9.387,4.846" style="fill:none;fill-rule:nonzero;stroke:#000;stroke-opacity:0.16;stroke-width:0.5px;stroke-linecap:round;stroke-linejoin:round;stroke-dasharray:1,1;"/><path id="path990-9-3-8-6-94-4-4-6" d="M77.586,4.655l0.219,9.659l0.431,13.125" style="fill:none;fill-rule:nonzero;stroke:#000;stroke-opacity:0.16;stroke-width:0.5px;stroke-linecap:round;stroke-linejoin:round;stroke-dasharray:1,1;"/><path id="path988-2-9-0-0-1-8-9-9-0" d="M108.805,14.315c-5.519,-2.435 -8.948,0.315 -9.055,6.96c0.128,5.908 3.796,7.817 9.387,4.846" style="fill:none;fill-rule:nonzero;stroke:#000;stroke-opacity:0.08;stroke-width:0.5px;stroke-linecap:round;stroke-linejoin:round;stroke-dasharray:1,1;"/><path id="path990-9-3-8-6-94-4-4-2-2" d="M108.586,4.655l0.219,9.659l0.431,13.125" style="fill:none;fill-rule:nonzero;stroke:#000;stroke-opacity:0.08;stroke-width:0.5px;stroke-linecap:round;stroke-linejoin:round;stroke-dasharray:1,1;"/><path id="path988-2-9-0-0-1-8-9-9-4-0" d="M139.805,14.315c-5.519,-2.435 -8.948,0.315 -9.055,6.96c0.128,5.908 3.796,7.817 9.387,4.846" style="fill:none;fill-rule:nonzero;stroke:#000;stroke-opacity:0.04;stroke-width:0.5px;stroke-linecap:round;stroke-linejoin:round;stroke-dasharray:1,1;"/><path id="path990-9-3-8-6-94-4-4-2-7-5" d="M139.586,4.655l0.219,9.659l0.431,13.125" style="fill:none;fill-rule:nonzero;stroke:#000;stroke-opacity:0.04;stroke-width:0.5px;stroke-linecap:round;stroke-linejoin:round;stroke-dasharray:1,1;"/><path id="path988-2-9-0-0-1-8-9-9-4-5-1" d="M170.805,14.315c-5.519,-2.435 -8.948,0.315 -9.055,6.96c0.128,5.908 3.796,7.817 9.387,4.846" style="fill:none;fill-rule:nonzero;stroke:#000;stroke-opacity:0.04;stroke-width:0.5px;stroke-linecap:round;stroke-linejoin:round;stroke-dasharray:1,1;"/><path id="path990-9-3-8-6-94-4-4-2-7-4-0" d="M170.586,4.655l0.219,9.659l0.431,13.125" style="fill:none;fill-rule:nonzero;stroke:#000;stroke-opacity:0.04;stroke-width:0.5px;stroke-linecap:round;stroke-linejoin:round;stroke-dasharray:1,1;"/><g><path id="text833" d="M14.363,12.538l-0.036,-6.945c0,-1.295 0.408,-1.943 1.223,-1.943c0.84,0 1.307,0.36 1.403,1.079c0.048,0.312 0.108,2.195 0.18,5.649c0.072,3.454 0.18,6.693 0.324,9.715c0.168,3.023 0.252,5.841 0.252,8.456c0,0.72 -0.54,1.079 -1.619,1.079c-0.72,0 -1.079,-0.504 -1.079,-1.511c-1.032,0.816 -2.255,1.223 -3.67,1.223c-1.799,0 -3.262,-0.672 -4.39,-2.015c-1.103,-1.343 -1.655,-2.999 -1.655,-4.966c0,-1.967 0.396,-3.802 1.187,-5.505c0.816,-1.727 2.075,-2.963 3.778,-3.706c1.056,-0.456 2.075,-0.684 3.059,-0.684c0.36,0 0.708,0.024 1.044,0.072l-0,-0Zm0.18,4.93c-0.168,-0.528 -0.372,-0.924 -0.612,-1.187c-0.24,-0.288 -0.504,-0.456 -0.792,-0.504c-0.264,-0.072 -0.588,-0.108 -0.972,-0.108c-0.384,0 -0.852,0.144 -1.403,0.432c-0.552,0.288 -1.02,0.756 -1.403,1.403c-0.768,1.295 -1.151,2.663 -1.151,4.102c0,1.415 0.276,2.579 0.828,3.49c0.576,0.888 1.379,1.331 2.411,1.331c1.056,0 1.883,-0.516 2.483,-1.547c0.6,-1.032 0.9,-2.351 0.9,-3.958c0,-1.799 -0.096,-2.951 -0.288,-3.454Z" style="fill-rule:nonzero;"/><path id="path3147" d="M19.476,27.228l-0.788,1.593l-0.802,-1.587c0.399,0.396 1.194,0.393 1.59,-0.007Z" style="fill:#f00;fill-opacity:0.66;fill-rule:nonzero;"/><path d="M18.093,3.715c0.049,9.451 0.534,16.017 0.59,23.834" style="fill:none;fill-rule:nonzero;stroke:#f00;stroke-opacity:0.66;stroke-width:0.27px;"/><path id="path3391" d="M12.506,28.956l1.732,0.402l-1.36,1.144c0.294,-0.479 0.108,-1.252 -0.371,-1.546Z" style="fill:#f00;fill-opacity:0.66;fill-rule:nonzero;"/><path d="M13.231,10.814c-5.751,-0.385 -8.82,4.953 -8.939,10.223c-0.135,5.956 2.987,9.694 8.71,8.618" style="fill:none;fill-rule:nonzero;stroke:#f00;stroke-opacity:0.66;stroke-width:0.27px;"/><path id="text1155-1" d="M6.073,12.595l-0.243,0l0,-1.408c0,-0.081 0.001,-0.146 0.003,-0.195c0.002,-0.049 0.005,-0.1 0.008,-0.152c-0.03,0.03 -0.057,0.056 -0.082,0.076c-0.024,0.021 -0.056,0.047 -0.093,0.079l-0.214,0.175l-0.13,-0.167l0.545,-0.423l0.206,0l-0,2.015Z" style="fill:#f00;fill-rule:nonzero;"/><path id="text1159-8" d="M20.292,10.418l-1.332,0l0,-0.206l0.528,-0.533c0.102,-0.102 0.187,-0.192 0.257,-0.271c0.07,-0.079 0.122,-0.156 0.158,-0.231c0.036,-0.077 0.054,-0.161 0.054,-0.251c0,-0.111 -0.033,-0.195 -0.099,-0.251c-0.066,-0.058 -0.151,-0.087 -0.257,-0.087c-0.098,0 -0.184,0.017 -0.26,0.051c-0.073,0.034 -0.149,0.081 -0.226,0.141l-0.133,-0.167c0.079,-0.066 0.169,-0.121 0.271,-0.167c0.103,-0.047 0.219,-0.071 0.347,-0.071c0.188,0 0.337,0.048 0.446,0.144c0.109,0.094 0.164,0.225 0.164,0.392c0,0.105 -0.022,0.204 -0.065,0.296c-0.043,0.092 -0.103,0.183 -0.181,0.274c-0.077,0.088 -0.167,0.183 -0.271,0.285l-0.421,0.415l0,0.011l1.019,0l0,0.226Z" style="fill:#f00;fill-rule:nonzero;"/></g></g></svg>