<svg xmlns="http://www.w3.org/2000/svg" xml:space="preserve" style="fill-rule:evenodd;clip-rule:evenodd" viewBox="0 0 185 42"><path d="M2.5 12.956h180" style="fill:none;fill-rule:nonzero;stroke:#000;stroke-opacity:.3;stroke-width:.25px;stroke-dasharray:.5,.5"/><path d="M2.5 3.958h180v23.997H2.5z" style="fill:none;fill-rule:nonzero;stroke:#000;stroke-opacity:.66;stroke-width:.25px;stroke-linecap:round;stroke-linejoin:round"/><path d="M38.02 14.691c4.305-3.163 8.992-.028 9.077 6.25-.028 5.338-5.497 8.368-8.814 5.369" style="fill:none;fill-rule:nonzero;stroke:#000;stroke-opacity:.32;stroke-width:.5px;stroke-linecap:round;stroke-linejoin:round;stroke-dasharray:1,1"/><path d="m37.749 4.457.271 10.234.264 12.902" style="fill:none;fill-rule:nonzero;stroke:#000;stroke-opacity:.32;stroke-width:.5px;stroke-linecap:round;stroke-linejoin:round;stroke-dasharray:1,1"/><path d="M69.02 14.691c4.305-3.163 8.992-.028 9.077 6.25-.028 5.338-5.497 8.368-8.814 5.369" style="fill:none;fill-rule:nonzero;stroke:#000;stroke-opacity:.16;stroke-width:.5px;stroke-linecap:round;stroke-linejoin:round;stroke-dasharray:1,1"/><path d="m68.749 4.457.271 10.234.264 12.902" style="fill:none;fill-rule:nonzero;stroke:#000;stroke-opacity:.16;stroke-width:.5px;stroke-linecap:round;stroke-linejoin:round;stroke-dasharray:1,1"/><path d="M100.02 14.691c4.305-3.163 8.992-.028 9.077 6.25-.028 5.338-5.497 8.368-8.814 5.369" style="fill:none;fill-rule:nonzero;stroke:#000;stroke-opacity:.08;stroke-width:.5px;stroke-linecap:round;stroke-linejoin:round;stroke-dasharray:1,1"/><path d="m99.749 4.457.271 10.234.264 12.902" style="fill:none;fill-rule:nonzero;stroke:#000;stroke-opacity:.08;stroke-width:.5px;stroke-linecap:round;stroke-linejoin:round;stroke-dasharray:1,1"/><path d="M131.02 14.691c4.305-3.163 8.992-.028 9.077 6.25-.028 5.338-5.497 8.368-8.814 5.369M130.749 4.457l.271 10.234.264 12.902M162.02 14.691c4.305-3.163 8.992-.028 9.077 6.25-.028 5.338-5.497 8.368-8.814 5.369M161.749 4.457l.271 10.234.264 12.902" style="fill:none;fill-rule:nonzero;stroke:#000;stroke-opacity:.04;stroke-width:.5px;stroke-linecap:round;stroke-linejoin:round;stroke-dasharray:1,1"/><path d="M5.222 5.108q0-1.44 1.799-1.439.828 0 .972 1.008v5.397q0 1.512.036 3.023.72-.216 1.835-.216 3.49 0 5.397 2.339t1.907 5.865-2.267 5.973q-2.23 2.41-5.757 2.411T5.618 27.49q0-2.015-.216-10.147-.18-8.168-.18-12.234Zm7.269 11.587q-1.296-1.008-2.735-1.008-.792 0-1.619.288.216 2.95.216 10.471.612.216 1.259.216 1.403 0 2.807-1.044 2.087-1.44 2.087-4.39 0-2.986-2.015-4.534Z" style="fill-rule:nonzero"/><path d="m5.239 26.422-.781 1.597-.809-1.583c.401.394 1.196.387 1.59-.014" style="fill:red;fill-opacity:.66;fill-rule:nonzero"/><path d="M4.005 8.222c.1 9.38.364 11.33.441 18.525" style="fill:none;fill-rule:nonzero;stroke:red;stroke-opacity:.66;stroke-width:.27px"/><path d="m8.07 30.649-1.429-1.057 1.703-.509c-.46.323-.597 1.106-.274 1.566" style="fill:red;fill-opacity:.66;fill-rule:nonzero"/><path d="M8.84 11.215c7.198-.543 9.252 4.786 9.334 9.126.109 5.832-3.949 10.262-10.28 9.47" style="fill:none;fill-rule:nonzero;stroke:red;stroke-opacity:.66;stroke-width:.27px"/><path d="M4.005 7.127h-.243V5.719q0-.122.003-.195l.008-.152q-.045.045-.082.076l-.093.079-.214.175-.13-.167.545-.423h.206zM18.972 14.148H17.64v-.206l.528-.533q.153-.153.257-.271t.158-.231a.6.6 0 0 0 .054-.251q0-.167-.099-.251a.37.37 0 0 0-.257-.087.6.6 0 0 0-.26.051 1.2 1.2 0 0 0-.226.141l-.133-.167q.118-.099.271-.167a.8.8 0 0 1 .347-.071q.282 0 .446.144a.49.49 0 0 1 .164.392.7.7 0 0 1-.065.296 1.2 1.2 0 0 1-.181.274 5 5 0 0 1-.271.285l-.421.415v.011h1.019v.226Z" style="fill:red;fill-rule:nonzero"/></svg>