<svg xmlns="http://www.w3.org/2000/svg" xml:space="preserve" style="fill-rule:evenodd;clip-rule:evenodd" viewBox="0 0 185 42"><path d="M2.5 13.005h180" style="fill:none;fill-rule:nonzero;stroke:#000;stroke-opacity:.3;stroke-width:.25px;stroke-dasharray:.5,.5"/><path d="M2.5 4.006h180v23.997H2.5z" style="fill:none;fill-rule:nonzero;stroke:#000;stroke-opacity:.66;stroke-width:.25px;stroke-linecap:round;stroke-linejoin:round"/><path d="M39.216 12.983c-.018 4.277.033 9.552.031 14.31M40.054 8.964c1.093-1.467-1.156-3.067-2.064-1.829s.97 3.296 2.064 1.829" style="fill:none;fill-rule:nonzero;stroke:#000;stroke-opacity:.32;stroke-width:.5px;stroke-linecap:round;stroke-linejoin:round;stroke-dasharray:1,1"/><path d="M70.216 12.983c-.018 4.277.033 9.552.031 14.31M71.054 8.964c1.093-1.467-1.156-3.067-2.064-1.829s.97 3.296 2.064 1.829" style="fill:none;fill-rule:nonzero;stroke:#000;stroke-opacity:.16;stroke-width:.5px;stroke-linecap:round;stroke-linejoin:round;stroke-dasharray:1,1"/><path d="M101.216 12.983c-.018 4.277.033 9.552.031 14.31M102.054 8.964c1.093-1.467-1.156-3.067-2.064-1.829s.97 3.296 2.064 1.829" style="fill:none;fill-rule:nonzero;stroke:#000;stroke-opacity:.08;stroke-width:.5px;stroke-linecap:round;stroke-linejoin:round;stroke-dasharray:1,1"/><path d="M132.216 12.983c-.018 4.277.033 9.552.031 14.31M133.054 8.964c1.093-1.467-1.156-3.067-2.064-1.829s.97 3.296 2.064 1.829M163.216 12.983c-.018 4.277.033 9.552.031 14.31M164.054 8.964c1.093-1.467-1.156-3.067-2.064-1.829s.97 3.296 2.064 1.829" style="fill:none;fill-rule:nonzero;stroke:#000;stroke-opacity:.04;stroke-width:.5px;stroke-linecap:round;stroke-linejoin:round;stroke-dasharray:1,1"/><path d="M8.202 6.324q.648 0 1.223.612t.576 1.295q0 .648-.648 1.331-.612.684-1.295.684-.684 0-1.259-.576-.54-.576-.54-1.475 0-1.727 1.871-1.871zm1.511 18.855.036 2.519q0 .684-.54 1.151-.54.432-1.151.432-.9 0-.936-.9-.468-11.478-.468-12.702t.108-2.987q.072-.648.828-.648 1.907 0 2.159 1.547.108.792.108 1.259l-.144 2.267v8.06Z" style="fill-rule:nonzero"/><path d="m6.373 26.063-.743 1.615-.846-1.563c.41.384 1.205.359 1.589-.052" style="fill:red;fill-opacity:.66;fill-rule:nonzero"/><path d="M5.19 12.312c-.093 5.449.239 9.756.398 14.095" style="fill:none;fill-rule:nonzero;stroke:red;stroke-opacity:.66;stroke-width:.27px"/><path d="M3.596 16.545h-.243v-1.408q0-.121.003-.195l.008-.152q-.045.045-.082.076l-.093.079-.214.175-.13-.167.545-.423h.206zM12.643 7.846h-1.332V7.64l.528-.533q.153-.153.257-.271t.158-.231a.6.6 0 0 0 .054-.251q0-.167-.099-.251a.37.37 0 0 0-.257-.087.6.6 0 0 0-.26.051 1.2 1.2 0 0 0-.226.141l-.133-.167q.118-.099.271-.167a.8.8 0 0 1 .347-.071q.282 0 .446.144a.49.49 0 0 1 .164.392.7.7 0 0 1-.065.296 1.2 1.2 0 0 1-.181.274 5 5 0 0 1-.271.285l-.421.415v.011h1.019v.226Z" style="fill:red;fill-rule:nonzero"/></svg>