<svg xmlns="http://www.w3.org/2000/svg" xml:space="preserve" style="fill-rule:evenodd;clip-rule:evenodd" viewBox="0 0 185 42"><path d="M2.673 12.956h180" style="fill:none;fill-rule:nonzero;stroke:#000;stroke-opacity:.3;stroke-width:.25px;stroke-dasharray:.5,.5"/><path d="M2.673 3.958h180v23.997h-180z" style="fill:none;fill-rule:nonzero;stroke:#000;stroke-opacity:.66;stroke-width:.25px;stroke-linecap:round;stroke-linejoin:round"/><path d="M173.074 25.023c-5.415 5.005-11.062 1.949-11.15-4.924-.084-6.53 7.153-9.399 11.181-3.226m.018-3.355.107 24.961M142.074 25.023c-5.415 5.005-11.062 1.949-11.15-4.924-.084-6.53 7.153-9.399 11.181-3.226m.018-3.355.107 24.961" style="fill:none;fill-rule:nonzero;stroke:#000;stroke-opacity:.04;stroke-width:.5px;stroke-linecap:round;stroke-linejoin:round;stroke-dasharray:1,1"/><path d="M111.074 25.023c-5.415 5.005-11.062 1.949-11.151-4.924-.084-6.53 7.153-9.399 11.181-3.226m.018-3.355.107 24.961" style="fill:none;fill-rule:nonzero;stroke:#000;stroke-opacity:.08;stroke-width:.5px;stroke-linecap:round;stroke-linejoin:round;stroke-dasharray:1,1"/><path d="M80.074 25.023c-5.415 5.005-11.062 1.949-11.15-4.924-.084-6.53 7.153-9.399 11.181-3.226m.018-3.355.107 24.961" style="fill:none;fill-rule:nonzero;stroke:#000;stroke-opacity:.16;stroke-width:.5px;stroke-linecap:round;stroke-linejoin:round;stroke-dasharray:1,1"/><path d="M49.074 25.023c-5.415 5.005-11.062 1.949-11.151-4.924-.084-6.53 7.153-9.399 11.181-3.226m.018-3.355.107 24.961" style="fill:none;fill-rule:nonzero;stroke:#000;stroke-opacity:.32;stroke-width:.5px;stroke-linecap:round;stroke-linejoin:round;stroke-dasharray:1,1"/><path d="M17.147 39.395v-.18l.144-5.685a53 53 0 0 0-.144-3.814l-.216-2.807q-1.188 2.339-5.038 2.339-1.835 0-3.418-1.187-3.023-2.338-3.023-6.981 0-3.995 1.799-6.261 1.835-2.267 5.218-2.267t5.002 1.799q1.116 1.223 1.583 2.591.684 2.374.72 5.541v1.331l.288 7.449q.036 1.115.036 3.095v4.426q-.144.684-.72 1.187-.576.504-1.044.504-1.187 0-1.187-1.079ZM11.39 15.394q-1.548 0-2.303 1.223-.756 1.224-.756 3.958t1.187 4.39q1.188 1.619 2.735 1.619t2.735-1.115q1.223-1.116 1.871-3.167-.18-3.814-1.439-5.362-1.26-1.547-4.03-1.547Z" style="fill-rule:nonzero"/><path d="m14.501 28.311 1.773.122-1.162 1.345c.214-.52-.092-1.254-.612-1.468Z" style="fill:red;fill-opacity:.66;fill-rule:nonzero"/><path d="M17.143 12.323c-6.226-3.107-12.629-.361-12.476 8.395.106 6.036 4.249 10.417 10.434 8.204" style="fill:none;fill-rule:nonzero;stroke:red;stroke-opacity:.66;stroke-width:.27px"/><path d="M8.216 10.853h-.243V9.445q0-.122.003-.195l.008-.152q-.045.045-.082.076l-.093.079-.214.175-.13-.167.545-.423h.206z" style="fill:red;fill-rule:nonzero"/><path d="m21.868 37.227-.819 1.578-.771-1.602c.391.403 1.186.416 1.59.024" style="fill:red;fill-opacity:.66;fill-rule:nonzero"/><path d="M19.717 13.633c1.26 3.07 1.396 18.708 1.351 23.9" style="fill:none;fill-rule:nonzero;stroke:red;stroke-opacity:.66;stroke-width:.27px"/><path d="M22.818 17.226h-1.332v-.206l.528-.533q.153-.153.257-.271t.158-.231a.6.6 0 0 0 .054-.251q0-.167-.099-.251a.37.37 0 0 0-.257-.087.6.6 0 0 0-.26.051 1.2 1.2 0 0 0-.226.141l-.133-.167q.118-.098.271-.167a.8.8 0 0 1 .347-.071q.282 0 .446.144a.49.49 0 0 1 .164.392.7.7 0 0 1-.065.296 1.2 1.2 0 0 1-.181.274 5 5 0 0 1-.271.285l-.421.415V17h1.019v.226Z" style="fill:red;fill-rule:nonzero"/></svg>