<svg xmlns="http://www.w3.org/2000/svg" xml:space="preserve" style="fill-rule:evenodd;clip-rule:evenodd" viewBox="0 0 185 42"><path d="M2.5 13.005h180" style="fill:none;fill-rule:nonzero;stroke:#000;stroke-opacity:.3;stroke-width:.25px;stroke-dasharray:.5,.5"/><path d="M2.5 4.006h180v23.997H2.5z" style="fill:none;fill-rule:nonzero;stroke:#000;stroke-opacity:.66;stroke-width:.25px;stroke-linecap:round;stroke-linejoin:round"/><path d="M42.805 18.343c2.631 2.419 4.642 6.72 5.181 9.158m-.842-14.614c-1.625 2.688-5.982 7.507-8.636 9.177m-.757-17.51c.07 7.438.488 16.23.596 22.836" style="fill:none;fill-rule:nonzero;stroke:#000;stroke-opacity:.32;stroke-width:.5px;stroke-linecap:round;stroke-linejoin:round;stroke-dasharray:1,1"/><path d="M73.805 18.343c2.631 2.419 4.642 6.72 5.181 9.158m-.842-14.614c-1.625 2.688-5.982 7.507-8.636 9.177m-.757-17.51c.07 7.438.488 16.23.596 22.836" style="fill:none;fill-rule:nonzero;stroke:#000;stroke-opacity:.16;stroke-width:.5px;stroke-linecap:round;stroke-linejoin:round;stroke-dasharray:1,1"/><path d="M104.805 18.343c2.631 2.419 4.642 6.72 5.181 9.158m-.842-14.614c-1.625 2.688-5.982 7.507-8.636 9.177m-.757-17.51c.07 7.438.488 16.23.596 22.836" style="fill:none;fill-rule:nonzero;stroke:#000;stroke-opacity:.08;stroke-width:.5px;stroke-linecap:round;stroke-linejoin:round;stroke-dasharray:1,1"/><path d="M135.805 18.343c2.631 2.419 4.642 6.72 5.181 9.158m-.842-14.614c-1.625 2.688-5.982 7.507-8.636 9.177m-.757-17.51c.07 7.438.488 16.23.596 22.836M166.805 18.343c2.631 2.419 4.642 6.72 5.181 9.158m-.842-14.614c-1.625 2.688-5.982 7.507-8.636 9.177m-.757-17.51c.07 7.438.488 16.23.596 22.836" style="fill:none;fill-rule:nonzero;stroke:#000;stroke-opacity:.04;stroke-width:.5px;stroke-linecap:round;stroke-linejoin:round;stroke-dasharray:1,1"/><path d="m14.574 26.111.044 1.774-1.446-1.029c.537.164 1.238-.208 1.402-.745" style="fill:red;fill-opacity:.66;fill-rule:nonzero"/><path d="M11.432 22.121c1.495 1.459 1.761 2.889 2.59 4.643" style="fill:none;fill-rule:nonzero;stroke:red;stroke-opacity:.66;stroke-width:.26px"/><path d="M17.844 27.383q0 1.69-1.547 1.691-.648 0-1.763-3.167-1.115-3.202-2.987-4.93-.18.252-1.547 1.439-1.332 1.151-1.583 1.403v3.598q-.072.54-.18.828t-.504.54q-.36.252-1.008.252-.972 0-.972-1.187 0-3.346-.288-10.363-.288-7.053-.288-12.63 0-.684.54-1.079.576-.396 1.187-.396.828 0 1.008 1.044v6.369q0 1.152.036 1.727t.072 1.727q.072 2.374.252 5.362 1.043-.791 2.663-2.483 1.655-1.727 2.483-2.951 1.296-2.05 2.375-2.051.288 0 .576.144.756.432.756 1.008t-.504 1.511a23 23 0 0 1-2.987 4.066q1.619 1.799 3.238 5.146.972 2.159.972 3.382" style="fill-rule:nonzero"/><path d="m5.276 25.827-.732 1.62-.857-1.558c.413.382 1.207.35 1.589-.062" style="fill:red;fill-opacity:.66;fill-rule:nonzero"/><path d="M3.793 8.481c-.071 7.612.37 9.715.701 17.695" style="fill:none;fill-rule:nonzero;stroke:red;stroke-opacity:.66;stroke-width:.27px"/><path d="M4.164 7.426h-.243V6.018q0-.122.003-.195l.008-.152q-.045.046-.082.076l-.093.079-.214.175-.13-.167.545-.423h.206zM12.271 9.511h-1.332v-.206l.528-.533q.153-.153.257-.271t.158-.231a.6.6 0 0 0 .054-.251q0-.167-.099-.251a.37.37 0 0 0-.257-.087.6.6 0 0 0-.26.051 1.2 1.2 0 0 0-.226.141l-.133-.167q.118-.098.271-.167a.8.8 0 0 1 .347-.071q.282 0 .446.144a.49.49 0 0 1 .164.392.7.7 0 0 1-.065.296 1.2 1.2 0 0 1-.181.274 5 5 0 0 1-.271.285l-.421.415v.011h1.019v.226Z" style="fill:red;fill-rule:nonzero"/><path d="m10.705 16.363-1.683.565.557-1.685c.001.561.564 1.121 1.125 1.12Z" style="fill:red;fill-opacity:.66;fill-rule:nonzero"/><path d="M13.929 10.825c-1.169 1.933-2.277 3.412-4.01 5.203" style="fill:none;fill-rule:nonzero;stroke:red;stroke-opacity:.66;stroke-width:.26px"/></svg>