<svg xmlns="http://www.w3.org/2000/svg" xml:space="preserve" style="fill-rule:evenodd;clip-rule:evenodd" viewBox="0 0 185 42"><path d="M2.5 13.005h180" style="fill:none;fill-rule:nonzero;stroke:#000;stroke-opacity:.3;stroke-width:.25px;stroke-dasharray:.5,.5"/><path d="M2.5 4.006h180v23.997H2.5z" style="fill:none;fill-rule:nonzero;stroke:#000;stroke-opacity:.66;stroke-width:.25px;stroke-linecap:round;stroke-linejoin:round"/><path d="M47.47 14.302c-6.661-3.106-9.977 3.448-9.705 6.824.368 4.898 2.697 9.005 9.916 4.369" style="fill:none;fill-rule:nonzero;stroke:#000;stroke-opacity:.32;stroke-width:.5px;stroke-linecap:round;stroke-linejoin:round;stroke-dasharray:1,1"/><path d="M78.47 14.302c-6.661-3.106-9.977 3.448-9.705 6.824.368 4.898 2.697 9.005 9.916 4.369" style="fill:none;fill-rule:nonzero;stroke:#000;stroke-opacity:.16;stroke-width:.5px;stroke-linecap:round;stroke-linejoin:round;stroke-dasharray:1,1"/><path d="M109.47 14.302c-6.661-3.106-9.977 3.448-9.705 6.824.368 4.898 2.697 9.005 9.916 4.369" style="fill:none;fill-rule:nonzero;stroke:#000;stroke-opacity:.08;stroke-width:.5px;stroke-linecap:round;stroke-linejoin:round;stroke-dasharray:1,1"/><path d="M140.47 14.302c-6.661-3.106-9.977 3.448-9.705 6.824.368 4.898 2.697 9.005 9.916 4.369M171.47 14.302c-6.661-3.106-9.977 3.448-9.705 6.824.368 4.898 2.697 9.005 9.916 4.369" style="fill:none;fill-rule:nonzero;stroke:#000;stroke-opacity:.04;stroke-width:.5px;stroke-linecap:round;stroke-linejoin:round;stroke-dasharray:1,1"/><path d="M5.281 20.888q0-2.411 1.259-4.39 1.296-1.979 3.274-2.951 1.979-1.008 3.85-1.008t2.987.468q1.152.432 1.151 1.187 0 .72-.432 1.475-.396.72-1.079.72-.252 0-1.403-.396-1.115-.432-1.439-.432-2.087 0-3.562 1.547-1.475 1.512-1.475 4.03t.792 3.778q.827 1.223 2.807 1.223.791 0 2.699-.9 1.943-.936 2.411-.936t.756.288a.98.98 0 0 1 .288.72q0 .864-1.115 1.835-1.08.935-2.699 1.583-1.619.612-2.915.612-2.878 0-4.534-2.267-1.619-2.267-1.619-6.189Z" style="fill-rule:nonzero"/><path d="m16.828 28.207 1.774-.119-.969 1.49c.142-.544-.261-1.23-.805-1.371" style="fill:red;fill-opacity:.66;fill-rule:nonzero"/><path d="M17.232 11.374C9.863 9.43 4.259 14.127 4.345 20.324c.104 7.467 5.161 12.74 13.159 8.408" style="fill:none;fill-rule:nonzero;stroke:red;stroke-opacity:.66;stroke-width:.27px"/><path d="M5.938 13.018h-.243V11.61q0-.121.003-.195l.008-.152q-.045.045-.082.076l-.093.079-.214.175-.13-.167.545-.423h.206z" style="fill:red;fill-rule:nonzero"/></svg>