<?xml version="1.0" encoding="UTF-8" standalone="no"?><!DOCTYPE svg PUBLIC "-//W3C//DTD SVG 1.1//EN" "http://www.w3.org/Graphics/SVG/1.1/DTD/svg11.dtd"><svg width="100%" height="100%" viewBox="0 0 185 42" version="1.1" xmlns="http://www.w3.org/2000/svg" xmlns:xlink="http://www.w3.org/1999/xlink" xml:space="preserve" xmlns:serif="http://www.serif.com/" style="fill-rule:evenodd;clip-rule:evenodd;"><g><path id="path1018-7-4-8-4-9-7" d="M2.5,12.956l180,0" style="fill:none;fill-rule:nonzero;stroke:#000;stroke-opacity:0.3;stroke-width:0.25px;stroke-dasharray:0.5,0.5;"/><rect id="path4601-3-6-3-2-1" x="2.5" y="3.958" width="180" height="23.997" style="fill:none;fill-rule:nonzero;stroke:#000;stroke-opacity:0.66;stroke-width:0.25px;stroke-linecap:round;stroke-linejoin:round;"/><path id="path988-2-9-0-0-8" d="M38.02,14.691c4.305,-3.163 8.992,-0.028 9.077,6.25c-0.028,5.338 -5.497,8.368 -8.814,5.369" style="fill:none;fill-rule:nonzero;stroke:#000;stroke-opacity:0.32;stroke-width:0.5px;stroke-linecap:round;stroke-linejoin:round;stroke-dasharray:1,1;"/><path id="path990-9-3-8-6-5" d="M37.749,4.457l0.271,10.234l0.264,12.902" style="fill:none;fill-rule:nonzero;stroke:#000;stroke-opacity:0.32;stroke-width:0.5px;stroke-linecap:round;stroke-linejoin:round;stroke-dasharray:1,1;"/><path id="path988-2-9-0-0-4-4" d="M69.02,14.691c4.305,-3.163 8.992,-0.028 9.077,6.25c-0.028,5.338 -5.497,8.368 -8.814,5.369" style="fill:none;fill-rule:nonzero;stroke:#000;stroke-opacity:0.16;stroke-width:0.5px;stroke-linecap:round;stroke-linejoin:round;stroke-dasharray:1,1;"/><path id="path990-9-3-8-6-7-18" d="M68.749,4.457l0.271,10.234l0.264,12.902" style="fill:none;fill-rule:nonzero;stroke:#000;stroke-opacity:0.16;stroke-width:0.5px;stroke-linecap:round;stroke-linejoin:round;stroke-dasharray:1,1;"/><path id="path988-2-9-0-0-4-3-9" d="M100.02,14.691c4.305,-3.163 8.992,-0.028 9.077,6.25c-0.028,5.338 -5.497,8.368 -8.814,5.369" style="fill:none;fill-rule:nonzero;stroke:#000;stroke-opacity:0.08;stroke-width:0.5px;stroke-linecap:round;stroke-linejoin:round;stroke-dasharray:1,1;"/><path id="path990-9-3-8-6-7-1-7" d="M99.749,4.457l0.271,10.234l0.264,12.902" style="fill:none;fill-rule:nonzero;stroke:#000;stroke-opacity:0.08;stroke-width:0.5px;stroke-linecap:round;stroke-linejoin:round;stroke-dasharray:1,1;"/><path id="path988-2-9-0-0-4-3-5-3" d="M131.02,14.691c4.305,-3.163 8.992,-0.028 9.077,6.25c-0.028,5.338 -5.497,8.368 -8.814,5.369" style="fill:none;fill-rule:nonzero;stroke:#000;stroke-opacity:0.04;stroke-width:0.5px;stroke-linecap:round;stroke-linejoin:round;stroke-dasharray:1,1;"/><path id="path990-9-3-8-6-7-1-9-8" d="M130.749,4.457l0.271,10.234l0.264,12.902" style="fill:none;fill-rule:nonzero;stroke:#000;stroke-opacity:0.04;stroke-width:0.5px;stroke-linecap:round;stroke-linejoin:round;stroke-dasharray:1,1;"/><path id="path988-2-9-0-0-4-3-5-2-3" d="M162.02,14.691c4.305,-3.163 8.992,-0.028 9.077,6.25c-0.028,5.338 -5.497,8.368 -8.814,5.369" style="fill:none;fill-rule:nonzero;stroke:#000;stroke-opacity:0.04;stroke-width:0.5px;stroke-linecap:round;stroke-linejoin:round;stroke-dasharray:1,1;"/><path id="path990-9-3-8-6-7-1-9-1-1" d="M161.749,4.457l0.271,10.234l0.264,12.902" style="fill:none;fill-rule:nonzero;stroke:#000;stroke-opacity:0.04;stroke-width:0.5px;stroke-linecap:round;stroke-linejoin:round;stroke-dasharray:1,1;"/><g><path id="text833" d="M5.222,5.108c0,-0.96 0.6,-1.439 1.799,-1.439c0.552,0 0.876,0.336 0.972,1.008l0,5.397c0,1.008 0.012,2.015 0.036,3.023c0.48,-0.144 1.091,-0.216 1.835,-0.216c2.327,0 4.126,0.78 5.397,2.339c1.271,1.559 1.907,3.514 1.907,5.865c0,2.351 -0.756,4.342 -2.267,5.973c-1.487,1.607 -3.406,2.411 -5.757,2.411c-2.351,0 -3.526,-0.66 -3.526,-1.979c0,-1.343 -0.072,-4.726 -0.216,-10.147c-0.12,-5.445 -0.18,-9.524 -0.18,-12.234l0,-0Zm7.269,11.587c-0.864,-0.672 -1.775,-1.008 -2.735,-1.008c-0.528,0 -1.068,0.096 -1.619,0.288c0.144,1.967 0.216,5.457 0.216,10.471c0.408,0.144 0.828,0.216 1.259,0.216c0.936,0 1.871,-0.348 2.807,-1.044c1.391,-0.96 2.087,-2.423 2.087,-4.39c0,-1.991 -0.672,-3.502 -2.015,-4.534Z" style="fill-rule:nonzero;"/><path id="path3147" d="M5.239,26.422l-0.781,1.597l-0.809,-1.583c0.401,0.394 1.196,0.387 1.59,-0.014Z" style="fill:#f00;fill-opacity:0.66;fill-rule:nonzero;"/><path d="M4.005,8.222c0.1,9.38 0.364,11.33 0.441,18.525" style="fill:none;fill-rule:nonzero;stroke:#f00;stroke-opacity:0.66;stroke-width:0.27px;"/><path id="path3391" d="M8.07,30.649l-1.429,-1.057l1.703,-0.509c-0.46,0.323 -0.597,1.106 -0.274,1.566Z" style="fill:#f00;fill-opacity:0.66;fill-rule:nonzero;"/><path d="M8.84,11.215c7.198,-0.543 9.252,4.786 9.334,9.126c0.109,5.832 -3.949,10.262 -10.28,9.47" style="fill:none;fill-rule:nonzero;stroke:#f00;stroke-opacity:0.66;stroke-width:0.27px;"/><path id="text1155-1" d="M4.005,7.127l-0.243,0l0,-1.408c0,-0.081 0.001,-0.146 0.003,-0.195c0.002,-0.049 0.005,-0.1 0.008,-0.152c-0.03,0.03 -0.057,0.055 -0.082,0.076c-0.024,0.021 -0.056,0.047 -0.093,0.079l-0.214,0.175l-0.13,-0.167l0.545,-0.423l0.206,0l-0,2.015Z" style="fill:#f00;fill-rule:nonzero;"/><path id="text1159-8" d="M18.972,14.148l-1.332,0l0,-0.206l0.528,-0.533c0.102,-0.102 0.187,-0.192 0.257,-0.271c0.07,-0.079 0.122,-0.156 0.158,-0.231c0.036,-0.077 0.054,-0.161 0.054,-0.251c0,-0.111 -0.033,-0.195 -0.099,-0.251c-0.066,-0.058 -0.151,-0.087 -0.257,-0.087c-0.098,0 -0.184,0.017 -0.26,0.051c-0.073,0.034 -0.149,0.081 -0.226,0.141l-0.133,-0.167c0.079,-0.066 0.169,-0.121 0.271,-0.167c0.103,-0.047 0.219,-0.071 0.347,-0.071c0.188,0 0.337,0.048 0.446,0.144c0.109,0.094 0.164,0.225 0.164,0.392c0,0.105 -0.022,0.204 -0.065,0.296c-0.043,0.092 -0.103,0.183 -0.181,0.274c-0.077,0.088 -0.167,0.183 -0.271,0.285l-0.421,0.415l0,0.011l1.019,0l0,0.226Z" style="fill:#f00;fill-rule:nonzero;"/></g></g></svg>