<svg xmlns="http://www.w3.org/2000/svg" xml:space="preserve" style="fill-rule:evenodd;clip-rule:evenodd" viewBox="0 0 185 42"><path d="M2.5 13.005h180" style="fill:none;fill-rule:nonzero;stroke:#000;stroke-opacity:.3;stroke-width:.25px;stroke-dasharray:.5,.5"/><path d="M2.5 4.006h180v23.997H2.5z" style="fill:none;fill-rule:nonzero;stroke:#000;stroke-opacity:.66;stroke-width:.25px;stroke-linecap:round;stroke-linejoin:round"/><path d="M47.872 5.887s-2.198-2.077-4.268-.852c-1.896 1.122-1.538 5.447-1.354 8.643.283 4.911.696 11.114.576 14.022" style="fill:none;fill-rule:nonzero;stroke:#000;stroke-opacity:.32;stroke-width:.5px;stroke-linecap:round;stroke-linejoin:round;stroke-dasharray:1,1"/><path d="M46.717 13.427c-1.316.307-6.695.079-9.07-.135" style="fill:none;fill-rule:nonzero;stroke:#000;stroke-opacity:.32;stroke-width:.5px;stroke-linecap:round;stroke-linejoin:round;stroke-dasharray:1,1"/><path d="M78.872 5.887s-2.198-2.077-4.268-.852c-1.896 1.122-1.538 5.447-1.354 8.643.283 4.911.696 11.114.576 14.022" style="fill:none;fill-rule:nonzero;stroke:#000;stroke-opacity:.16;stroke-width:.5px;stroke-linecap:round;stroke-linejoin:round;stroke-dasharray:1,1"/><path d="M77.717 13.427c-1.316.307-6.695.079-9.07-.135" style="fill:none;fill-rule:nonzero;stroke:#000;stroke-opacity:.16;stroke-width:.5px;stroke-linecap:round;stroke-linejoin:round;stroke-dasharray:1,1"/><path d="M109.872 5.887s-2.198-2.077-4.268-.852c-1.896 1.122-1.538 5.447-1.354 8.643.283 4.911.696 11.114.576 14.022" style="fill:none;fill-rule:nonzero;stroke:#000;stroke-opacity:.08;stroke-width:.5px;stroke-linecap:round;stroke-linejoin:round;stroke-dasharray:1,1"/><path d="M108.717 13.427c-1.316.307-6.695.079-9.07-.135" style="fill:none;fill-rule:nonzero;stroke:#000;stroke-opacity:.08;stroke-width:.5px;stroke-linecap:round;stroke-linejoin:round;stroke-dasharray:1,1"/><path d="M140.872 5.887s-2.198-2.077-4.268-.852c-1.896 1.122-1.538 5.447-1.354 8.643.283 4.911.696 11.114.576 14.022" style="fill:none;fill-rule:nonzero;stroke:#000;stroke-opacity:.04;stroke-width:.5px;stroke-linecap:round;stroke-linejoin:round;stroke-dasharray:1,1"/><path d="M139.717 13.427c-1.316.307-6.695.079-9.07-.135M171.872 5.887s-2.198-2.077-4.268-.852c-1.896 1.122-1.538 5.447-1.354 8.643.283 4.911.696 11.114.576 14.022" style="fill:none;fill-rule:nonzero;stroke:#000;stroke-opacity:.04;stroke-width:.5px;stroke-linecap:round;stroke-linejoin:round;stroke-dasharray:1,1"/><path d="M170.717 13.427c-1.316.307-6.695.079-9.07-.135" style="fill:none;fill-rule:nonzero;stroke:#000;stroke-opacity:.04;stroke-width:.5px;stroke-linecap:round;stroke-linejoin:round;stroke-dasharray:1,1"/><path d="M10.786 4.015q.576-.432.972-.468.432-.072 1.907-.072 1.511 0 2.483.432t.972 1.727q0 1.296-1.044 1.295-.216 0-1.223-.36-1.008-.396-1.295-.396-1.26 0-1.511 1.511-.072.54-.072 2.231v2.735h2.519q1.584.072 1.583 1.115 0 1.512-2.159 1.583a7 7 0 0 1-.792.036q-.468 0-1.079-.036.072 1.44.324 5.146.252 3.67.252 7.161 0 .72-.576 1.151t-1.187.432q-.972 0-.972-1.151a77 77 0 0 0-.252-6.297 129 129 0 0 1-.36-6.441q-3.238 0-3.778-.648-.216-.252-.216-.648 0-.936.756-1.223.791-.288 1.799-.288h1.439q.108-5.865.648-7.269.324-.864.864-1.259Z" style="fill-rule:nonzero"/><path d="m9.633 26.219-.827 1.573-.762-1.606c.389.406 1.184.422 1.59.033Z" style="fill:red;fill-opacity:.66;fill-rule:nonzero"/><path d="M16.225 2.128C7.074.423 8.952 5.68 8.27 13.342c.144 7.199.589 9.428.562 13.178" style="fill:none;fill-rule:nonzero;stroke:red;stroke-opacity:.66;stroke-width:.27px"/><path d="M7.627 4.387h-.243V2.979q0-.121.003-.195l.008-.152q-.045.046-.082.076l-.093.079-.214.175-.13-.167.545-.423h.206z" style="fill:red;fill-rule:nonzero"/><path d="m13.723 14.897 1.588.793-1.587.795c.397-.397.396-1.191-.001-1.587Z" style="fill:red;fill-opacity:.66;fill-rule:nonzero"/><path d="M6.065 15.645c2.66.183 5.363.067 7.976.046" style="fill:none;fill-rule:nonzero;stroke:red;stroke-opacity:.66;stroke-width:.26px"/><path d="M14.599 18.61h-1.332v-.206l.528-.533q.152-.153.257-.271.104-.119.158-.231a.6.6 0 0 0 .054-.251q0-.167-.099-.251a.37.37 0 0 0-.257-.087.6.6 0 0 0-.26.051 1.2 1.2 0 0 0-.226.141l-.133-.167q.118-.098.271-.167a.8.8 0 0 1 .347-.071q.282 0 .446.144a.49.49 0 0 1 .164.392.7.7 0 0 1-.065.296 1.2 1.2 0 0 1-.181.274 5 5 0 0 1-.271.285l-.421.415v.011h1.019v.226Z" style="fill:red;fill-rule:nonzero"/></svg>