<svg xmlns="http://www.w3.org/2000/svg" xml:space="preserve" style="fill-rule:evenodd;clip-rule:evenodd" viewBox="0 0 185 42"><path d="M2.5 13.005h180" style="fill:none;fill-rule:nonzero;stroke:#000;stroke-opacity:.3;stroke-width:.25px;stroke-dasharray:.5,.5"/><path d="M2.5 4.006h180v23.997H2.5z" style="fill:none;fill-rule:nonzero;stroke:#000;stroke-opacity:.66;stroke-width:.25px;stroke-linecap:round;stroke-linejoin:round"/><path d="M37.75 13.848c3.424 5.489 5.492 11.919 5.785 13.583.714-2.103 2.9-11.607 4.345-14.025" style="fill:none;fill-rule:nonzero;stroke:#000;stroke-opacity:.32;stroke-width:.5px;stroke-linecap:round;stroke-linejoin:round;stroke-dasharray:1,1"/><path d="M68.75 13.848c3.424 5.489 5.492 11.919 5.785 13.583.714-2.103 2.9-11.607 4.345-14.025" style="fill:none;fill-rule:nonzero;stroke:#000;stroke-opacity:.16;stroke-width:.5px;stroke-linecap:round;stroke-linejoin:round;stroke-dasharray:1,1"/><path d="M99.75 13.848c3.424 5.489 5.492 11.919 5.785 13.583.714-2.103 2.9-11.607 4.345-14.025" style="fill:none;fill-rule:nonzero;stroke:#000;stroke-opacity:.08;stroke-width:.5px;stroke-linecap:round;stroke-linejoin:round;stroke-dasharray:1,1"/><path d="M130.75 13.848c3.424 5.489 5.492 11.919 5.785 13.583.714-2.103 2.9-11.607 4.345-14.025M161.75 13.848c3.424 5.489 5.492 11.919 5.785 13.583.714-2.103 2.9-11.607 4.345-14.025" style="fill:none;fill-rule:nonzero;stroke:#000;stroke-opacity:.04;stroke-width:.5px;stroke-linecap:round;stroke-linejoin:round;stroke-dasharray:1,1"/><path d="m18.309 13.72 1.352-1.154.112 1.774c-.211-.521-.943-.831-1.464-.62" style="fill:red;fill-opacity:.66;fill-rule:nonzero"/><path d="M14.97 27.637c.922-4.278 2.672-10.126 4.195-13.9" style="fill:none;fill-rule:nonzero;stroke:red;stroke-opacity:.66;stroke-width:.27px"/><path d="M17.465 11.857q.504 0 .756.36.252.324.252.72l-.036.36q-1.511 3.85-2.231 6.261a114 114 0 0 1-.72 2.519l-.756 2.915q-.54 2.087-.72 2.699-.504 1.224-1.763 1.223-.612 0-.864-.792-1.152-3.599-3.382-8.132-2.23-4.534-2.555-5.182-.288-.684-.288-1.223 0-.54.468-1.044.504-.504 1.115-.504.612 0 1.044.648.396.792 2.231 4.426 1.87 3.634 2.627 5.721.036-.216.252-.9 1.835-6.37 2.987-9.104.612-.972 1.583-.972Z" style="fill-rule:nonzero"/><path d="M4.807 20.902h-.243v-1.408q0-.121.003-.195l.008-.152q-.045.046-.082.076l-.093.079-.214.175-.13-.167.545-.423h.206z" style="fill:red;fill-rule:nonzero"/><path d="m10.52 25.978-.22 1.761-1.277-1.233c.506.242 1.255-.022 1.497-.529Z" style="fill:red;fill-opacity:.66;fill-rule:nonzero"/><path d="M3.63 13.126c2.696 5.069 4.89 9.731 6.247 13.416" style="fill:none;fill-rule:nonzero;stroke:red;stroke-opacity:.66;stroke-width:.26px"/><path d="M19.93 20.407h-1.332v-.206l.528-.533q.153-.153.257-.271t.158-.231a.6.6 0 0 0 .054-.251q0-.167-.099-.251a.37.37 0 0 0-.257-.087.6.6 0 0 0-.26.051 1.2 1.2 0 0 0-.226.141l-.133-.167q.118-.098.271-.167a.8.8 0 0 1 .347-.071q.282 0 .446.144a.49.49 0 0 1 .164.392.7.7 0 0 1-.065.296 1.2 1.2 0 0 1-.181.274 5 5 0 0 1-.271.285l-.421.415v.011h1.019v.226Z" style="fill:red;fill-rule:nonzero"/></svg>