<svg xmlns="http://www.w3.org/2000/svg" xml:space="preserve" style="fill-rule:evenodd;clip-rule:evenodd" viewBox="0 0 185 42"><path d="M2.5 12.956h180" style="fill:none;fill-rule:nonzero;stroke:#000;stroke-opacity:.3;stroke-width:.25px;stroke-dasharray:.5,.5"/><path d="M2.5 3.958h180v23.997H2.5z" style="fill:none;fill-rule:nonzero;stroke:#000;stroke-opacity:.66;stroke-width:.25px;stroke-linecap:round;stroke-linejoin:round"/><path d="M37.75 13.721c2.385-.312 8.41-.148 11.374.203-1.228 4.19-9.16 8.439-10.901 13.146 1.439.171 8.208.47 11.498-.159" style="fill:none;fill-rule:nonzero;stroke:#000;stroke-opacity:.32;stroke-width:.5px;stroke-linecap:round;stroke-linejoin:round;stroke-dasharray:1,1"/><path d="M68.75 13.721c2.385-.312 8.41-.148 11.374.203-1.228 4.19-9.16 8.439-10.901 13.146 1.439.171 8.208.47 11.498-.159" style="fill:none;fill-rule:nonzero;stroke:#000;stroke-opacity:.16;stroke-width:.5px;stroke-linecap:round;stroke-linejoin:round;stroke-dasharray:1,1"/><path d="M99.75 13.721c2.385-.312 8.41-.148 11.374.203-1.228 4.19-9.16 8.439-10.901 13.146 1.439.171 8.208.47 11.498-.159" style="fill:none;fill-rule:nonzero;stroke:#000;stroke-opacity:.08;stroke-width:.5px;stroke-linecap:round;stroke-linejoin:round;stroke-dasharray:1,1"/><path d="M161.669 14.997c2.385-.312 8.41-.148 11.374.203-1.228 4.19-9.16 8.439-10.901 13.146 1.439.171 8.208.47 11.498-.159M130.75 13.721c2.385-.312 8.41-.148 11.374.203-1.228 4.19-9.16 8.439-10.901 13.146 1.439.171 8.208.47 11.498-.159" style="fill:none;fill-rule:nonzero;stroke:#000;stroke-opacity:.04;stroke-width:.5px;stroke-linecap:round;stroke-linejoin:round;stroke-dasharray:1,1"/><path d="m16.34 28.979 1.751.292-1.284 1.225c.263-.496.029-1.255-.467-1.517" style="fill:red;fill-opacity:.66;fill-rule:nonzero"/><path d="M5.387 16.261c1.993.115 5.918-.473 8.051.092-4.255 2.54-9.995 8.842-8.955 12.48 0 0 7.289 2.037 12.393.811" style="fill:none;fill-rule:nonzero;stroke:red;stroke-opacity:.66;stroke-width:.26px"/><path d="m12.232 15.382-5.146.468q-1.69 0-1.691-1.475 0-1.548 1.763-1.655.54-.036 6.945-.036 1.332 0 2.663.72 1.547.863 1.547 2.735t-2.591 4.102a49 49 0 0 1-2.303 1.871q-3.994 3.022-3.994 3.814 0 .54 1.331.54 1.367 0 2.483-.144 1.152-.18 2.447-.36 1.296-.216 1.619-.216 1.511 0 1.511 1.079 0 2.447-7.341 2.447-2.663 0-3.814-.576-1.116-.576-1.475-2.051a2.6 2.6 0 0 1-.036-.432q0-1.007 1.151-2.447 1.584-1.943 4.138-3.706 2.915-2.015 3.382-2.843.252-.468.18-.828-.216-1.008-2.771-1.008Z" style="fill-rule:nonzero"/><path d="M6.802 20.287h-.243v-1.408q0-.122.003-.195l.008-.152q-.045.046-.082.076l-.093.079-.214.175-.13-.167.545-.423h.206z" style="fill:red;fill-rule:nonzero"/></svg>