<svg xmlns="http://www.w3.org/2000/svg" xml:space="preserve" style="fill-rule:evenodd;clip-rule:evenodd" viewBox="0 0 185 42"><path d="M2.5 13.005h180" style="fill:none;fill-rule:nonzero;stroke:#000;stroke-opacity:.3;stroke-width:.25px;stroke-dasharray:.5,.5"/><path d="M2.5 4.006h180v23.997H2.5z" style="fill:none;fill-rule:nonzero;stroke:#000;stroke-opacity:.66;stroke-width:.25px;stroke-linecap:round;stroke-linejoin:round"/><path d="M47.189 26.4s-1.915 2.222-3.374.374c-1.365-1.729-1.27-10.238-1.316-13.439-.033-2.341-.038-5.771-.159-8.68" style="fill:none;fill-rule:nonzero;stroke:#020000;stroke-opacity:.32;stroke-width:.5px;stroke-linecap:round;stroke-linejoin:round;stroke-dasharray:1,1"/><path d="M47.241 13.568c-2.836.074-7.131.227-9.741.049" style="fill:none;fill-rule:nonzero;stroke:#020000;stroke-opacity:.32;stroke-width:.5px;stroke-linecap:round;stroke-linejoin:round;stroke-dasharray:1,1"/><path d="M78.189 26.4s-1.915 2.222-3.374.374c-1.365-1.729-1.27-10.238-1.316-13.439-.033-2.341-.038-5.771-.159-8.68" style="fill:none;fill-rule:nonzero;stroke:#020000;stroke-opacity:.17;stroke-width:.5px;stroke-linecap:round;stroke-linejoin:round;stroke-dasharray:1,1"/><path d="M78.241 13.568c-2.836.074-7.131.227-9.741.049" style="fill:none;fill-rule:nonzero;stroke:#020000;stroke-opacity:.17;stroke-width:.5px;stroke-linecap:round;stroke-linejoin:round;stroke-dasharray:1,1"/><path d="M109.189 26.4s-1.915 2.222-3.374.374c-1.365-1.729-1.27-10.238-1.316-13.439-.033-2.341-.038-5.771-.159-8.68" style="fill:none;fill-rule:nonzero;stroke:#020000;stroke-opacity:.08;stroke-width:.5px;stroke-linecap:round;stroke-linejoin:round;stroke-dasharray:1,1"/><path d="M109.241 13.568c-2.836.074-7.131.227-9.741.049" style="fill:none;fill-rule:nonzero;stroke:#020000;stroke-opacity:.08;stroke-width:.5px;stroke-linecap:round;stroke-linejoin:round;stroke-dasharray:1,1"/><path d="M140.189 26.4s-1.915 2.222-3.374.374c-1.365-1.729-1.27-10.238-1.316-13.439-.033-2.341-.038-5.771-.159-8.68" style="fill:none;fill-rule:nonzero;stroke:#020000;stroke-opacity:.04;stroke-width:.5px;stroke-linecap:round;stroke-linejoin:round;stroke-dasharray:1,1"/><path d="M140.24 13.568c-2.836.074-7.131.227-9.741.049M171.189 26.4s-1.915 2.222-3.374.374c-1.365-1.729-1.27-10.238-1.316-13.439-.033-2.341-.038-5.771-.159-8.68" style="fill:none;fill-rule:nonzero;stroke:#020000;stroke-opacity:.04;stroke-width:.5px;stroke-linecap:round;stroke-linejoin:round;stroke-dasharray:1,1"/><path d="M171.24 13.568c-2.836.074-7.131.227-9.741.049" style="fill:none;fill-rule:nonzero;stroke:#020000;stroke-opacity:.04;stroke-width:.5px;stroke-linecap:round;stroke-linejoin:round;stroke-dasharray:1,1"/><path d="m7.234 12.355 1.799.036q.612 0 .684-.036V4.978q.036-.612.612-1.044t1.079-.432.792.324q.324.324.288 1.008t-.036 7.485l4.21-.144q1.08 0 1.079 1.259 0 .936-.576 1.403-.54.468-1.187.504-.612.036-1.223.036l-2.195-.036q0 1.476.288 5.829.324 4.354.504 5.649.18 1.26.072 1.655-.108.36-.396.504-.468.216-1.259.216-.792 0-.936-.864-.72-4.715-.972-12.954-.324.036-2.483.036t-2.159-1.259q0-1.799 2.015-1.799Z" style="fill-rule:nonzero"/><path d="m10.159 26.14-.6 1.673-.979-1.484c.442.347 1.231.253 1.579-.189" style="fill:red;fill-opacity:.66;fill-rule:nonzero"/><path d="M8.506 4.066c.02 7.538.054 15.033.901 22.485" style="fill:none;fill-rule:nonzero;stroke:red;stroke-opacity:.66;stroke-width:.27px"/><path d="M6.94 7.85h-.243V6.442q0-.122.003-.195l.008-.152q-.045.046-.082.076l-.093.079-.214.175-.13-.167.545-.423h.206z" style="fill:red;fill-rule:nonzero"/><path d="m15.404 14.947 1.588.793-1.587.794c.397-.397.397-1.191 0-1.587Z" style="fill:red;fill-opacity:.66;fill-rule:nonzero"/><path d="M6.119 15.697c2.686.185 6.642.064 9.602.044" style="fill:none;fill-rule:nonzero;stroke:red;stroke-opacity:.66;stroke-width:.26px"/><path d="M15.698 18.748h-1.332v-.206l.528-.533q.152-.153.257-.271t.158-.231a.6.6 0 0 0 .054-.251q0-.167-.099-.251a.37.37 0 0 0-.257-.087.6.6 0 0 0-.26.051 1.2 1.2 0 0 0-.226.141l-.133-.167q.118-.098.271-.167a.8.8 0 0 1 .347-.071q.282 0 .446.144a.49.49 0 0 1 .164.392.7.7 0 0 1-.065.296 1.2 1.2 0 0 1-.181.274 5 5 0 0 1-.271.285l-.421.415v.011h1.019v.226Z" style="fill:red;fill-rule:nonzero"/></svg>