<svg xmlns="http://www.w3.org/2000/svg" xml:space="preserve" style="fill-rule:evenodd;clip-rule:evenodd" viewBox="0 0 185 42"><path d="M2.5 13.005h180" style="fill:none;fill-rule:nonzero;stroke:#000;stroke-opacity:.3;stroke-width:.25px;stroke-dasharray:.5,.5"/><path d="M2.5 4.006h180v23.997H2.5z" style="fill:none;fill-rule:nonzero;stroke:#000;stroke-opacity:.66;stroke-width:.25px;stroke-linecap:round;stroke-linejoin:round"/><path d="M43.418 25.189c-1.12 1.874-3.655 3.651-4.949-.567-1.138-5.821-.627-13.961-.455-20.06" style="fill:none;fill-rule:nonzero;stroke:#000;stroke-opacity:.32;stroke-width:.5px;stroke-linecap:round;stroke-linejoin:round;stroke-dasharray:1,1"/><path d="M74.418 25.189c-1.12 1.874-3.655 3.651-4.949-.567-1.138-5.821-.627-13.961-.455-20.06" style="fill:none;fill-rule:nonzero;stroke:#000;stroke-opacity:.16;stroke-width:.5px;stroke-linecap:round;stroke-linejoin:round;stroke-dasharray:1,1"/><path d="M105.418 25.189c-1.12 1.874-3.655 3.651-4.949-.567-1.138-5.821-.627-13.961-.455-20.06" style="fill:none;fill-rule:nonzero;stroke:#000;stroke-opacity:.08;stroke-width:.5px;stroke-linecap:round;stroke-linejoin:round;stroke-dasharray:1,1"/><path d="M136.418 25.189c-1.12 1.874-3.655 3.651-4.949-.567-1.138-5.821-.627-13.961-.455-20.06M167.418 25.189c-1.12 1.874-3.655 3.651-4.949-.567-1.138-5.821-.627-13.961-.455-20.06" style="fill:none;fill-rule:nonzero;stroke:#000;stroke-opacity:.04;stroke-width:.5px;stroke-linecap:round;stroke-linejoin:round;stroke-dasharray:1,1"/><path d="M6.411 5.885q.108-1.367.432-1.763.36-.432 1.115-.432 1.547 0 1.547 1.259 0 .972-.18 5.074a212 212 0 0 0-.144 7.341q0 3.238.252 5.218.432 3.454 1.223 3.454t1.187-1.115q.18-.432.576-.756.396-.36 1.008-.36 1.26 0 1.259 2.123 0 1.151-1.259 2.303-1.224 1.115-2.447 1.115t-1.979-.396q-.72-.432-1.187-1.259a15 15 0 0 1-.72-1.583q-.252-.792-.36-1.907-.216-1.8-.324-5.757a422 422 0 0 1-.072-7.592q0-3.634.072-4.966Z" style="fill-rule:nonzero"/><path d="m13.206 28.286 1.675-.596-.528 1.698c-.011-.562-.585-1.113-1.147-1.101Z" style="fill:red;fill-opacity:.66;fill-rule:nonzero"/><path d="M5.392 4.33c-.361 7.378-.242 16.133.49 20.979 1.395 5.335 5.848 5.065 8.118 3.298" style="fill:none;fill-rule:nonzero;stroke:red;stroke-opacity:.66;stroke-width:.27px"/><path d="M3.678 10.944h-.243V9.536q0-.122.003-.195l.008-.152q-.045.045-.082.076l-.093.079-.214.175-.13-.167.545-.423h.206z" style="fill:red;fill-rule:nonzero"/></svg>