<svg xmlns="http://www.w3.org/2000/svg" xml:space="preserve" style="fill-rule:evenodd;clip-rule:evenodd" viewBox="0 0 185 42"><path d="M2.5 13.005h180" style="fill:none;fill-rule:nonzero;stroke:#000;stroke-opacity:.3;stroke-width:.25px;stroke-dasharray:.5,.5"/><path d="M2.5 4.006h180v23.997H2.5z" style="fill:none;fill-rule:nonzero;stroke:#000;stroke-opacity:.66;stroke-width:.25px;stroke-linecap:round;stroke-linejoin:round"/><path d="M46.804 14.315c-5.519-2.435-8.948.315-9.055 6.96.128 5.908 3.796 7.817 9.387 4.846M46.585 4.655l.219 9.659.431 13.125" style="fill:none;fill-rule:nonzero;stroke:#000;stroke-opacity:.32;stroke-width:.5px;stroke-linecap:round;stroke-linejoin:round;stroke-dasharray:1,1"/><path d="M77.805 14.315c-5.519-2.435-8.948.315-9.055 6.96.128 5.908 3.796 7.817 9.387 4.846M77.586 4.655l.219 9.659.431 13.125" style="fill:none;fill-rule:nonzero;stroke:#000;stroke-opacity:.16;stroke-width:.5px;stroke-linecap:round;stroke-linejoin:round;stroke-dasharray:1,1"/><path d="M108.805 14.315c-5.519-2.435-8.948.315-9.055 6.96.128 5.908 3.796 7.817 9.387 4.846M108.586 4.655l.219 9.659.431 13.125" style="fill:none;fill-rule:nonzero;stroke:#000;stroke-opacity:.08;stroke-width:.5px;stroke-linecap:round;stroke-linejoin:round;stroke-dasharray:1,1"/><path d="M139.805 14.315c-5.519-2.435-8.948.315-9.055 6.96.128 5.908 3.796 7.817 9.387 4.846M139.586 4.655l.219 9.659.431 13.125M170.805 14.315c-5.519-2.435-8.948.315-9.055 6.96.128 5.908 3.796 7.817 9.387 4.846M170.586 4.655l.219 9.659.431 13.125" style="fill:none;fill-rule:nonzero;stroke:#000;stroke-opacity:.04;stroke-width:.5px;stroke-linecap:round;stroke-linejoin:round;stroke-dasharray:1,1"/><path d="m14.363 12.538-.036-6.945q0-1.943 1.223-1.943 1.26 0 1.403 1.079.072.468.18 5.649.108 5.182.324 9.715.252 4.534.252 8.456 0 1.08-1.619 1.079-1.08 0-1.079-1.511-1.548 1.223-3.67 1.223-2.698 0-4.39-2.015-1.655-2.015-1.655-4.966t1.187-5.505q1.224-2.591 3.778-3.706 1.584-.684 3.059-.684.54 0 1.044.072Zm.18 4.93q-.252-.792-.612-1.187-.36-.432-.792-.504a3.8 3.8 0 0 0-.972-.108q-.576 0-1.403.432t-1.403 1.403q-1.152 1.943-1.151 4.102 0 2.123.828 3.49.864 1.332 2.411 1.331 1.584 0 2.483-1.547.9-1.548.9-3.958 0-2.699-.288-3.454Z" style="fill-rule:nonzero"/><path d="m19.476 27.228-.788 1.593-.802-1.587c.399.396 1.194.393 1.59-.007Z" style="fill:red;fill-opacity:.66;fill-rule:nonzero"/><path d="M18.093 3.715c.049 9.451.534 16.017.59 23.834" style="fill:none;fill-rule:nonzero;stroke:red;stroke-opacity:.66;stroke-width:.27px"/><path d="m12.506 28.956 1.732.402-1.36 1.144c.294-.479.108-1.252-.371-1.546Z" style="fill:red;fill-opacity:.66;fill-rule:nonzero"/><path d="M13.231 10.814c-5.751-.385-8.82 4.953-8.939 10.223-.135 5.956 2.987 9.694 8.71 8.618" style="fill:none;fill-rule:nonzero;stroke:red;stroke-opacity:.66;stroke-width:.27px"/><path d="M6.073 12.595H5.83v-1.408q0-.121.003-.195l.008-.152q-.045.045-.082.076l-.093.079-.214.175-.13-.167.545-.423h.206zM20.292 10.418H18.96v-.206l.528-.533q.152-.153.257-.271.104-.119.158-.231a.6.6 0 0 0 .054-.251q0-.167-.099-.251a.37.37 0 0 0-.257-.087.6.6 0 0 0-.26.051 1.2 1.2 0 0 0-.226.141l-.133-.167q.118-.099.271-.167a.8.8 0 0 1 .347-.071q.282 0 .446.144a.49.49 0 0 1 .164.392.7.7 0 0 1-.065.296 1.2 1.2 0 0 1-.181.274 5 5 0 0 1-.271.285l-.421.415v.011h1.019v.226Z" style="fill:red;fill-rule:nonzero"/></svg>