<?xml version="1.0" encoding="UTF-8" standalone="no"?><!DOCTYPE svg PUBLIC "-//W3C//DTD SVG 1.1//EN" "http://www.w3.org/Graphics/SVG/1.1/DTD/svg11.dtd"><svg width="100%" height="100%" viewBox="0 0 185 42" version="1.1" xmlns="http://www.w3.org/2000/svg" xmlns:xlink="http://www.w3.org/1999/xlink" xml:space="preserve" xmlns:serif="http://www.serif.com/" style="fill-rule:evenodd;clip-rule:evenodd;"><g><path id="path1018-7-4-8-4-9-7" d="M2.5,13.005l180,0" style="fill:none;fill-rule:nonzero;stroke:#000;stroke-opacity:0.3;stroke-width:0.25px;stroke-dasharray:0.5,0.5;"/><rect id="path4601-3-6-3-2-1" x="2.5" y="4.006" width="180" height="23.997" style="fill:none;fill-rule:nonzero;stroke:#000;stroke-opacity:0.66;stroke-width:0.25px;stroke-linecap:round;stroke-linejoin:round;"/><path id="path5452-78-1-0-5" d="M56.456,27.671c0.493,-6.623 0.64,-13.912 -4.32,-14.116c-3.288,-0.135 -4.442,1.487 -5.184,4.422m0.044,9.508c0.288,-6.635 0.847,-13.947 -4.145,-13.978c-3.191,-0.02 -3.818,1.731 -4.56,4.666m0.233,9.404c0.175,-4.91 -0.181,-8.979 -0.774,-14.072" style="fill:none;fill-rule:nonzero;stroke:#000;stroke-opacity:0.32;stroke-width:0.5px;stroke-linecap:round;stroke-linejoin:round;stroke-dasharray:1,1;"/><path id="path5452-78-1-0-2-6" d="M87.456,27.671c0.493,-6.623 0.64,-13.912 -4.32,-14.116c-3.288,-0.135 -4.442,1.487 -5.184,4.422m0.044,9.508c0.288,-6.635 0.847,-13.947 -4.145,-13.978c-3.191,-0.02 -3.818,1.731 -4.56,4.666m0.233,9.404c0.175,-4.91 -0.181,-8.979 -0.774,-14.072" style="fill:none;fill-rule:nonzero;stroke:#000;stroke-opacity:0.16;stroke-width:0.5px;stroke-linecap:round;stroke-linejoin:round;stroke-dasharray:1,1;"/><path id="path5452-78-1-0-2-2-4" d="M118.456,27.671c0.493,-6.623 0.64,-13.912 -4.32,-14.116c-3.288,-0.135 -4.442,1.487 -5.184,4.422m0.044,9.508c0.288,-6.635 0.847,-13.947 -4.145,-13.978c-3.191,-0.02 -3.818,1.731 -4.56,4.666m0.233,9.404c0.175,-4.91 -0.181,-8.979 -0.774,-14.072" style="fill:none;fill-rule:nonzero;stroke:#000;stroke-opacity:0.08;stroke-width:0.5px;stroke-linecap:round;stroke-linejoin:round;stroke-dasharray:1,1;"/><path id="path5452-78-1-0-2-2-9-6" d="M149.456,27.671c0.493,-6.623 0.64,-13.912 -4.32,-14.116c-3.288,-0.135 -4.442,1.487 -5.184,4.422m0.044,9.508c0.288,-6.635 0.847,-13.947 -4.145,-13.978c-3.191,-0.02 -3.818,1.731 -4.56,4.666m0.233,9.404c0.175,-4.91 -0.181,-8.979 -0.774,-14.072" style="fill:none;fill-rule:nonzero;stroke:#000;stroke-opacity:0.04;stroke-width:0.5px;stroke-linecap:round;stroke-linejoin:round;stroke-dasharray:1,1;"/><path id="path5452-78-1-0-2-2-9-7-3" d="M180.456,27.671c0.493,-6.623 0.64,-13.912 -4.32,-14.116c-3.288,-0.135 -4.442,1.487 -5.184,4.422m0.044,9.508c0.288,-6.635 0.847,-13.947 -4.145,-13.978c-3.191,-0.02 -3.818,1.731 -4.56,4.666m0.233,9.404c0.175,-4.91 -0.181,-8.979 -0.774,-14.072" style="fill:none;fill-rule:nonzero;stroke:#000;stroke-opacity:0.04;stroke-width:0.5px;stroke-linecap:round;stroke-linejoin:round;stroke-dasharray:1,1;"/><g><path id="text833" d="M7.314,29.077c-0.624,0 -0.996,-0.348 -1.115,-1.044c0,-4.846 -0.288,-9.164 -0.864,-12.954c0,-0.48 0.168,-0.912 0.504,-1.295c0.36,-0.384 0.756,-0.576 1.187,-0.576c0.456,0 0.792,0.252 1.008,0.756c0.888,-1.175 2.075,-1.763 3.562,-1.763c1.895,0 3.358,0.912 4.39,2.735c1.199,-1.727 2.783,-2.591 4.75,-2.591c1.991,0 3.478,0.792 4.462,2.375c0.648,0.984 1.103,2.279 1.367,3.886c0.264,1.607 0.396,3.886 0.396,6.837c0,1.151 -0.12,2.051 -0.36,2.699c-0.24,0.624 -0.744,0.936 -1.511,0.936c-0.624,0 -0.936,-0.396 -0.936,-1.187l0.108,-4.498c0,-5.397 -1.403,-8.096 -4.21,-8.096c-0.888,0 -1.511,0.312 -1.871,0.936c-0.408,0.744 -0.648,1.523 -0.72,2.339c-0.096,1.439 -0.144,2.747 -0.144,3.922l0,5.218c0,0.384 -0.192,0.708 -0.576,0.972c-0.384,0.264 -0.78,0.396 -1.187,0.396c-0.528,0 -0.864,-0.348 -1.008,-1.044l0.108,-7.449c0,-2.639 -0.444,-4.282 -1.331,-4.93c-0.432,-0.312 -1.091,-0.468 -1.979,-0.468c-0.864,0 -1.511,0.324 -1.943,0.972c-0.408,0.648 -0.612,1.691 -0.612,3.131l0.216,6.693c0,2.063 -0.564,3.095 -1.691,3.095Z" style="fill-rule:nonzero;"/><path id="path3391" d="M5.879,25.97l-0.778,1.598l-0.812,-1.582c0.402,0.393 1.197,0.385 1.59,-0.017Z" style="fill:#f00;fill-opacity:0.66;fill-rule:nonzero;"/><path d="M4.255,13.6c0.69,5.266 0.79,9.023 0.833,12.696" style="fill:none;fill-rule:nonzero;stroke:#f00;stroke-opacity:0.66;stroke-width:0.27px;"/><path id="text1155-1" d="M3.36,18.611l-0.243,0l0,-1.408c0,-0.081 0.001,-0.146 0.003,-0.195c0.002,-0.049 0.005,-0.1 0.008,-0.152c-0.03,0.03 -0.057,0.056 -0.082,0.076c-0.024,0.021 -0.056,0.047 -0.093,0.079l-0.214,0.175l-0.13,-0.167l0.545,-0.423l0.206,0l-0,2.015Z" style="fill:#f00;fill-rule:nonzero;"/><path id="path2831-4" d="M14.394,25.803l-0.841,1.563l-0.745,-1.611c0.385,0.409 1.178,0.433 1.587,0.048Z" style="fill:#f00;fill-opacity:0.66;fill-rule:nonzero;"/><path d="M10.011,16.445c0.939,-1.503 3.28,-1.438 3.523,1.479c0.176,2.105 0.193,3.502 0.057,8.172" style="fill:none;fill-rule:nonzero;stroke:#f00;stroke-opacity:0.66;stroke-width:0.26px;"/><path id="text1159-1" d="M12.789,20.623l-1.332,0l0,-0.206l0.528,-0.533c0.102,-0.102 0.187,-0.192 0.257,-0.271c0.07,-0.079 0.122,-0.156 0.158,-0.231c0.036,-0.077 0.054,-0.161 0.054,-0.251c0,-0.111 -0.033,-0.195 -0.099,-0.251c-0.066,-0.058 -0.151,-0.087 -0.257,-0.087c-0.098,0 -0.184,0.017 -0.26,0.051c-0.073,0.034 -0.149,0.081 -0.226,0.141l-0.133,-0.167c0.079,-0.066 0.169,-0.121 0.271,-0.167c0.103,-0.047 0.219,-0.071 0.347,-0.071c0.188,0 0.337,0.048 0.446,0.144c0.109,0.094 0.164,0.225 0.164,0.392c0,0.105 -0.022,0.204 -0.065,0.296c-0.043,0.092 -0.103,0.183 -0.181,0.274c-0.077,0.088 -0.167,0.183 -0.271,0.285l-0.421,0.415l0,0.011l1.019,0l0,0.226Z" style="fill:#f00;fill-rule:nonzero;"/><path id="path2831-4-0" d="M24.001,25.66l-0.886,1.538l-0.699,-1.631c0.373,0.42 1.165,0.466 1.585,0.093Z" style="fill:#f00;fill-opacity:0.66;fill-rule:nonzero;"/><path d="M18.403,27.266c0.321,-2.861 -1.337,-11.98 2.037,-11.604c2.588,0.288 2.996,5.205 2.749,10.268" style="fill:none;fill-rule:nonzero;stroke:#f00;stroke-opacity:0.66;stroke-width:0.26px;"/><path id="text1159-2-8" d="M21.916,19.331c0,0.135 -0.038,0.244 -0.113,0.325c-0.075,0.079 -0.177,0.132 -0.305,0.158l0,0.011c0.162,0.019 0.282,0.07 0.361,0.152c0.079,0.083 0.119,0.191 0.119,0.325c0,0.117 -0.027,0.221 -0.082,0.313c-0.055,0.09 -0.139,0.161 -0.254,0.212c-0.113,0.051 -0.259,0.076 -0.437,0.076c-0.105,0 -0.203,-0.008 -0.294,-0.025c-0.09,-0.015 -0.177,-0.043 -0.26,-0.085l0,-0.231c0.085,0.041 0.176,0.074 0.274,0.099c0.098,0.023 0.192,0.034 0.282,0.034c0.181,0 0.31,-0.035 0.389,-0.104c0.081,-0.071 0.121,-0.169 0.121,-0.294c0,-0.126 -0.05,-0.216 -0.15,-0.271c-0.098,-0.056 -0.236,-0.085 -0.415,-0.085l-0.195,0l0,-0.212l0.198,0c0.166,0 0.291,-0.035 0.375,-0.104c0.087,-0.07 0.13,-0.162 0.13,-0.277c0,-0.098 -0.033,-0.173 -0.099,-0.226c-0.066,-0.055 -0.155,-0.082 -0.268,-0.082c-0.109,0 -0.202,0.016 -0.279,0.048c-0.077,0.032 -0.153,0.072 -0.229,0.121l-0.124,-0.169c0.071,-0.056 0.16,-0.105 0.265,-0.147c0.107,-0.041 0.229,-0.062 0.364,-0.062c0.211,0 0.367,0.047 0.468,0.141c0.103,0.094 0.155,0.214 0.155,0.358l-0,0Z" style="fill:#f00;fill-rule:nonzero;"/></g></g></svg>