<?xml version="1.0" encoding="UTF-8" standalone="no"?><!DOCTYPE svg PUBLIC "-//W3C//DTD SVG 1.1//EN" "http://www.w3.org/Graphics/SVG/1.1/DTD/svg11.dtd"><svg width="100%" height="100%" viewBox="0 0 185 42" version="1.1" xmlns="http://www.w3.org/2000/svg" xmlns:xlink="http://www.w3.org/1999/xlink" xml:space="preserve" xmlns:serif="http://www.serif.com/" style="fill-rule:evenodd;clip-rule:evenodd;"><g><path id="path1018-7-4-8-4-9-7" d="M2.5,13.005l180,0" style="fill:none;fill-rule:nonzero;stroke:#000;stroke-opacity:0.3;stroke-width:0.25px;stroke-dasharray:0.5,0.5;"/><rect id="path4601-3-6-3-2-1" x="2.5" y="4.006" width="180" height="23.997" style="fill:none;fill-rule:nonzero;stroke:#000;stroke-opacity:0.66;stroke-width:0.25px;stroke-linecap:round;stroke-linejoin:round;"/><path id="path5452-78-4" d="M47.189,26.4c0,0 -1.915,2.222 -3.374,0.374c-1.365,-1.729 -1.27,-10.238 -1.316,-13.439c-0.033,-2.341 -0.038,-5.771 -0.159,-8.68" style="fill:none;fill-rule:nonzero;stroke:#020000;stroke-opacity:0.32;stroke-width:0.5px;stroke-linecap:round;stroke-linejoin:round;stroke-dasharray:1,1;"/><path id="path5452-2-5-4" d="M47.241,13.568c-2.836,0.074 -7.131,0.227 -9.741,0.049" style="fill:none;fill-rule:nonzero;stroke:#020000;stroke-opacity:0.32;stroke-width:0.5px;stroke-linecap:round;stroke-linejoin:round;stroke-dasharray:1,1;"/><path id="path5452-78-7-0" d="M78.189,26.4c0,0 -1.915,2.222 -3.374,0.374c-1.365,-1.729 -1.27,-10.238 -1.316,-13.439c-0.033,-2.341 -0.038,-5.771 -0.159,-8.68" style="fill:none;fill-rule:nonzero;stroke:#020000;stroke-opacity:0.17;stroke-width:0.5px;stroke-linecap:round;stroke-linejoin:round;stroke-dasharray:1,1;"/><path id="path5452-2-5-6-7" d="M78.241,13.568c-2.836,0.074 -7.131,0.227 -9.741,0.049" style="fill:none;fill-rule:nonzero;stroke:#020000;stroke-opacity:0.17;stroke-width:0.5px;stroke-linecap:round;stroke-linejoin:round;stroke-dasharray:1,1;"/><path id="path5452-78-7-6-6" d="M109.189,26.4c0,0 -1.915,2.222 -3.374,0.374c-1.365,-1.729 -1.27,-10.238 -1.316,-13.439c-0.033,-2.341 -0.038,-5.771 -0.159,-8.68" style="fill:none;fill-rule:nonzero;stroke:#020000;stroke-opacity:0.08;stroke-width:0.5px;stroke-linecap:round;stroke-linejoin:round;stroke-dasharray:1,1;"/><path id="path5452-2-5-6-9-8" d="M109.241,13.568c-2.836,0.074 -7.131,0.227 -9.741,0.049" style="fill:none;fill-rule:nonzero;stroke:#020000;stroke-opacity:0.08;stroke-width:0.5px;stroke-linecap:round;stroke-linejoin:round;stroke-dasharray:1,1;"/><path id="path5452-78-7-6-7-4" d="M140.189,26.4c0,0 -1.915,2.222 -3.374,0.374c-1.365,-1.729 -1.27,-10.238 -1.316,-13.439c-0.033,-2.341 -0.038,-5.771 -0.159,-8.68" style="fill:none;fill-rule:nonzero;stroke:#020000;stroke-opacity:0.04;stroke-width:0.5px;stroke-linecap:round;stroke-linejoin:round;stroke-dasharray:1,1;"/><path id="path5452-2-5-6-9-4-3" d="M140.24,13.568c-2.836,0.074 -7.131,0.227 -9.741,0.049" style="fill:none;fill-rule:nonzero;stroke:#020000;stroke-opacity:0.04;stroke-width:0.5px;stroke-linecap:round;stroke-linejoin:round;stroke-dasharray:1,1;"/><path id="path5452-78-7-6-7-2-4" d="M171.189,26.4c0,0 -1.915,2.222 -3.374,0.374c-1.365,-1.729 -1.27,-10.238 -1.316,-13.439c-0.033,-2.341 -0.038,-5.771 -0.159,-8.68" style="fill:none;fill-rule:nonzero;stroke:#020000;stroke-opacity:0.04;stroke-width:0.5px;stroke-linecap:round;stroke-linejoin:round;stroke-dasharray:1,1;"/><path id="path5452-2-5-6-9-4-5-9" d="M171.24,13.568c-2.836,0.074 -7.131,0.227 -9.741,0.049" style="fill:none;fill-rule:nonzero;stroke:#020000;stroke-opacity:0.04;stroke-width:0.5px;stroke-linecap:round;stroke-linejoin:round;stroke-dasharray:1,1;"/><g><path id="text833" d="M7.234,12.355l1.799,0.036c0.408,0 0.636,-0.012 0.684,-0.036l0,-7.377c0.024,-0.408 0.228,-0.756 0.612,-1.044c0.384,-0.288 0.744,-0.432 1.079,-0.432c0.336,0 0.6,0.108 0.792,0.324c0.216,0.216 0.312,0.552 0.288,1.008c-0.024,0.456 -0.036,2.951 -0.036,7.485l4.21,-0.144c0.72,0 1.079,0.42 1.079,1.259c0,0.624 -0.192,1.091 -0.576,1.403c-0.36,0.312 -0.756,0.48 -1.187,0.504c-0.408,0.024 -0.816,0.036 -1.223,0.036l-2.195,-0.036c0,0.984 0.096,2.927 0.288,5.829c0.216,2.903 0.384,4.786 0.504,5.649c0.12,0.84 0.144,1.391 0.072,1.655c-0.072,0.24 -0.204,0.408 -0.396,0.504c-0.312,0.144 -0.732,0.216 -1.259,0.216c-0.528,0 -0.84,-0.288 -0.936,-0.864c-0.48,-3.143 -0.804,-7.461 -0.972,-12.954c-0.216,0.024 -1.044,0.036 -2.483,0.036c-1.439,0 -2.159,-0.42 -2.159,-1.259c0,-1.199 0.672,-1.799 2.015,-1.799l-0,0Z" style="fill-rule:nonzero;"/><path id="path3391" d="M10.159,26.14l-0.6,1.673l-0.979,-1.484c0.442,0.347 1.231,0.253 1.579,-0.189Z" style="fill:#f00;fill-opacity:0.66;fill-rule:nonzero;"/><path d="M8.506,4.066c0.02,7.538 0.054,15.033 0.901,22.485" style="fill:none;fill-rule:nonzero;stroke:#f00;stroke-opacity:0.66;stroke-width:0.27px;"/><path id="text1155-1" d="M6.94,7.85l-0.243,0l0,-1.408c0,-0.081 0.001,-0.146 0.003,-0.195c0.002,-0.049 0.005,-0.1 0.008,-0.152c-0.03,0.03 -0.057,0.056 -0.082,0.076c-0.024,0.021 -0.056,0.047 -0.093,0.079l-0.214,0.175l-0.13,-0.167l0.545,-0.423l0.206,0l-0,2.015Z" style="fill:#f00;fill-rule:nonzero;"/><path id="path2831-5" d="M15.404,14.947l1.588,0.793l-1.587,0.794c0.397,-0.397 0.397,-1.191 -0,-1.587Z" style="fill:#f00;fill-opacity:0.66;fill-rule:nonzero;"/><path d="M6.119,15.697c2.686,0.185 6.642,0.064 9.602,0.044" style="fill:none;fill-rule:nonzero;stroke:#f00;stroke-opacity:0.66;stroke-width:0.26px;"/><path id="text1159-9" d="M15.698,18.748l-1.332,0l0,-0.206l0.528,-0.533c0.102,-0.102 0.187,-0.192 0.257,-0.271c0.07,-0.079 0.122,-0.156 0.158,-0.231c0.036,-0.077 0.054,-0.161 0.054,-0.251c0,-0.111 -0.033,-0.195 -0.099,-0.251c-0.066,-0.058 -0.151,-0.087 -0.257,-0.087c-0.098,0 -0.184,0.017 -0.26,0.051c-0.073,0.034 -0.149,0.081 -0.226,0.141l-0.133,-0.167c0.079,-0.066 0.169,-0.121 0.271,-0.167c0.103,-0.047 0.219,-0.071 0.347,-0.071c0.188,0 0.337,0.048 0.446,0.144c0.109,0.094 0.164,0.225 0.164,0.392c0,0.105 -0.022,0.204 -0.065,0.296c-0.043,0.092 -0.103,0.183 -0.181,0.274c-0.077,0.088 -0.167,0.183 -0.271,0.285l-0.421,0.415l0,0.011l1.019,0l0,0.226Z" style="fill:#f00;fill-rule:nonzero;"/></g></g></svg>