<?xml version="1.0" encoding="UTF-8" standalone="no"?><!DOCTYPE svg PUBLIC "-//W3C//DTD SVG 1.1//EN" "http://www.w3.org/Graphics/SVG/1.1/DTD/svg11.dtd"><svg width="100%" height="100%" viewBox="0 0 185 42" version="1.1" xmlns="http://www.w3.org/2000/svg" xmlns:xlink="http://www.w3.org/1999/xlink" xml:space="preserve" xmlns:serif="http://www.serif.com/" style="fill-rule:evenodd;clip-rule:evenodd;"><g><path id="path1018-7-4-8-4-9-7" d="M2.5,12.956l180,0" style="fill:none;fill-rule:nonzero;stroke:#000;stroke-opacity:0.3;stroke-width:0.25px;stroke-dasharray:0.5,0.5;"/><rect id="path4601-3-6-3-2-1" x="2.5" y="3.958" width="180" height="23.997" style="fill:none;fill-rule:nonzero;stroke:#000;stroke-opacity:0.66;stroke-width:0.25px;stroke-linecap:round;stroke-linejoin:round;"/><path id="path5452-2-5-0-5" d="M37.75,13.606c1.35,3.694 4.568,11.434 6.192,13.648m4.033,-13.58c-0.556,2.401 -3.288,11.001 -4.033,13.58c-0.7,2.424 -1.668,6.337 -3.106,10.846" style="fill:none;fill-rule:nonzero;stroke:#000;stroke-opacity:0.32;stroke-width:0.5px;stroke-linecap:round;stroke-linejoin:round;stroke-dasharray:1,1;"/><path id="path5452-2-5-0-8-4" d="M68.75,13.606c1.35,3.694 4.568,11.434 6.192,13.648m4.033,-13.58c-0.556,2.401 -3.288,11.001 -4.033,13.58c-0.7,2.424 -1.668,6.337 -3.106,10.846" style="fill:none;fill-rule:nonzero;stroke:#000;stroke-opacity:0.16;stroke-width:0.5px;stroke-linecap:round;stroke-linejoin:round;stroke-dasharray:1,1;"/><path id="path5452-2-5-0-8-0-0" d="M99.75,13.606c1.35,3.694 4.568,11.434 6.192,13.648m4.033,-13.58c-0.556,2.401 -3.288,11.001 -4.033,13.58c-0.7,2.424 -1.668,6.337 -3.106,10.846" style="fill:none;fill-rule:nonzero;stroke:#000;stroke-opacity:0.08;stroke-width:0.5px;stroke-linecap:round;stroke-linejoin:round;stroke-dasharray:1,1;"/><path id="path5452-2-5-0-8-0-3-4" d="M130.75,13.606c1.35,3.694 4.568,11.434 6.192,13.648m4.033,-13.58c-0.556,2.401 -3.288,11.001 -4.033,13.58c-0.7,2.424 -1.668,6.337 -3.106,10.846" style="fill:none;fill-rule:nonzero;stroke:#000;stroke-opacity:0.04;stroke-width:0.5px;stroke-linecap:round;stroke-linejoin:round;stroke-dasharray:1,1;"/><path id="path5452-2-5-0-8-0-3-6-4" d="M161.75,13.606c1.35,3.694 4.568,11.434 6.192,13.648m4.033,-13.58c-0.556,2.401 -3.288,11.001 -4.033,13.58c-0.7,2.424 -1.668,6.337 -3.106,10.846" style="fill:none;fill-rule:nonzero;stroke:#000;stroke-opacity:0.04;stroke-width:0.5px;stroke-linecap:round;stroke-linejoin:round;stroke-dasharray:1,1;"/><g><path id="path2831-8-9" d="M9.529,26.939l0.121,1.771l-1.489,-0.966c0.543,0.141 1.227,-0.262 1.368,-0.805Z" style="fill:#f00;fill-opacity:0.66;fill-rule:nonzero;"/><path d="M3.079,13.288c1.499,2.969 4.197,10.95 5.927,14.327" style="fill:none;fill-rule:nonzero;stroke:#f00;stroke-opacity:0.66;stroke-width:0.26px;"/><path id="text833" d="M16.703,12.479c0.312,0 0.612,0.108 0.9,0.324c0.312,0.216 0.468,0.456 0.468,0.72c0,0.696 -1.02,4.462 -3.059,11.299c-2.039,6.837 -3.55,11.635 -4.534,14.393c-0.216,0.648 -0.552,0.972 -1.008,0.972c-0.456,0 -0.816,-0.168 -1.079,-0.504c-0.264,-0.312 -0.396,-0.78 -0.396,-1.403c0,-0.624 0.396,-2.123 1.187,-4.498c0.816,-2.351 1.307,-3.85 1.475,-4.498c-0.6,-1.008 -2.627,-6.045 -6.081,-15.113c-0.048,-0.12 -0.072,-0.276 -0.072,-0.468c0,-0.192 0.144,-0.444 0.432,-0.756c0.288,-0.312 0.684,-0.468 1.187,-0.468c0.504,0 0.912,0.252 1.223,0.756c0.336,0.864 0.888,2.375 1.655,4.534c0.768,2.135 1.355,3.682 1.763,4.642c0.432,0.96 0.84,1.955 1.223,2.987c0.336,-1.127 0.912,-3.31 1.727,-6.549c0.816,-3.262 1.283,-5.122 1.403,-5.577c0.096,-0.528 0.624,-0.792 1.583,-0.792l0,-0Z" style="fill-rule:nonzero;"/><path id="text1155-1" d="M4.589,22.37l-0.243,0l0,-1.408c0,-0.081 0.001,-0.146 0.003,-0.195c0.002,-0.049 0.005,-0.1 0.008,-0.152c-0.03,0.03 -0.057,0.056 -0.082,0.076c-0.024,0.021 -0.056,0.047 -0.093,0.079l-0.214,0.175l-0.13,-0.167l0.545,-0.423l0.206,0l-0,2.015Z" style="fill:#f00;fill-rule:nonzero;"/><path id="text1159-9" d="M19.534,22.44l-1.332,0l0,-0.206l0.528,-0.533c0.102,-0.102 0.187,-0.192 0.257,-0.271c0.07,-0.079 0.122,-0.156 0.158,-0.231c0.036,-0.077 0.054,-0.161 0.054,-0.251c0,-0.111 -0.033,-0.195 -0.099,-0.251c-0.066,-0.058 -0.151,-0.087 -0.257,-0.087c-0.098,0 -0.184,0.017 -0.26,0.051c-0.073,0.034 -0.149,0.081 -0.226,0.141l-0.133,-0.167c0.079,-0.066 0.169,-0.121 0.271,-0.167c0.103,-0.047 0.219,-0.071 0.347,-0.071c0.188,0 0.337,0.048 0.446,0.144c0.109,0.094 0.164,0.225 0.164,0.392c0,0.105 -0.022,0.204 -0.065,0.296c-0.043,0.092 -0.103,0.183 -0.181,0.274c-0.077,0.088 -0.167,0.183 -0.271,0.285l-0.421,0.415l0,0.011l1.019,0l0,0.226Z" style="fill:#f00;fill-rule:nonzero;"/><path id="path2831-1" d="M12.786,37.683l-1.321,1.185l-0.155,-1.768c0.223,0.515 0.962,0.806 1.477,0.583Z" style="fill:#f00;fill-opacity:0.66;fill-rule:nonzero;"/><path d="M19.435,12.965c-0.971,2.866 -5.435,19.083 -7.504,24.722" style="fill:none;fill-rule:nonzero;stroke:#f00;stroke-opacity:0.66;stroke-width:0.26px;"/></g></g></svg>