<svg xmlns="http://www.w3.org/2000/svg" xml:space="preserve" style="fill-rule:evenodd;clip-rule:evenodd" viewBox="0 0 185 42"><path d="M2.5 13.005h180" style="fill:none;fill-rule:nonzero;stroke:#000;stroke-opacity:.3;stroke-width:.25px;stroke-dasharray:.5,.5"/><path d="M2.5 4.006h180v23.997H2.5z" style="fill:none;fill-rule:nonzero;stroke:#000;stroke-opacity:.66;stroke-width:.25px;stroke-linecap:round;stroke-linejoin:round"/><path d="M47.131 27.484c-.111-6.545.719-14.587-3.156-14.156-2.722.303-4.782 2.154-6.05 4.629m.233 9.404c.175-4.91.077-8.853-.515-13.946" style="fill:none;fill-rule:nonzero;stroke:#000;stroke-opacity:.32;stroke-width:.5px;stroke-linecap:round;stroke-linejoin:round;stroke-dasharray:1,1"/><path d="M78.131 27.484c-.111-6.545.719-14.587-3.156-14.156-2.722.303-4.782 2.154-6.05 4.629m.233 9.404c.175-4.91.077-8.853-.515-13.946" style="fill:none;fill-rule:nonzero;stroke:#000;stroke-opacity:.16;stroke-width:.5px;stroke-linecap:round;stroke-linejoin:round;stroke-dasharray:1,1"/><path d="M109.131 27.484c-.111-6.545.719-14.587-3.156-14.156-2.722.303-4.782 2.154-6.05 4.629m.233 9.404c.175-4.91.077-8.853-.515-13.946" style="fill:none;fill-rule:nonzero;stroke:#000;stroke-opacity:.08;stroke-width:.5px;stroke-linecap:round;stroke-linejoin:round;stroke-dasharray:1,1"/><path d="M140.131 27.484c-.111-6.545.719-14.587-3.156-14.156-2.722.303-4.782 2.154-6.05 4.629m.233 9.404c.175-4.91.077-8.853-.515-13.946M171.131 27.484c-.111-6.545.719-14.587-3.156-14.156-2.722.303-4.782 2.154-6.05 4.629m.233 9.404c.175-4.91.077-8.853-.515-13.946" style="fill:none;fill-rule:nonzero;stroke:#000;stroke-opacity:.04;stroke-width:.5px;stroke-linecap:round;stroke-linejoin:round;stroke-dasharray:1,1"/><path d="m6.587 28.083-.396-14.609q0-.684.468-1.115.468-.432.936-.432 1.151 0 1.331.972.144.971.144 2.015 1.943-2.555 4.858-2.555 4.462 0 4.462 10.183v2.843q0 1.87-.216 2.735-.252 1.08-1.547 1.079-.864 0-.864-1.151l.036-2.015q0-4.175-.288-5.685-.252-1.548-.504-2.447-.612-1.943-1.979-1.943-1.799 0-2.519 1.295-.792 1.404-.936 3.31a95 95 0 0 0-.252 7.089q0 .72-.54 1.151t-1.295.432q-.9 0-.9-1.151Z" style="fill-rule:nonzero"/><path d="m6.34 25.937-.805 1.585-.785-1.595c.395.4 1.19.405 1.59.01" style="fill:red;fill-opacity:.66;fill-rule:nonzero"/><path d="M5.128 12.379c.254 5.313.419 9.964.414 13.871" style="fill:none;fill-rule:nonzero;stroke:red;stroke-opacity:.66;stroke-width:.27px"/><path d="M4.021 18.049h-.243v-1.408q0-.122.003-.195l.008-.152q-.045.046-.082.076l-.093.079-.214.175-.13-.167.545-.423h.206z" style="fill:red;fill-rule:nonzero"/><path d="m20.057 25.965-.876 1.544-.71-1.627c.376.417 1.168.459 1.585.083Z" style="fill:red;fill-opacity:.66;fill-rule:nonzero"/><path d="M9.818 12.14c2.32-1.847 6.97-2.063 8.276 1.424 1.021 2.726 1.411 6.957 1.153 12.676" style="fill:none;fill-rule:nonzero;stroke:red;stroke-opacity:.66;stroke-width:.26px"/><path d="M20.382 14.031H19.05v-.206l.528-.533q.152-.153.257-.271t.158-.231a.6.6 0 0 0 .054-.251q0-.167-.099-.251a.37.37 0 0 0-.257-.087.6.6 0 0 0-.26.051 1.2 1.2 0 0 0-.226.141l-.133-.167q.118-.099.271-.167a.8.8 0 0 1 .347-.071q.282 0 .446.144a.49.49 0 0 1 .164.392.7.7 0 0 1-.065.296 1.2 1.2 0 0 1-.181.274 5 5 0 0 1-.271.285l-.421.415v.011h1.019v.226Z" style="fill:red;fill-rule:nonzero"/></svg>