<svg xmlns="http://www.w3.org/2000/svg" xml:space="preserve" style="fill-rule:evenodd;clip-rule:evenodd" viewBox="0 0 185 42"><path d="M2.5 13.044h180" style="fill:none;fill-rule:nonzero;stroke:#000;stroke-opacity:.3;stroke-width:.25px;stroke-dasharray:.5,.5"/><path d="M2.5 4.046h180v23.997H2.5z" style="fill:none;fill-rule:nonzero;stroke:#000;stroke-opacity:.66;stroke-width:.25px;stroke-linecap:round;stroke-linejoin:round"/><path d="M47.114 15.631c-3.678-3.694-9.326-1.565-9.365 5.527.201 7.57 8.481 7.347 9.58 3.186" style="fill:none;fill-rule:nonzero;stroke:#000;stroke-opacity:.32;stroke-width:.5px;stroke-linecap:round;stroke-linejoin:round;stroke-dasharray:1,1"/><path d="M47.114 14.044s.356 6.539.214 10.3c-.162 4.316.622 7.46.255 10.546-.65 5.464-6.812 4.267-8.964 2.319" style="fill:none;fill-rule:nonzero;stroke:#000;stroke-opacity:.32;stroke-width:.5px;stroke-linecap:round;stroke-linejoin:round;stroke-dasharray:1,1"/><path d="M78.114 15.631c-3.678-3.694-9.326-1.565-9.365 5.527.201 7.57 8.481 7.347 9.58 3.186" style="fill:none;fill-rule:nonzero;stroke:#000;stroke-opacity:.16;stroke-width:.5px;stroke-linecap:round;stroke-linejoin:round;stroke-dasharray:1,1"/><path d="M78.114 14.044s.356 6.539.214 10.3c-.162 4.316.622 7.46.255 10.546-.65 5.464-6.812 4.267-8.964 2.319" style="fill:none;fill-rule:nonzero;stroke:#000;stroke-opacity:.16;stroke-width:.5px;stroke-linecap:round;stroke-linejoin:round;stroke-dasharray:1,1"/><path d="M109.114 15.631c-3.678-3.694-9.326-1.565-9.365 5.527.201 7.57 8.481 7.347 9.58 3.186" style="fill:none;fill-rule:nonzero;stroke:#000;stroke-opacity:.08;stroke-width:.5px;stroke-linecap:round;stroke-linejoin:round;stroke-dasharray:1,1"/><path d="M109.114 14.044s.356 6.539.214 10.3c-.162 4.316.622 7.46.255 10.546-.65 5.464-6.812 4.267-8.964 2.319" style="fill:none;fill-rule:nonzero;stroke:#000;stroke-opacity:.08;stroke-width:.5px;stroke-linecap:round;stroke-linejoin:round;stroke-dasharray:1,1"/><path d="M140.114 15.631c-3.678-3.694-9.326-1.565-9.365 5.527.201 7.57 8.481 7.347 9.58 3.186" style="fill:none;fill-rule:nonzero;stroke:#000;stroke-opacity:.04;stroke-width:.5px;stroke-linecap:round;stroke-linejoin:round;stroke-dasharray:1,1"/><path d="M140.114 14.044s.356 6.539.214 10.3c-.162 4.316.622 7.46.255 10.546-.65 5.464-6.812 4.267-8.964 2.319M170.114 15.631c-3.678-3.694-9.326-1.565-9.365 5.527.201 7.57 8.481 7.347 9.58 3.186" style="fill:none;fill-rule:nonzero;stroke:#000;stroke-opacity:.04;stroke-width:.5px;stroke-linecap:round;stroke-linejoin:round;stroke-dasharray:1,1"/><path d="M170.114 14.044s.356 6.539.214 10.3c-.162 4.316.622 7.46.255 10.546-.65 5.464-6.812 4.267-8.964 2.319" style="fill:none;fill-rule:nonzero;stroke:#000;stroke-opacity:.04;stroke-width:.5px;stroke-linecap:round;stroke-linejoin:round;stroke-dasharray:1,1"/><path d="M14.256 27.341q-1.296 1.511-3.274 1.511-1.979 0-3.418-1.223-3.023-2.338-3.023-7.161 0-3.778 2.087-6.045 2.087-2.303 5.146-2.303t4.174 2.087q.972 1.835.972 5.541l-.072 2.951q0 2.087.18 5.793.216 3.67.216 5.541 0 3.094-1.547 4.534-1.512 1.476-4.642 1.475-1.871 0-3.814-.792-1.943-.791-1.943-1.835 0-.756.396-1.151.432-.396.972-.396t2.411.792q1.907.792 2.735.792 2.59 0 2.591-4.246 0-4.246-.144-5.865Zm-.036-7.592q0-2.627-.792-3.67-.756-1.08-2.411-1.079-1.655 0-2.663 1.511-1.008 1.512-1.008 3.85 0 2.303.936 3.67.971 1.367 2.951 1.367t2.555-1.691q.432-1.368.432-3.958" style="fill-rule:nonzero"/><path d="m11.68 28.958 1.77.165-1.194 1.317c.226-.515-.062-1.255-.576-1.482" style="fill:red;fill-opacity:.66;fill-rule:nonzero"/><path d="M15.573 12.25c-6.739-3.236-11.957 2.1-11.857 8.127.125 7.734 5.272 9.982 8.547 9.207" style="fill:none;fill-rule:nonzero;stroke:red;stroke-opacity:.66;stroke-width:.27px"/><path d="M4.342 14.319h-.243v-1.408q0-.121.003-.195l.008-.152q-.045.045-.082.076l-.093.079-.214.175-.13-.167.545-.423h.206z" style="fill:red;fill-rule:nonzero"/><path d="m6.611 40.909-1.32-1.187 1.741-.344c-.488.277-.699 1.043-.421 1.531" style="fill:red;fill-opacity:.66;fill-rule:nonzero"/><path d="M16.813 13.459c1.326 3.235.813 9.166.903 12.058.165 5.311.5 7.771.252 9.962-.641 5.684-6.604 5.783-11.453 4.581" style="fill:none;fill-rule:nonzero;stroke:red;stroke-opacity:.66;stroke-width:.26px"/><path d="M19.76 25.767h-1.332v-.206l.528-.533q.152-.153.257-.271t.158-.231a.6.6 0 0 0 .054-.251q0-.167-.099-.251a.37.37 0 0 0-.257-.087.6.6 0 0 0-.26.051 1.2 1.2 0 0 0-.226.141l-.133-.167q.118-.098.271-.167a.8.8 0 0 1 .347-.071q.282 0 .446.144a.49.49 0 0 1 .164.392.7.7 0 0 1-.065.296 1.2 1.2 0 0 1-.181.274 5 5 0 0 1-.271.285l-.421.415v.011h1.019v.226Z" style="fill:red;fill-rule:nonzero"/></svg>