<svg xmlns="http://www.w3.org/2000/svg" xml:space="preserve" style="fill-rule:evenodd;clip-rule:evenodd" viewBox="0 0 185 42"><path d="M2.5 12.956h180" style="fill:none;fill-rule:nonzero;stroke:#000;stroke-opacity:.3;stroke-width:.25px;stroke-dasharray:.5,.5"/><path d="M2.5 3.958h180v23.997H2.5z" style="fill:none;fill-rule:nonzero;stroke:#000;stroke-opacity:.66;stroke-width:.25px;stroke-linecap:round;stroke-linejoin:round"/><path d="M47.276 15.929c-.477-3.144-9.404-5.448-9.275 4.77.271 10.31 8.958 7.237 9.279-.191" style="fill:none;fill-rule:nonzero;stroke:#000;stroke-opacity:.32;stroke-width:.5px;stroke-linecap:round;stroke-linejoin:round;stroke-dasharray:1,1"/><path d="M47.25 12.915s.017 1.453.026 3.014c-.047 1.475.004 4.579.004 4.579l.426 7.228" style="fill:none;fill-rule:nonzero;stroke:#000;stroke-opacity:.32;stroke-width:.5px;stroke-linecap:round;stroke-linejoin:round;stroke-dasharray:1,1"/><path d="M78.276 15.929c-.477-3.144-9.404-5.448-9.275 4.77.271 10.31 8.958 7.237 9.279-.191" style="fill:none;fill-rule:nonzero;stroke:#000;stroke-opacity:.16;stroke-width:.5px;stroke-linecap:round;stroke-linejoin:round;stroke-dasharray:1,1"/><path d="M78.25 12.915s.017 1.453.026 3.014c-.047 1.475.004 4.579.004 4.579l.426 7.228" style="fill:none;fill-rule:nonzero;stroke:#000;stroke-opacity:.16;stroke-width:.5px;stroke-linecap:round;stroke-linejoin:round;stroke-dasharray:1,1"/><path d="M109.276 15.929c-.477-3.144-9.404-5.448-9.275 4.77.271 10.31 8.958 7.237 9.279-.191" style="fill:none;fill-rule:nonzero;stroke:#000;stroke-opacity:.08;stroke-width:.5px;stroke-linecap:round;stroke-linejoin:round;stroke-dasharray:1,1"/><path d="M109.25 12.915s.017 1.453.026 3.014c-.047 1.475.004 4.579.004 4.579l.426 7.228" style="fill:none;fill-rule:nonzero;stroke:#000;stroke-opacity:.08;stroke-width:.5px;stroke-linecap:round;stroke-linejoin:round;stroke-dasharray:1,1"/><path d="M140.276 15.929c-.477-3.144-9.404-5.448-9.275 4.77.271 10.31 8.958 7.237 9.279-.191" style="fill:none;fill-rule:nonzero;stroke:#000;stroke-opacity:.04;stroke-width:.5px;stroke-linecap:round;stroke-linejoin:round;stroke-dasharray:1,1"/><path d="M140.25 12.915s.017 1.453.026 3.014c-.047 1.475.004 4.579.004 4.579l.426 7.228M171.276 15.929c-.477-3.144-9.404-5.448-9.275 4.77.271 10.31 8.958 7.237 9.279-.191" style="fill:none;fill-rule:nonzero;stroke:#000;stroke-opacity:.04;stroke-width:.5px;stroke-linecap:round;stroke-linejoin:round;stroke-dasharray:1,1"/><path d="M171.25 12.915s.017 1.453.026 3.014c-.047 1.475.004 4.579.004 4.579l.426 7.228" style="fill:none;fill-rule:nonzero;stroke:#000;stroke-opacity:.04;stroke-width:.5px;stroke-linecap:round;stroke-linejoin:round;stroke-dasharray:1,1"/><path d="M15.968 11.793q1.583 0 1.583 2.699v.612l-.072 2.519a77 77 0 0 0-.036 2.339l.54 8.132q0 .9-1.835.9h-.54q-.396 0-.576-.324-.144-.324-.036-.792.144-.468-.072-1.044-1.655 1.763-4.39 1.763-5.074 0-5.074-7.844 0-4.354 1.619-6.585 1.655-2.23 4.714-2.231 1.44 0 2.879.504.468-.648 1.295-.648Zm-3.742 3.274q-2.05 0-3.059 1.187-1.008 1.188-1.008 4.354 0 5.326 2.879 5.326.756 0 1.655-.684.936-.684 1.295-1.547.684-1.943.684-4.246t-.576-3.346q-.54-1.044-1.871-1.044Z" style="fill-rule:nonzero"/><path d="m12.336 28.793 1.775-.101-.984 1.481c.147-.543-.248-1.232-.791-1.379Z" style="fill:red;fill-opacity:.66;fill-rule:nonzero"/><path d="M14.397 11.208c-6.568-1.391-9.84 1.685-10.021 9.917-.021 8.833 5.42 9.608 8.632 8.2" style="fill:none;fill-rule:nonzero;stroke:red;stroke-opacity:.66;stroke-width:.27px"/><path d="m19.807 27.12-.576 1.682-1-1.47c.447.341 1.235.235 1.576-.212" style="fill:red;fill-opacity:.66;fill-rule:nonzero"/><path d="M18.831 12.12c-.559 4.773-.231 11.534.23 15.421" style="fill:none;fill-rule:nonzero;stroke:red;stroke-opacity:.66;stroke-width:.27px"/><path d="M3.559 16.389h-.243v-1.408q0-.122.003-.195l.008-.152q-.045.045-.082.076l-.093.079-.214.175-.13-.167.545-.423h.206zM20.88 20.989h-1.332v-.206l.528-.533q.152-.153.257-.271t.158-.231a.6.6 0 0 0 .054-.251q0-.167-.099-.251a.37.37 0 0 0-.257-.087.6.6 0 0 0-.26.051 1.2 1.2 0 0 0-.226.141l-.133-.167q.118-.098.271-.167a.8.8 0 0 1 .347-.071q.282 0 .446.144a.49.49 0 0 1 .164.392.7.7 0 0 1-.065.296 1.2 1.2 0 0 1-.181.274 5 5 0 0 1-.271.285l-.421.415v.011h1.019v.226Z" style="fill:red;fill-rule:nonzero"/></svg>