<?xml version="1.0" encoding="UTF-8" standalone="no"?><!DOCTYPE svg PUBLIC "-//W3C//DTD SVG 1.1//EN" "http://www.w3.org/Graphics/SVG/1.1/DTD/svg11.dtd"><svg width="100%" height="100%" viewBox="0 0 185 42" version="1.1" xmlns="http://www.w3.org/2000/svg" xmlns:xlink="http://www.w3.org/1999/xlink" xml:space="preserve" xmlns:serif="http://www.serif.com/" style="fill-rule:evenodd;clip-rule:evenodd;"><g><path id="path1018-7-4-8-4-9-7" d="M2.5,13.005l180,0" style="fill:none;fill-rule:nonzero;stroke:#000;stroke-opacity:0.3;stroke-width:0.25px;stroke-dasharray:0.5,0.5;"/><rect id="path4601-3-6-3-2-1" x="2.5" y="4.006" width="180" height="23.997" style="fill:none;fill-rule:nonzero;stroke:#000;stroke-opacity:0.66;stroke-width:0.25px;stroke-linecap:round;stroke-linejoin:round;"/><path id="path5452-78-1-0-2" d="M37.755,13.355c0.111,6.545 -0.719,14.587 3.156,14.156c2.722,-0.303 4.782,-2.154 6.05,-4.629m-0.233,-9.404c-0.175,4.91 -0.052,9.059 0.54,14.153" style="fill:none;fill-rule:nonzero;stroke:#000;stroke-opacity:0.32;stroke-width:0.5px;stroke-linecap:round;stroke-linejoin:round;stroke-dasharray:1,1;"/><path id="path5452-78-1-0-3-61" d="M68.755,13.355c0.111,6.545 -0.719,14.587 3.156,14.156c2.722,-0.303 4.782,-2.154 6.05,-4.629m-0.233,-9.404c-0.175,4.91 -0.052,9.059 0.54,14.153" style="fill:none;fill-rule:nonzero;stroke:#000;stroke-opacity:0.16;stroke-width:0.5px;stroke-linecap:round;stroke-linejoin:round;stroke-dasharray:1,1;"/><path id="path5452-78-1-0-3-6-8" d="M99.755,13.355c0.111,6.545 -0.719,14.587 3.156,14.156c2.722,-0.303 4.782,-2.154 6.05,-4.629m-0.233,-9.404c-0.175,4.91 -0.052,9.059 0.54,14.153" style="fill:none;fill-rule:nonzero;stroke:#000;stroke-opacity:0.08;stroke-width:0.5px;stroke-linecap:round;stroke-linejoin:round;stroke-dasharray:1,1;"/><path id="path5452-78-1-0-3-6-0-7" d="M130.755,13.355c0.111,6.545 -0.719,14.587 3.156,14.156c2.722,-0.303 4.782,-2.154 6.05,-4.629m-0.233,-9.404c-0.175,4.91 -0.052,9.059 0.54,14.153" style="fill:none;fill-rule:nonzero;stroke:#000;stroke-opacity:0.04;stroke-width:0.5px;stroke-linecap:round;stroke-linejoin:round;stroke-dasharray:1,1;"/><path id="path5452-78-1-0-3-6-0-6-9" d="M161.755,13.355c0.111,6.545 -0.719,14.587 3.156,14.156c2.722,-0.303 4.782,-2.154 6.05,-4.629m-0.233,-9.404c-0.175,4.91 -0.052,9.059 0.54,14.153" style="fill:none;fill-rule:nonzero;stroke:#000;stroke-opacity:0.04;stroke-width:0.5px;stroke-linecap:round;stroke-linejoin:round;stroke-dasharray:1,1;"/><g><path id="path3391-3" d="M19.799,26.433l-0.4,1.732l-1.146,-1.359c0.48,0.293 1.252,0.106 1.546,-0.373Z" style="fill:#f00;fill-opacity:0.66;fill-rule:nonzero;"/><path d="M17.964,12.453c0.112,5.221 0.343,10.703 1.138,14.476" style="fill:none;fill-rule:nonzero;stroke:#f00;stroke-opacity:0.66;stroke-width:0.27px;"/><path id="text833" d="M5.549,13.871c0.096,-0.408 0.3,-0.744 0.612,-1.008c0.312,-0.288 0.624,-0.432 0.936,-0.432c0.336,0 0.588,0.06 0.756,0.18c0.192,0.12 0.3,0.228 0.324,0.324c0.048,0.096 0.096,0.264 0.144,0.504c-0.144,1.871 -0.216,3.562 -0.216,5.074c0,1.487 0.18,3.203 0.54,5.146c0.36,1.919 0.756,2.879 1.187,2.879c0.648,0 1.463,-0.36 2.447,-1.079c1.008,-0.72 1.727,-1.475 2.159,-2.267c-0.288,-3.454 -0.432,-6.417 -0.432,-8.888c0,-0.504 0.156,-0.936 0.468,-1.295c0.336,-0.36 0.732,-0.54 1.187,-0.54c0.744,0 1.115,0.504 1.115,1.511c0,1.703 0.12,4.234 0.36,7.592c0.264,3.358 0.528,5.493 0.792,6.405c0.048,0.192 0.072,0.42 0.072,0.684c0,0.24 -0.168,0.468 -0.504,0.684c-0.312,0.24 -0.732,0.36 -1.259,0.36c-0.504,0 -0.84,-0.288 -1.008,-0.864c-0.048,-0.48 -0.168,-1.199 -0.36,-2.159c-1.679,1.751 -3.37,2.627 -5.074,2.627c-0.792,0 -1.499,-0.3 -2.123,-0.9c-0.624,-0.6 -1.115,-1.415 -1.475,-2.447c-0.624,-1.991 -0.936,-3.862 -0.936,-5.613c0,-1.751 0.096,-3.91 0.288,-6.477l-0,-0Z" style="fill-rule:nonzero;"/><path id="text1155-1" d="M4.146,26.936l-0.243,0l0,-1.408c0,-0.081 0.001,-0.146 0.003,-0.195c0.002,-0.049 0.005,-0.1 0.008,-0.152c-0.03,0.03 -0.057,0.056 -0.082,0.076c-0.024,0.021 -0.056,0.047 -0.093,0.079l-0.214,0.175l-0.13,-0.167l0.545,-0.423l0.206,0l-0,2.015Z" style="fill:#f00;fill-rule:nonzero;"/><path id="path2831-4" d="M12.366,28.179l1.76,-0.231l-0.871,1.547c0.107,-0.551 -0.338,-1.209 -0.889,-1.315Z" style="fill:#f00;fill-opacity:0.66;fill-rule:nonzero;"/><path d="M4.48,13.029c-0.731,8.525 0.16,11.713 1.142,13.64c1.785,3.503 4.425,3.823 7.451,1.99" style="fill:none;fill-rule:nonzero;stroke:#f00;stroke-opacity:0.66;stroke-width:0.26px;"/><path id="text1159-1" d="M20.602,18.939l-1.332,0l0,-0.206l0.528,-0.533c0.102,-0.102 0.187,-0.192 0.257,-0.271c0.07,-0.079 0.122,-0.156 0.158,-0.231c0.036,-0.077 0.054,-0.161 0.054,-0.251c0,-0.111 -0.033,-0.195 -0.099,-0.251c-0.066,-0.058 -0.151,-0.087 -0.257,-0.087c-0.098,0 -0.184,0.017 -0.26,0.051c-0.073,0.034 -0.149,0.081 -0.226,0.141l-0.133,-0.167c0.079,-0.066 0.169,-0.121 0.271,-0.167c0.103,-0.047 0.219,-0.071 0.347,-0.071c0.188,0 0.337,0.048 0.446,0.144c0.109,0.094 0.164,0.225 0.164,0.392c0,0.105 -0.022,0.204 -0.065,0.296c-0.043,0.092 -0.103,0.183 -0.181,0.274c-0.077,0.088 -0.167,0.183 -0.271,0.285l-0.421,0.415l0,0.011l1.019,0l0,0.226Z" style="fill:#f00;fill-rule:nonzero;"/></g></g></svg>