<svg xmlns="http://www.w3.org/2000/svg" xml:space="preserve" style="fill-rule:evenodd;clip-rule:evenodd" viewBox="0 0 185 42"><path d="M2.5 13.005h180" style="fill:none;fill-rule:nonzero;stroke:#000;stroke-opacity:.3;stroke-width:.25px;stroke-dasharray:.5,.5"/><path d="M2.5 4.006h180v23.997H2.5z" style="fill:none;fill-rule:nonzero;stroke:#000;stroke-opacity:.66;stroke-width:.25px;stroke-linecap:round;stroke-linejoin:round"/><path d="M38.575 13.705c1.812 2.916 8.031 12.099 9.355 13.845m.143-13.837C46.53 16.44 38.89 24.666 37.56 27.574" style="fill:none;fill-rule:nonzero;stroke:#000;stroke-opacity:.32;stroke-width:.5px;stroke-linecap:round;stroke-linejoin:round;stroke-dasharray:1,1"/><path d="M69.575 13.705c1.812 2.916 8.031 12.099 9.355 13.845m.143-13.837C77.53 16.44 69.89 24.666 68.56 27.574" style="fill:none;fill-rule:nonzero;stroke:#000;stroke-opacity:.16;stroke-width:.5px;stroke-linecap:round;stroke-linejoin:round;stroke-dasharray:1,1"/><path d="M100.575 13.705c1.812 2.916 8.031 12.099 9.355 13.845m.143-13.837c-1.543 2.727-9.183 10.953-10.513 13.861" style="fill:none;fill-rule:nonzero;stroke:#000;stroke-opacity:.08;stroke-width:.5px;stroke-linecap:round;stroke-linejoin:round;stroke-dasharray:1,1"/><path d="M131.575 13.705c1.812 2.916 8.031 12.099 9.355 13.845m.143-13.837c-1.543 2.727-9.183 10.953-10.513 13.861M162.575 13.705c1.812 2.916 8.031 12.099 9.355 13.845m.143-13.837c-1.543 2.727-9.183 10.953-10.513 13.861" style="fill:none;fill-rule:nonzero;stroke:#000;stroke-opacity:.04;stroke-width:.5px;stroke-linecap:round;stroke-linejoin:round;stroke-dasharray:1,1"/><path d="m14.066 26.554.401 1.729-1.624-.717c.559.053 1.17-.453 1.223-1.012" style="fill:red;fill-opacity:.66;fill-rule:nonzero"/><path d="M5.179 13.192c1.529 1.998 6.252 10.963 8.478 14.113" style="fill:none;fill-rule:nonzero;stroke:red;stroke-opacity:.66;stroke-width:.26px"/><path d="m9.267 12.998 2.951 5.182a24 24 0 0 0 2.303-2.951l1.511-2.231q.432-.612 1.044-.612.648 0 1.044.396.396.36.396.9 0 .503-1.511 2.807a64 64 0 0 1-3.238 4.426q.324.503 1.439 2.339a32.5 32.5 0 0 0 2.447 3.49q.252.396.252.972 0 .54-.432 1.008t-.972.468q-.9 0-2.339-1.979a28 28 0 0 1-2.555-4.39 63 63 0 0 0-2.123 3.095q-1.008 1.619-1.583 2.375-.54.72-1.223.72-.648 0-1.044-.396a1.4 1.4 0 0 1-.36-.972q0-1.403 5.038-7.089-.611-1.188-2.231-3.706-1.619-2.519-1.619-3.095t.468-1.008q.504-.432 1.223-.432.756 0 1.115.684Z" style="fill-rule:nonzero"/><path d="M4.721 16.954h-.243v-1.408q0-.121.003-.195l.008-.152q-.045.045-.082.076l-.093.079-.214.175-.13-.167.545-.423h.206zM13.782 12.1H12.45v-.206l.528-.533q.152-.153.257-.271.104-.119.158-.231a.6.6 0 0 0 .054-.251q0-.167-.099-.251a.37.37 0 0 0-.257-.087.6.6 0 0 0-.26.051 1.2 1.2 0 0 0-.226.141l-.133-.167q.118-.098.271-.167a.8.8 0 0 1 .347-.071q.282 0 .446.144a.49.49 0 0 1 .164.392.7.7 0 0 1-.065.296 1.2 1.2 0 0 1-.181.274 5 5 0 0 1-.271.285l-.421.415v.011h1.019v.226Z" style="fill:red;fill-rule:nonzero"/><path d="m5.512 25.758-1.431 1.05.019-1.775c.172.534.878.897 1.412.725" style="fill:red;fill-opacity:.66;fill-rule:nonzero"/><path d="M14.954 12.186c-1.111 2.4-8.016 9.724-10.292 13.492" style="fill:none;fill-rule:nonzero;stroke:red;stroke-opacity:.66;stroke-width:.26px"/></svg>