<svg xmlns="http://www.w3.org/2000/svg" xml:space="preserve" style="fill-rule:evenodd;clip-rule:evenodd" viewBox="0 0 185 42"><path d="M2.5 12.956h180" style="fill:none;fill-rule:nonzero;stroke:#000;stroke-opacity:.3;stroke-width:.25px;stroke-dasharray:.5,.5"/><path d="M2.5 3.958h180v23.997H2.5z" style="fill:none;fill-rule:nonzero;stroke:#000;stroke-opacity:.66;stroke-width:.25px;stroke-linecap:round;stroke-linejoin:round"/><path d="M37.905 25.023c5.415 5.005 11.062 1.949 11.15-4.924.084-6.53-7.153-9.399-11.181-3.226m-.018-3.355-.107 24.961" style="fill:none;fill-rule:nonzero;stroke:#000;stroke-opacity:.32;stroke-width:.5px;stroke-linecap:round;stroke-linejoin:round;stroke-dasharray:1,1"/><path d="M68.905 25.023c5.415 5.005 11.062 1.949 11.15-4.924.084-6.53-7.153-9.399-11.181-3.226m-.018-3.355-.107 24.961" style="fill:none;fill-rule:nonzero;stroke:#000;stroke-opacity:.16;stroke-width:.5px;stroke-linecap:round;stroke-linejoin:round;stroke-dasharray:1,1"/><path d="M99.905 25.023c5.415 5.005 11.062 1.949 11.15-4.924.084-6.53-7.153-9.399-11.181-3.226m-.018-3.355-.107 24.961" style="fill:none;fill-rule:nonzero;stroke:#000;stroke-opacity:.08;stroke-width:.5px;stroke-linecap:round;stroke-linejoin:round;stroke-dasharray:1,1"/><path d="M130.905 25.023c5.415 5.005 11.062 1.949 11.15-4.924.084-6.53-7.153-9.399-11.181-3.226m-.018-3.355-.107 24.961M161.905 25.023c5.415 5.005 11.062 1.949 11.15-4.924.084-6.53-7.153-9.399-11.181-3.226m-.018-3.355-.107 24.961" style="fill:none;fill-rule:nonzero;stroke:#000;stroke-opacity:.04;stroke-width:.5px;stroke-linecap:round;stroke-linejoin:round;stroke-dasharray:1,1"/><path d="M11.327 29.305q-1.224 0-2.267-.828l-.468-.396v10.795a2.47 2.47 0 0 1-.756 1.187q-.54.504-1.151.504-.936 0-.936-1.259v-25.08q.216-.936.504-1.331.324-.396.972-.396.684 0 .864.324.216.288.504 1.655.144-.72 1.151-1.331 1.008-.612 2.699-.612 3.67 0 5.218 2.663t1.547 6.297q0 3.599-2.123 5.721-2.087 2.087-5.757 2.087ZM8.592 18.51v6.693q.216.108.504.36 1.043.936 2.267.936 4.965 0 4.966-5.11 0-4.355-2.231-5.505-.936-.504-2.303-.504a3.7 3.7 0 0 0-2.267 1.187q-.936.971-.936 1.943" style="fill-rule:nonzero"/><path d="m10.879 31.664-1.39-1.109 1.721-.447c-.472.306-.637 1.084-.331 1.555Z" style="fill:red;fill-opacity:.66;fill-rule:nonzero"/><path d="M9.095 11.634c6.013-2.208 10.918.61 10.913 9.119-.004 5.706-3.917 10.78-9.274 10.067" style="fill:none;fill-rule:nonzero;stroke:red;stroke-opacity:.66;stroke-width:.27px"/><path d="M3.823 16.096H3.58v-1.408q0-.122.003-.195l.008-.152q-.045.045-.082.076l-.093.079-.214.175-.13-.167.545-.423h.206z" style="fill:red;fill-rule:nonzero"/><path d="m5.336 37.18-.82 1.577-.77-1.602c.391.404 1.186.416 1.59.025" style="fill:red;fill-opacity:.66;fill-rule:nonzero"/><path d="M4.591 12.928c-.033 3.511-.002 19.341-.055 24.558" style="fill:none;fill-rule:nonzero;stroke:red;stroke-opacity:.66;stroke-width:.27px"/><path d="M17.369 10.634h-1.332v-.206l.528-.533q.152-.153.257-.271.104-.119.158-.231a.6.6 0 0 0 .054-.251q0-.167-.099-.251a.37.37 0 0 0-.257-.087.6.6 0 0 0-.26.051 1.2 1.2 0 0 0-.226.141l-.133-.167q.118-.099.271-.167a.8.8 0 0 1 .347-.071q.282 0 .446.144a.49.49 0 0 1 .164.392.7.7 0 0 1-.065.296 1.2 1.2 0 0 1-.181.274 5 5 0 0 1-.271.285l-.421.415v.011h1.019v.226Z" style="fill:red;fill-rule:nonzero"/></svg>