<svg xmlns="http://www.w3.org/2000/svg" xml:space="preserve" style="fill-rule:evenodd;clip-rule:evenodd" viewBox="0 0 185 42"><path d="M2.5 12.956h180" style="fill:none;fill-rule:nonzero;stroke:#000;stroke-opacity:.3;stroke-width:.25px;stroke-dasharray:.5,.5"/><path d="M2.5 3.958h180v23.997H2.5z" style="fill:none;fill-rule:nonzero;stroke:#000;stroke-opacity:.66;stroke-width:.25px;stroke-linecap:round;stroke-linejoin:round"/><path d="M47.096 14.056c-3.441-1.058-6.101-1.019-8.411 4.12m-.934-4.719c.502 2.3.606 3.051.934 4.719.16 1.76.467 4.68.366 9.349" style="fill:none;fill-rule:nonzero;stroke:#000;stroke-opacity:.32;stroke-width:.5px;stroke-linecap:round;stroke-linejoin:round;stroke-dasharray:1,1"/><path d="M78.096 14.056c-3.441-1.058-6.101-1.019-8.411 4.12m-.934-4.719c.502 2.3.606 3.051.934 4.719.16 1.76.467 4.68.366 9.349" style="fill:none;fill-rule:nonzero;stroke:#000;stroke-opacity:.16;stroke-width:.5px;stroke-linecap:round;stroke-linejoin:round;stroke-dasharray:1,1"/><path d="M109.096 14.056c-3.441-1.058-6.101-1.019-8.411 4.12m-.934-4.719c.502 2.3.606 3.051.934 4.719.16 1.76.467 4.68.366 9.349" style="fill:none;fill-rule:nonzero;stroke:#000;stroke-opacity:.08;stroke-width:.5px;stroke-linecap:round;stroke-linejoin:round;stroke-dasharray:1,1"/><path d="M140.096 14.056c-3.441-1.058-6.101-1.019-8.411 4.12m-.934-4.719c.502 2.3.606 3.051.934 4.719.16 1.76.467 4.68.366 9.349M171.096 14.056c-3.441-1.058-6.101-1.019-8.411 4.12m-.934-4.719c.502 2.3.606 3.051.934 4.719.16 1.76.467 4.68.366 9.349" style="fill:none;fill-rule:nonzero;stroke:#000;stroke-opacity:.04;stroke-width:.5px;stroke-linecap:round;stroke-linejoin:round;stroke-dasharray:1,1"/><path d="m9.658 24.066.036 3.706q0 .648-.612 1.187-.576.54-1.151.54-.828 0-1.044-1.295-.036-.288-.288-5.254-.252-5.001-.972-7.844-.324-1.368-.324-1.619 0-1.187 1.439-1.187.612 0 .972.468t.432.972q.108.468.18 1.295.072.828.108 1.044.755-1.799 2.267-2.699t3.31-.9q2.95 0 2.951 1.511 0 .756-.54 1.223a1.77 1.77 0 0 1-1.187.432q-3.058 0-4.318 1.943-1.26 1.942-1.259 6.477" style="fill-rule:nonzero"/><path d="m15.121 10.125 1.389 1.11-1.721.445c.472-.306.638-1.083.332-1.555" style="fill:red;fill-opacity:.66;fill-rule:nonzero"/><path d="M9.014 12.699c1.939-1.601 4.289-1.992 6.252-1.73" style="fill:none;fill-rule:nonzero;stroke:red;stroke-opacity:.66;stroke-width:.27px"/><path d="M3.49 18.094h-.243v-1.408q0-.122.003-.195l.008-.152q-.045.046-.082.076l-.093.079-.214.175-.13-.167.545-.423h.206z" style="fill:red;fill-rule:nonzero"/><path d="m6.427 26.349-.805 1.585-.785-1.595c.395.4 1.19.405 1.59.01" style="fill:red;fill-opacity:.66;fill-rule:nonzero"/><path d="M3.909 12.622c1.232 3 1.687 10.307 1.721 14.041" style="fill:none;fill-rule:nonzero;stroke:red;stroke-opacity:.66;stroke-width:.27px"/><path d="M12.838 10.046h-1.332V9.84l.528-.533q.153-.153.257-.271t.158-.231a.6.6 0 0 0 .054-.251q0-.167-.099-.251a.37.37 0 0 0-.257-.087.6.6 0 0 0-.26.051 1.2 1.2 0 0 0-.226.141l-.133-.167q.118-.099.271-.167a.8.8 0 0 1 .347-.071q.282 0 .446.144a.49.49 0 0 1 .164.392.7.7 0 0 1-.065.296 1.2 1.2 0 0 1-.181.274 5 5 0 0 1-.271.285l-.421.415v.011h1.019z" style="fill:red;fill-rule:nonzero"/></svg>