<?xml version="1.0" encoding="UTF-8" standalone="no"?><!DOCTYPE svg PUBLIC "-//W3C//DTD SVG 1.1//EN" "http://www.w3.org/Graphics/SVG/1.1/DTD/svg11.dtd"><svg width="100%" height="100%" viewBox="0 0 185 42" version="1.1" xmlns="http://www.w3.org/2000/svg" xmlns:xlink="http://www.w3.org/1999/xlink" xml:space="preserve" xmlns:serif="http://www.serif.com/" style="fill-rule:evenodd;clip-rule:evenodd;"><g><path id="path1018-7-4-8-4-9-7" d="M2.5,13.005l180,0" style="fill:none;fill-rule:nonzero;stroke:#000;stroke-opacity:0.3;stroke-width:0.25px;stroke-dasharray:0.5,0.5;"/><rect id="path4601-3-6-3-2-1" x="2.5" y="4.006" width="180" height="23.997" style="fill:none;fill-rule:nonzero;stroke:#000;stroke-opacity:0.66;stroke-width:0.25px;stroke-linecap:round;stroke-linejoin:round;"/><path id="path5452-78-1-0-4" d="M37.75,13.848c3.424,5.489 5.492,11.919 5.785,13.583c0.714,-2.103 2.9,-11.607 4.345,-14.025" style="fill:none;fill-rule:nonzero;stroke:#000;stroke-opacity:0.32;stroke-width:0.5px;stroke-linecap:round;stroke-linejoin:round;stroke-dasharray:1,1;"/><path id="path5452-78-1-0-9-7" d="M68.75,13.848c3.424,5.489 5.492,11.919 5.785,13.583c0.714,-2.103 2.9,-11.607 4.345,-14.025" style="fill:none;fill-rule:nonzero;stroke:#000;stroke-opacity:0.16;stroke-width:0.5px;stroke-linecap:round;stroke-linejoin:round;stroke-dasharray:1,1;"/><path id="path5452-78-1-0-9-3-8" d="M99.75,13.848c3.424,5.489 5.492,11.919 5.785,13.583c0.714,-2.103 2.9,-11.607 4.345,-14.025" style="fill:none;fill-rule:nonzero;stroke:#000;stroke-opacity:0.08;stroke-width:0.5px;stroke-linecap:round;stroke-linejoin:round;stroke-dasharray:1,1;"/><path id="path5452-78-1-0-9-3-1-4" d="M130.75,13.848c3.424,5.489 5.492,11.919 5.785,13.583c0.714,-2.103 2.9,-11.607 4.345,-14.025" style="fill:none;fill-rule:nonzero;stroke:#000;stroke-opacity:0.04;stroke-width:0.5px;stroke-linecap:round;stroke-linejoin:round;stroke-dasharray:1,1;"/><path id="path5452-78-1-0-9-3-1-9-5" d="M161.75,13.848c3.424,5.489 5.492,11.919 5.785,13.583c0.714,-2.103 2.9,-11.607 4.345,-14.025" style="fill:none;fill-rule:nonzero;stroke:#000;stroke-opacity:0.04;stroke-width:0.5px;stroke-linecap:round;stroke-linejoin:round;stroke-dasharray:1,1;"/><g><path id="path3391-3" d="M18.309,13.72l1.352,-1.154l0.112,1.774c-0.211,-0.521 -0.943,-0.831 -1.464,-0.62Z" style="fill:#f00;fill-opacity:0.66;fill-rule:nonzero;"/><path d="M14.97,27.637c0.922,-4.278 2.672,-10.126 4.195,-13.9" style="fill:none;fill-rule:nonzero;stroke:#f00;stroke-opacity:0.66;stroke-width:0.27px;"/><path id="text833" d="M17.465,11.857c0.336,0 0.588,0.12 0.756,0.36c0.168,0.216 0.252,0.456 0.252,0.72l-0.036,0.36c-1.008,2.567 -1.751,4.654 -2.231,6.261c-0.312,1.127 -0.552,1.967 -0.72,2.519c-0.144,0.552 -0.396,1.523 -0.756,2.915c-0.36,1.391 -0.6,2.291 -0.72,2.699c-0.336,0.816 -0.924,1.223 -1.763,1.223c-0.408,0 -0.696,-0.264 -0.864,-0.792c-0.768,-2.399 -1.895,-5.11 -3.382,-8.132c-1.487,-3.023 -2.339,-4.75 -2.555,-5.182c-0.192,-0.456 -0.288,-0.864 -0.288,-1.223c0,-0.36 0.156,-0.708 0.468,-1.044c0.336,-0.336 0.708,-0.504 1.115,-0.504c0.408,0 0.756,0.216 1.044,0.648c0.264,0.528 1.008,2.003 2.231,4.426c1.247,2.423 2.123,4.33 2.627,5.721c0.024,-0.144 0.108,-0.444 0.252,-0.9c1.223,-4.246 2.219,-7.281 2.987,-9.104c0.408,-0.648 0.936,-0.972 1.583,-0.972l-0,-0Z" style="fill-rule:nonzero;"/><path id="text1155-1" d="M4.807,20.902l-0.243,0l0,-1.408c0,-0.081 0.001,-0.146 0.003,-0.195c0.002,-0.049 0.005,-0.1 0.008,-0.152c-0.03,0.03 -0.057,0.056 -0.082,0.076c-0.024,0.021 -0.056,0.047 -0.093,0.079l-0.214,0.175l-0.13,-0.167l0.545,-0.423l0.206,0l-0,2.015Z" style="fill:#f00;fill-rule:nonzero;"/><path id="path2831-4" d="M10.52,25.978l-0.22,1.761l-1.277,-1.233c0.506,0.242 1.255,-0.022 1.497,-0.529Z" style="fill:#f00;fill-opacity:0.66;fill-rule:nonzero;"/><path d="M3.63,13.126c2.696,5.069 4.89,9.731 6.247,13.416" style="fill:none;fill-rule:nonzero;stroke:#f00;stroke-opacity:0.66;stroke-width:0.26px;"/><path id="text1159-1" d="M19.93,20.407l-1.332,0l0,-0.206l0.528,-0.533c0.102,-0.102 0.187,-0.192 0.257,-0.271c0.07,-0.079 0.122,-0.156 0.158,-0.231c0.036,-0.077 0.054,-0.161 0.054,-0.251c0,-0.111 -0.033,-0.195 -0.099,-0.251c-0.066,-0.058 -0.151,-0.087 -0.257,-0.087c-0.098,0 -0.184,0.017 -0.26,0.051c-0.073,0.034 -0.149,0.081 -0.226,0.141l-0.133,-0.167c0.079,-0.066 0.169,-0.121 0.271,-0.167c0.103,-0.047 0.219,-0.071 0.347,-0.071c0.188,0 0.337,0.048 0.446,0.144c0.109,0.094 0.164,0.225 0.164,0.392c0,0.105 -0.022,0.204 -0.065,0.296c-0.043,0.092 -0.103,0.183 -0.181,0.274c-0.077,0.088 -0.167,0.183 -0.271,0.285l-0.421,0.415l0,0.011l1.019,0l-0,0.226Z" style="fill:#f00;fill-rule:nonzero;"/></g></g></svg>