<svg xmlns="http://www.w3.org/2000/svg" xml:space="preserve" style="fill-rule:evenodd;clip-rule:evenodd" viewBox="0 0 185 42"><path d="M2.5 13.005h180" style="fill:none;fill-rule:nonzero;stroke:#000;stroke-opacity:.3;stroke-width:.25px;stroke-dasharray:.5,.5"/><path d="M2.5 4.006h180v23.997H2.5z" style="fill:none;fill-rule:nonzero;stroke:#000;stroke-opacity:.66;stroke-width:.25px;stroke-linecap:round;stroke-linejoin:round"/><path d="M37.75 13.705c-.018 5.397.827 9.684 2.463 13.592 2.108-2.646 2.596-4.242 4.059-7.613 1.032 2.87 2.442 4.886 3.615 7.782 1.96-3.217 2.758-9.084 2.214-13.791" style="fill:none;fill-rule:nonzero;stroke:#000;stroke-opacity:.32;stroke-width:.5px;stroke-linecap:round;stroke-linejoin:round;stroke-dasharray:1,1"/><path d="M68.75 13.705c-.018 5.397.827 9.684 2.463 13.592 2.108-2.646 2.596-4.242 4.059-7.613 1.032 2.87 2.442 4.886 3.615 7.782 1.96-3.217 2.758-9.084 2.214-13.791" style="fill:none;fill-rule:nonzero;stroke:#000;stroke-opacity:.16;stroke-width:.5px;stroke-linecap:round;stroke-linejoin:round;stroke-dasharray:1,1"/><path d="M99.75 13.705c-.018 5.397.827 9.684 2.463 13.592 2.108-2.646 2.596-4.242 4.059-7.613 1.032 2.87 2.442 4.886 3.615 7.782 1.96-3.217 2.758-9.084 2.214-13.791" style="fill:none;fill-rule:nonzero;stroke:#000;stroke-opacity:.08;stroke-width:.5px;stroke-linecap:round;stroke-linejoin:round;stroke-dasharray:1,1"/><path d="M130.75 13.705c-.018 5.397.827 9.684 2.463 13.592 2.108-2.646 2.596-4.242 4.059-7.613 1.032 2.87 2.442 4.886 3.615 7.782 1.96-3.217 2.758-9.084 2.214-13.791M161.75 13.705c-.018 5.397.827 9.684 2.463 13.592 2.108-2.646 2.596-4.242 4.059-7.613 1.032 2.87 2.442 4.886 3.615 7.782 1.96-3.217 2.758-9.084 2.214-13.791" style="fill:none;fill-rule:nonzero;stroke:#000;stroke-opacity:.04;stroke-width:.5px;stroke-linecap:round;stroke-linejoin:round;stroke-dasharray:1,1"/><path d="M8.983 28.981q-1.224 0-2.375-4.75-1.116-4.786-1.115-10.723 0-.612.504-.936.54-.36.972-.36t.684.288q.288.252.288.684 0 5.614 1.907 10.795.288-.432.9-1.727.612-1.332 1.151-1.943.54-.612 1.295-.612.756 0 1.583 1.115.828 1.116 1.403 2.411.612 1.26.684 1.331.972-3.023.972-5.613l-.216-5.469q-.036-.54.504-.9.54-.396 1.044-.396 1.044 0 1.044 4.066v1.979q0 4.822-1.475 8.6-.791 2.159-1.979 2.159-.684 0-1.259-.864-.576-.9-1.295-2.519-.72-1.619-1.115-2.231l-1.079 2.123q-.612 1.26-.936 1.835-.324.54-.9 1.115-.576.54-1.187.54Z" style="fill-rule:nonzero"/><path d="M3.823 16.717H3.58v-1.408q0-.121.003-.195l.008-.152q-.045.045-.082.076l-.093.079-.214.175-.13-.167.545-.423h.206z" style="fill:red;fill-rule:nonzero"/><path d="m20.347 14.08.709-1.627.876 1.544c-.417-.375-1.21-.334-1.585.084Z" style="fill:red;fill-opacity:.66;fill-rule:nonzero"/><path d="M4.367 12.841c.025 3.493.796 9.69 1.604 12.325.894 2.915 1.236 3.998 3.065 4.063 2.362.01 4.01-4.521 4.01-4.521s1.7 4.632 3.945 4.526c1.355-.064 2.49-1.665 3.152-4.08.805-2.937 1.249-5.619.981-11.433" style="fill:none;fill-rule:nonzero;stroke:red;stroke-opacity:.66;stroke-width:.26px"/></svg>