<?xml version="1.0" encoding="UTF-8" standalone="no"?><!DOCTYPE svg PUBLIC "-//W3C//DTD SVG 1.1//EN" "http://www.w3.org/Graphics/SVG/1.1/DTD/svg11.dtd"><svg width="100%" height="100%" viewBox="0 0 185 42" version="1.1" xmlns="http://www.w3.org/2000/svg" xmlns:xlink="http://www.w3.org/1999/xlink" xml:space="preserve" xmlns:serif="http://www.serif.com/" style="fill-rule:evenodd;clip-rule:evenodd;"><g><path id="path1018-7-4-8-4-9-7" d="M2.5,13.044l180,0" style="fill:none;fill-rule:nonzero;stroke:#000;stroke-opacity:0.3;stroke-width:0.25px;stroke-dasharray:0.5,0.5;"/><rect id="path4601-3-6-3-2-1" x="2.5" y="4.046" width="180" height="23.997" style="fill:none;fill-rule:nonzero;stroke:#000;stroke-opacity:0.66;stroke-width:0.25px;stroke-linecap:round;stroke-linejoin:round;"/><path id="path5452-78-7-2" d="M47.114,15.631c-3.678,-3.694 -9.326,-1.565 -9.365,5.527c0.201,7.57 8.481,7.347 9.58,3.186" style="fill:none;fill-rule:nonzero;stroke:#000;stroke-opacity:0.32;stroke-width:0.5px;stroke-linecap:round;stroke-linejoin:round;stroke-dasharray:1,1;"/><path id="path5452-2-5-0-3" d="M47.114,14.044c0,0 0.356,6.539 0.214,10.3c-0.162,4.316 0.622,7.46 0.255,10.546c-0.65,5.464 -6.812,4.267 -8.964,2.319" style="fill:none;fill-rule:nonzero;stroke:#000;stroke-opacity:0.32;stroke-width:0.5px;stroke-linecap:round;stroke-linejoin:round;stroke-dasharray:1,1;"/><path id="path5452-78-7-3-5" d="M78.114,15.631c-3.678,-3.694 -9.326,-1.565 -9.365,5.527c0.201,7.57 8.481,7.347 9.58,3.186" style="fill:none;fill-rule:nonzero;stroke:#000;stroke-opacity:0.16;stroke-width:0.5px;stroke-linecap:round;stroke-linejoin:round;stroke-dasharray:1,1;"/><path id="path5452-2-5-0-6-9" d="M78.114,14.044c0,0 0.356,6.539 0.214,10.3c-0.162,4.316 0.622,7.46 0.255,10.546c-0.65,5.464 -6.812,4.267 -8.964,2.319" style="fill:none;fill-rule:nonzero;stroke:#000;stroke-opacity:0.16;stroke-width:0.5px;stroke-linecap:round;stroke-linejoin:round;stroke-dasharray:1,1;"/><path id="path5452-78-7-3-6-2" d="M109.114,15.631c-3.678,-3.694 -9.326,-1.565 -9.365,5.527c0.201,7.57 8.481,7.347 9.58,3.186" style="fill:none;fill-rule:nonzero;stroke:#000;stroke-opacity:0.08;stroke-width:0.5px;stroke-linecap:round;stroke-linejoin:round;stroke-dasharray:1,1;"/><path id="path5452-2-5-0-6-2-89" d="M109.114,14.044c0,0 0.356,6.539 0.214,10.3c-0.162,4.316 0.622,7.46 0.255,10.546c-0.65,5.464 -6.812,4.267 -8.964,2.319" style="fill:none;fill-rule:nonzero;stroke:#000;stroke-opacity:0.08;stroke-width:0.5px;stroke-linecap:round;stroke-linejoin:round;stroke-dasharray:1,1;"/><path id="path5452-78-7-3-6-1-6" d="M140.114,15.631c-3.678,-3.694 -9.326,-1.565 -9.365,5.527c0.201,7.57 8.481,7.347 9.58,3.186" style="fill:none;fill-rule:nonzero;stroke:#000;stroke-opacity:0.04;stroke-width:0.5px;stroke-linecap:round;stroke-linejoin:round;stroke-dasharray:1,1;"/><path id="path5452-2-5-0-6-2-8-1" d="M140.114,14.044c0,0 0.356,6.539 0.214,10.3c-0.162,4.316 0.622,7.46 0.255,10.546c-0.65,5.464 -6.812,4.267 -8.964,2.319" style="fill:none;fill-rule:nonzero;stroke:#000;stroke-opacity:0.04;stroke-width:0.5px;stroke-linecap:round;stroke-linejoin:round;stroke-dasharray:1,1;"/><path id="path5452-78-7-3-6-1-9-9" d="M170.114,15.631c-3.678,-3.694 -9.326,-1.565 -9.365,5.527c0.201,7.57 8.481,7.347 9.58,3.186" style="fill:none;fill-rule:nonzero;stroke:#000;stroke-opacity:0.04;stroke-width:0.5px;stroke-linecap:round;stroke-linejoin:round;stroke-dasharray:1,1;"/><path id="path5452-2-5-0-6-2-8-2-3" d="M170.114,14.044c0,0 0.356,6.539 0.214,10.3c-0.162,4.316 0.622,7.46 0.255,10.546c-0.65,5.464 -6.812,4.267 -8.964,2.319" style="fill:none;fill-rule:nonzero;stroke:#000;stroke-opacity:0.04;stroke-width:0.5px;stroke-linecap:round;stroke-linejoin:round;stroke-dasharray:1,1;"/><g><path id="text833" d="M14.256,27.341c-0.864,1.008 -1.955,1.511 -3.274,1.511c-1.319,0 -2.459,-0.408 -3.418,-1.223c-2.015,-1.559 -3.023,-3.946 -3.023,-7.161c0,-2.519 0.696,-4.534 2.087,-6.045c1.391,-1.535 3.107,-2.303 5.146,-2.303c2.039,0 3.43,0.696 4.174,2.087c0.648,1.223 0.972,3.071 0.972,5.541l-0.072,2.951c0,1.391 0.06,3.322 0.18,5.793c0.144,2.447 0.216,4.294 0.216,5.541c0,2.063 -0.516,3.574 -1.547,4.534c-1.008,0.984 -2.555,1.475 -4.642,1.475c-1.247,0 -2.519,-0.264 -3.814,-0.792c-1.295,-0.528 -1.943,-1.139 -1.943,-1.835c0,-0.504 0.132,-0.888 0.396,-1.151c0.288,-0.264 0.612,-0.396 0.972,-0.396c0.36,0 1.163,0.264 2.411,0.792c1.271,0.528 2.183,0.792 2.735,0.792c1.727,0 2.591,-1.415 2.591,-4.246c0,-2.831 -0.048,-4.786 -0.144,-5.865l0,0Zm-0.036,-7.592c0,-1.751 -0.264,-2.975 -0.792,-3.67c-0.504,-0.72 -1.307,-1.079 -2.411,-1.079c-1.103,0 -1.991,0.504 -2.663,1.511c-0.672,1.008 -1.008,2.291 -1.008,3.85c0,1.535 0.312,2.759 0.936,3.67c0.648,0.912 1.631,1.367 2.951,1.367c1.319,0 2.171,-0.564 2.555,-1.691c0.288,-0.912 0.432,-2.231 0.432,-3.958Z" style="fill-rule:nonzero;"/><path id="path3391" d="M11.68,28.958l1.77,0.165l-1.194,1.317c0.226,-0.515 -0.062,-1.255 -0.576,-1.482Z" style="fill:#f00;fill-opacity:0.66;fill-rule:nonzero;"/><path d="M15.573,12.25c-6.739,-3.236 -11.957,2.1 -11.857,8.127c0.125,7.734 5.272,9.982 8.547,9.207" style="fill:none;fill-rule:nonzero;stroke:#f00;stroke-opacity:0.66;stroke-width:0.27px;"/><path id="text1155-1" d="M4.342,14.319l-0.243,0l0,-1.408c0,-0.081 0.001,-0.146 0.003,-0.195c0.002,-0.049 0.005,-0.1 0.008,-0.152c-0.03,0.03 -0.057,0.055 -0.082,0.076c-0.024,0.021 -0.056,0.047 -0.093,0.079l-0.214,0.175l-0.13,-0.167l0.545,-0.423l0.206,0l-0,2.015Z" style="fill:#f00;fill-rule:nonzero;"/><path id="path2831-5" d="M6.611,40.909l-1.32,-1.187l1.741,-0.344c-0.488,0.277 -0.699,1.043 -0.421,1.531Z" style="fill:#f00;fill-opacity:0.66;fill-rule:nonzero;"/><path d="M16.813,13.459c1.326,3.235 0.813,9.166 0.903,12.058c0.165,5.311 0.5,7.771 0.252,9.962c-0.641,5.684 -6.604,5.783 -11.453,4.581" style="fill:none;fill-rule:nonzero;stroke:#f00;stroke-opacity:0.66;stroke-width:0.26px;"/><path id="text1159-9" d="M19.76,25.767l-1.332,0l0,-0.206l0.528,-0.533c0.102,-0.102 0.187,-0.192 0.257,-0.271c0.07,-0.079 0.122,-0.156 0.158,-0.231c0.036,-0.077 0.054,-0.161 0.054,-0.251c0,-0.111 -0.033,-0.195 -0.099,-0.251c-0.066,-0.058 -0.151,-0.087 -0.257,-0.087c-0.098,0 -0.184,0.017 -0.26,0.051c-0.073,0.034 -0.149,0.081 -0.226,0.141l-0.133,-0.167c0.079,-0.066 0.169,-0.121 0.271,-0.167c0.103,-0.047 0.219,-0.071 0.347,-0.071c0.188,0 0.337,0.048 0.446,0.144c0.109,0.094 0.164,0.225 0.164,0.392c0,0.105 -0.022,0.204 -0.065,0.296c-0.043,0.092 -0.103,0.183 -0.181,0.274c-0.077,0.088 -0.167,0.183 -0.271,0.285l-0.421,0.415l0,0.011l1.019,0l0,0.226Z" style="fill:#f00;fill-rule:nonzero;"/></g></g></svg>