<svg xmlns="http://www.w3.org/2000/svg" xml:space="preserve" style="fill-rule:evenodd;clip-rule:evenodd" viewBox="0 0 185 42"><path d="M2.5 13.005h180" style="fill:none;fill-rule:nonzero;stroke:#000;stroke-opacity:.3;stroke-width:.25px;stroke-dasharray:.5,.5"/><path d="M2.5 4.006h180v23.997H2.5z" style="fill:none;fill-rule:nonzero;stroke:#000;stroke-opacity:.66;stroke-width:.25px;stroke-linecap:round;stroke-linejoin:round"/><path d="M56.456 27.671c.493-6.623.64-13.912-4.32-14.116-3.288-.135-4.442 1.487-5.184 4.422m.044 9.508c.288-6.635.847-13.947-4.145-13.978-3.191-.02-3.818 1.731-4.56 4.666m.233 9.404c.175-4.91-.181-8.979-.774-14.072" style="fill:none;fill-rule:nonzero;stroke:#000;stroke-opacity:.32;stroke-width:.5px;stroke-linecap:round;stroke-linejoin:round;stroke-dasharray:1,1"/><path d="M87.456 27.671c.493-6.623.64-13.912-4.32-14.116-3.288-.135-4.442 1.487-5.184 4.422m.044 9.508c.288-6.635.847-13.947-4.145-13.978-3.191-.02-3.818 1.731-4.56 4.666m.233 9.404c.175-4.91-.181-8.979-.774-14.072" style="fill:none;fill-rule:nonzero;stroke:#000;stroke-opacity:.16;stroke-width:.5px;stroke-linecap:round;stroke-linejoin:round;stroke-dasharray:1,1"/><path d="M118.456 27.671c.493-6.623.64-13.912-4.32-14.116-3.288-.135-4.442 1.487-5.184 4.422m.044 9.508c.288-6.635.847-13.947-4.145-13.978-3.191-.02-3.818 1.731-4.56 4.666m.233 9.404c.175-4.91-.181-8.979-.774-14.072" style="fill:none;fill-rule:nonzero;stroke:#000;stroke-opacity:.08;stroke-width:.5px;stroke-linecap:round;stroke-linejoin:round;stroke-dasharray:1,1"/><path d="M149.456 27.671c.493-6.623.64-13.912-4.32-14.116-3.288-.135-4.442 1.487-5.184 4.422m.044 9.508c.288-6.635.847-13.947-4.145-13.978-3.191-.02-3.818 1.731-4.56 4.666m.233 9.404c.175-4.91-.181-8.979-.774-14.072M180.456 27.671c.493-6.623.64-13.912-4.32-14.116-3.288-.135-4.442 1.487-5.184 4.422m.044 9.508c.288-6.635.847-13.947-4.145-13.978-3.191-.02-3.818 1.731-4.56 4.666m.233 9.404c.175-4.91-.181-8.979-.774-14.072" style="fill:none;fill-rule:nonzero;stroke:#000;stroke-opacity:.04;stroke-width:.5px;stroke-linecap:round;stroke-linejoin:round;stroke-dasharray:1,1"/><path d="M7.314 29.077q-.936 0-1.115-1.044 0-7.269-.864-12.954 0-.72.504-1.295.54-.576 1.187-.576.684 0 1.008.756 1.332-1.763 3.562-1.763 2.842 0 4.39 2.735 1.799-2.59 4.75-2.591 2.986 0 4.462 2.375.971 1.476 1.367 3.886t.396 6.837q0 1.727-.36 2.699-.36.936-1.511.936-.936 0-.936-1.187l.108-4.498q0-8.096-4.21-8.096-1.332 0-1.871.936a5.9 5.9 0 0 0-.72 2.339 59 59 0 0 0-.144 3.922v5.218q0 .576-.576.972t-1.187.396q-.792 0-1.008-1.044l.108-7.449q0-3.958-1.331-4.93-.647-.468-1.979-.468-1.296 0-1.943.972-.612.971-.612 3.131l.216 6.693q0 3.095-1.691 3.095Z" style="fill-rule:nonzero"/><path d="m5.879 25.97-.778 1.598-.812-1.582c.402.393 1.197.385 1.59-.017Z" style="fill:red;fill-opacity:.66;fill-rule:nonzero"/><path d="M4.255 13.6c.69 5.266.79 9.023.833 12.696" style="fill:none;fill-rule:nonzero;stroke:red;stroke-opacity:.66;stroke-width:.27px"/><path d="M3.36 18.611h-.243v-1.408q0-.122.003-.195l.008-.152q-.045.046-.082.076l-.093.079-.214.175-.13-.167.545-.423h.206z" style="fill:red;fill-rule:nonzero"/><path d="m14.394 25.803-.841 1.563-.745-1.611c.385.409 1.178.433 1.587.048Z" style="fill:red;fill-opacity:.66;fill-rule:nonzero"/><path d="M10.011 16.445c.939-1.503 3.28-1.438 3.523 1.479.176 2.105.193 3.502.057 8.172" style="fill:none;fill-rule:nonzero;stroke:red;stroke-opacity:.66;stroke-width:.26px"/><path d="M12.789 20.623h-1.332v-.206l.528-.533q.152-.153.257-.271t.158-.231a.6.6 0 0 0 .054-.251q0-.167-.099-.251a.37.37 0 0 0-.257-.087.6.6 0 0 0-.26.051 1.2 1.2 0 0 0-.226.141l-.133-.167q.118-.098.271-.167a.8.8 0 0 1 .347-.071q.282 0 .446.144a.49.49 0 0 1 .164.392.7.7 0 0 1-.065.296 1.2 1.2 0 0 1-.181.274 5 5 0 0 1-.271.285l-.421.415v.011h1.019z" style="fill:red;fill-rule:nonzero"/><path d="m24.001 25.66-.886 1.538-.699-1.631c.373.42 1.165.466 1.585.093" style="fill:red;fill-opacity:.66;fill-rule:nonzero"/><path d="M18.403 27.266c.321-2.861-1.337-11.98 2.037-11.604 2.588.288 2.996 5.205 2.749 10.268" style="fill:none;fill-rule:nonzero;stroke:red;stroke-opacity:.66;stroke-width:.26px"/><path d="M21.916 19.331a.46.46 0 0 1-.113.325.56.56 0 0 1-.305.158v.011q.243.029.361.152a.45.45 0 0 1 .119.325.6.6 0 0 1-.082.313.55.55 0 0 1-.254.212 1.1 1.1 0 0 1-.437.076q-.157 0-.294-.025a.9.9 0 0 1-.26-.085v-.231q.127.062.274.099.147.034.282.034.271 0 .389-.104a.37.37 0 0 0 .121-.294q0-.189-.15-.271a.84.84 0 0 0-.415-.085h-.195v-.212h.198q.249 0 .375-.104a.34.34 0 0 0 .13-.277.27.27 0 0 0-.099-.226.4.4 0 0 0-.268-.082.7.7 0 0 0-.279.048 1.5 1.5 0 0 0-.229.121l-.124-.169q.107-.084.265-.147.161-.062.364-.062.316 0 .468.141a.47.47 0 0 1 .155.358Z" style="fill:red;fill-rule:nonzero"/></svg>